<svg xmlns="http://www.w3.org/2000/svg" version="1.1" viewBox="0 0 500 500">
<g stroke-width="3.00" fill="none" stroke-linecap="butt">
<path stroke="#f5f5ff" vector-effect="non-scaling-stroke" d="   M 215.96 190.75   C 216.68 194.67 222.73 190.59 224.78 189.69   A 0.76 0.55 -19.6 0 0 225.26 189.00   Q 225.12 188.29 225.42 187.69   A 1.17 0.45 -3.7 0 1 226.26 187.30   L 233.25 186.26   A 1.02 0.82 -86.1 0 0 233.96 185.49   L 234.90 181.18   A 0.76 0.76 -89.4 0 1 235.48 180.61   L 245.75 178.43"/>
<path stroke="#b0b8ff" vector-effect="non-scaling-stroke" d="   M 245.75 178.43   L 247.26 181.10   A 1.24 0.60 69.4 0 0 247.90 181.71   Q 248.56 181.86 249.25 181.71"/>
<path stroke="#f5f5ff" vector-effect="non-scaling-stroke" d="   M 249.25 181.71   Q 249.36 184.00 251.84 183.59   Q 258.76 182.43 264.96 185.62   A 0.88 0.84 -67.2 0 0 266.15 185.10   L 271.03 170.65"/>
<path stroke="#b0b8ff" vector-effect="non-scaling-stroke" d="   M 271.03 170.65   L 276.17 186.47   A 1.46 0.76 19.7 0 0 276.77 187.12   L 278.60 188.21"/>
<path stroke="#f5f5ff" vector-effect="non-scaling-stroke" d="   M 278.60 188.21   Q 282.14 191.12 286.99 191.81   A 0.93 0.93 12.4 0 0 288.01 191.16   Q 292.68 175.93 297.03 160.76   Q 297.60 158.74 296.07 158.50   A 1.04 0.48 4.0 0 1 295.27 158.06   Q 295.19 157.77 295.27 157.36"/>
<path stroke="#b0b8ff" vector-effect="non-scaling-stroke" d="   M 295.27 157.36   Q 291.41 154.68 286.65 154.15   A 0.62 0.51 10.4 0 0 286.01 154.51   L 280.83 171.82   Q 280.59 172.62 280.32 171.73   L 274.01 150.75   A 1.09 0.66 82.2 0 0 273.44 150.04   L 264.98 147.55   A 0.52 0.45 -73.2 0 0 264.40 147.92   L 256.11 175.83   Q 255.85 176.69 255.42 175.88   L 240.82 148.19   A 0.81 0.79 -17.8 0 0 240.00 147.78   L 229.99 149.18   A 0.82 0.75 -87.0 0 0 229.34 149.82   L 222.48 181.74   Q 222.14 183.30 221.45 181.81   L 209.46 156.05   A 0.67 0.55 65.1 0 0 208.69 155.68   L 201.00 159.23   A 0.61 0.60 -25.1 0 0 200.70 160.03   Q 207.66 175.21 214.72 190.30   Q 215.07 191.05 215.96 190.75"/>
<path stroke="#a6aeff" vector-effect="non-scaling-stroke" d="   M 295.27 157.36   L 285.83 189.20   A 0.55 0.52 13.1 0 1 285.21 189.56   L 278.60 188.21"/>
<path stroke="#a6aeff" vector-effect="non-scaling-stroke" d="   M 271.03 170.65   L 269.79 165.81   Q 269.49 164.64 269.14 165.84   L 264.12 182.91   A 0.60 0.53 15.9 0 1 263.41 183.25   C 257.76 181.74 255.25 180.72 249.25 181.71"/>
<path stroke="#a6aeff" vector-effect="non-scaling-stroke" d="   M 245.75 178.43   Q 245.63 177.36 245.13 176.81   A 1.09 0.83 -21.3 0 0 244.26 176.56   L 233.50 178.03   A 0.86 0.62 -2.0 0 0 232.80 178.57   L 231.87 183.57   A 0.73 0.56 -1.0 0 1 231.26 184.06   L 223.75 185.05   A 0.54 0.34 -10.1 0 0 223.24 185.51   L 223.59 186.69   A 0.68 0.48 -22.4 0 1 223.18 187.34   L 215.96 190.75"/>
<path stroke="#f5f5ff" vector-effect="non-scaling-stroke" d="   M 175.75 186.54   L 177.80 188.27   A 0.72 0.60 -44.5 0 0 178.65 188.20   L 184.50 183.21"/>
<path stroke="#b0b8ff" vector-effect="non-scaling-stroke" d="   M 184.50 183.21   L 200.21 201.75"/>
<path stroke="#f5f5ff" vector-effect="non-scaling-stroke" d="   M 200.21 201.75   Q 200.86 202.87 202.01 203.51   A 0.86 0.80 -49.0 0 0 202.93 203.41   L 208.89 198.63   A 0.83 0.74 -29.6 0 0 209.18 197.78   Q 208.70 196.29 207.29 195.50"/>
<path stroke="#b0b8ff" vector-effect="non-scaling-stroke" d="   M 207.29 195.50   L 192.21 177.00"/>
<path stroke="#f5f5ff" vector-effect="non-scaling-stroke" d="   M 192.21 177.00   L 198.68 171.87   A 0.97 0.85 -24.4 0 0 199.04 171.07   Q 198.88 169.53 197.29 168.75"/>
<path stroke="#b0b8ff" vector-effect="non-scaling-stroke" d="   M 197.29 168.75   L 192.90 163.32   A 0.49 0.46 50.9 0 0 192.23 163.23   L 171.37 180.39   A 0.59 0.50 -39.8 0 0 171.24 181.16   L 175.75 186.54"/>
<path stroke="#a6aeff" vector-effect="non-scaling-stroke" d="   M 197.29 168.75   L 190.96 174.25   A 0.80 0.67 -32.1 0 0 190.70 175.05   Q 191.11 176.25 192.21 177.00"/>
<path stroke="#a6aeff" vector-effect="non-scaling-stroke" d="   M 207.29 195.50   L 200.21 201.75"/>
<path stroke="#a6aeff" vector-effect="non-scaling-stroke" d="   M 184.50 183.21   L 183.06 181.37   A 0.60 0.46 -38.6 0 0 182.30 181.38   L 175.75 186.54"/>
<path stroke="#f5f5ff" vector-effect="non-scaling-stroke" d="   M 307.12 209.48   Q 307.91 210.29 307.93 210.54   A 1.17 1.08 -15.3 0 0 309.56 211.38   L 341.01 197.27   A 0.72 0.59 -20.3 0 0 341.44 196.54   Q 341.11 195.21 339.75 194.71"/>
<path stroke="#b0b8ff" vector-effect="non-scaling-stroke" d="   M 339.75 194.71   Q 336.81 190.80 333.13 187.58   A 0.78 0.74 -35.8 0 0 332.31 187.47   L 314.53 195.66"/>
<path stroke="#f5f5ff" vector-effect="non-scaling-stroke" d="   M 314.53 195.66   L 323.57 178.67   A 0.80 0.62 -55.1 0 0 323.53 177.82   L 321.95 176.15"/>
<path stroke="#b0b8ff" vector-effect="non-scaling-stroke" d="   M 321.95 176.15   Q 319.26 171.95 315.35 168.54   A 0.44 0.42 -56.1 0 0 314.69 168.69   L 298.19 200.19   A 0.82 0.78 40.5 0 0 298.28 201.06   Q 302.19 205.98 307.12 209.48"/>
<path stroke="#a6aeff" vector-effect="non-scaling-stroke" d="   M 321.95 176.15   L 309.73 197.82   Q 309.48 198.27 309.99 198.11   Q 312.67 197.29 314.53 195.66"/>
<path stroke="#a6aeff" vector-effect="non-scaling-stroke" d="   M 339.75 194.71   L 307.12 209.48"/>
<path stroke="#f5f5ff" vector-effect="non-scaling-stroke" d="   M 160.47 216.91   Q 168.26 222.73 174.81 215.62   C 175.27 215.12 175.79 215.05 176.29 215.50"/>
<path stroke="#b0b8ff" vector-effect="non-scaling-stroke" d="   M 176.29 215.50   L 172.01 222.84   A 0.52 0.47 32.2 0 0 172.19 223.49   L 174.60 225.11"/>
<path stroke="#f5f5ff" vector-effect="non-scaling-stroke" d="   M 174.60 225.11   Q 178.36 228.16 182.71 226.23   C 187.64 224.04 197.68 211.66 190.54 206.50"/>
<path stroke="#b0b8ff" vector-effect="non-scaling-stroke" d="   M 190.54 206.50   Q 185.60 195.45 175.90 200.84   C 173.27 202.29 165.05 211.20 163.51 205.02   A 1.35 0.49 -59.6 0 1 163.66 204.20   Q 164.82 201.39 167.76 202.27   A 0.86 0.58 -63.8 0 0 168.56 201.81   L 173.25 194.00   A 0.70 0.59 25.3 0 0 172.84 193.11   C 159.68 187.87 147.69 208.99 160.47 216.91"/>
<path stroke="#a6aeff" vector-effect="non-scaling-stroke" d="   M 190.54 206.50   Q 191.30 223.21 174.60 225.11"/>
<path stroke="#a6aeff" vector-effect="non-scaling-stroke" d="   M 176.29 215.50   L 176.74 215.15   A 1.26 1.11 28.7 0 1 177.69 214.94   Q 181.46 215.61 182.29 211.73   A 1.41 1.13 38.8 0 0 182.08 210.77   Q 180.14 207.79 177.05 210.35   C 172.19 214.37 167.65 219.11 160.47 216.91"/>
<path stroke="#b0b8ff" vector-effect="non-scaling-stroke" d="   M 189.82 262.94   C 192.49 289.43 214.28 313.60 241.00 316.99   C 248.88 318.00 260.06 317.62 268.10 314.89   C 311.28 300.27 325.58 245.88 294.09 212.18   C 262.10 177.94 206.86 191.49 192.35 235.30   C 189.58 243.66 188.97 254.43 189.82 262.94"/>
<path stroke="#f5f5ff" vector-effect="non-scaling-stroke" d="   M 317.25 226.46   L 318.29 228.25"/>
<path stroke="#b0b8ff" vector-effect="non-scaling-stroke" d="   M 318.29 228.25   L 318.02 228.48   A 0.68 0.55 66.3 0 0 317.85 229.10   C 319.47 235.82 322.29 243.79 322.02 250.69   Q 321.67 259.42 321.47 268.15   C 321.41 270.36 320.33 271.88 319.81 274.01   A 0.98 0.65 32.5 0 0 320.17 274.82   L 323.63 277.87   A 0.83 0.62 34.1 0 1 323.91 278.68   L 319.71 288.98   A 0.81 0.68 -75.5 0 1 319.00 289.49   L 314.01 289.20   A 0.86 0.71 -75.8 0 0 313.26 289.75   L 309.94 297.93   A 0.49 0.40 -74.5 0 0 310.23 298.59   L 312.75 298.79"/>
<path stroke="#f5f5ff" vector-effect="non-scaling-stroke" d="   M 312.75 298.79   Q 312.96 299.35 312.75 300.05   A 0.37 0.30 -78.7 0 0 313.00 300.53   L 347.81 301.93   A 0.87 0.78 15.6 0 0 348.53 301.57   Q 351.39 297.17 352.62 292.05   A 0.92 0.76 -65.1 0 0 352.40 291.20   L 350.79 289.75"/>
<path stroke="#b0b8ff" vector-effect="non-scaling-stroke" d="   M 350.79 289.75   L 330.27 271.01"/>
<path stroke="#f5f5ff" vector-effect="non-scaling-stroke" d="   M 330.27 271.01   Q 331.24 265.54 330.84 259.99   A 0.47 0.41 88.6 0 1 331.26 259.48   L 357.94 260.89   A 0.63 0.60 -88.8 0 0 358.58 260.25   L 358.49 252.25   A 0.37 0.28 -16.6 0 0 357.97 252.05   Q 356.56 252.75 356.85 249.59"/>
<path stroke="#b0b8ff" vector-effect="non-scaling-stroke" d="   M 356.85 249.59   Q 340.81 248.56 324.82 248.08   Q 324.67 248.07 324.61 247.98   A 0.18 0.14 -22.4 0 1 324.74 247.75   L 329.50 246.70"/>
<path stroke="#f5f5ff" vector-effect="non-scaling-stroke" d="   M 329.50 246.70   C 331.58 246.59 329.50 240.54 329.27 239.48   A 1.35 1.34 -13.0 0 1 330.28 237.88   L 354.91 232.06   A 1.02 0.92 74.3 0 0 355.54 230.79   C 355.06 229.28 354.17 223.24 352.29 223.75"/>
<path stroke="#b0b8ff" vector-effect="non-scaling-stroke" d="   M 352.29 223.75   Q 352.38 221.90 351.14 220.81   A 1.09 0.82 -25.4 0 0 350.26 220.63   L 326.24 225.94"/>
<path stroke="#f5f5ff" vector-effect="non-scaling-stroke" d="   M 326.24 225.94   Q 337.22 219.29 348.88 214.07   A 0.81 0.74 -12.6 0 0 349.37 213.37   Q 349.38 211.19 347.25 211.46"/>
<path stroke="#b0b8ff" vector-effect="non-scaling-stroke" d="   M 347.25 211.46   L 343.26 203.35   A 0.52 0.51 63.7 0 0 342.58 203.11   L 312.67 217.89   A 0.76 0.72 -26.6 0 0 312.31 218.87   C 312.81 219.87 316.04 227.75 317.25 226.46"/>
<path stroke="#a6aeff" vector-effect="non-scaling-stroke" d="   M 347.25 211.46   L 317.25 226.46"/>
<path stroke="#a6aeff" vector-effect="non-scaling-stroke" d="   M 326.24 225.94   Q 322.63 227.70 318.29 228.25"/>
<path stroke="#a6aeff" vector-effect="non-scaling-stroke" d="   M 352.29 223.75   L 353.41 229.24   A 0.52 0.46 78.4 0 1 353.07 229.83   L 327.75 235.99   A 0.55 0.42 77.2 0 0 327.47 236.61   L 329.50 246.70"/>
<path stroke="#a6aeff" vector-effect="non-scaling-stroke" d="   M 356.85 249.59   L 356.60 258.44   A 0.57 0.56 2.5 0 1 356.00 258.98   L 330.50 257.98   A 1.58 1.47 -87.7 0 0 328.97 259.50   L 328.58 268.76   A 1.11 0.23 -85.6 0 0 328.70 269.72   L 330.27 271.01"/>
<path stroke="#a6aeff" vector-effect="non-scaling-stroke" d="   M 350.79 289.75   L 346.66 299.49   A 0.78 0.72 11.1 0 1 345.94 299.93   L 312.75 298.79"/>
<path stroke="#f5f5ff" vector-effect="non-scaling-stroke" d="   M 177.00 238.54   L 176.75 239.21"/>
<path stroke="#b0b8ff" vector-effect="non-scaling-stroke" d="   M 176.75 239.21   L 164.41 246.11   A 0.45 0.43 64.8 0 1 163.80 245.87   C 159.58 235.11 145.62 236.94 143.00 248.02   Q 142.29 251.01 142.52 266.20   A 0.53 0.52 1.1 0 0 143.03 266.72   L 145.25 266.79"/>
<path stroke="#f5f5ff" vector-effect="non-scaling-stroke" d="   M 145.25 266.79   Q 145.36 267.51 145.21 268.13   A 0.42 0.39 -80.0 0 0 145.54 268.65   Q 156.79 269.78 160.94 269.14   Q 167.60 268.10 174.32 269.01   Q 176.61 269.33 178.95 269.22   A 0.57 0.47 -1.2 0 0 179.50 268.75   L 179.50 260.75   A 0.41 0.37 -8.0 0 0 178.99 260.41   Q 178.11 260.64 177.29 260.50"/>
<path stroke="#b0b8ff" vector-effect="non-scaling-stroke" d="   M 177.29 260.50   L 177.24 258.06   A 0.60 0.48 2.0 0 0 176.69 257.58   L 170.72 257.17"/>
<path stroke="#f5f5ff" vector-effect="non-scaling-stroke" d="   M 170.72 257.17   Q 174.39 253.70 178.77 252.12   A 1.09 1.06 -9.1 0 0 179.48 251.16   C 179.57 249.14 179.28 241.09 180.77 240.96   A 0.89 0.59 1.3 0 0 181.50 240.50   L 183.68 232.73   A 0.57 0.44 16.1 0 0 183.26 232.16   Q 182.17 231.82 181.46 231.00"/>
<path stroke="#b0b8ff" vector-effect="non-scaling-stroke" d="   M 181.46 231.00   C 181.84 230.27 181.72 229.81 180.90 229.58   Q 165.19 225.02 148.85 220.30   A 0.66 0.63 -74.1 0 0 148.06 220.77   L 145.79 228.51   A 0.93 0.81 -74.0 0 0 146.31 229.63   L 177.00 238.54"/>
<path stroke="#a6aeff" vector-effect="non-scaling-stroke" d="   M 181.46 231.00   L 179.21 238.09   A 1.12 0.77 -83.8 0 1 178.62 238.78   Q 177.87 239.02 177.00 238.54"/>
<path stroke="#a6aeff" vector-effect="non-scaling-stroke" d="   M 170.72 257.17   L 165.48 257.54   A 1.02 0.94 -18.9 0 1 164.61 257.16   C 163.87 256.15 175.63 250.53 176.96 249.85   A 0.92 0.45 -21.9 0 0 177.50 249.25   L 177.50 239.75   A 0.51 0.42 -87.5 0 0 177.12 239.25   L 176.75 239.21"/>
<path stroke="#a6aeff" vector-effect="non-scaling-stroke" d="   M 177.29 260.50   L 177.10 266.56   A 0.53 0.51 1.1 0 1 176.56 267.06   L 145.25 266.79"/>
<path stroke="#f5f5ff" vector-effect="non-scaling-stroke" d="   M 159.31 293.38   L 161.38 286.48   A 1.22 0.23 -71.0 0 0 161.53 285.48   L 159.79 281.98   A 1.42 0.35 58.9 0 1 159.51 281.08   Q 159.75 278.68 157.50 278.29"/>
<path stroke="#b0b8ff" vector-effect="non-scaling-stroke" d="   M 157.50 278.29   L 155.89 274.98   A 0.41 0.41 58.5 0 0 155.27 274.83   C 144.00 283.11 148.35 298.49 159.18 304.75"/>
<path stroke="#f5f5ff" vector-effect="non-scaling-stroke" d="   M 159.18 304.75   Q 171.10 311.52 180.95 302.69   Q 190.82 293.83 183.46 282.20"/>
<path stroke="#b0b8ff" vector-effect="non-scaling-stroke" d="   M 183.46 282.20   C 180.43 274.72 173.56 269.44 165.36 270.84   A 0.49 0.47 74.6 0 0 165.01 271.50   L 168.34 279.93   A 1.17 0.63 5.9 0 0 169.11 280.45   C 174.37 281.82 177.26 287.19 173.58 291.77   Q 167.97 298.75 159.31 293.38"/>
<path stroke="#a6aeff" vector-effect="non-scaling-stroke" d="   M 183.46 282.20   C 187.63 298.13 173.76 308.46 159.18 304.75"/>
<path stroke="#a6aeff" vector-effect="non-scaling-stroke" d="   M 157.50 278.29   L 159.33 283.04   A 1.61 0.90 55.2 0 1 159.42 283.98   C 158.10 287.95 156.78 289.10 159.31 293.38"/>
<path stroke="#a6aeff" vector-effect="non-scaling-stroke" d="   M 234.37 170.07   A 0.30 0.30 -88.4 0 0 234.71 170.42   L 241.21 169.51   A 0.30 0.30 72.6 0 0 241.44 169.08   L 236.83 159.86   A 0.30 0.30 37.5 0 0 236.26 159.94   L 234.37 170.07"/>
<path stroke="#b0b8ff" vector-effect="non-scaling-stroke" d="   M 293.5499 255.5561   A 43.63 43.44 0.1 0 0 249.9958 212.0401   A 43.63 43.44 0.1 0 0 206.2901 255.4039   A 43.63 43.44 0.1 0 0 249.8442 298.9199   A 43.63 43.44 0.1 0 0 293.5499 255.5561"/>
<path stroke="#b0b8ff" vector-effect="non-scaling-stroke" d="   M 239.36 221.21   Q 237.97 224.00 236.91 226.95   A 0.41 0.38 -79.2 0 0 237.25 227.50   L 246.75 227.50   A 0.50 0.50 0.0 0 0 247.25 227.00   L 247.25 218.25   A 0.62 0.55 -87.4 0 0 246.77 217.65   C 243.27 217.23 241.06 217.84 239.36 221.21"/>
<path stroke="#b0b8ff" vector-effect="non-scaling-stroke" d="   M 253.24 217.53   A 0.72 0.64 -86.2 0 0 252.51 218.25   L 252.50 227.00   A 0.50 0.50 0.0 0 0 253.00 227.50   L 262.25 227.50   A 0.52 0.38 -8.0 0 0 262.79 226.98   L 259.41 219.08   A 1.27 0.64 73.1 0 0 258.68 218.31   L 253.24 217.53"/>
<path stroke="#b0b8ff" vector-effect="non-scaling-stroke" d="   M 275.33 226.91   Q 271.56 223.64 267.11 221.35   Q 266.18 220.87 266.52 221.74   L 268.65 227.08   A 0.98 0.61 -6.0 0 0 269.50 227.49   L 275.25 227.50   Q 276.01 227.51 275.33 226.91"/>
<path stroke="#b0b8ff" vector-effect="non-scaling-stroke" d="   M 232.94 221.64   A 0.33 0.33 -32.9 0 0 232.44 221.25   L 224.24 226.93   A 0.33 0.33 -62.5 0 0 224.43 227.53   L 230.45 227.46   A 0.33 0.33 10.5 0 0 230.76 227.25   L 232.94 221.64"/>
<path stroke="#b0b8ff" vector-effect="non-scaling-stroke" d="   M 218.92 233.18   Q 212.92 241.52 211.78 251.75   A 0.47 0.45 2.8 0 0 212.25 252.25   L 216.75 252.25   A 0.50 0.49 -90.0 0 0 217.24 251.75   L 217.21 246.23   Q 217.20 243.06 220.52 243.04   L 225.76 243.01   A 0.59 0.58 6.4 0 0 226.32 242.57   L 228.62 233.33   A 0.47 0.40 -81.7 0 0 228.25 232.75   L 219.75 232.75   A 1.04 1.01 -71.7 0 0 218.92 233.18"/>
<path stroke="#b0b8ff" vector-effect="non-scaling-stroke" d="   M 234.57 233.07   L 232.04 242.26   A 0.59 0.51 -81.3 0 0 232.50 243.00   L 246.50 243.00   A 0.75 0.50 -0.0 0 0 247.25 242.50   L 247.25 233.25   A 0.50 0.50 0.0 0 0 246.75 232.75   L 235.25 232.75   A 0.75 0.41 3.7 0 0 234.57 233.07"/>
<path stroke="#b0b8ff" vector-effect="non-scaling-stroke" d="   M 267.25 242.25   L 264.94 233.27   A 0.72 0.69 -6.7 0 0 264.25 232.75   L 253.00 232.75   A 0.50 0.50 0.0 0 0 252.50 233.25   L 252.50 242.50   A 0.50 0.50 0.0 0 0 253.00 243.00   L 266.50 243.00   A 0.74 0.60 -5.7 0 0 267.25 242.25"/>
<path stroke="#b0b8ff" vector-effect="non-scaling-stroke" d="   M 273.40 242.90   C 282.62 243.45 281.54 242.75 282.08 251.84   A 0.70 0.40 87.4 0 0 282.50 252.50   L 287.75 252.50   A 0.66 0.44 85.7 0 0 288.16 251.77   Q 287.05 241.53 281.05 233.19   A 1.04 0.93 70.5 0 0 280.25 232.75   L 271.00 232.75   A 0.45 0.39 -5.6 0 0 270.55 233.23   L 272.77 242.50   A 0.72 0.50 -2.3 0 0 273.40 242.90"/>
<path stroke="#b0b8ff" vector-effect="non-scaling-stroke" d="   M 241.13 253.17   L 243.57 261.94   A 0.76 0.68 81.7 0 0 244.24 262.50   L 246.50 262.50   A 1.05 0.61 -77.7 0 0 247.21 261.73   L 249.25 254.99   Q 249.64 253.70 250.05 255.00   L 252.21 261.76   A 0.96 0.34 74.1 0 0 252.74 262.50   L 255.43 262.45   A 1.13 0.25 -75.2 0 0 255.93 261.48   L 258.11 253.59   Q 258.54 252.06 258.94 253.51   L 261.22 261.75   A 1.01 0.72 79.5 0 0 262.00 262.50   L 264.43 262.43   A 0.92 0.40 -75.9 0 0 264.96 261.74   L 267.06 254.77   Q 267.40 253.67 267.73 254.76   L 269.91 261.82   A 0.92 0.48 76.5 0 0 270.50 262.50   L 273.01 262.50   A 1.05 0.47 -77.1 0 0 273.64 261.67   L 277.44 247.98   A 0.77 0.41 -77.9 0 0 277.17 247.05   L 274.01 247.02   A 0.96 0.61 -79.7 0 0 273.32 247.77   L 271.98 253.25   Q 271.58 254.89 271.06 253.23   L 269.31 247.69   A 0.90 0.41 75.1 0 0 268.75 247.01   L 266.06 247.06   A 0.93 0.44 -76.4 0 0 265.50 247.75   L 263.74 253.51   Q 263.23 255.18 262.82 253.42   L 261.49 247.75   A 0.97 0.70 81.1 0 0 260.75 247.00   L 256.25 247.00   A 0.97 0.60 -80.4 0 0 255.58 247.76   L 254.23 253.49   Q 253.86 255.06 253.42 253.57   L 251.69 247.77   A 1.04 0.58 77.4 0 0 251.00 247.00   L 248.50 247.00   A 1.04 0.50 -74.3 0 0 247.85 247.74   C 247.78 247.94 245.51 256.12 245.04 253.23   Q 244.59 250.41 243.76 247.62   A 0.88 0.77 80.4 0 0 243.00 247.00   L 238.50 247.00   A 0.91 0.44 -79.5 0 0 237.96 247.74   L 236.56 253.76   Q 236.26 255.04 235.88 253.83   L 233.97 247.76   A 0.94 0.27 74.5 0 0 233.50 247.00   L 230.57 247.05   A 0.93 0.33 -74.3 0 0 230.06 247.77   L 228.06 254.01   Q 227.77 254.91 227.54 253.99   L 226.02 247.74   A 0.91 0.40 78.6 0 0 225.50 247.00   L 222.26 247.00   A 0.58 0.48 80.6 0 0 221.83 247.73   L 225.92 261.77   A 0.92 0.43 75.7 0 0 226.50 262.48   L 229.07 262.37   A 0.96 0.47 -76.8 0 0 229.64 261.67   L 231.61 255.08   Q 232.00 253.78 232.41 255.07   L 234.50 261.75   A 0.92 0.31 74.3 0 0 235.00 262.48   L 237.82 262.37   A 1.06 0.28 -75.1 0 0 238.32 261.50   L 240.75 253.27   Q 240.96 252.57 241.13 253.17"/>
<path stroke="#b0b8ff" vector-effect="non-scaling-stroke" d="   M 218.26 275.75   L 226.25 275.75   A 0.58 0.41 82.8 0 0 226.61 275.07   L 225.12 267.15   Q 224.77 265.34 222.84 265.57   C 216.14 266.37 217.38 263.08 217.22 258.29   A 0.56 0.47 88.7 0 0 216.75 257.75   L 212.25 257.75   A 0.53 0.46 -2.4 0 0 211.71 258.25   Q 212.53 267.41 217.27 275.24   A 1.21 1.04 -13.4 0 0 218.26 275.75"/>
<path stroke="#b0b8ff" vector-effect="non-scaling-stroke" d="   M 272.44 275.82   L 282.00 275.77   A 1.08 0.62 -67.3 0 0 282.73 275.21   Q 287.28 267.59 288.23 258.75   A 0.68 0.51 -86.1 0 0 287.75 258.00   L 282.49 257.99   A 0.78 0.49 -88.9 0 0 281.99 258.75   L 281.92 263.16   Q 281.88 265.82 279.27 265.80   L 274.25 265.76   A 0.58 0.52 -84.8 0 0 273.73 266.25   L 272.08 275.27   A 0.47 0.38 -83.8 0 0 272.44 275.82"/>
<path stroke="#b0b8ff" vector-effect="non-scaling-stroke" d="   M 230.67 266.31   L 232.36 275.22   A 0.65 0.65 -5.3 0 0 233.00 275.75   L 246.75 275.75   A 0.50 0.50 0.0 0 0 247.25 275.25   L 247.25 266.25   A 0.50 0.50 0.0 0 0 246.75 265.75   L 231.00 265.75   A 0.47 0.36 83.0 0 0 230.67 266.31"/>
<path stroke="#b0b8ff" vector-effect="non-scaling-stroke" d="   M 266.47 275.44   L 268.29 266.25   A 0.53 0.42 4.4 0 0 267.75 265.75   L 253.00 265.75   A 0.50 0.50 0.0 0 0 252.50 266.25   L 252.50 275.25   A 0.50 0.50 0.0 0 0 253.00 275.75   L 266.00 275.75   A 0.49 0.38 4.1 0 0 266.47 275.44"/>
<path stroke="#b0b8ff" vector-effect="non-scaling-stroke" d="   M 222.03 281.47   Q 226.12 285.65 231.19 288.56   Q 231.91 288.97 231.57 288.21   L 228.64 281.58   A 0.98 0.97 77.8 0 0 227.75 281.00   L 222.31 281.03   Q 221.60 281.04 222.03 281.47"/>
<path stroke="#b0b8ff" vector-effect="non-scaling-stroke" d="   M 241.51 292.48   L 246.75 293.26   A 0.50 0.43 -86.2 0 0 247.25 292.75   L 247.25 281.50   A 0.50 0.50 0.0 0 0 246.75 281.00   L 234.81 281.02   A 0.25 0.24 -9.2 0 0 234.57 281.34   Q 236.67 287.18 240.61 291.93   A 1.63 1.27 69.3 0 0 241.51 292.48"/>
<path stroke="#b0b8ff" vector-effect="non-scaling-stroke" d="   M 259.17 291.63   Q 262.06 286.87 264.20 281.65   A 0.49 0.32 -74.2 0 0 264.00 281.00   L 253.00 281.00   A 0.75 0.50 -90.0 0 0 252.50 281.75   L 252.50 292.75   A 0.56 0.47 0.0 0 0 253.06 293.22   C 254.54 293.20 258.33 293.02 259.17 291.63"/>
<path stroke="#b0b8ff" vector-effect="non-scaling-stroke" d="   M 277.57 281.09   L 271.00 281.02   A 0.94 0.83 -76.4 0 0 270.19 281.58   L 266.95 288.97   Q 266.69 289.58 267.29 289.27   Q 273.14 286.23 277.83 281.58   Q 278.32 281.10 277.57 281.09"/>
<path stroke="#b0b8ff" vector-effect="non-scaling-stroke" d="   M 327.99 290.21   C 331.33 290.36 334.68 290.81 338.02 290.59   Q 338.65 290.55 338.14 290.12   L 330.67 283.83   A 0.60 0.32 36.3 0 0 329.92 283.72   L 327.48 289.74   A 0.50 0.34 8.7 0 0 327.99 290.21"/>
<path stroke="#b0b8ff" vector-effect="non-scaling-stroke" d="   M 152.50 257.21   L 157.18 257.21   A 0.65 0.65 -83.2 0 0 157.81 256.71   Q 158.60 253.37 157.25 250.21"/>
<path stroke="#a6aeff" vector-effect="non-scaling-stroke" d="   M 157.25 250.21   Q 154.61 247.41 152.26 249.33   C 150.28 250.95 150.67 254.32 150.77 256.69   A 0.58 0.50 88.3 0 0 151.28 257.25   L 152.50 257.21"/>
<path stroke="#f5f5ff" vector-effect="non-scaling-stroke" d="   M 157.25 250.21   C 152.71 250.66 153.43 253.99 152.50 257.21"/>
</g>
<g fill="#ffffff">
<path d="   M 0.00 0.00   L 500.00 0.00   L 500.00 500.00   L 0.00 500.00   L 0.00 0.00   Z   M 215.96 190.75   C 216.68 194.67 222.73 190.59 224.78 189.69   A 0.76 0.55 -19.6 0 0 225.26 189.00   Q 225.12 188.29 225.42 187.69   A 1.17 0.45 -3.7 0 1 226.26 187.30   L 233.25 186.26   A 1.02 0.82 -86.1 0 0 233.96 185.49   L 234.90 181.18   A 0.76 0.76 -89.4 0 1 235.48 180.61   L 245.75 178.43   L 247.26 181.10   A 1.24 0.60 69.4 0 0 247.90 181.71   Q 248.56 181.86 249.25 181.71   Q 249.36 184.00 251.84 183.59   Q 258.76 182.43 264.96 185.62   A 0.88 0.84 -67.2 0 0 266.15 185.10   L 271.03 170.65   L 276.17 186.47   A 1.46 0.76 19.7 0 0 276.77 187.12   L 278.60 188.21   Q 282.14 191.12 286.99 191.81   A 0.93 0.93 12.4 0 0 288.01 191.16   Q 292.68 175.93 297.03 160.76   Q 297.60 158.74 296.07 158.50   A 1.04 0.48 4.0 0 1 295.27 158.06   Q 295.19 157.77 295.27 157.36   Q 291.41 154.68 286.65 154.15   A 0.62 0.51 10.4 0 0 286.01 154.51   L 280.83 171.82   Q 280.59 172.62 280.32 171.73   L 274.01 150.75   A 1.09 0.66 82.2 0 0 273.44 150.04   L 264.98 147.55   A 0.52 0.45 -73.2 0 0 264.40 147.92   L 256.11 175.83   Q 255.85 176.69 255.42 175.88   L 240.82 148.19   A 0.81 0.79 -17.8 0 0 240.00 147.78   L 229.99 149.18   A 0.82 0.75 -87.0 0 0 229.34 149.82   L 222.48 181.74   Q 222.14 183.30 221.45 181.81   L 209.46 156.05   A 0.67 0.55 65.1 0 0 208.69 155.68   L 201.00 159.23   A 0.61 0.60 -25.1 0 0 200.70 160.03   Q 207.66 175.21 214.72 190.30   Q 215.07 191.05 215.96 190.75   Z   M 175.75 186.54   L 177.80 188.27   A 0.72 0.60 -44.5 0 0 178.65 188.20   L 184.50 183.21   L 200.21 201.75   Q 200.86 202.87 202.01 203.51   A 0.86 0.80 -49.0 0 0 202.93 203.41   L 208.89 198.63   A 0.83 0.74 -29.6 0 0 209.18 197.78   Q 208.70 196.29 207.29 195.50   L 192.21 177.00   L 198.68 171.87   A 0.97 0.85 -24.4 0 0 199.04 171.07   Q 198.88 169.53 197.29 168.75   L 192.90 163.32   A 0.49 0.46 50.9 0 0 192.23 163.23   L 171.37 180.39   A 0.59 0.50 -39.8 0 0 171.24 181.16   L 175.75 186.54   Z   M 307.12 209.48   Q 307.91 210.29 307.93 210.54   A 1.17 1.08 -15.3 0 0 309.56 211.38   L 341.01 197.27   A 0.72 0.59 -20.3 0 0 341.44 196.54   Q 341.11 195.21 339.75 194.71   Q 336.81 190.80 333.13 187.58   A 0.78 0.74 -35.8 0 0 332.31 187.47   L 314.53 195.66   L 323.57 178.67   A 0.80 0.62 -55.1 0 0 323.53 177.82   L 321.95 176.15   Q 319.26 171.95 315.35 168.54   A 0.44 0.42 -56.1 0 0 314.69 168.69   L 298.19 200.19   A 0.82 0.78 40.5 0 0 298.28 201.06   Q 302.19 205.98 307.12 209.48   Z   M 160.47 216.91   Q 168.26 222.73 174.81 215.62   C 175.27 215.12 175.79 215.05 176.29 215.50   L 172.01 222.84   A 0.52 0.47 32.2 0 0 172.19 223.49   L 174.60 225.11   Q 178.36 228.16 182.71 226.23   C 187.64 224.04 197.68 211.66 190.54 206.50   Q 185.60 195.45 175.90 200.84   C 173.27 202.29 165.05 211.20 163.51 205.02   A 1.35 0.49 -59.6 0 1 163.66 204.20   Q 164.82 201.39 167.76 202.27   A 0.86 0.58 -63.8 0 0 168.56 201.81   L 173.25 194.00   A 0.70 0.59 25.3 0 0 172.84 193.11   C 159.68 187.87 147.69 208.99 160.47 216.91   Z   M 189.82 262.94   C 192.49 289.43 214.28 313.60 241.00 316.99   C 248.88 318.00 260.06 317.62 268.10 314.89   C 311.28 300.27 325.58 245.88 294.09 212.18   C 262.10 177.94 206.86 191.49 192.35 235.30   C 189.58 243.66 188.97 254.43 189.82 262.94   Z   M 317.25 226.46   L 318.29 228.25   L 318.02 228.48   A 0.68 0.55 66.3 0 0 317.85 229.10   C 319.47 235.82 322.29 243.79 322.02 250.69   Q 321.67 259.42 321.47 268.15   C 321.41 270.36 320.33 271.88 319.81 274.01   A 0.98 0.65 32.5 0 0 320.17 274.82   L 323.63 277.87   A 0.83 0.62 34.1 0 1 323.91 278.68   L 319.71 288.98   A 0.81 0.68 -75.5 0 1 319.00 289.49   L 314.01 289.20   A 0.86 0.71 -75.8 0 0 313.26 289.75   L 309.94 297.93   A 0.49 0.40 -74.5 0 0 310.23 298.59   L 312.75 298.79   Q 312.96 299.35 312.75 300.05   A 0.37 0.30 -78.7 0 0 313.00 300.53   L 347.81 301.93   A 0.87 0.78 15.6 0 0 348.53 301.57   Q 351.39 297.17 352.62 292.05   A 0.92 0.76 -65.1 0 0 352.40 291.20   L 350.79 289.75   L 330.27 271.01   Q 331.24 265.54 330.84 259.99   A 0.47 0.41 88.6 0 1 331.26 259.48   L 357.94 260.89   A 0.63 0.60 -88.8 0 0 358.58 260.25   L 358.49 252.25   A 0.37 0.28 -16.6 0 0 357.97 252.05   Q 356.56 252.75 356.85 249.59   Q 340.81 248.56 324.82 248.08   Q 324.67 248.07 324.61 247.98   A 0.18 0.14 -22.4 0 1 324.74 247.75   L 329.50 246.70   C 331.58 246.59 329.50 240.54 329.27 239.48   A 1.35 1.34 -13.0 0 1 330.28 237.88   L 354.91 232.06   A 1.02 0.92 74.3 0 0 355.54 230.79   C 355.06 229.28 354.17 223.24 352.29 223.75   Q 352.38 221.90 351.14 220.81   A 1.09 0.82 -25.4 0 0 350.26 220.63   L 326.24 225.94   Q 337.22 219.29 348.88 214.07   A 0.81 0.74 -12.6 0 0 349.37 213.37   Q 349.38 211.19 347.25 211.46   L 343.26 203.35   A 0.52 0.51 63.7 0 0 342.58 203.11   L 312.67 217.89   A 0.76 0.72 -26.6 0 0 312.31 218.87   C 312.81 219.87 316.04 227.75 317.25 226.46   Z   M 177.00 238.54   L 176.75 239.21   L 164.41 246.11   A 0.45 0.43 64.8 0 1 163.80 245.87   C 159.58 235.11 145.62 236.94 143.00 248.02   Q 142.29 251.01 142.52 266.20   A 0.53 0.52 1.1 0 0 143.03 266.72   L 145.25 266.79   Q 145.36 267.51 145.21 268.13   A 0.42 0.39 -80.0 0 0 145.54 268.65   Q 156.79 269.78 160.94 269.14   Q 167.60 268.10 174.32 269.01   Q 176.61 269.33 178.95 269.22   A 0.57 0.47 -1.2 0 0 179.50 268.75   L 179.50 260.75   A 0.41 0.37 -8.0 0 0 178.99 260.41   Q 178.11 260.64 177.29 260.50   L 177.24 258.06   A 0.60 0.48 2.0 0 0 176.69 257.58   L 170.72 257.17   Q 174.39 253.70 178.77 252.12   A 1.09 1.06 -9.1 0 0 179.48 251.16   C 179.57 249.14 179.28 241.09 180.77 240.96   A 0.89 0.59 1.3 0 0 181.50 240.50   L 183.68 232.73   A 0.57 0.44 16.1 0 0 183.26 232.16   Q 182.17 231.82 181.46 231.00   C 181.84 230.27 181.72 229.81 180.90 229.58   Q 165.19 225.02 148.85 220.30   A 0.66 0.63 -74.1 0 0 148.06 220.77   L 145.79 228.51   A 0.93 0.81 -74.0 0 0 146.31 229.63   L 177.00 238.54   Z   M 159.31 293.38   L 161.38 286.48   A 1.22 0.23 -71.0 0 0 161.53 285.48   L 159.79 281.98   A 1.42 0.35 58.9 0 1 159.51 281.08   Q 159.75 278.68 157.50 278.29   L 155.89 274.98   A 0.41 0.41 58.5 0 0 155.27 274.83   C 144.00 283.11 148.35 298.49 159.18 304.75   Q 171.10 311.52 180.95 302.69   Q 190.82 293.83 183.46 282.20   C 180.43 274.72 173.56 269.44 165.36 270.84   A 0.49 0.47 74.6 0 0 165.01 271.50   L 168.34 279.93   A 1.17 0.63 5.9 0 0 169.11 280.45   C 174.37 281.82 177.26 287.19 173.58 291.77   Q 167.97 298.75 159.31 293.38   Z"/>
<path d="   M 293.5499 255.5561   A 43.63 43.44 0.1 0 1 249.8442 298.9199   A 43.63 43.44 0.1 0 1 206.2901 255.4039   A 43.63 43.44 0.1 0 1 249.9958 212.0401   A 43.63 43.44 0.1 0 1 293.5499 255.5561   Z   M 239.36 221.21   Q 237.97 224.00 236.91 226.95   A 0.41 0.38 -79.2 0 0 237.25 227.50   L 246.75 227.50   A 0.50 0.50 0.0 0 0 247.25 227.00   L 247.25 218.25   A 0.62 0.55 -87.4 0 0 246.77 217.65   C 243.27 217.23 241.06 217.84 239.36 221.21   Z   M 253.24 217.53   A 0.72 0.64 -86.2 0 0 252.51 218.25   L 252.50 227.00   A 0.50 0.50 0.0 0 0 253.00 227.50   L 262.25 227.50   A 0.52 0.38 -8.0 0 0 262.79 226.98   L 259.41 219.08   A 1.27 0.64 73.1 0 0 258.68 218.31   L 253.24 217.53   Z   M 275.33 226.91   Q 271.56 223.64 267.11 221.35   Q 266.18 220.87 266.52 221.74   L 268.65 227.08   A 0.98 0.61 -6.0 0 0 269.50 227.49   L 275.25 227.50   Q 276.01 227.51 275.33 226.91   Z   M 232.94 221.64   A 0.33 0.33 -32.9 0 0 232.44 221.25   L 224.24 226.93   A 0.33 0.33 -62.5 0 0 224.43 227.53   L 230.45 227.46   A 0.33 0.33 10.5 0 0 230.76 227.25   L 232.94 221.64   Z   M 218.92 233.18   Q 212.92 241.52 211.78 251.75   A 0.47 0.45 2.8 0 0 212.25 252.25   L 216.75 252.25   A 0.50 0.49 -90.0 0 0 217.24 251.75   L 217.21 246.23   Q 217.20 243.06 220.52 243.04   L 225.76 243.01   A 0.59 0.58 6.4 0 0 226.32 242.57   L 228.62 233.33   A 0.47 0.40 -81.7 0 0 228.25 232.75   L 219.75 232.75   A 1.04 1.01 -71.7 0 0 218.92 233.18   Z   M 234.57 233.07   L 232.04 242.26   A 0.59 0.51 -81.3 0 0 232.50 243.00   L 246.50 243.00   A 0.75 0.50 -0.0 0 0 247.25 242.50   L 247.25 233.25   A 0.50 0.50 0.0 0 0 246.75 232.75   L 235.25 232.75   A 0.75 0.41 3.7 0 0 234.57 233.07   Z   M 267.25 242.25   L 264.94 233.27   A 0.72 0.69 -6.7 0 0 264.25 232.75   L 253.00 232.75   A 0.50 0.50 0.0 0 0 252.50 233.25   L 252.50 242.50   A 0.50 0.50 0.0 0 0 253.00 243.00   L 266.50 243.00   A 0.74 0.60 -5.7 0 0 267.25 242.25   Z   M 273.40 242.90   C 282.62 243.45 281.54 242.75 282.08 251.84   A 0.70 0.40 87.4 0 0 282.50 252.50   L 287.75 252.50   A 0.66 0.44 85.7 0 0 288.16 251.77   Q 287.05 241.53 281.05 233.19   A 1.04 0.93 70.5 0 0 280.25 232.75   L 271.00 232.75   A 0.45 0.39 -5.6 0 0 270.55 233.23   L 272.77 242.50   A 0.72 0.50 -2.3 0 0 273.40 242.90   Z   M 241.13 253.17   L 243.57 261.94   A 0.76 0.68 81.7 0 0 244.24 262.50   L 246.50 262.50   A 1.05 0.61 -77.7 0 0 247.21 261.73   L 249.25 254.99   Q 249.64 253.70 250.05 255.00   L 252.21 261.76   A 0.96 0.34 74.1 0 0 252.74 262.50   L 255.43 262.45   A 1.13 0.25 -75.2 0 0 255.93 261.48   L 258.11 253.59   Q 258.54 252.06 258.94 253.51   L 261.22 261.75   A 1.01 0.72 79.5 0 0 262.00 262.50   L 264.43 262.43   A 0.92 0.40 -75.9 0 0 264.96 261.74   L 267.06 254.77   Q 267.40 253.67 267.73 254.76   L 269.91 261.82   A 0.92 0.48 76.5 0 0 270.50 262.50   L 273.01 262.50   A 1.05 0.47 -77.1 0 0 273.64 261.67   L 277.44 247.98   A 0.77 0.41 -77.9 0 0 277.17 247.05   L 274.01 247.02   A 0.96 0.61 -79.7 0 0 273.32 247.77   L 271.98 253.25   Q 271.58 254.89 271.06 253.23   L 269.31 247.69   A 0.90 0.41 75.1 0 0 268.75 247.01   L 266.06 247.06   A 0.93 0.44 -76.4 0 0 265.50 247.75   L 263.74 253.51   Q 263.23 255.18 262.82 253.42   L 261.49 247.75   A 0.97 0.70 81.1 0 0 260.75 247.00   L 256.25 247.00   A 0.97 0.60 -80.4 0 0 255.58 247.76   L 254.23 253.49   Q 253.86 255.06 253.42 253.57   L 251.69 247.77   A 1.04 0.58 77.4 0 0 251.00 247.00   L 248.50 247.00   A 1.04 0.50 -74.3 0 0 247.85 247.74   C 247.78 247.94 245.51 256.12 245.04 253.23   Q 244.59 250.41 243.76 247.62   A 0.88 0.77 80.4 0 0 243.00 247.00   L 238.50 247.00   A 0.91 0.44 -79.5 0 0 237.96 247.74   L 236.56 253.76   Q 236.26 255.04 235.88 253.83   L 233.97 247.76   A 0.94 0.27 74.5 0 0 233.50 247.00   L 230.57 247.05   A 0.93 0.33 -74.3 0 0 230.06 247.77   L 228.06 254.01   Q 227.77 254.91 227.54 253.99   L 226.02 247.74   A 0.91 0.40 78.6 0 0 225.50 247.00   L 222.26 247.00   A 0.58 0.48 80.6 0 0 221.83 247.73   L 225.92 261.77   A 0.92 0.43 75.7 0 0 226.50 262.48   L 229.07 262.37   A 0.96 0.47 -76.8 0 0 229.64 261.67   L 231.61 255.08   Q 232.00 253.78 232.41 255.07   L 234.50 261.75   A 0.92 0.31 74.3 0 0 235.00 262.48   L 237.82 262.37   A 1.06 0.28 -75.1 0 0 238.32 261.50   L 240.75 253.27   Q 240.96 252.57 241.13 253.17   Z   M 218.26 275.75   L 226.25 275.75   A 0.58 0.41 82.8 0 0 226.61 275.07   L 225.12 267.15   Q 224.77 265.34 222.84 265.57   C 216.14 266.37 217.38 263.08 217.22 258.29   A 0.56 0.47 88.7 0 0 216.75 257.75   L 212.25 257.75   A 0.53 0.46 -2.4 0 0 211.71 258.25   Q 212.53 267.41 217.27 275.24   A 1.21 1.04 -13.4 0 0 218.26 275.75   Z   M 272.44 275.82   L 282.00 275.77   A 1.08 0.62 -67.3 0 0 282.73 275.21   Q 287.28 267.59 288.23 258.75   A 0.68 0.51 -86.1 0 0 287.75 258.00   L 282.49 257.99   A 0.78 0.49 -88.9 0 0 281.99 258.75   L 281.92 263.16   Q 281.88 265.82 279.27 265.80   L 274.25 265.76   A 0.58 0.52 -84.8 0 0 273.73 266.25   L 272.08 275.27   A 0.47 0.38 -83.8 0 0 272.44 275.82   Z   M 230.67 266.31   L 232.36 275.22   A 0.65 0.65 -5.3 0 0 233.00 275.75   L 246.75 275.75   A 0.50 0.50 0.0 0 0 247.25 275.25   L 247.25 266.25   A 0.50 0.50 0.0 0 0 246.75 265.75   L 231.00 265.75   A 0.47 0.36 83.0 0 0 230.67 266.31   Z   M 266.47 275.44   L 268.29 266.25   A 0.53 0.42 4.4 0 0 267.75 265.75   L 253.00 265.75   A 0.50 0.50 0.0 0 0 252.50 266.25   L 252.50 275.25   A 0.50 0.50 0.0 0 0 253.00 275.75   L 266.00 275.75   A 0.49 0.38 4.1 0 0 266.47 275.44   Z   M 222.03 281.47   Q 226.12 285.65 231.19 288.56   Q 231.91 288.97 231.57 288.21   L 228.64 281.58   A 0.98 0.97 77.8 0 0 227.75 281.00   L 222.31 281.03   Q 221.60 281.04 222.03 281.47   Z   M 241.51 292.48   L 246.75 293.26   A 0.50 0.43 -86.2 0 0 247.25 292.75   L 247.25 281.50   A 0.50 0.50 0.0 0 0 246.75 281.00   L 234.81 281.02   A 0.25 0.24 -9.2 0 0 234.57 281.34   Q 236.67 287.18 240.61 291.93   A 1.63 1.27 69.3 0 0 241.51 292.48   Z   M 259.17 291.63   Q 262.06 286.87 264.20 281.65   A 0.49 0.32 -74.2 0 0 264.00 281.00   L 253.00 281.00   A 0.75 0.50 -90.0 0 0 252.50 281.75   L 252.50 292.75   A 0.56 0.47 0.0 0 0 253.06 293.22   C 254.54 293.20 258.33 293.02 259.17 291.63   Z   M 277.57 281.09   L 271.00 281.02   A 0.94 0.83 -76.4 0 0 270.19 281.58   L 266.95 288.97   Q 266.69 289.58 267.29 289.27   Q 273.14 286.23 277.83 281.58   Q 278.32 281.10 277.57 281.09   Z"/>
<path d="   M 157.25 250.21   Q 158.60 253.37 157.81 256.71   A 0.65 0.65 -83.2 0 1 157.18 257.21   L 152.50 257.21   C 153.43 253.99 152.71 250.66 157.25 250.21   Z"/>
<path d="   M 338.02 290.59   C 334.68 290.81 331.33 290.36 327.99 290.21   A 0.50 0.34 8.7 0 1 327.48 289.74   L 329.92 283.72   A 0.60 0.32 36.3 0 1 330.67 283.83   L 338.14 290.12   Q 338.65 290.55 338.02 290.59   Z"/>
</g>
<g fill="#6070ff">
<path d="   M 295.27 157.36   L 285.83 189.20   A 0.55 0.52 13.1 0 1 285.21 189.56   L 278.60 188.21   L 276.77 187.12   A 1.46 0.76 19.7 0 1 276.17 186.47   L 271.03 170.65   L 269.79 165.81   Q 269.49 164.64 269.14 165.84   L 264.12 182.91   A 0.60 0.53 15.9 0 1 263.41 183.25   C 257.76 181.74 255.25 180.72 249.25 181.71   Q 248.56 181.86 247.90 181.71   A 1.24 0.60 69.4 0 1 247.26 181.10   L 245.75 178.43   Q 245.63 177.36 245.13 176.81   A 1.09 0.83 -21.3 0 0 244.26 176.56   L 233.50 178.03   A 0.86 0.62 -2.0 0 0 232.80 178.57   L 231.87 183.57   A 0.73 0.56 -1.0 0 1 231.26 184.06   L 223.75 185.05   A 0.54 0.34 -10.1 0 0 223.24 185.51   L 223.59 186.69   A 0.68 0.48 -22.4 0 1 223.18 187.34   L 215.96 190.75   Q 215.07 191.05 214.72 190.30   Q 207.66 175.21 200.70 160.03   A 0.61 0.60 -25.1 0 1 201.00 159.23   L 208.69 155.68   A 0.67 0.55 65.1 0 1 209.46 156.05   L 221.45 181.81   Q 222.14 183.30 222.48 181.74   L 229.34 149.82   A 0.82 0.75 -87.0 0 1 229.99 149.18   L 240.00 147.78   A 0.81 0.79 -17.8 0 1 240.82 148.19   L 255.42 175.88   Q 255.85 176.69 256.11 175.83   L 264.40 147.92   A 0.52 0.45 -73.2 0 1 264.98 147.55   L 273.44 150.04   A 1.09 0.66 82.2 0 1 274.01 150.75   L 280.32 171.73   Q 280.59 172.62 280.83 171.82   L 286.01 154.51   A 0.62 0.51 10.4 0 1 286.65 154.15   Q 291.41 154.68 295.27 157.36   Z   M 234.37 170.07   A 0.30 0.30 -88.4 0 0 234.71 170.42   L 241.21 169.51   A 0.30 0.30 72.6 0 0 241.44 169.08   L 236.83 159.86   A 0.30 0.30 37.5 0 0 236.26 159.94   L 234.37 170.07   Z"/>
<path d="   M 197.29 168.75   L 190.96 174.25   A 0.80 0.67 -32.1 0 0 190.70 175.05   Q 191.11 176.25 192.21 177.00   L 207.29 195.50   L 200.21 201.75   L 184.50 183.21   L 183.06 181.37   A 0.60 0.46 -38.6 0 0 182.30 181.38   L 175.75 186.54   L 171.24 181.16   A 0.59 0.50 -39.8 0 1 171.37 180.39   L 192.23 163.23   A 0.49 0.46 50.9 0 1 192.90 163.32   L 197.29 168.75   Z"/>
<path d="   M 321.95 176.15   L 309.73 197.82   Q 309.48 198.27 309.99 198.11   Q 312.67 197.29 314.53 195.66   L 332.31 187.47   A 0.78 0.74 -35.8 0 1 333.13 187.58   Q 336.81 190.80 339.75 194.71   L 307.12 209.48   Q 302.19 205.98 298.28 201.06   A 0.82 0.78 40.5 0 1 298.19 200.19   L 314.69 168.69   A 0.44 0.42 -56.1 0 1 315.35 168.54   Q 319.26 171.95 321.95 176.15   Z"/>
<path d="   M 190.54 206.50   Q 191.30 223.21 174.60 225.11   L 172.19 223.49   A 0.52 0.47 32.2 0 1 172.01 222.84   L 176.29 215.50   L 176.74 215.15   A 1.26 1.11 28.7 0 1 177.69 214.94   Q 181.46 215.61 182.29 211.73   A 1.41 1.13 38.8 0 0 182.08 210.77   Q 180.14 207.79 177.05 210.35   C 172.19 214.37 167.65 219.11 160.47 216.91   C 147.69 208.99 159.68 187.87 172.84 193.11   A 0.70 0.59 25.3 0 1 173.25 194.00   L 168.56 201.81   A 0.86 0.58 -63.8 0 1 167.76 202.27   Q 164.82 201.39 163.66 204.20   A 1.35 0.49 -59.6 0 0 163.51 205.02   C 165.05 211.20 173.27 202.29 175.90 200.84   Q 185.60 195.45 190.54 206.50   Z"/>
<path d="   M 241.00 316.99   C 214.28 313.60 192.49 289.43 189.82 262.94   C 188.97 254.43 189.58 243.66 192.35 235.30   C 206.86 191.49 262.10 177.94 294.09 212.18   C 325.58 245.88 311.28 300.27 268.10 314.89   C 260.06 317.62 248.88 318.00 241.00 316.99   Z   M 293.5499 255.5561   A 43.63 43.44 0.1 0 0 249.9958 212.0401   A 43.63 43.44 0.1 0 0 206.2901 255.4039   A 43.63 43.44 0.1 0 0 249.8442 298.9199   A 43.63 43.44 0.1 0 0 293.5499 255.5561   Z"/>
<path d="   M 347.25 211.46   L 317.25 226.46   C 316.04 227.75 312.81 219.87 312.31 218.87   A 0.76 0.72 -26.6 0 1 312.67 217.89   L 342.58 203.11   A 0.52 0.51 63.7 0 1 343.26 203.35   L 347.25 211.46   Z"/>
<path d="   M 239.36 221.21   C 241.06 217.84 243.27 217.23 246.77 217.65   A 0.62 0.55 -87.4 0 1 247.25 218.25   L 247.25 227.00   A 0.50 0.50 0.0 0 1 246.75 227.50   L 237.25 227.50   A 0.41 0.38 -79.2 0 1 236.91 226.95   Q 237.97 224.00 239.36 221.21   Z"/>
<path d="   M 253.24 217.53   L 258.68 218.31   A 1.27 0.64 73.1 0 1 259.41 219.08   L 262.79 226.98   A 0.52 0.38 -8.0 0 1 262.25 227.50   L 253.00 227.50   A 0.50 0.50 0.0 0 1 252.50 227.00   L 252.51 218.25   A 0.72 0.64 -86.2 0 1 253.24 217.53   Z"/>
<path d="   M 181.46 231.00   L 179.21 238.09   A 1.12 0.77 -83.8 0 1 178.62 238.78   Q 177.87 239.02 177.00 238.54   L 146.31 229.63   A 0.93 0.81 -74.0 0 1 145.79 228.51   L 148.06 220.77   A 0.66 0.63 -74.1 0 1 148.85 220.30   Q 165.19 225.02 180.90 229.58   C 181.72 229.81 181.84 230.27 181.46 231.00   Z"/>
<path d="   M 352.29 223.75   L 353.41 229.24   A 0.52 0.46 78.4 0 1 353.07 229.83   L 327.75 235.99   A 0.55 0.42 77.2 0 0 327.47 236.61   L 329.50 246.70   L 324.74 247.75   A 0.18 0.14 -22.4 0 0 324.61 247.98   Q 324.67 248.07 324.82 248.08   Q 340.81 248.56 356.85 249.59   L 356.60 258.44   A 0.57 0.56 2.5 0 1 356.00 258.98   L 330.50 257.98   A 1.58 1.47 -87.7 0 0 328.97 259.50   L 328.58 268.76   A 1.11 0.23 -85.6 0 0 328.70 269.72   L 330.27 271.01   L 350.79 289.75   L 346.66 299.49   A 0.78 0.72 11.1 0 1 345.94 299.93   L 312.75 298.79   L 310.23 298.59   A 0.49 0.40 -74.5 0 1 309.94 297.93   L 313.26 289.75   A 0.86 0.71 -75.8 0 1 314.01 289.20   L 319.00 289.49   A 0.81 0.68 -75.5 0 0 319.71 288.98   L 323.91 278.68   A 0.83 0.62 34.1 0 0 323.63 277.87   L 320.17 274.82   A 0.98 0.65 32.5 0 1 319.81 274.01   C 320.33 271.88 321.41 270.36 321.47 268.15   Q 321.67 259.42 322.02 250.69   C 322.29 243.79 319.47 235.82 317.85 229.10   A 0.68 0.55 66.3 0 1 318.02 228.48   L 318.29 228.25   Q 322.63 227.70 326.24 225.94   L 350.26 220.63   A 1.09 0.82 -25.4 0 1 351.14 220.81   Q 352.38 221.90 352.29 223.75   Z   M 327.99 290.21   C 331.33 290.36 334.68 290.81 338.02 290.59   Q 338.65 290.55 338.14 290.12   L 330.67 283.83   A 0.60 0.32 36.3 0 0 329.92 283.72   L 327.48 289.74   A 0.50 0.34 8.7 0 0 327.99 290.21   Z"/>
<path d="   M 275.33 226.91   Q 276.01 227.51 275.25 227.50   L 269.50 227.49   A 0.98 0.61 -6.0 0 1 268.65 227.08   L 266.52 221.74   Q 266.18 220.87 267.11 221.35   Q 271.56 223.64 275.33 226.91   Z"/>
<path d="   M 232.94 221.64   L 230.76 227.25   A 0.33 0.33 10.3 0 1 230.45 227.46   L 224.43 227.53   A 0.33 0.33 -56.0 0 1 224.24 226.93   L 232.44 221.25   A 0.33 0.33 14.0 0 1 232.94 221.64   Z"/>
<path d="   M 218.92 233.18   A 1.04 1.01 -71.7 0 1 219.75 232.75   L 228.25 232.75   A 0.47 0.40 -81.7 0 1 228.62 233.33   L 226.32 242.57   A 0.59 0.58 6.4 0 1 225.76 243.01   L 220.52 243.04   Q 217.20 243.06 217.21 246.23   L 217.24 251.75   A 0.50 0.49 -90.0 0 1 216.75 252.25   L 212.25 252.25   A 0.47 0.45 2.8 0 1 211.78 251.75   Q 212.92 241.52 218.92 233.18   Z"/>
<path d="   M 234.57 233.07   A 0.75 0.41 3.7 0 1 235.25 232.75   L 246.75 232.75   A 0.50 0.50 0.0 0 1 247.25 233.25   L 247.25 242.50   A 0.75 0.50 -0.0 0 1 246.50 243.00   L 232.50 243.00   A 0.59 0.51 -81.3 0 1 232.04 242.26   L 234.57 233.07   Z"/>
<path d="   M 267.25 242.25   A 0.74 0.60 -5.7 0 1 266.50 243.00   L 253.00 243.00   A 0.50 0.50 0.0 0 1 252.50 242.50   L 252.50 233.25   A 0.50 0.50 0.0 0 1 253.00 232.75   L 264.25 232.75   A 0.72 0.69 -6.7 0 1 264.94 233.27   L 267.25 242.25   Z"/>
<path d="   M 282.08 251.84   C 281.54 242.75 282.62 243.45 273.40 242.90   A 0.72 0.50 -2.3 0 1 272.77 242.50   L 270.55 233.23   A 0.45 0.39 -5.6 0 1 271.00 232.75   L 280.25 232.75   A 1.04 0.93 70.5 0 1 281.05 233.19   Q 287.05 241.53 288.16 251.77   A 0.66 0.44 85.7 0 1 287.75 252.50   L 282.50 252.50   A 0.70 0.40 87.4 0 1 282.08 251.84   Z"/>
<path d="   M 176.75 239.21   L 177.12 239.25   A 0.51 0.42 -87.5 0 1 177.50 239.75   L 177.50 249.25   A 0.92 0.45 -21.9 0 1 176.96 249.85   C 175.63 250.53 163.87 256.15 164.61 257.16   A 1.02 0.94 -18.9 0 0 165.48 257.54   L 170.72 257.17   L 176.69 257.58   A 0.60 0.48 2.0 0 1 177.24 258.06   L 177.29 260.50   L 177.10 266.56   A 0.53 0.51 1.1 0 1 176.56 267.06   L 145.25 266.79   L 143.03 266.72   A 0.53 0.52 1.1 0 1 142.52 266.20   Q 142.29 251.01 143.00 248.02   C 145.62 236.94 159.58 235.11 163.80 245.87   A 0.45 0.43 64.8 0 0 164.41 246.11   L 176.75 239.21   Z   M 152.50 257.21   L 157.18 257.21   A 0.65 0.65 -83.2 0 0 157.81 256.71   Q 158.60 253.37 157.25 250.21   Q 154.61 247.41 152.26 249.33   C 150.28 250.95 150.67 254.32 150.77 256.69   A 0.58 0.50 88.3 0 0 151.28 257.25   L 152.50 257.21   Z"/>
<path d="   M 240.75 253.27   L 238.32 261.50   A 1.06 0.28 -75.1 0 1 237.82 262.37   L 235.00 262.48   A 0.92 0.31 74.3 0 1 234.50 261.75   L 232.41 255.07   Q 232.00 253.78 231.61 255.08   L 229.64 261.67   A 0.96 0.47 -76.8 0 1 229.07 262.37   L 226.50 262.48   A 0.92 0.43 75.7 0 1 225.92 261.77   L 221.83 247.73   A 0.58 0.48 80.6 0 1 222.26 247.00   L 225.50 247.00   A 0.91 0.40 78.6 0 1 226.02 247.74   L 227.54 253.99   Q 227.77 254.91 228.06 254.01   L 230.06 247.77   A 0.93 0.33 -74.3 0 1 230.57 247.05   L 233.50 247.00   A 0.94 0.27 74.5 0 1 233.97 247.76   L 235.88 253.83   Q 236.26 255.04 236.56 253.76   L 237.96 247.74   A 0.91 0.44 -79.5 0 1 238.50 247.00   L 243.00 247.00   A 0.88 0.77 80.4 0 1 243.76 247.62   Q 244.59 250.41 245.04 253.23   C 245.51 256.12 247.78 247.94 247.85 247.74   A 1.04 0.50 -74.3 0 1 248.50 247.00   L 251.00 247.00   A 1.04 0.58 77.4 0 1 251.69 247.77   L 253.42 253.57   Q 253.86 255.06 254.23 253.49   L 255.58 247.76   A 0.97 0.60 -80.4 0 1 256.25 247.00   L 260.75 247.00   A 0.97 0.70 81.1 0 1 261.49 247.75   L 262.82 253.42   Q 263.23 255.18 263.74 253.51   L 265.50 247.75   A 0.93 0.44 -76.4 0 1 266.06 247.06   L 268.75 247.01   A 0.90 0.41 75.1 0 1 269.31 247.69   L 271.06 253.23   Q 271.58 254.89 271.98 253.25   L 273.32 247.77   A 0.96 0.61 -79.7 0 1 274.01 247.02   L 277.17 247.05   A 0.77 0.41 -77.9 0 1 277.44 247.98   L 273.64 261.67   A 1.05 0.47 -77.1 0 1 273.01 262.50   L 270.50 262.50   A 0.92 0.48 76.5 0 1 269.91 261.82   L 267.73 254.76   Q 267.40 253.67 267.06 254.77   L 264.96 261.74   A 0.92 0.40 -75.9 0 1 264.43 262.43   L 262.00 262.50   A 1.01 0.72 79.5 0 1 261.22 261.75   L 258.94 253.51   Q 258.54 252.06 258.11 253.59   L 255.93 261.48   A 1.13 0.25 -75.2 0 1 255.43 262.45   L 252.74 262.50   A 0.96 0.34 74.1 0 1 252.21 261.76   L 250.05 255.00   Q 249.64 253.70 249.25 254.99   L 247.21 261.73   A 1.05 0.61 -77.7 0 1 246.50 262.50   L 244.24 262.50   A 0.76 0.68 81.7 0 1 243.57 261.94   L 241.13 253.17   Q 240.96 252.57 240.75 253.27   Z"/>
<path d="   M 217.27 275.24   Q 212.53 267.41 211.71 258.25   A 0.53 0.46 -2.4 0 1 212.25 257.75   L 216.75 257.75   A 0.56 0.47 88.7 0 1 217.22 258.29   C 217.38 263.08 216.14 266.37 222.84 265.57   Q 224.77 265.34 225.12 267.15   L 226.61 275.07   A 0.58 0.41 82.8 0 1 226.25 275.75   L 218.26 275.75   A 1.21 1.04 -13.4 0 1 217.27 275.24   Z"/>
<path d="   M 272.44 275.82   A 0.47 0.38 -83.8 0 1 272.08 275.27   L 273.73 266.25   A 0.58 0.52 -84.8 0 1 274.25 265.76   L 279.27 265.80   Q 281.88 265.82 281.92 263.16   L 281.99 258.75   A 0.78 0.49 -88.9 0 1 282.49 257.99   L 287.75 258.00   A 0.68 0.51 -86.1 0 1 288.23 258.75   Q 287.28 267.59 282.73 275.21   A 1.08 0.62 -67.3 0 1 282.00 275.77   L 272.44 275.82   Z"/>
<path d="   M 230.67 266.31   A 0.47 0.36 83.0 0 1 231.00 265.75   L 246.75 265.75   A 0.50 0.50 0.0 0 1 247.25 266.25   L 247.25 275.25   A 0.50 0.50 0.0 0 1 246.75 275.75   L 233.00 275.75   A 0.65 0.65 -5.3 0 1 232.36 275.22   L 230.67 266.31   Z"/>
<path d="   M 266.47 275.44   A 0.49 0.38 4.1 0 1 266.00 275.75   L 253.00 275.75   A 0.50 0.50 0.0 0 1 252.50 275.25   L 252.50 266.25   A 0.50 0.50 0.0 0 1 253.00 265.75   L 267.75 265.75   A 0.53 0.42 4.4 0 1 268.29 266.25   L 266.47 275.44   Z"/>
<path d="   M 183.46 282.20   C 187.63 298.13 173.76 308.46 159.18 304.75   C 148.35 298.49 144.00 283.11 155.27 274.83   A 0.41 0.41 58.5 0 1 155.89 274.98   L 157.50 278.29   L 159.33 283.04   A 1.61 0.90 55.2 0 1 159.42 283.98   C 158.10 287.95 156.78 289.10 159.31 293.38   Q 167.97 298.75 173.58 291.77   C 177.26 287.19 174.37 281.82 169.11 280.45   A 1.17 0.63 5.9 0 1 168.34 279.93   L 165.01 271.50   A 0.49 0.47 74.6 0 1 165.36 270.84   C 173.56 269.44 180.43 274.72 183.46 282.20   Z"/>
<path d="   M 222.03 281.47   Q 221.60 281.04 222.31 281.03   L 227.75 281.00   A 0.98 0.97 77.8 0 1 228.64 281.58   L 231.57 288.21   Q 231.91 288.97 231.19 288.56   Q 226.12 285.65 222.03 281.47   Z"/>
<path d="   M 240.61 291.93   Q 236.67 287.18 234.57 281.34   A 0.25 0.24 -9.2 0 1 234.81 281.02   L 246.75 281.00   A 0.50 0.50 0.0 0 1 247.25 281.50   L 247.25 292.75   A 0.50 0.43 -86.2 0 1 246.75 293.26   L 241.51 292.48   A 1.63 1.27 69.3 0 1 240.61 291.93   Z"/>
<path d="   M 259.17 291.63   C 258.33 293.02 254.54 293.20 253.06 293.22   A 0.56 0.47 -0.0 0 1 252.50 292.75   L 252.50 281.75   A 0.75 0.50 -90.0 0 1 253.00 281.00   L 264.00 281.00   A 0.49 0.32 -74.2 0 1 264.20 281.65   Q 262.06 286.87 259.17 291.63   Z"/>
<path d="   M 277.57 281.09   Q 278.32 281.10 277.83 281.58   Q 273.14 286.23 267.29 289.27   Q 266.69 289.58 266.95 288.97   L 270.19 281.58   A 0.94 0.83 -76.4 0 1 271.00 281.02   L 277.57 281.09   Z"/>
</g>
<g fill="#ebebff">
<path d="   M 295.27 157.36   Q 295.19 157.77 295.27 158.06   A 1.04 0.48 4.0 0 0 296.07 158.50   Q 297.60 158.74 297.03 160.76   Q 292.68 175.93 288.01 191.16   A 0.93 0.93 12.4 0 1 286.99 191.81   Q 282.14 191.12 278.60 188.21   L 285.21 189.56   A 0.55 0.52 13.1 0 0 285.83 189.20   L 295.27 157.36   Z"/>
<path d="   M 234.37 170.07   L 236.26 159.94   A 0.30 0.30 40.0 0 1 236.83 159.86   L 241.44 169.08   A 0.30 0.30 72.4 0 1 241.21 169.51   L 234.71 170.42   A 0.30 0.30 89.2 0 1 234.37 170.07   Z"/>
<path d="   M 271.03 170.65   L 266.15 185.10   A 0.88 0.84 -67.2 0 1 264.96 185.62   Q 258.76 182.43 251.84 183.59   Q 249.36 184.00 249.25 181.71   C 255.25 180.72 257.76 181.74 263.41 183.25   A 0.60 0.53 15.9 0 0 264.12 182.91   L 269.14 165.84   Q 269.49 164.64 269.79 165.81   L 271.03 170.65   Z"/>
<path d="   M 197.29 168.75   Q 198.88 169.53 199.04 171.07   A 0.97 0.85 -24.4 0 1 198.68 171.87   L 192.21 177.00   Q 191.11 176.25 190.70 175.05   A 0.80 0.67 -32.1 0 1 190.96 174.25   L 197.29 168.75   Z"/>
<path d="   M 321.95 176.15   L 323.53 177.82   A 0.80 0.62 -55.1 0 1 323.57 178.67   L 314.53 195.66   Q 312.67 197.29 309.99 198.11   Q 309.48 198.27 309.73 197.82   L 321.95 176.15   Z"/>
<path d="   M 245.75 178.43   L 235.48 180.61   A 0.76 0.76 -89.4 0 0 234.90 181.18   L 233.96 185.49   A 1.02 0.82 -86.1 0 1 233.25 186.26   L 226.26 187.30   A 1.17 0.45 -3.7 0 0 225.42 187.69   Q 225.12 188.29 225.26 189.00   A 0.76 0.55 -19.6 0 1 224.78 189.69   C 222.73 190.59 216.68 194.67 215.96 190.75   L 223.18 187.34   A 0.68 0.48 -22.4 0 0 223.59 186.69   L 223.24 185.51   A 0.54 0.34 -10.1 0 1 223.75 185.05   L 231.26 184.06   A 0.73 0.56 -1.0 0 0 231.87 183.57   L 232.80 178.57   A 0.86 0.62 -2.0 0 1 233.50 178.03   L 244.26 176.56   A 1.09 0.83 -21.3 0 1 245.13 176.81   Q 245.63 177.36 245.75 178.43   Z"/>
<path d="   M 184.50 183.21   L 178.65 188.20   A 0.72 0.60 -44.5 0 1 177.80 188.27   L 175.75 186.54   L 182.30 181.38   A 0.60 0.46 -38.6 0 1 183.06 181.37   L 184.50 183.21   Z"/>
<path d="   M 339.75 194.71   Q 341.11 195.21 341.44 196.54   A 0.72 0.59 -20.3 0 1 341.01 197.27   L 309.56 211.38   A 1.17 1.08 -15.3 0 1 307.93 210.54   Q 307.91 210.29 307.12 209.48   L 339.75 194.71   Z"/>
<path d="   M 207.29 195.50   Q 208.70 196.29 209.18 197.78   A 0.83 0.74 -29.6 0 1 208.89 198.63   L 202.93 203.41   A 0.86 0.80 -49.0 0 1 202.01 203.51   Q 200.86 202.87 200.21 201.75   L 207.29 195.50   Z"/>
<path d="   M 190.54 206.50   C 197.68 211.66 187.64 224.04 182.71 226.23   Q 178.36 228.16 174.60 225.11   Q 191.30 223.21 190.54 206.50   Z"/>
<path d="   M 176.29 215.50   C 175.79 215.05 175.27 215.12 174.81 215.62   Q 168.26 222.73 160.47 216.91   C 167.65 219.11 172.19 214.37 177.05 210.35   Q 180.14 207.79 182.08 210.77   A 1.41 1.13 38.8 0 1 182.29 211.73   Q 181.46 215.61 177.69 214.94   A 1.26 1.11 28.7 0 0 176.74 215.15   L 176.29 215.50   Z"/>
<path d="   M 326.24 225.94   Q 322.63 227.70 318.29 228.25   L 317.25 226.46   L 347.25 211.46   Q 349.38 211.19 349.37 213.37   A 0.81 0.74 -12.6 0 1 348.88 214.07   Q 337.22 219.29 326.24 225.94   Z"/>
<path d="   M 352.29 223.75   C 354.17 223.24 355.06 229.28 355.54 230.79   A 1.02 0.92 74.3 0 1 354.91 232.06   L 330.28 237.88   A 1.35 1.34 -13.0 0 0 329.27 239.48   C 329.50 240.54 331.58 246.59 329.50 246.70   L 327.47 236.61   A 0.55 0.42 77.2 0 1 327.75 235.99   L 353.07 229.83   A 0.52 0.46 78.4 0 0 353.41 229.24   L 352.29 223.75   Z"/>
<path d="   M 181.46 231.00   Q 182.17 231.82 183.26 232.16   A 0.57 0.44 16.1 0 1 183.68 232.73   L 181.50 240.50   A 0.89 0.59 1.3 0 1 180.77 240.96   C 179.28 241.09 179.57 249.14 179.48 251.16   A 1.09 1.06 -9.1 0 1 178.77 252.12   Q 174.39 253.70 170.72 257.17   L 165.48 257.54   A 1.02 0.94 -18.9 0 1 164.61 257.16   C 163.87 256.15 175.63 250.53 176.96 249.85   A 0.92 0.45 -21.9 0 0 177.50 249.25   L 177.50 239.75   A 0.51 0.42 -87.5 0 0 177.12 239.25   L 176.75 239.21   L 177.00 238.54   Q 177.87 239.02 178.62 238.78   A 1.12 0.77 -83.8 0 0 179.21 238.09   L 181.46 231.00   Z"/>
<path d="   M 157.25 250.21   C 152.71 250.66 153.43 253.99 152.50 257.21   L 151.28 257.25   A 0.58 0.50 88.3 0 1 150.77 256.69   C 150.67 254.32 150.28 250.95 152.26 249.33   Q 154.61 247.41 157.25 250.21   Z"/>
<path d="   M 356.85 249.59   Q 356.56 252.75 357.97 252.05   A 0.37 0.28 -16.6 0 1 358.49 252.25   L 358.58 260.25   A 0.63 0.60 -88.8 0 1 357.94 260.89   L 331.26 259.48   A 0.47 0.41 88.6 0 0 330.84 259.99   Q 331.24 265.54 330.27 271.01   L 328.70 269.72   A 1.11 0.23 -85.6 0 1 328.58 268.76   L 328.97 259.50   A 1.58 1.47 -87.7 0 1 330.50 257.98   L 356.00 258.98   A 0.57 0.56 2.5 0 0 356.60 258.44   L 356.85 249.59   Z"/>
<path d="   M 145.25 266.79   L 176.56 267.06   A 0.53 0.51 1.1 0 0 177.10 266.56   L 177.29 260.50   Q 178.11 260.64 178.99 260.41   A 0.41 0.37 -8.0 0 1 179.50 260.75   L 179.50 268.75   A 0.57 0.47 -1.2 0 1 178.95 269.22   Q 176.61 269.33 174.32 269.01   Q 167.60 268.10 160.94 269.14   Q 156.79 269.78 145.54 268.65   A 0.42 0.39 -80.0 0 1 145.21 268.13   Q 145.36 267.51 145.25 266.79   Z"/>
<path d="   M 157.50 278.29   Q 159.75 278.68 159.51 281.08   A 1.42 0.35 58.9 0 0 159.79 281.98   L 161.53 285.48   A 1.22 0.23 -71.0 0 1 161.38 286.48   L 159.31 293.38   C 156.78 289.10 158.10 287.95 159.42 283.98   A 1.61 0.90 55.2 0 0 159.33 283.04   L 157.50 278.29   Z"/>
<path d="   M 183.46 282.20   Q 190.82 293.83 180.95 302.69   Q 171.10 311.52 159.18 304.75   C 173.76 308.46 187.63 298.13 183.46 282.20   Z"/>
<path d="   M 350.79 289.75   L 352.40 291.20   A 0.92 0.76 -65.1 0 1 352.62 292.05   Q 351.39 297.17 348.53 301.57   A 0.87 0.78 15.6 0 1 347.81 301.93   L 313.00 300.53   A 0.37 0.30 -78.7 0 1 312.75 300.05   Q 312.96 299.35 312.75 298.79   L 345.94 299.93   A 0.78 0.72 11.1 0 0 346.66 299.49   L 350.79 289.75   Z"/>
</g>
</svg>