<?xml version="1.0" encoding="UTF-8" standalone="no"?>
<!DOCTYPE svg PUBLIC "-//W3C//DTD SVG 1.1//EN" "http://www.w3.org/Graphics/SVG/1.1/DTD/svg11.dtd">
<svg xmlns="http://www.w3.org/2000/svg" version="1.1" viewBox="0 0 1200 1200">
<g stroke-width="3.00" fill="none" stroke-linecap="butt">
<path stroke="#15178d" stroke-opacity="0.749" vector-effect="non-scaling-stroke" d="
  M 803.00 678.83
  Q 799.52 686.25 794.82 692.94"
/>
<path stroke="#151883" stroke-opacity="0.847" vector-effect="non-scaling-stroke" d="
  M 752.50 558.21
  Q 757.57 559.41 754.00 557.71"
/>
<path stroke="#15178d" stroke-opacity="0.749" vector-effect="non-scaling-stroke" d="
  M 791.79 677.00
  Q 796.44 669.11 799.67 660.72"
/>
<path stroke="#15178d" stroke-opacity="0.749" vector-effect="non-scaling-stroke" d="
  M 846.91 592.09
  Q 846.92 595.13 845.65 597.95"
/>
<path stroke="#15178d" stroke-opacity="0.749" vector-effect="non-scaling-stroke" d="
  M 171.82 553.03
  Q 176.57 558.65 174.82 565.96"
/>
<path stroke="#15178d" stroke-opacity="0.749" vector-effect="non-scaling-stroke" d="
  M 152.21 590.50
  C 149.37 587.72 149.32 584.80 152.12 581.79
  C 155.63 578.04 160.78 574.59 160.43 568.70
  A 0.96 0.83 -22.4 0 1 160.82 567.93
  Q 161.89 567.14 162.10 565.90
  A 0.50 0.47 6.5 0 0 161.64 565.36
  Q 156.75 565.03 153.41 568.02"
/>
<path stroke="#15178d" stroke-opacity="0.749" vector-effect="non-scaling-stroke" d="
  M 123.47 668.38
  L 132.04 671.53
  Q 132.43 671.68 133.00 671.61
  Q 134.55 671.41 137.32 671.98
  Q 141.28 672.79 148.07 670.67"
/>
<path stroke="#15178d" stroke-opacity="0.749" vector-effect="non-scaling-stroke" d="
  M 288.39 582.40
  Q 297.29 585.19 297.49 594.48"
/>
<path stroke="#15178d" stroke-opacity="0.749" vector-effect="non-scaling-stroke" d="
  M 275.75 624.86
  Q 272.51 626.81 270.06 629.72"
/>
<path stroke="#15178d" stroke-opacity="0.749" vector-effect="non-scaling-stroke" d="
  M 263.14 645.87
  Q 271.37 646.45 279.78 644.62"
/>
<path stroke="#15178d" stroke-opacity="0.749" vector-effect="non-scaling-stroke" d="
  M 341.62 638.30
  L 347.77 640.67
  A 0.94 0.50 15.3 0 1 348.40 641.26
  Q 348.60 644.37 345.75 645.77
  A 1.16 0.39 -32.9 0 1 344.96 645.97
  Q 340.51 644.94 339.25 649.21"
/>
<path stroke="#15178d" stroke-opacity="0.749" vector-effect="non-scaling-stroke" d="
  M 330.56 649.83
  Q 328.96 648.44 325.49 648.80
  C 315.09 649.87 304.54 650.65 294.50 653.76
  C 293.74 653.99 292.08 653.34 290.83 653.61
  Q 285.18 654.82 279.73 656.95"
/>
<path stroke="#15178d" stroke-opacity="0.749" vector-effect="non-scaling-stroke" d="
  M 253.00 655.71
  Q 249.38 654.67 246.73 652.18
  C 245.09 650.63 244.80 648.30 243.26 646.38
  A 1.34 1.26 28.8 0 1 242.97 645.49
  Q 243.39 639.19 246.24 633.95"
/>
<path stroke="#15178d" stroke-opacity="0.749" vector-effect="non-scaling-stroke" d="
  M 276.25 594.71
  Q 267.41 593.18 263.43 594.15
  C 258.54 595.34 252.24 594.81 246.57 596.78
  Q 244.37 597.54 241.72 597.73
  Q 235.25 598.18 229.68 601.79
  A 0.93 0.88 -17.9 0 0 229.26 602.56
  L 229.29 606.75"
/>
<path stroke="#15178d" stroke-opacity="0.749" vector-effect="non-scaling-stroke" d="
  M 230.54 652.75
  L 232.40 656.16
  A 1.51 0.71 11.2 0 0 233.16 656.72
  Q 235.14 657.49 235.29 659.75"
/>
<path stroke="#15178d" stroke-opacity="0.749" vector-effect="non-scaling-stroke" d="
  M 225.00 665.71
  L 218.83 658.66
  A 0.45 0.44 -32.1 0 0 218.32 658.55
  Q 209.38 662.61 204.12 666.43
  A 1.56 1.44 24.8 0 1 203.22 666.72
  Q 200.05 666.72 198.53 667.50
  Q 182.31 675.73 170.00 678.73
  C 162.82 680.48 156.67 682.15 149.98 683.09"
/>
<path stroke="#15178d" stroke-opacity="0.749" vector-effect="non-scaling-stroke" d="
  M 394.84 587.53
  Q 394.22 592.75 389.97 595.83
  A 1.09 0.98 33.2 0 1 389.08 595.97
  Q 384.06 594.57 381.13 598.62"
/>
<path stroke="#15178d" stroke-opacity="0.749" vector-effect="non-scaling-stroke" d="
  M 368.27 625.81
  Q 371.68 626.93 375.22 627.17
  Q 378.81 627.40 381.25 628.00
  C 386.51 629.28 392.62 629.35 397.13 630.92
  C 403.41 633.10 409.57 636.49 412.32 642.90"
/>
<path stroke="#15178d" stroke-opacity="0.749" vector-effect="non-scaling-stroke" d="
  M 411.14 654.59
  Q 410.02 655.13 408.09 658.09
  C 405.31 662.35 396.64 665.53 390.22 668.25"
/>
<path stroke="#15178d" stroke-opacity="0.749" vector-effect="non-scaling-stroke" d="
  M 353.54 633.75
  Q 347.08 628.17 347.19 619.78
  C 347.23 616.76 349.13 614.41 350.01 611.39
  A 1.25 0.55 -79.6 0 1 350.57 610.57
  L 352.43 609.91
  A 0.97 0.94 -3.1 0 0 353.06 609.23
  Q 353.75 606.43 355.39 604.85"
/>
<path stroke="#15178d" stroke-opacity="0.749" vector-effect="non-scaling-stroke" d="
  M 581.29 584.50
  L 586.12 601.57"
/>
<path stroke="#15178d" stroke-opacity="0.749" vector-effect="non-scaling-stroke" d="
  M 600.26 635.74
  L 605.00 635.77
  Q 607.22 635.78 606.67 637.93
  Q 606.29 639.41 605.29 640.54
  A 1.13 0.18 88.4 0 0 605.17 641.46
  Q 605.15 643.10 603.50 643.46"
/>
<path stroke="#15178d" stroke-opacity="0.749" vector-effect="non-scaling-stroke" d="
  M 606.29 649.00
  Q 608.57 648.66 610.34 649.57
  A 1.33 1.28 -70.0 0 0 612.19 648.66
  L 615.36 635.06"
/>
<path stroke="#15178d" stroke-opacity="0.749" vector-effect="non-scaling-stroke" d="
  M 640.40 611.53
  C 643.48 617.44 644.41 624.06 648.71 630.50"
/>
<path stroke="#15178d" stroke-opacity="0.749" vector-effect="non-scaling-stroke" d="
  M 669.25 654.79
  L 673.75 655.94
  A 0.69 0.62 -73.5 0 0 674.52 655.47
  Q 675.36 652.90 677.22 650.99
  A 1.59 1.21 -26.9 0 0 677.66 650.08
  L 677.99 643.28"
/>
<path stroke="#15178d" stroke-opacity="0.749" vector-effect="non-scaling-stroke" d="
  M 688.29 654.75
  Q 685.80 660.12 681.50 664.21"
/>
<path stroke="#15178d" stroke-opacity="0.749" vector-effect="non-scaling-stroke" d="
  M 645.12 649.44
  Q 642.47 645.33 639.83 640.98
  C 639.09 639.77 638.11 639.30 637.23 638.19
  A 1.59 1.06 -72.9 0 1 636.96 637.29
  Q 636.95 635.82 635.79 635.00"
/>
<path stroke="#15178d" stroke-opacity="0.749" vector-effect="non-scaling-stroke" d="
  M 625.16 648.69
  Q 624.00 653.28 624.29 658.50"
/>
<path stroke="#15178d" stroke-opacity="0.749" vector-effect="non-scaling-stroke" d="
  M 584.42 645.60
  Q 583.62 643.41 579.63 644.71
  A 2.04 2.03 -33.2 0 1 577.65 644.30
  C 577.52 644.19 566.98 646.02 565.58 646.04
  Q 562.96 646.07 560.54 646.77
  Q 553.54 648.80 546.35 648.15"
/>
<path stroke="#15178d" stroke-opacity="0.749" vector-effect="non-scaling-stroke" d="
  M 526.66 648.23
  L 534.00 638.54"
/>
<path stroke="#15178d" stroke-opacity="0.749" vector-effect="non-scaling-stroke" d="
  M 511.13 588.59
  Q 514.19 594.76 514.16 601.37"
/>
<path stroke="#15178d" stroke-opacity="0.749" vector-effect="non-scaling-stroke" d="
  M 499.50 601.96
  C 500.76 598.76 491.56 600.83 490.33 601.03
  C 484.43 601.99 479.67 602.17 474.18 602.41
  Q 471.33 602.54 467.96 604.09
  A 1.61 1.61 -52.9 0 1 467.02 604.22
  Q 458.87 602.89 451.45 606.32"
/>
<path stroke="#15178d" stroke-opacity="0.749" vector-effect="non-scaling-stroke" d="
  M 456.00 639.47
  Q 458.41 639.36 460.20 640.46
  A 0.92 0.62 24.7 0 1 460.66 641.22
  Q 460.14 644.23 460.65 647.32
  A 1.61 1.40 -37.9 0 1 460.45 648.34
  L 458.96 650.89"
/>
<path stroke="#15168c" stroke-opacity="0.667" vector-effect="non-scaling-stroke" d="
  M 433.41 609.36
  Q 431.85 605.73 428.75 607.96"
/>
<path stroke="#15178d" stroke-opacity="0.749" vector-effect="non-scaling-stroke" d="
  M 1047.29 584.50
  L 1052.09 601.58"
/>
<path stroke="#15178d" stroke-opacity="0.749" vector-effect="non-scaling-stroke" d="
  M 1066.02 635.77
  L 1071.20 635.80
  A 1.34 1.33 86.8 0 1 1072.51 636.98
  Q 1072.75 639.00 1071.39 640.40
  A 1.16 0.44 81.8 0 0 1071.21 641.22
  Q 1071.27 643.01 1069.50 643.46"
/>
<path stroke="#15178d" stroke-opacity="0.749" vector-effect="non-scaling-stroke" d="
  M 1072.25 648.71
  L 1079.66 650.08
  A 0.98 0.06 53.0 0 1 1080.25 650.77
  L 1081.84 652.91
  A 2.02 1.84 47.7 0 1 1081.84 655.33
  L 1080.01 657.44"
/>
<path stroke="#15178d" stroke-opacity="0.749" vector-effect="non-scaling-stroke" d="
  M 1050.00 645.46
  C 1050.21 643.42 1047.09 644.28 1046.19 644.77
  Q 1045.73 645.01 1045.25 645.02
  Q 1044.10 645.03 1043.32 644.17
  A 1.15 0.57 -22.8 0 0 1042.27 644.10
  C 1036.57 645.96 1031.29 645.48 1025.67 646.97
  Q 1019.22 648.69 1012.50 648.29"
/>
<path stroke="#15178d" stroke-opacity="0.749" vector-effect="non-scaling-stroke" d="
  M 987.25 653.34
  Q 987.68 651.05 989.73 650.55
  Q 990.25 650.42 990.57 650.12
  Q 996.55 644.53 1000.62 637.31"
/>
<path stroke="#15178d" stroke-opacity="0.749" vector-effect="non-scaling-stroke" d="
  M 952.79 632.50
  Q 952.14 635.67 953.71 638.50"
/>
<path stroke="#15178d" stroke-opacity="0.749" vector-effect="non-scaling-stroke" d="
  M 959.67 642.90
  Q 961.56 642.94 963.34 641.77
  A 0.77 0.74 44.3 0 1 964.16 641.78
  C 966.49 643.25 971.61 640.37 973.78 639.38"
/>
<path stroke="#15178d" stroke-opacity="0.749" vector-effect="non-scaling-stroke" d="
  M 996.96 637.00
  Q 995.05 638.16 994.44 640.35
  A 0.67 0.65 6.9 0 1 993.81 640.83
  C 991.71 640.89 990.61 642.50 989.29 643.12
  Q 982.42 646.37 975.69 649.96
  Q 975.61 650.01 972.67 652.06
  Q 970.48 653.59 967.49 653.48"
/>
<path stroke="#15178d" stroke-opacity="0.749" vector-effect="non-scaling-stroke" d="
  M 941.50 646.46
  Q 939.39 642.26 938.63 637.48"
/>
<path stroke="#15178d" stroke-opacity="0.749" vector-effect="non-scaling-stroke" d="
  M 897.50 642.96
  Q 900.18 643.15 902.32 641.79
  A 1.23 0.41 -36.6 0 1 903.27 641.48
  Q 903.88 641.70 904.24 642.26
  A 0.66 0.53 -26.4 0 0 904.98 642.42
  L 912.59 639.40"
/>
<path stroke="#15178d" stroke-opacity="0.749" vector-effect="non-scaling-stroke" d="
  M 935.96 637.00
  Q 934.08 638.24 933.44 640.30
  A 0.71 0.71 6.1 0 1 932.82 640.80
  C 930.78 640.98 929.51 642.49 928.28 643.08
  Q 921.16 646.49 914.21 650.26
  C 912.52 651.17 911.49 653.14 908.77 652.79
  A 1.68 1.03 23.0 0 0 907.83 652.93
  L 906.50 653.71"
/>
<path stroke="#15178d" stroke-opacity="0.749" vector-effect="non-scaling-stroke" d="
  M 881.75 648.71
  C 880.72 646.34 879.17 644.66 878.68 642.15
  Q 877.81 637.75 877.71 633.25"
/>
<path stroke="#15168c" stroke-opacity="0.667" vector-effect="non-scaling-stroke" d="
  M 814.55 609.81
  C 816.91 610.29 814.19 607.81 814.03 609.19
  A 0.64 0.54 10.0 0 0 814.55 609.81"
/>
<path stroke="#15178d" stroke-opacity="0.749" vector-effect="non-scaling-stroke" d="
  M 556.50 635.96
  Q 560.95 638.14 565.55 636.20
  Q 565.81 636.09 566.49 636.10
  L 571.00 636.21"
/>
<path stroke="#15178d" stroke-opacity="0.749" vector-effect="non-scaling-stroke" d="
  M 577.40 620.62
  L 573.54 606.06"
/>
<path stroke="#151883" stroke-opacity="0.847" vector-effect="non-scaling-stroke" d="
  M 1017.25 632.44
  L 1016.54 635.10"
/>
<path stroke="#15178d" stroke-opacity="0.749" vector-effect="non-scaling-stroke" d="
  M 1022.25 635.96
  C 1025.67 637.88 1028.27 637.15 1032.25 636.04
  A 1.71 1.39 41.5 0 1 1033.20 636.08
  Q 1035.11 636.73 1037.00 636.21"
/>
<path stroke="#15178d" stroke-opacity="0.749" vector-effect="non-scaling-stroke" d="
  M 1043.39 620.38
  L 1039.55 606.05"
/>
</g>
<g fill="#191ba9">
<path d="
  M 803.00 678.83
  Q 799.52 686.25 794.82 692.94
  Q 791.11 696.46 786.67 698.68
  Q 783.92 700.07 781.32 698.21
  L 776.34 694.66
  A 1.48 0.24 68.2 0 1 775.78 693.73
  Q 775.10 692.20 775.26 690.50
  A 1.19 0.58 34.8 0 0 774.81 689.70
  Q 772.94 687.97 771.89 685.64
  A 1.21 0.90 49.4 0 1 771.83 684.75
  Q 772.75 682.47 771.40 680.29
  A 1.39 1.29 37.8 0 1 771.23 679.25
  L 771.58 677.82
  A 1.75 1.00 -61.4 0 0 771.56 676.79
  Q 769.30 671.69 768.27 666.22
  C 767.88 664.15 766.49 662.69 766.05 660.74
  Q 765.14 656.65 764.50 650.89
  C 764.35 649.50 763.11 646.07 763.42 643.71
  Q 763.65 641.90 763.45 640.81
  C 760.98 627.58 759.96 613.59 756.37 600.69
  C 755.61 597.97 756.21 594.76 753.35 592.09
  A 0.93 0.90 26.0 0 1 753.05 591.26
  C 753.78 586.38 751.75 583.15 751.63 578.33
  A 1.90 1.37 -70.5 0 0 751.35 577.37
  L 747.61 571.90
  A 1.05 0.70 -58.5 0 1 747.58 571.04
  C 748.95 567.40 743.46 564.80 746.31 562.82
  Q 751.45 559.24 752.50 558.21
  Q 757.57 559.41 754.00 557.71
  C 754.94 555.28 761.67 559.55 762.84 560.48
  A 1.08 0.67 29.4 0 1 763.27 561.26
  Q 763.05 563.19 763.80 564.98
  A 1.77 1.68 39.9 0 1 763.92 566.00
  Q 763.51 568.29 763.97 570.55
  C 764.71 574.23 764.92 577.51 766.18 580.67
  Q 767.02 582.77 767.06 584.71
  C 767.17 590.60 769.90 598.05 768.13 603.53
  A 1.12 0.35 -68.3 0 0 768.06 604.45
  L 769.20 606.06
  A 1.50 0.85 42.2 0 1 769.50 606.97
  C 769.14 609.78 768.95 611.55 770.08 614.42
  Q 771.26 617.44 770.99 620.67
  C 770.76 623.51 771.60 625.27 772.39 627.78
  A 0.99 0.94 -33.5 0 1 772.18 628.69
  Q 772.01 628.88 771.91 629.19
  A 1.58 1.20 50.4 0 0 771.95 630.15
  Q 772.62 632.05 772.88 635.82
  C 773.04 638.14 774.21 640.64 774.43 643.87
  Q 774.61 646.64 775.96 649.16
  A 1.34 0.35 65.6 0 0 776.58 649.93
  Q 777.89 650.43 776.65 651.40
  A 0.77 0.74 -32.1 0 0 776.42 652.31
  L 777.83 655.42
  Q 778.20 656.23 778.20 656.31
  C 778.23 660.71 779.47 664.11 779.87 667.79
  C 780.30 671.74 780.96 673.64 783.21 676.38
  A 1.58 0.67 40.3 0 1 783.62 677.19
  Q 783.94 680.96 786.46 683.80
  A 0.60 0.51 51.2 0 0 787.20 683.94
  Q 789.03 682.64 789.62 680.40
  A 1.53 0.67 -26.2 0 1 790.26 679.64
  Q 791.62 678.66 791.79 677.00
  Q 796.44 669.11 799.67 660.72
  Q 800.80 655.31 803.46 651.10
  A 1.73 0.88 -43.6 0 0 803.76 650.25
  L 803.76 647.26
  A 1.70 0.92 77.6 0 1 804.03 646.31
  C 806.18 643.69 805.99 640.75 807.01 637.83
  C 807.79 635.63 807.83 633.48 808.76 631.23
  Q 809.58 629.25 809.72 627.10
  C 810.04 622.28 812.19 618.07 812.84 613.25
  Q 814.46 601.36 817.27 591.26
  Q 817.77 589.47 817.04 588.10
  A 1.25 1.03 44.1 0 1 816.94 587.21
  Q 818.09 583.85 817.99 582.18
  Q 817.55 574.96 819.51 568.00
  Q 820.16 565.70 820.44 554.23
  A 1.74 1.46 -30.6 0 1 820.76 553.32
  C 822.98 550.12 821.40 547.59 821.60 544.31
  Q 821.89 539.37 821.27 532.00
  Q 821.09 529.78 823.11 528.01
  A 1.19 1.06 -60.4 0 1 824.00 527.71
  Q 826.81 528.03 829.49 527.23
  A 0.83 0.80 -31.3 0 1 830.29 527.41
  Q 834.93 531.74 837.06 537.64
  C 838.08 540.44 837.46 543.78 838.59 547.01
  A 1.19 0.98 -42.0 0 1 838.45 547.95
  Q 835.72 552.28 831.34 554.84
  A 0.98 0.87 80.6 0 0 830.90 555.54
  C 828.47 574.83 826.82 594.68 822.77 613.68
  Q 822.44 615.23 821.39 622.90
  C 820.47 629.68 817.66 635.83 816.79 642.88
  C 816.11 648.38 813.35 653.70 811.70 658.98
  C 811.11 660.86 809.43 662.66 808.73 664.80
  Q 806.36 672.03 803.00 678.83
  Z
  M 814.55 609.81
  C 816.91 610.29 814.19 607.81 814.03 609.19
  A 0.64 0.54 10.0 0 0 814.55 609.81
  Z"
/>
<path d="
  M 171.82 553.03
  Q 176.57 558.65 174.82 565.96
  Q 174.61 572.71 171.37 578.38
  C 170.51 579.89 168.10 582.08 167.09 584.38
  C 164.91 589.34 157.90 598.25 152.21 590.50
  C 149.37 587.72 149.32 584.80 152.12 581.79
  C 155.63 578.04 160.78 574.59 160.43 568.70
  A 0.96 0.83 -22.4 0 1 160.82 567.93
  Q 161.89 567.14 162.10 565.90
  A 0.50 0.47 6.5 0 0 161.64 565.36
  Q 156.75 565.03 153.41 568.02
  L 143.58 577.42
  A 1.31 0.46 -37.3 0 0 143.09 578.16
  Q 142.91 580.14 141.03 579.73
  A 0.92 0.46 -60.6 0 0 140.32 580.21
  C 138.74 582.53 136.16 584.40 135.76 587.26
  A 1.24 0.84 85.0 0 1 135.30 588.09
  Q 131.55 590.35 131.70 594.80
  A 1.02 0.15 -50.3 0 1 131.26 595.53
  Q 129.49 597.78 128.88 600.59
  A 1.39 1.01 85.8 0 1 128.38 601.40
  Q 125.77 603.08 125.76 606.25
  A 1.20 0.10 -53.8 0 1 125.20 607.16
  C 122.09 611.55 116.30 621.22 116.37 626.61
  C 116.39 628.55 115.04 629.81 114.59 631.00
  C 113.36 634.18 111.90 636.69 111.93 640.27
  C 111.96 643.59 110.98 646.75 111.33 649.83
  Q 111.96 655.34 114.07 660.50
  A 1.79 0.79 78.8 0 0 114.66 661.34
  L 116.32 662.42
  A 1.72 0.83 81.0 0 1 116.90 663.26
  Q 118.42 667.30 123.47 668.38
  L 132.04 671.53
  Q 132.43 671.68 133.00 671.61
  Q 134.55 671.41 137.32 671.98
  Q 141.28 672.79 148.07 670.67
  Q 150.56 671.38 152.66 669.84
  A 1.31 0.43 -42.2 0 1 153.51 669.46
  Q 154.52 669.57 155.42 670.11
  A 1.17 1.06 -33.8 0 0 156.24 670.23
  C 160.95 669.21 165.27 667.09 170.08 666.66
  Q 173.63 666.35 175.50 665.50
  Q 183.85 661.71 192.66 659.22
  C 196.38 658.16 198.96 655.76 203.29 655.37
  Q 203.79 655.32 204.19 655.05
  C 207.56 652.74 210.32 653.17 213.79 651.41
  A 0.89 0.82 44.3 0 1 214.57 651.43
  L 217.22 652.80
  Q 218.00 653.21 217.66 652.28
  L 215.59 646.68
  Q 215.33 645.96 215.34 645.70
  C 215.54 641.07 214.31 636.53 215.12 632.05
  Q 215.98 627.25 214.61 622.49
  A 1.64 0.96 59.7 0 1 214.61 621.53
  L 215.46 619.37
  Q 215.69 618.80 215.67 618.42
  C 215.46 614.22 217.04 610.03 216.20 605.97
  A 1.28 1.17 71.4 0 0 214.50 605.02
  L 206.04 609.31
  Q 204.43 610.13 202.20 608.52
  L 199.02 606.22
  A 0.97 0.13 34.3 0 1 198.42 605.68
  C 196.40 599.18 205.46 595.64 211.17 594.53
  C 214.78 593.83 218.33 589.92 221.33 587.81
  A 1.58 1.56 41.4 0 1 222.96 587.72
  Q 228.04 590.40 232.82 587.37
  A 1.47 0.40 -37.4 0 1 233.72 587.00
  C 238.12 587.25 240.47 585.15 244.43 584.65
  Q 249.55 584.01 254.57 582.96
  C 258.86 582.06 263.34 582.40 267.86 581.65
  C 274.67 580.53 281.58 581.21 288.39 582.40
  Q 297.29 585.19 297.49 594.48
  Q 295.20 602.26 291.27 609.15
  C 287.96 614.97 280.61 620.07 275.75 624.86
  Q 272.51 626.81 270.06 629.72
  C 266.29 632.74 258.57 637.20 258.78 642.46
  A 0.93 0.77 15.5 0 0 259.27 643.16
  C 261.03 644.06 260.31 646.33 263.14 645.87
  Q 271.37 646.45 279.78 644.62
  L 300.24 642.37
  A 1.64 0.41 -1.9 0 0 301.30 642.07
  Q 303.42 640.37 305.67 641.85
  A 1.25 0.17 -12.0 0 0 306.75 641.77
  Q 314.06 640.37 321.50 640.22
  A 0.71 0.69 -1.9 0 0 322.20 639.49
  C 321.91 634.45 320.52 629.16 321.28 624.16
  C 322.88 613.56 325.09 606.05 322.82 598.24
  A 1.31 0.39 69.3 0 1 322.75 597.26
  Q 323.85 595.22 323.23 593.00
  A 0.83 0.69 -22.8 0 1 323.66 592.16
  Q 324.94 591.49 325.07 590.07
  A 0.92 0.59 -9.9 0 1 325.72 589.47
  C 330.26 588.12 333.57 590.28 334.45 594.95
  C 336.29 604.73 333.41 618.65 333.00 625.75
  C 332.92 627.21 332.98 640.19 336.35 637.79
  A 0.59 0.55 48.7 0 1 337.07 637.86
  Q 338.57 639.29 341.62 638.30
  L 347.77 640.67
  A 0.94 0.50 15.3 0 1 348.40 641.26
  Q 348.60 644.37 345.75 645.77
  A 1.16 0.39 -32.9 0 1 344.96 645.97
  Q 340.51 644.94 339.25 649.21
  Q 334.87 650.10 330.56 649.83
  Q 328.96 648.44 325.49 648.80
  C 315.09 649.87 304.54 650.65 294.50 653.76
  C 293.74 653.99 292.08 653.34 290.83 653.61
  Q 285.18 654.82 279.73 656.95
  Q 277.22 657.70 274.70 656.48
  A 1.29 1.23 47.9 0 0 273.77 656.41
  Q 263.31 659.87 253.00 655.71
  Q 249.38 654.67 246.73 652.18
  C 245.09 650.63 244.80 648.30 243.26 646.38
  A 1.34 1.26 28.8 0 1 242.97 645.49
  Q 243.39 639.19 246.24 633.95
  Q 254.96 625.37 264.74 618.38
  Q 268.11 615.97 270.97 613.22
  C 276.36 608.04 281.75 604.92 283.49 597.21
  A 0.75 0.71 -67.6 0 0 283.19 596.44
  Q 280.03 594.30 276.25 594.71
  Q 267.41 593.18 263.43 594.15
  C 258.54 595.34 252.24 594.81 246.57 596.78
  Q 244.37 597.54 241.72 597.73
  Q 235.25 598.18 229.68 601.79
  A 0.93 0.88 -17.9 0 0 229.26 602.56
  L 229.29 606.75
  C 225.65 612.62 227.18 623.13 226.58 629.66
  Q 226.14 634.51 226.66 637.80
  Q 227.86 645.45 230.54 652.75
  L 232.40 656.16
  A 1.51 0.71 11.2 0 0 233.16 656.72
  Q 235.14 657.49 235.29 659.75
  L 232.59 667.22
  A 0.88 0.78 -82.5 0 1 231.95 667.77
  Q 228.04 668.37 225.00 665.71
  L 218.83 658.66
  A 0.45 0.44 -32.1 0 0 218.32 658.55
  Q 209.38 662.61 204.12 666.43
  A 1.56 1.44 24.8 0 1 203.22 666.72
  Q 200.05 666.72 198.53 667.50
  Q 182.31 675.73 170.00 678.73
  C 162.82 680.48 156.67 682.15 149.98 683.09
  Q 146.98 682.80 144.46 684.58
  A 1.60 1.22 -54.3 0 1 143.51 684.87
  Q 134.83 684.20 126.30 682.54
  A 1.54 0.74 1.0 0 1 125.41 682.09
  Q 124.17 680.46 122.28 681.26
  A 1.12 0.91 -36.4 0 1 121.31 681.21
  Q 117.32 678.59 112.78 677.18
  A 1.62 1.39 79.3 0 1 111.97 676.53
  L 110.24 673.75
  A 0.88 0.39 58.8 0 0 109.49 673.22
  Q 108.83 673.54 108.03 673.48
  Q 106.44 673.36 104.79 670.20
  Q 103.03 666.84 101.06 663.61
  C 99.55 661.15 99.70 658.87 99.34 656.12
  C 99.12 654.41 98.00 653.08 98.24 651.00
  C 98.97 644.77 100.76 630.40 104.70 625.66
  A 1.97 1.67 72.9 0 0 105.08 624.78
  Q 106.52 615.53 111.91 607.94
  Q 112.23 607.49 112.28 607.00
  C 112.83 601.78 116.53 596.16 119.70 590.39
  C 120.37 589.19 120.22 587.67 121.57 586.51
  A 1.53 1.27 -18.7 0 0 122.06 585.71
  C 122.73 582.44 125.79 579.11 127.01 575.66
  A 1.57 1.42 -8.4 0 1 127.62 574.92
  C 131.90 572.22 134.49 566.38 138.69 563.01
  Q 140.32 561.71 141.06 559.68
  A 1.53 1.52 84.1 0 1 141.69 558.90
  L 155.23 550.22
  A 1.20 0.88 26.4 0 1 155.99 550.09
  Q 158.87 550.59 161.47 549.12
  Q 162.81 548.37 164.47 549.22
  L 171.82 553.03
  Z"
/>
<path d="
  M 581.29 584.50
  L 586.12 601.57
  C 587.31 605.14 586.29 608.30 587.45 611.59
  Q 590.67 620.70 592.52 630.20
  Q 593.67 636.12 600.26 635.74
  L 605.00 635.77
  Q 607.22 635.78 606.67 637.93
  Q 606.29 639.41 605.29 640.54
  A 1.13 0.18 88.4 0 0 605.17 641.46
  Q 605.15 643.10 603.50 643.46
  L 599.70 644.22
  A 0.43 0.43 72.1 0 0 599.40 644.81
  Q 601.37 649.23 606.29 649.00
  Q 608.57 648.66 610.34 649.57
  A 1.33 1.28 -70.0 0 0 612.19 648.66
  L 615.36 635.06
  C 615.94 633.03 619.72 620.89 619.08 619.90
  A 1.09 0.83 42.3 0 1 618.92 619.04
  C 621.35 611.70 621.78 603.98 621.75 595.00
  C 621.73 590.76 622.13 587.70 625.58 584.49
  A 1.46 0.82 -54.6 0 1 626.49 584.06
  Q 631.14 584.20 635.11 586.60
  A 1.36 0.73 -88.8 0 1 635.57 587.50
  Q 637.31 599.59 640.40 611.53
  C 643.48 617.44 644.41 624.06 648.71 630.50
  Q 651.92 637.13 653.29 638.47
  C 659.36 644.46 662.48 650.73 669.25 654.79
  L 673.75 655.94
  A 0.69 0.62 -73.5 0 0 674.52 655.47
  Q 675.36 652.90 677.22 650.99
  A 1.59 1.21 -26.9 0 0 677.66 650.08
  L 677.99 643.28
  Q 678.43 641.55 678.84 640.10
  C 679.63 637.28 678.83 634.02 679.28 630.96
  A 1.65 0.70 -72.5 0 0 679.18 629.93
  Q 677.59 627.36 679.02 624.79
  A 1.22 0.35 65.9 0 0 678.88 623.81
  C 676.90 618.37 678.02 613.99 676.85 608.77
  C 675.80 604.06 676.54 599.99 674.23 595.71
  A 1.49 1.49 35.5 0 1 674.08 594.78
  C 674.85 590.15 672.68 586.54 673.49 581.75
  A 0.93 0.91 7.6 0 1 674.50 581.00
  L 683.01 581.95
  Q 683.31 581.98 683.91 582.35
  L 689.17 585.58
  Q 690.73 586.54 690.39 588.31
  L 689.86 591.06
  A 1.37 1.01 83.5 0 1 689.40 591.86
  Q 686.52 593.95 685.44 597.46
  C 685.18 598.33 686.00 600.98 686.06 602.20
  Q 686.58 613.09 688.50 623.82
  C 690.46 634.72 690.14 644.28 688.29 654.75
  Q 685.80 660.12 681.50 664.21
  Q 677.53 665.49 674.80 668.61
  A 1.02 0.99 -67.2 0 1 673.98 668.96
  C 668.52 668.65 664.84 665.60 660.30 663.45
  C 654.61 660.77 649.31 654.17 645.12 649.44
  Q 642.47 645.33 639.83 640.98
  C 639.09 639.77 638.11 639.30 637.23 638.19
  A 1.59 1.06 -72.9 0 1 636.96 637.29
  Q 636.95 635.82 635.79 635.00
  Q 634.31 630.47 631.39 627.37
  A 0.87 0.81 -58.5 0 0 630.00 627.75
  L 627.00 636.96
  A 1.40 1.38 42.0 0 0 627.06 638.00
  Q 627.96 639.92 626.02 641.03
  A 1.14 0.82 82.3 0 0 625.56 641.89
  L 625.16 648.69
  Q 624.00 653.28 624.29 658.50
  Q 624.14 660.28 625.03 661.83
  A 1.24 0.58 52.1 0 1 625.24 662.75
  L 624.84 663.82
  A 0.63 0.53 26.1 0 0 625.15 664.52
  C 629.23 666.84 633.95 673.15 626.51 675.28
  Q 621.50 676.71 619.19 677.86
  A 1.21 0.46 -31.3 0 1 618.22 678.04
  L 614.82 676.17
  A 1.51 0.44 69.3 0 1 614.22 675.37
  C 611.32 669.49 611.55 664.61 610.83 658.73
  A 0.56 0.43 78.6 0 0 610.24 658.22
  Q 607.68 659.15 604.99 658.55
  A 1.00 0.10 -32.8 0 0 604.20 658.95
  Q 603.92 659.12 604.01 659.50
  A 0.97 0.22 -0.2 0 1 602.99 659.74
  L 597.20 659.71
  A 1.21 0.73 61.5 0 1 596.42 659.25
  Q 594.96 657.50 593.88 657.53
  Q 591.53 657.60 590.24 655.43
  L 584.42 645.60
  Q 583.62 643.41 579.63 644.71
  A 2.04 2.03 -33.2 0 1 577.65 644.30
  C 577.52 644.19 566.98 646.02 565.58 646.04
  Q 562.96 646.07 560.54 646.77
  Q 553.54 648.80 546.35 648.15
  Q 541.12 648.05 538.81 652.23
  C 536.81 655.86 533.97 659.33 530.83 662.01
  Q 529.88 662.83 529.79 664.22
  A 1.01 0.85 79.9 0 1 529.35 664.98
  C 518.96 670.93 515.78 660.75 522.17 654.82
  A 0.70 0.46 -46.7 0 0 522.33 653.92
  Q 521.45 653.32 521.23 652.25
  A 0.79 0.34 -21.7 0 1 521.79 651.69
  Q 524.57 650.49 526.66 648.23
  L 534.00 638.54
  L 538.64 633.10
  A 1.49 0.95 -34.0 0 0 539.01 632.25
  L 538.99 631.25
  A 1.66 1.12 -35.8 0 1 539.31 630.38
  C 540.87 628.23 542.89 622.83 544.80 621.51
  A 1.16 0.85 -21.4 0 0 545.28 620.76
  Q 545.36 619.00 546.81 618.08
  A 2.00 1.70 -7.2 0 0 547.48 617.35
  C 550.50 611.24 554.00 605.75 555.60 598.97
  A 1.32 0.43 -81.2 0 1 556.06 598.06
  L 557.06 597.57
  A 1.13 0.74 83.6 0 0 557.51 596.68
  C 557.64 593.66 559.65 592.27 560.48 589.90
  C 561.92 585.75 563.11 580.68 565.76 577.16
  A 0.78 0.37 -52.9 0 0 565.94 576.31
  Q 565.50 575.97 565.25 575.51
  A 1.02 0.49 -44.5 0 1 565.58 574.59
  L 568.30 571.57
  A 1.16 0.89 -49.0 0 1 569.71 571.28
  Q 572.52 573.63 576.28 573.70
  Q 579.16 573.76 579.72 576.61
  L 581.29 584.50
  Z
  M 556.50 635.96
  Q 560.95 638.14 565.55 636.20
  Q 565.81 636.09 566.49 636.10
  L 571.00 636.21
  Q 575.06 635.69 578.99 636.78
  A 0.91 0.56 20.0 0 0 579.90 636.59
  Q 581.54 633.86 579.43 631.24
  Q 579.25 631.01 579.15 630.45
  L 577.40 620.62
  L 573.54 606.06
  Q 572.30 600.63 570.04 595.72
  A 1.01 0.77 -5.4 0 0 569.27 595.24
  Q 568.88 595.19 568.69 595.43
  A 0.99 0.98 57.8 0 0 568.50 596.29
  Q 569.38 599.82 566.36 601.87
  A 1.60 0.50 -75.1 0 0 565.82 602.73
  Q 561.97 612.71 556.18 621.75
  Q 555.44 622.91 553.71 627.28
  C 552.36 630.70 545.84 637.42 556.50 635.96
  Z"
/>
<path d="
  M 1047.29 584.50
  L 1052.09 601.58
  C 1053.34 605.17 1052.28 608.27 1053.45 611.58
  Q 1056.67 620.70 1058.54 630.20
  Q 1059.68 635.93 1066.02 635.77
  L 1071.20 635.80
  A 1.34 1.33 86.8 0 1 1072.51 636.98
  Q 1072.75 639.00 1071.39 640.40
  A 1.16 0.44 81.8 0 0 1071.21 641.22
  Q 1071.27 643.01 1069.50 643.46
  L 1065.67 644.32
  A 0.41 0.35 -21.4 0 0 1065.37 644.87
  Q 1067.15 647.58 1070.00 649.24
  A 1.35 1.03 46.5 0 0 1070.99 649.40
  Q 1071.68 649.19 1072.25 648.71
  L 1079.66 650.08
  A 0.98 0.06 53.0 0 1 1080.25 650.77
  L 1081.84 652.91
  A 2.02 1.84 47.7 0 1 1081.84 655.33
  L 1080.01 657.44
  Q 1075.62 658.95 1071.04 658.64
  A 1.09 0.84 17.6 0 0 1070.19 658.95
  Q 1069.94 659.25 1069.94 659.68
  A 0.95 0.11 -0.0 0 1 1068.99 659.79
  L 1064.01 659.81
  A 1.78 0.76 -9.6 0 1 1062.96 659.56
  L 1061.10 658.14
  A 1.89 1.74 -21.8 0 0 1060.18 657.79
  C 1056.14 657.45 1052.91 649.69 1051.22 646.48
  Q 1051.15 646.34 1050.53 645.86
  L 1050.00 645.46
  C 1050.21 643.42 1047.09 644.28 1046.19 644.77
  Q 1045.73 645.01 1045.25 645.02
  Q 1044.10 645.03 1043.32 644.17
  A 1.15 0.57 -22.8 0 0 1042.27 644.10
  C 1036.57 645.96 1031.29 645.48 1025.67 646.97
  Q 1019.22 648.69 1012.50 648.29
  Q 1010.52 647.46 1008.48 648.23
  Q 1007.21 648.71 1005.79 651.04
  Q 1001.97 657.32 996.61 662.37
  A 1.32 0.38 -40.0 0 0 996.00 663.27
  Q 996.08 664.07 995.59 664.88
  Q 994.84 666.11 991.01 666.79
  C 982.71 668.26 984.38 658.31 988.15 654.85
  A 0.77 0.63 -35.4 0 0 988.37 654.05
  Q 988.06 653.34 987.25 653.34
  Q 987.68 651.05 989.73 650.55
  Q 990.25 650.42 990.57 650.12
  Q 996.55 644.53 1000.62 637.31
  C 1002.15 635.92 1005.08 633.56 1005.03 631.28
  A 1.56 1.33 66.2 0 1 1005.30 630.38
  C 1006.64 628.57 1009.09 622.62 1010.69 621.61
  A 1.27 1.04 -16.7 0 0 1011.27 620.75
  Q 1011.43 618.83 1013.09 617.85
  A 1.58 0.54 -72.4 0 0 1013.68 617.05
  C 1016.56 610.90 1019.97 605.91 1021.66 598.77
  A 1.25 1.22 -9.1 0 1 1022.24 597.99
  L 1023.20 597.44
  A 1.20 0.55 85.7 0 0 1023.55 596.50
  Q 1023.63 593.74 1025.63 591.89
  A 2.16 1.00 -30.7 0 0 1026.26 590.97
  Q 1028.15 583.65 1031.66 576.99
  A 0.88 0.49 -60.0 0 0 1031.67 576.05
  Q 1031.39 575.84 1031.26 575.51
  A 1.10 0.61 -41.8 0 1 1031.58 574.59
  L 1034.30 571.57
  A 1.16 0.89 -49.0 0 1 1035.71 571.28
  Q 1038.52 573.63 1042.27 573.70
  Q 1045.16 573.76 1045.72 576.61
  L 1047.29 584.50
  Z
  M 1017.25 632.44
  L 1016.54 635.10
  Q 1019.45 636.80 1022.25 635.96
  C 1025.67 637.88 1028.27 637.15 1032.25 636.04
  A 1.71 1.39 41.5 0 1 1033.20 636.08
  Q 1035.11 636.73 1037.00 636.21
  Q 1041.11 635.72 1044.95 636.75
  A 0.92 0.79 27.6 0 0 1045.80 636.55
  Q 1046.35 636.00 1046.62 635.21
  A 1.62 1.23 50.9 0 0 1046.59 634.25
  Q 1044.40 627.64 1043.39 620.38
  L 1039.55 606.05
  Q 1038.34 601.62 1036.85 597.23
  C 1036.11 595.07 1033.56 593.99 1034.75 598.32
  A 1.12 1.06 55.0 0 1 1034.62 599.20
  C 1033.46 600.95 1032.17 601.93 1031.37 603.91
  C 1028.32 611.52 1023.94 617.96 1020.58 625.33
  Q 1018.95 628.90 1017.25 632.44
  Z"
/>
<path d="
  M 394.84 587.53
  Q 394.22 592.75 389.97 595.83
  A 1.09 0.98 33.2 0 1 389.08 595.97
  Q 384.06 594.57 381.13 598.62
  C 376.38 600.14 374.79 604.10 370.70 605.36
  A 1.78 0.80 -5.3 0 0 369.85 605.84
  L 360.73 616.75
  A 1.47 0.86 70.6 0 0 360.53 617.77
  Q 361.39 624.54 368.27 625.81
  Q 371.68 626.93 375.22 627.17
  Q 378.81 627.40 381.25 628.00
  C 386.51 629.28 392.62 629.35 397.13 630.92
  C 403.41 633.10 409.57 636.49 412.32 642.90
  L 412.73 648.94
  A 1.49 0.58 -47.4 0 1 412.38 649.84
  Q 411.25 651.51 411.14 654.59
  Q 410.02 655.13 408.09 658.09
  C 405.31 662.35 396.64 665.53 390.22 668.25
  Q 381.78 670.65 373.01 671.05
  A 2.02 1.90 75.6 0 1 371.14 669.86
  Q 370.22 667.84 368.02 667.70
  A 0.76 0.74 0.4 0 1 367.31 666.99
  L 366.99 659.50
  A 0.76 0.72 -1.4 0 1 367.75 658.74
  Q 369.48 658.74 371.28 658.50
  C 374.17 658.13 376.51 659.33 379.50 658.74
  Q 388.82 656.92 398.61 653.00
  A 1.23 0.43 -17.4 0 0 399.39 652.42
  L 400.78 647.76
  A 0.87 0.55 25.8 0 0 400.29 646.97
  L 393.69 643.32
  A 1.85 1.36 -25.4 0 0 392.75 643.14
  C 388.37 643.51 386.05 641.39 382.33 640.80
  Q 378.64 640.21 375.00 639.55
  A 1.39 0.44 16.2 0 0 374.07 639.57
  L 372.93 640.18
  A 0.92 0.62 44.8 0 1 372.08 640.02
  C 369.77 638.28 367.19 638.64 365.06 637.88
  Q 359.30 635.81 353.54 633.75
  Q 347.08 628.17 347.19 619.78
  C 347.23 616.76 349.13 614.41 350.01 611.39
  A 1.25 0.55 -79.6 0 1 350.57 610.57
  L 352.43 609.91
  A 0.97 0.94 -3.1 0 0 353.06 609.23
  Q 353.75 606.43 355.39 604.85
  Q 358.63 601.95 361.05 598.86
  Q 362.61 596.87 364.83 595.04
  Q 367.09 593.18 368.93 590.87
  Q 369.24 590.48 369.79 590.26
  Q 374.57 588.38 378.16 584.66
  A 1.59 1.23 -65.9 0 1 379.00 584.21
  C 382.52 583.79 393.22 576.14 393.97 582.47
  Q 394.43 586.27 394.84 587.53
  Z"
/>
<path d="
  M 511.13 588.59
  Q 514.19 594.76 514.16 601.37
  Q 511.98 624.30 511.95 629.49
  Q 511.92 633.27 513.68 637.86
  A 0.57 0.35 66.9 0 0 514.26 638.27
  L 515.74 637.46
  A 0.72 0.44 71.4 0 1 516.45 638.06
  Q 517.55 642.03 519.86 645.43
  A 0.96 0.62 52.1 0 1 519.95 646.44
  L 517.46 649.19
  A 1.47 0.81 9.4 0 1 516.50 649.53
  L 510.50 649.78
  A 0.95 0.90 72.5 0 1 509.68 649.32
  Q 509.03 648.27 507.75 648.51
  A 1.05 0.62 56.3 0 1 506.94 648.12
  Q 504.43 645.26 502.37 642.10
  C 500.45 639.15 500.79 634.02 500.31 630.52
  C 499.02 621.18 503.42 611.65 502.67 602.10
  A 0.49 0.48 -5.2 0 0 502.13 601.66
  L 499.50 601.96
  C 500.76 598.76 491.56 600.83 490.33 601.03
  C 484.43 601.99 479.67 602.17 474.18 602.41
  Q 471.33 602.54 467.96 604.09
  A 1.61 1.61 -52.9 0 1 467.02 604.22
  Q 458.87 602.89 451.45 606.32
  Q 445.83 605.78 448.74 609.33
  A 1.08 1.05 30.2 0 1 448.98 610.19
  C 448.40 614.08 449.49 617.01 449.24 620.62
  Q 449.04 623.57 449.37 625.79
  Q 450.17 631.23 449.68 636.78
  A 1.05 0.40 -80.5 0 0 449.85 637.64
  Q 451.39 638.83 451.27 640.73
  A 0.51 0.40 -12.2 0 0 451.97 641.07
  L 456.00 639.47
  Q 458.41 639.36 460.20 640.46
  A 0.92 0.62 24.7 0 1 460.66 641.22
  Q 460.14 644.23 460.65 647.32
  A 1.61 1.40 -37.9 0 1 460.45 648.34
  L 458.96 650.89
  Q 455.50 654.91 449.69 657.92
  Q 447.14 659.25 444.88 658.75
  A 1.45 0.99 -2.6 0 1 444.02 658.22
  Q 443.02 656.68 441.46 655.79
  A 1.32 0.73 88.7 0 1 440.98 654.97
  Q 440.57 653.00 440.22 652.54
  C 435.61 646.50 436.49 642.05 435.42 635.25
  Q 434.97 632.39 435.17 630.21
  Q 436.11 619.65 433.41 609.36
  Q 431.85 605.73 428.75 607.96
  L 423.74 608.07
  Q 422.99 608.09 422.77 608.18
  C 418.74 609.81 411.55 611.33 407.95 607.97
  A 1.17 0.58 34.1 0 1 407.53 607.23
  Q 407.61 605.13 406.09 603.63
  A 0.67 0.57 -50.9 0 1 406.07 602.83
  L 408.42 599.42
  A 1.69 1.49 5.9 0 1 409.26 598.82
  C 415.56 596.90 421.78 596.59 428.07 594.91
  C 431.23 594.07 434.30 594.65 437.28 594.13
  C 444.16 592.92 450.91 593.56 457.52 592.56
  Q 467.85 591.00 478.26 590.33
  A 1.56 1.37 18.0 0 0 479.19 589.93
  Q 480.38 588.75 482.00 589.49
  A 1.71 1.10 -30.6 0 0 483.01 589.53
  L 488.81 588.09
  A 1.30 0.31 -17.9 0 1 489.73 588.02
  Q 491.56 588.80 492.26 586.99
  A 0.94 0.88 -82.4 0 1 492.98 586.40
  L 502.50 585.01
  A 1.42 1.31 -71.5 0 0 503.32 584.56
  Q 505.90 581.65 507.74 585.13
  C 508.62 586.81 507.75 589.19 511.13 588.59
  Z"
/>
<path d="
  M 897.50 642.96
  Q 900.18 643.15 902.32 641.79
  A 1.23 0.41 -36.6 0 1 903.27 641.48
  Q 903.88 641.70 904.24 642.26
  A 0.66 0.53 -26.4 0 0 904.98 642.42
  L 912.59 639.40
  Q 921.29 636.47 929.14 632.52
  A 1.19 0.19 -28.9 0 1 930.01 632.21
  Q 933.27 632.66 936.49 631.98
  A 1.12 1.08 -29.9 0 1 937.45 632.22
  C 938.40 633.05 936.07 635.61 935.96 637.00
  Q 934.08 638.24 933.44 640.30
  A 0.71 0.71 6.1 0 1 932.82 640.80
  C 930.78 640.98 929.51 642.49 928.28 643.08
  Q 921.16 646.49 914.21 650.26
  C 912.52 651.17 911.49 653.14 908.77 652.79
  A 1.68 1.03 23.0 0 0 907.83 652.93
  L 906.50 653.71
  Q 901.49 655.39 896.23 654.72
  A 0.91 0.86 -65.4 0 0 895.44 655.04
  Q 894.68 655.94 893.99 655.95
  Q 885.59 656.09 881.75 648.71
  C 880.72 646.34 879.17 644.66 878.68 642.15
  Q 877.81 637.75 877.71 633.25
  C 878.52 626.55 879.18 620.35 880.45 613.42
  Q 881.29 608.88 880.35 604.24
  Q 880.28 603.86 880.48 603.25
  Q 881.16 601.13 880.89 598.93
  A 0.90 0.79 5.7 0 0 880.24 598.23
  Q 878.82 597.84 879.30 596.26
  A 1.19 0.38 53.9 0 0 879.01 595.39
  C 876.09 590.68 880.06 586.36 884.24 584.65
  A 1.41 1.00 -80.7 0 0 884.88 584.00
  C 885.53 582.64 888.33 583.78 889.80 583.54
  A 0.73 0.56 -11.0 0 1 890.58 583.93
  Q 890.74 584.51 891.24 584.75
  Q 892.01 585.13 892.17 585.13
  Q 893.34 585.11 894.27 585.70
  A 0.97 0.35 -84.6 0 1 894.48 586.51
  Q 894.37 590.26 895.86 593.71
  A 1.52 0.40 -75.8 0 1 895.87 594.72
  C 895.23 598.65 896.88 604.75 894.23 608.33
  A 1.52 1.36 -31.0 0 0 893.95 609.23
  Q 894.25 614.81 892.78 620.09
  C 890.99 626.49 891.31 631.49 892.25 638.01
  Q 892.93 642.66 897.50 642.96
  Z"
/>
<path d="
  M 952.79 632.50
  Q 952.14 635.67 953.71 638.50
  Q 954.01 643.46 959.67 642.90
  Q 961.56 642.94 963.34 641.77
  A 0.77 0.74 44.3 0 1 964.16 641.78
  C 966.49 643.25 971.61 640.37 973.78 639.38
  Q 982.41 636.36 990.13 632.55
  A 1.15 0.14 -27.5 0 1 991.01 632.22
  Q 994.27 632.69 997.49 631.97
  A 1.34 0.44 38.1 0 1 998.43 632.31
  Q 998.80 632.55 998.76 633.00
  A 1.83 1.34 75.1 0 1 998.43 633.85
  Q 997.29 635.24 996.96 637.00
  Q 995.05 638.16 994.44 640.35
  A 0.67 0.65 6.9 0 1 993.81 640.83
  C 991.71 640.89 990.61 642.50 989.29 643.12
  Q 982.42 646.37 975.69 649.96
  Q 975.61 650.01 972.67 652.06
  Q 970.48 653.59 967.49 653.48
  Q 962.51 655.62 957.23 654.71
  A 0.92 0.78 -62.5 0 0 956.44 655.03
  Q 955.80 655.79 954.73 655.85
  C 946.85 656.24 945.35 652.12 941.50 646.46
  Q 939.39 642.26 938.63 637.48
  C 939.06 629.78 939.80 622.37 941.19 614.77
  Q 942.07 609.93 941.51 603.71
  A 2.50 0.74 78.3 0 1 941.63 602.25
  Q 942.85 599.63 940.87 597.92
  A 1.01 0.13 40.5 0 1 940.25 597.24
  Q 940.42 595.31 939.06 593.94
  A 1.23 1.04 -67.7 0 1 938.76 593.00
  Q 939.29 587.12 944.49 584.99
  Q 945.73 584.48 946.25 583.63
  A 0.83 0.52 -62.4 0 1 947.01 583.19
  Q 948.98 583.89 950.99 583.49
  A 0.74 0.46 71.4 0 1 951.61 584.00
  C 952.09 585.21 954.06 585.24 955.01 585.59
  A 0.73 0.66 11.7 0 1 955.50 586.26
  Q 955.32 590.02 956.81 593.48
  A 2.01 0.85 -69.9 0 1 956.86 594.55
  C 956.14 598.77 957.96 604.50 955.23 608.33
  A 1.47 1.36 -30.7 0 0 954.96 609.24
  C 955.38 617.67 951.52 623.55 952.79 632.50
  Z"
/>
<path d="
  M 845.65 597.95
  Q 846.92 595.13 846.91 592.09
  C 849.09 586.42 856.25 589.29 857.24 593.89
  C 860.63 609.55 852.76 624.64 857.68 637.86
  A 0.57 0.36 67.7 0 0 858.26 638.27
  L 859.74 637.46
  A 0.72 0.44 71.4 0 1 860.45 638.06
  Q 861.55 642.03 863.86 645.43
  A 0.96 0.62 52.1 0 1 863.95 646.44
  L 861.46 649.19
  A 1.48 0.87 10.4 0 1 860.50 649.54
  L 855.25 649.70
  A 1.29 0.18 -2.7 0 1 854.12 649.60
  Q 852.90 648.31 851.07 648.32
  A 1.17 0.11 52.6 0 1 850.33 647.52
  C 848.13 644.71 845.57 641.92 845.15 638.21
  C 844.53 632.76 843.68 627.88 844.54 622.33
  C 845.73 614.77 848.15 605.39 845.65 597.95
  Z"
/>
</g>
<g fill="#0e0e54" fill-opacity="0.498">
<path d="
  M 846.91 592.09
  Q 846.92 595.13 845.65 597.95
  Q 844.09 607.49 841.96 616.93
  C 841.39 619.44 841.96 622.41 840.63 625.27
  Q 840.43 625.70 840.45 626.22
  Q 840.55 628.22 839.32 631.07
  C 838.32 633.39 836.93 640.01 836.51 645.05
  C 836.34 647.05 835.06 648.63 834.60 650.36
  Q 832.85 656.98 829.43 662.90
  C 828.32 664.81 828.59 666.79 827.66 668.49
  Q 824.92 673.47 822.86 678.76
  C 820.33 685.28 812.56 698.99 804.29 698.84
  Q 802.25 698.81 800.07 697.11
  Q 797.43 695.06 794.82 692.94
  Q 799.52 686.25 803.00 678.83
  L 805.63 682.77
  Q 806.89 684.67 808.02 683.06
  Q 811.22 678.54 813.86 673.70
  C 815.96 669.86 819.13 663.15 820.27 658.43
  Q 821.24 654.42 823.53 650.91
  Q 823.69 650.66 823.73 650.00
  L 823.91 646.95
  A 1.74 1.44 70.2 0 1 824.24 646.03
  C 826.25 643.54 826.13 640.29 826.85 637.98
  C 827.73 635.19 828.17 633.17 829.30 629.61
  C 829.92 627.63 829.62 625.68 830.13 623.85
  C 831.41 619.27 832.69 615.08 833.36 610.18
  Q 834.77 599.95 837.60 589.99
  A 1.43 1.21 43.6 0 0 837.50 589.05
  C 836.74 587.46 838.04 579.63 838.20 577.40
  C 838.73 570.22 840.51 562.49 840.40 554.73
  A 1.69 1.55 -30.3 0 1 840.68 553.83
  C 843.25 550.11 840.80 546.51 842.05 542.76
  Q 842.26 542.12 841.71 540.95
  A 1.69 1.46 40.8 0 1 841.57 540.01
  C 842.35 535.12 838.69 529.02 845.80 527.51
  Q 849.14 526.80 851.76 528.98
  C 854.99 531.67 857.10 537.22 857.62 541.88
  Q 857.92 544.58 858.43 547.25
  A 1.56 0.94 -45.0 0 1 858.19 548.21
  Q 855.70 552.27 851.57 554.56
  A 1.23 0.94 85.4 0 0 851.04 555.39
  C 848.98 566.85 848.15 577.05 846.36 591.65
  A 0.36 0.30 13.0 0 0 846.62 591.99
  L 846.91 592.09
  Z"
/>
<path d="
  M 174.82 565.96
  Q 176.57 558.65 171.82 553.03
  Q 174.24 549.72 178.52 550.05
  A 1.75 1.74 -57.6 0 0 179.46 549.84
  C 183.73 547.52 189.01 551.60 192.73 554.07
  A 1.70 1.56 7.2 0 1 193.35 554.80
  C 194.80 558.24 195.70 560.88 194.93 564.78
  C 194.14 568.79 194.38 573.01 192.26 576.59
  Q 186.20 586.79 181.40 592.16
  C 177.70 596.30 171.60 591.12 170.42 587.31
  C 169.13 583.11 175.77 578.09 178.55 575.32
  Q 180.49 573.38 180.06 570.68
  Q 179.71 568.47 182.27 566.48
  A 0.74 0.63 -30.1 0 0 182.54 565.71
  C 182.08 564.47 176.37 565.83 174.82 565.96
  Z"
/>
<path d="
  M 799.67 660.72
  Q 796.44 669.11 791.79 677.00
  Q 789.84 672.59 788.58 667.96
  C 787.50 663.97 785.31 659.11 784.88 654.21
  C 784.63 651.30 782.74 645.33 783.72 643.14
  A 1.66 1.33 -44.1 0 0 783.84 642.19
  Q 781.72 632.33 781.46 630.01
  Q 780.28 619.52 775.77 597.75
  Q 774.98 593.96 773.55 592.15
  A 1.33 1.13 31.3 0 1 773.26 591.27
  C 773.69 586.07 771.61 583.23 771.72 578.79
  A 2.13 1.14 -73.2 0 0 771.51 577.74
  L 767.99 571.75
  A 1.30 0.66 51.3 0 1 767.78 570.75
  Q 768.91 568.00 766.39 566.35
  A 1.34 1.09 -82.3 0 1 765.88 565.52
  C 765.47 563.04 767.43 562.01 769.59 560.70
  C 771.15 559.75 772.64 557.84 774.78 557.07
  A 1.62 0.72 -30.4 0 1 775.77 556.96
  Q 779.47 558.10 782.56 560.45
  A 1.66 1.11 -87.8 0 1 783.07 561.28
  C 783.92 564.56 783.41 567.85 784.01 570.85
  Q 784.74 574.54 785.34 578.26
  C 785.58 579.77 786.75 581.28 786.76 582.66
  C 786.81 589.62 789.07 595.84 788.32 602.78
  C 788.12 604.59 788.60 605.51 789.31 607.03
  A 1.40 1.38 -51.4 0 1 789.41 607.97
  C 788.18 613.12 791.76 616.50 790.63 621.94
  A 1.56 1.54 -52.7 0 0 790.76 622.95
  Q 792.54 626.43 792.01 630.24
  A 1.98 1.16 49.5 0 0 792.18 631.20
  C 793.19 633.56 792.87 635.90 793.52 638.21
  C 794.68 642.33 793.80 645.61 796.51 649.82
  A 1.26 1.16 36.8 0 1 796.68 650.74
  Q 796.04 653.49 797.96 655.56
  A 1.19 0.78 -66.9 0 1 798.13 656.52
  Q 797.42 659.81 799.67 660.72
  Z"
/>
<path d="
  M 152.21 590.50
  L 151.76 590.49
  A 0.41 0.34 80.7 0 0 151.45 591.01
  C 152.48 594.36 149.84 597.70 148.66 600.73
  Q 148.53 601.07 148.01 601.53
  Q 145.77 603.47 145.53 606.51
  A 1.55 0.96 80.0 0 1 145.18 607.39
  C 141.04 611.57 137.02 621.10 136.24 626.88
  C 135.99 628.77 134.67 630.21 134.13 631.83
  C 133.24 634.46 132.05 636.29 131.97 639.17
  C 131.88 642.56 131.05 646.17 131.25 649.20
  C 131.50 653.15 132.68 660.11 136.33 662.46
  A 1.89 1.61 7.2 0 1 136.98 663.17
  C 139.34 667.85 143.61 668.57 148.07 670.67
  Q 141.28 672.79 137.32 671.98
  Q 134.55 671.41 133.00 671.61
  Q 132.43 671.68 132.04 671.53
  L 123.47 668.38
  Q 120.39 663.14 119.58 657.27
  C 119.25 654.87 117.99 652.38 118.42 649.18
  C 119.62 640.29 121.47 633.15 124.55 625.13
  C 126.54 619.93 127.28 614.93 130.67 609.79
  C 132.69 606.75 132.77 603.19 134.56 599.97
  Q 139.31 591.44 141.50 586.54
  C 143.24 582.62 145.46 579.69 147.07 575.98
  A 1.84 1.72 -7.0 0 1 147.69 575.24
  Q 151.63 572.47 153.41 568.02
  Q 156.75 565.03 161.64 565.36
  A 0.50 0.47 6.5 0 1 162.10 565.90
  Q 161.89 567.14 160.82 567.93
  A 0.96 0.83 -22.4 0 0 160.43 568.70
  C 160.78 574.59 155.63 578.04 152.12 581.79
  C 149.32 584.80 149.37 587.72 152.21 590.50
  Z"
/>
<path d="
  M 615.36 635.06
  L 612.19 648.66
  A 1.33 1.28 -70.0 0 1 610.34 649.57
  Q 608.57 648.66 606.29 649.00
  Q 605.21 645.72 603.50 643.46
  Q 605.15 643.10 605.17 641.46
  A 1.13 0.18 88.4 0 1 605.29 640.54
  Q 606.29 639.41 606.67 637.93
  Q 607.22 635.78 605.00 635.77
  L 600.26 635.74
  Q 600.68 633.47 599.90 631.36
  Q 598.81 628.42 598.66 627.44
  Q 597.29 618.60 594.63 610.05
  C 593.20 605.46 592.53 599.65 589.89 595.57
  A 0.82 0.34 54.9 0 0 589.07 595.05
  Q 588.85 595.28 588.56 595.31
  A 0.86 0.30 72.9 0 0 588.52 596.29
  Q 589.63 599.58 586.12 601.57
  L 581.29 584.50
  C 582.69 584.76 584.96 578.09 585.70 576.92
  A 1.08 0.83 -44.8 0 0 585.82 576.02
  L 585.64 575.61
  A 0.89 0.34 63.3 0 1 585.56 574.81
  L 588.51 571.52
  A 0.77 0.76 -55.9 0 1 589.42 571.34
  L 593.26 573.24
  A 1.12 0.05 26.3 0 0 594.18 573.64
  Q 596.26 573.49 598.19 574.31
  A 1.34 1.24 1.6 0 1 598.90 575.00
  C 600.10 577.84 600.46 581.41 601.05 583.67
  Q 603.79 594.11 606.75 604.50
  C 607.39 606.78 606.66 609.52 607.71 612.39
  Q 610.27 619.42 612.00 628.75
  Q 612.60 632.02 615.36 635.06
  Z"
/>
<path d="
  M 1080.01 657.44
  L 1081.84 655.33
  A 2.02 1.84 47.7 0 0 1081.84 652.91
  L 1080.25 650.77
  A 0.98 0.06 53.0 0 0 1079.66 650.08
  L 1072.25 648.71
  L 1069.50 643.46
  Q 1071.27 643.01 1071.21 641.22
  A 1.16 0.44 81.8 0 1 1071.39 640.40
  Q 1072.75 639.00 1072.51 636.98
  A 1.34 1.33 86.8 0 0 1071.20 635.80
  L 1066.02 635.77
  Q 1066.81 633.44 1065.89 631.19
  Q 1064.83 628.60 1064.68 627.60
  Q 1063.36 619.03 1060.83 610.72
  C 1059.38 605.97 1058.62 599.75 1055.89 595.57
  A 1.07 0.72 66.6 0 0 1055.11 595.07
  C 1054.41 595.11 1054.36 595.98 1054.55 596.54
  Q 1055.57 599.64 1052.09 601.58
  L 1047.29 584.50
  Q 1047.85 584.51 1048.33 584.23
  A 1.34 0.90 -89.4 0 0 1048.86 583.46
  C 1049.20 582.24 1052.04 576.33 1051.70 575.66
  A 1.04 0.61 58.0 0 1 1051.67 574.67
  L 1054.78 571.28
  A 0.74 0.48 37.9 0 1 1055.60 571.35
  Q 1058.71 573.58 1062.50 573.80
  Q 1064.92 573.95 1065.42 576.24
  Q 1068.26 589.24 1072.00 601.77
  C 1073.09 605.44 1072.43 609.04 1073.73 612.52
  C 1076.30 619.39 1076.82 627.29 1080.10 633.67
  Q 1081.14 635.70 1083.43 635.66
  C 1085.92 635.62 1093.63 634.48 1092.43 638.92
  Q 1091.49 642.40 1090.59 642.57
  L 1085.08 643.57
  A 0.57 0.51 -23.3 0 0 1084.69 644.42
  C 1086.20 646.28 1089.34 650.46 1092.06 648.94
  A 1.33 1.22 -50.9 0 1 1092.94 648.81
  L 1098.73 650.09
  A 1.27 0.11 12.3 0 1 1099.82 650.43
  L 1102.31 653.96
  A 1.09 0.48 -46.9 0 1 1101.95 654.98
  Q 1098.39 659.12 1092.76 658.44
  Q 1092.35 658.39 1091.79 658.62
  Q 1085.56 661.26 1080.01 657.44
  Z"
/>
<path d="
  M 390.22 668.25
  C 396.64 665.53 405.31 662.35 408.09 658.09
  Q 410.02 655.13 411.14 654.59
  Q 415.11 654.78 418.76 652.92
  A 1.43 0.82 -15.5 0 0 419.47 652.20
  L 420.80 647.76
  A 0.92 0.53 30.6 0 0 420.35 646.97
  Q 416.64 644.36 412.32 642.90
  C 409.57 636.49 403.41 633.10 397.13 630.92
  C 392.62 629.35 386.51 629.28 381.25 628.00
  Q 378.81 627.40 375.22 627.17
  Q 371.68 626.93 368.27 625.81
  Q 367.59 623.06 367.32 620.35
  C 367.01 617.21 369.14 614.10 370.34 611.21
  A 1.22 0.96 -82.0 0 1 371.04 610.54
  Q 373.66 609.84 373.70 606.96
  A 1.43 0.97 -31.0 0 1 374.08 606.14
  L 381.13 598.62
  Q 384.06 594.57 389.08 595.97
  A 1.09 0.98 33.2 0 0 389.97 595.83
  Q 394.22 592.75 394.84 587.53
  Q 401.69 582.69 408.71 580.22
  C 413.49 578.53 414.22 583.08 414.44 586.90
  C 414.65 590.70 412.98 593.03 410.27 595.31
  A 2.38 2.13 -50.2 0 1 407.81 595.67
  Q 406.86 595.18 405.75 595.24
  A 1.38 1.08 10.5 0 0 404.73 595.77
  Q 404.17 596.64 403.00 596.69
  A 1.18 1.03 9.7 0 0 402.02 597.29
  Q 401.42 598.58 400.01 598.75
  A 1.64 1.50 20.1 0 0 399.16 599.10
  C 395.12 602.37 390.59 605.06 387.26 609.13
  C 384.44 612.58 378.20 616.85 381.66 621.81
  C 384.09 625.31 389.42 626.70 394.28 627.04
  Q 398.13 627.30 401.63 628.06
  C 406.92 629.20 412.81 629.37 417.31 631.00
  C 426.05 634.15 433.72 639.16 432.53 649.81
  A 1.63 1.24 76.0 0 1 432.16 650.67
  Q 431.16 651.74 431.27 653.26
  A 1.30 0.87 -33.7 0 1 430.92 654.10
  C 428.96 656.33 427.56 659.11 425.13 660.71
  Q 414.18 667.95 401.26 670.25
  Q 396.25 671.14 395.63 671.14
  Q 392.35 671.13 390.22 668.25
  Z"
/>
<path d="
  M 279.78 644.62
  Q 271.37 646.45 263.14 645.87
  Q 263.45 640.59 265.11 635.76
  A 1.65 1.45 -10.8 0 1 265.70 635.00
  Q 268.63 632.99 270.06 629.72
  Q 272.51 626.81 275.75 624.86
  Q 279.49 623.01 282.70 620.38
  C 287.82 616.17 292.13 612.25 296.81 608.06
  Q 301.11 604.19 303.43 598.19
  A 1.88 1.88 -61.2 0 0 302.80 596.01
  Q 300.56 594.35 297.49 594.48
  Q 297.29 585.19 288.39 582.40
  Q 291.14 580.63 294.51 580.94
  C 299.60 581.41 305.64 581.25 310.39 583.37
  C 313.43 584.73 315.22 587.52 317.22 590.10
  A 1.35 1.33 28.2 0 1 317.50 591.00
  C 317.13 597.76 313.14 608.71 307.68 613.77
  Q 294.99 625.52 281.63 636.49
  C 278.69 638.91 278.12 641.29 279.78 644.62
  Z"
/>
<path d="
  M 681.50 664.21
  Q 685.80 660.12 688.29 654.75
  L 693.94 655.90
  A 0.65 0.60 18.9 0 0 694.62 655.60
  L 697.55 650.03
  Q 697.73 649.68 697.73 648.96
  C 697.69 644.04 699.31 639.31 699.19 634.86
  C 699.11 631.65 698.14 627.51 698.85 624.50
  A 1.78 1.61 -50.3 0 0 698.81 623.54
  C 696.93 618.10 697.63 613.23 696.74 607.90
  C 696.14 604.32 696.19 601.15 694.95 597.50
  C 693.95 594.55 694.52 591.79 693.89 588.89
  Q 693.29 586.18 693.24 583.21
  Q 693.20 580.78 695.61 581.09
  C 698.76 581.49 702.02 581.38 704.97 583.25
  Q 707.01 584.54 709.19 585.57
  Q 710.84 586.36 710.39 588.05
  L 709.74 590.49
  Q 709.53 591.24 709.40 591.37
  C 704.22 596.59 706.03 597.91 706.20 604.26
  Q 706.44 613.91 708.41 623.33
  C 710.14 631.55 709.89 639.20 709.41 647.27
  C 709.27 649.52 708.33 655.32 706.94 657.23
  C 703.93 661.38 702.28 664.17 698.16 665.57
  A 1.65 1.49 -79.5 0 0 697.40 666.15
  C 693.26 671.93 685.97 666.34 681.50 664.21
  Z"
/>
<path d="
  M 534.00 638.54
  L 526.66 648.23
  Q 524.51 645.21 522.60 642.11
  C 520.61 638.89 520.84 634.40 520.38 630.70
  C 519.55 623.95 521.31 616.42 522.42 609.76
  C 522.87 607.07 522.65 604.36 522.87 601.63
  Q 523.02 599.86 521.70 600.95
  Q 520.10 602.26 519.33 600.45
  A 1.05 0.83 -6.0 0 0 518.49 599.92
  Q 515.72 599.73 514.16 601.37
  Q 514.19 594.76 511.13 588.59
  C 513.65 584.98 517.86 585.94 521.82 585.17
  Q 522.29 585.08 522.69 584.75
  C 528.94 579.55 526.51 589.95 530.86 589.01
  A 0.48 0.44 86.5 0 1 531.39 589.52
  Q 531.29 591.19 532.77 592.26
  A 1.29 0.23 80.7 0 1 533.12 593.26
  C 535.46 605.27 531.96 617.36 532.00 629.50
  Q 532.01 634.25 534.00 638.54
  Z"
/>
<path d="
  M 912.59 639.40
  L 904.98 642.42
  A 0.66 0.53 -26.4 0 1 904.24 642.26
  Q 903.88 641.70 903.27 641.48
  A 1.23 0.41 -36.6 0 0 902.32 641.79
  Q 900.18 643.15 897.50 642.96
  Q 898.12 642.90 898.47 642.49
  A 1.13 0.73 65.1 0 0 898.60 641.58
  C 896.83 634.31 898.50 628.30 899.15 620.88
  Q 899.28 619.38 900.37 613.71
  Q 901.31 608.80 900.44 603.75
  A 1.74 1.07 63.9 0 1 900.53 602.82
  Q 901.85 600.04 899.97 597.80
  A 1.90 1.11 32.3 0 1 899.55 596.99
  Q 899.25 595.15 898.04 593.70
  A 1.50 0.87 -72.4 0 1 897.82 592.71
  C 898.36 587.47 901.87 586.21 905.41 583.67
  A 1.66 0.51 6.9 0 1 906.46 583.48
  Q 910.60 583.53 914.05 585.93
  A 0.99 0.91 -73.5 0 1 914.45 586.74
  C 914.41 589.92 915.78 592.37 915.63 595.35
  Q 915.38 600.43 915.51 605.50
  A 1.62 1.54 -30.0 0 1 915.24 606.41
  Q 913.89 608.46 913.94 609.50
  Q 914.22 615.26 912.52 620.65
  C 910.63 626.63 911.21 633.33 912.59 639.40
  Z"
/>
<path d="
  M 973.78 639.38
  C 971.61 640.37 966.49 643.25 964.16 641.78
  A 0.77 0.74 44.3 0 0 963.34 641.77
  Q 961.56 642.94 959.67 642.90
  C 957.73 633.36 959.57 623.31 961.32 614.07
  Q 962.31 608.86 961.42 603.50
  A 1.70 1.42 57.6 0 1 961.54 602.57
  Q 962.74 600.05 961.08 597.94
  Q 960.93 597.76 960.58 596.98
  L 959.14 593.83
  Q 958.79 593.06 958.80 592.95
  Q 959.17 588.55 964.80 584.70
  Q 966.65 583.44 968.99 583.66
  Q 972.28 583.98 975.02 585.81
  A 0.92 0.81 19.6 0 1 975.43 586.54
  C 975.36 589.78 976.80 592.26 976.61 595.31
  Q 976.29 600.30 976.56 605.28
  A 1.72 1.67 -31.7 0 1 976.33 606.20
  C 974.07 610.09 975.16 615.03 973.88 619.37
  Q 972.52 624.00 972.40 625.73
  Q 971.90 632.62 973.78 639.38
  Z"
/>
<path d="
  M 677.99 643.28
  L 677.66 650.08
  A 1.59 1.21 -26.9 0 1 677.22 650.99
  Q 675.36 652.90 674.52 655.47
  A 0.69 0.62 -73.5 0 1 673.75 655.94
  L 669.25 654.79
  Q 669.79 654.92 670.05 654.71
  A 0.62 0.42 44.4 0 0 669.89 653.93
  C 668.19 652.38 666.60 651.48 665.41 649.40
  Q 664.17 647.23 662.61 645.27
  C 660.97 643.21 660.12 640.50 657.90 638.58
  Q 657.58 638.30 657.34 637.71
  Q 654.98 632.05 651.48 627.00
  Q 650.78 626.00 650.30 627.04
  L 648.71 630.50
  C 644.41 624.06 643.48 617.44 640.40 611.53
  L 641.62 608.30
  A 0.69 0.61 23.1 0 0 641.24 607.51
  Q 640.71 607.25 641.26 607.00
  A 0.82 0.42 84.5 0 0 641.53 606.32
  Q 641.50 598.10 642.28 589.95
  C 642.56 587.06 644.14 585.70 646.38 584.29
  A 1.21 0.61 -41.2 0 1 647.23 584.07
  L 654.46 586.25
  A 1.86 1.47 -89.6 0 1 655.55 587.65
  C 656.28 591.85 657.39 604.86 659.93 607.61
  A 1.03 0.97 -63.2 0 1 660.18 608.46
  C 659.68 611.87 661.67 613.87 662.41 616.46
  Q 666.79 631.79 677.99 643.28
  Z"
/>
<path d="
  M 355.39 604.85
  Q 353.75 606.43 353.06 609.23
  A 0.97 0.94 -3.1 0 1 352.43 609.91
  L 350.57 610.57
  A 1.25 0.55 -79.6 0 0 350.01 611.39
  C 349.13 614.41 347.23 616.76 347.19 619.78
  Q 347.08 628.17 353.54 633.75
  Q 353.56 635.75 354.57 637.53
  A 1.04 0.95 -7.9 0 0 355.25 638.00
  Q 355.94 638.12 356.30 637.56
  A 0.77 0.37 42.3 0 1 357.18 637.82
  Q 358.58 639.20 360.43 638.40
  A 1.57 0.55 25.0 0 1 361.53 638.51
  L 367.07 640.40
  A 1.96 1.16 20.3 0 1 368.57 642.24
  Q 367.65 644.23 366.03 645.52
  A 1.51 1.29 26.4 0 1 365.00 645.78
  Q 362.93 645.53 360.99 646.22
  A 1.73 1.29 -1.0 0 0 360.15 646.87
  Q 358.28 650.01 354.76 649.41
  Q 354.12 649.30 353.73 649.44
  Q 351.96 650.07 350.44 649.10
  A 1.78 0.73 42.3 0 0 349.45 648.74
  L 339.25 649.21
  Q 340.51 644.94 344.96 645.97
  A 1.16 0.39 -32.9 0 0 345.75 645.77
  Q 348.60 644.37 348.40 641.26
  A 0.94 0.50 15.3 0 0 347.77 640.67
  L 341.62 638.30
  Q 342.24 634.15 341.34 630.01
  Q 340.78 627.41 341.06 625.43
  C 342.26 616.85 345.33 606.84 342.79 598.23
  A 1.25 0.50 66.9 0 1 342.77 597.31
  Q 343.89 595.41 343.49 593.31
  A 0.92 0.16 78.3 0 1 343.46 592.43
  Q 345.04 591.60 345.31 589.81
  A 1.09 0.37 -9.9 0 1 346.19 589.33
  C 351.09 588.29 353.65 590.80 354.36 595.59
  Q 355.04 600.19 355.39 604.85
  Z"
/>
<path d="
  M 877.71 633.25
  Q 877.81 637.75 878.68 642.15
  C 879.17 644.66 880.72 646.34 881.75 648.71
  C 874.38 651.35 870.16 648.22 866.48 642.02
  C 864.69 639.01 864.82 634.25 864.38 630.74
  C 863.00 619.95 869.09 608.98 865.83 598.49
  A 1.29 0.32 68.9 0 1 865.71 597.50
  Q 866.84 595.36 866.52 593.00
  A 1.28 0.58 -32.8 0 1 867.10 592.10
  Q 868.09 591.32 868.25 589.99
  A 0.86 0.67 90.0 0 1 868.82 589.26
  Q 873.98 588.34 876.99 592.47
  A 1.81 1.65 -66.5 0 1 877.32 593.44
  C 877.42 596.72 878.30 599.70 878.06 602.87
  C 877.36 612.23 875.96 621.17 875.98 630.82
  C 875.98 631.88 876.31 632.50 876.57 633.51
  A 0.63 0.46 75.2 0 0 877.18 634.00
  Q 877.64 633.87 877.71 633.25
  Z"
/>
<path d="
  M 276.25 594.71
  Q 273.91 594.29 272.15 595.38
  A 1.91 1.50 -56.0 0 1 271.25 595.67
  C 267.89 595.76 265.55 597.28 262.31 597.56
  Q 256.10 598.09 250.53 601.14
  C 248.68 602.15 248.61 603.11 249.14 605.02
  A 1.73 1.33 53.0 0 1 249.13 605.96
  C 248.26 608.41 247.26 610.81 247.18 613.46
  C 247.00 619.04 247.27 624.94 246.33 630.44
  Q 246.03 632.18 246.24 633.95
  Q 243.39 639.19 242.97 645.49
  A 1.34 1.26 28.8 0 0 243.26 646.38
  C 244.80 648.30 245.09 650.63 246.73 652.18
  Q 249.38 654.67 253.00 655.71
  Q 251.80 655.87 252.76 656.54
  C 256.91 659.45 253.54 663.45 252.60 667.02
  A 0.85 0.82 -88.6 0 1 251.98 667.63
  C 247.03 668.77 242.41 663.31 239.24 659.15
  A 0.81 0.72 62.3 0 0 238.44 658.85
  L 235.29 659.75
  Q 235.14 657.49 233.16 656.72
  A 1.51 0.71 11.2 0 1 232.40 656.16
  L 230.54 652.75
  Q 233.32 650.94 237.31 652.32
  Q 238.00 652.56 237.74 651.88
  Q 236.91 649.76 236.09 647.59
  C 234.95 644.60 235.59 641.50 235.07 638.28
  C 234.58 635.19 235.01 632.96 235.32 630.04
  C 235.65 626.82 234.38 623.82 235.11 620.33
  C 235.93 616.42 235.62 612.87 236.41 609.42
  Q 236.75 607.93 236.46 606.44
  Q 236.17 604.97 234.98 604.72
  A 1.07 0.79 -57.0 0 0 234.13 605.04
  Q 232.12 606.98 229.29 606.75
  L 229.26 602.56
  A 0.93 0.88 -17.9 0 1 229.68 601.79
  Q 235.25 598.18 241.72 597.73
  Q 244.37 597.54 246.57 596.78
  C 252.24 594.81 258.54 595.34 263.43 594.15
  Q 267.41 593.18 276.25 594.71
  Z"
/>
<path d="
  M 499.50 601.96
  Q 493.27 601.93 487.48 604.01
  Q 487.10 604.14 486.53 604.06
  Q 478.58 602.90 471.21 606.07
  A 1.77 0.68 21.1 0 1 470.16 606.07
  Q 465.79 605.05 468.43 609.09
  A 2.07 1.74 -66.7 0 1 468.73 610.08
  C 468.81 614.04 469.33 617.68 469.11 621.81
  Q 468.98 624.14 469.32 626.45
  C 469.85 630.00 469.64 632.49 469.48 635.75
  Q 469.46 636.16 469.72 636.77
  L 471.41 640.58
  A 1.08 1.06 -28.4 0 0 472.97 641.03
  Q 476.36 638.84 479.93 640.47
  A 0.89 0.82 -77.5 0 1 480.41 641.29
  C 480.30 646.03 481.27 647.96 477.90 651.93
  Q 477.74 652.13 477.53 652.74
  Q 476.97 654.40 475.26 654.54
  Q 474.67 654.58 474.31 654.81
  L 468.21 658.71
  Q 465.88 660.19 464.31 658.44
  Q 461.11 654.85 458.96 650.89
  L 460.45 648.34
  A 1.61 1.40 -37.9 0 0 460.65 647.32
  Q 460.14 644.23 460.66 641.22
  A 0.92 0.62 24.7 0 0 460.20 640.46
  Q 458.41 639.36 456.00 639.47
  Q 454.94 628.03 454.91 616.49
  C 454.90 613.41 453.96 608.31 451.45 606.32
  Q 458.87 602.89 467.02 604.22
  A 1.61 1.61 -52.9 0 0 467.96 604.09
  Q 471.33 602.54 474.18 602.41
  C 479.67 602.17 484.43 601.99 490.33 601.03
  C 491.56 600.83 500.76 598.76 499.50 601.96
  Z"
/>
<path d="
  M 573.54 606.06
  L 577.40 620.62
  Q 574.23 623.89 573.35 628.26
  A 1.67 1.55 -18.9 0 1 572.90 629.10
  Q 570.03 632.07 571.00 636.21
  L 566.49 636.10
  Q 565.81 636.09 565.55 636.20
  Q 560.95 638.14 556.50 635.96
  Q 558.83 633.38 559.50 630.08
  Q 559.56 629.74 560.00 629.23
  Q 562.22 626.58 563.17 623.22
  A 1.48 0.83 -87.3 0 1 563.67 622.42
  Q 565.23 621.41 565.57 619.57
  A 1.70 0.79 -30.1 0 1 566.16 618.73
  Q 567.23 617.79 567.65 616.91
  Q 570.35 611.29 573.54 606.06
  Z"
/>
<path d="
  M 1039.55 606.05
  L 1043.39 620.38
  Q 1040.69 623.96 1039.18 628.07
  C 1038.13 630.92 1035.86 632.39 1037.00 636.21
  Q 1035.11 636.73 1033.20 636.08
  A 1.71 1.39 41.5 0 0 1032.25 636.04
  C 1028.27 637.15 1025.67 637.88 1022.25 635.96
  Q 1024.76 633.69 1025.35 630.42
  A 1.93 0.81 89.6 0 1 1025.74 629.47
  Q 1028.20 626.78 1029.16 623.22
  Q 1029.22 622.99 1029.68 622.49
  L 1031.25 620.75
  Q 1031.99 619.93 1033.20 617.70
  L 1039.55 606.05
  Z"
/>
<path d="
  M 953.71 638.50
  Q 952.14 635.67 952.79 632.50
  L 956.74 632.11
  A 0.71 0.45 -5.9 0 1 957.49 632.48
  Q 957.69 634.14 956.44 635.19
  A 1.25 0.55 87.3 0 0 956.13 635.99
  Q 955.95 638.01 953.71 638.50
  Z"
/>
<path d="
  M 635.79 635.00
  Q 636.95 635.82 636.96 637.29
  A 1.59 1.06 -72.9 0 0 637.23 638.19
  C 638.11 639.30 639.09 639.77 639.83 640.98
  Q 642.47 645.33 645.12 649.44
  Q 643.38 654.87 644.32 660.53
  A 1.83 1.60 24.0 0 0 644.72 661.39
  Q 645.56 662.40 645.47 662.62
  A 2.30 2.29 -58.9 0 0 646.10 665.19
  C 649.19 667.88 653.07 671.93 647.58 674.77
  Q 645.67 675.75 643.47 675.92
  Q 642.97 675.96 642.56 676.23
  C 632.27 683.11 631.11 664.03 631.06 658.95
  A 0.50 0.50 0.0 0 0 630.56 658.45
  L 624.29 658.50
  Q 624.00 653.28 625.16 648.69
  Q 628.28 648.81 630.87 649.93
  A 1.06 1.05 13.7 0 0 632.34 649.04
  Q 632.89 641.70 635.79 635.00
  Z"
/>
<path d="
  M 935.96 637.00
  Q 936.92 638.73 938.63 637.48
  Q 939.39 642.26 941.50 646.46
  L 933.69 650.27
  Q 933.18 650.52 932.91 650.89
  Q 931.27 653.09 928.51 652.75
  A 1.92 0.78 -36.3 0 0 927.47 653.01
  Q 922.29 655.56 916.49 654.60
  A 1.10 0.55 14.6 0 0 915.55 654.80
  Q 914.80 655.85 913.50 655.94
  Q 909.77 656.21 908.82 655.48
  L 906.50 653.71
  L 907.83 652.93
  A 1.68 1.03 23.0 0 1 908.77 652.79
  C 911.49 653.14 912.52 651.17 914.21 650.26
  Q 921.16 646.49 928.28 643.08
  C 929.51 642.49 930.78 640.98 932.82 640.80
  A 0.71 0.71 6.1 0 0 933.44 640.30
  Q 934.08 638.24 935.96 637.00
  Z"
/>
<path d="
  M 996.96 637.00
  Q 998.05 638.72 1000.62 637.31
  Q 996.55 644.53 990.57 650.12
  Q 990.25 650.42 989.73 650.55
  Q 987.68 651.05 987.25 653.34
  Q 982.55 655.39 977.24 654.78
  A 1.21 1.08 -60.0 0 0 976.38 655.06
  C 974.41 656.71 968.99 655.57 967.49 653.48
  Q 970.48 653.59 972.67 652.06
  Q 975.61 650.01 975.69 649.96
  Q 982.42 646.37 989.29 643.12
  C 990.61 642.50 991.71 640.89 993.81 640.83
  A 0.67 0.65 6.9 0 0 994.44 640.35
  Q 995.05 638.16 996.96 637.00
  Z"
/>
<path d="
  M 584.42 645.60
  L 581.52 646.05
  Q 581.01 646.13 577.25 647.24
  Q 570.55 649.21 563.77 647.72
  Q 562.57 647.46 562.10 648.71
  Q 561.93 649.16 561.55 649.54
  L 558.51 652.49
  Q 557.89 653.08 555.92 656.17
  Q 553.74 659.57 550.65 662.17
  Q 550.29 662.47 550.08 662.97
  C 547.26 669.77 535.39 667.86 540.41 657.10
  A 1.52 0.43 -70.7 0 1 540.98 656.29
  Q 543.14 655.04 541.81 653.28
  A 0.65 0.62 49.4 0 1 541.85 652.44
  L 546.35 648.15
  Q 553.54 648.80 560.54 646.77
  Q 562.96 646.07 565.58 646.04
  C 566.98 646.02 577.52 644.19 577.65 644.30
  A 2.04 2.03 -33.2 0 0 579.63 644.71
  Q 583.62 643.41 584.42 645.60
  Z"
/>
<path d="
  M 1050.00 645.46
  L 1047.84 645.98
  A 1.93 1.46 -67.9 0 0 1047.03 646.46
  Q 1045.93 647.56 1044.47 647.20
  Q 1043.93 647.07 1043.51 647.19
  Q 1038.83 648.51 1033.96 648.37
  C 1032.49 648.33 1029.95 647.00 1028.35 648.58
  C 1026.28 650.62 1024.58 652.01 1023.51 654.84
  A 1.14 1.05 -1.6 0 1 1022.87 655.46
  C 1021.81 655.86 1017.88 661.14 1016.36 662.40
  A 1.41 1.00 80.5 0 0 1015.96 663.22
  C 1015.55 666.03 1010.39 666.93 1008.23 666.77
  Q 1005.67 666.58 1005.33 664.18
  Q 1004.85 660.79 1006.16 657.70
  C 1006.68 656.47 1007.81 655.83 1008.37 654.45
  A 0.63 0.56 27.6 0 0 1008.10 653.73
  Q 1006.58 652.76 1008.28 651.53
  Q 1011.89 648.93 1012.50 648.29
  Q 1019.22 648.69 1025.67 646.97
  C 1031.29 645.48 1036.57 645.96 1042.27 644.10
  A 1.15 0.57 -22.8 0 1 1043.32 644.17
  Q 1044.10 645.03 1045.25 645.02
  Q 1045.73 645.01 1046.19 644.77
  C 1047.09 644.28 1050.21 643.42 1050.00 645.46
  Z"
/>
<path d="
  M 330.56 649.83
  Q 322.99 651.35 315.65 653.51
  C 314.37 653.89 313.67 653.70 312.48 653.36
  A 1.85 1.63 42.5 0 0 311.51 653.34
  Q 305.45 655.02 299.39 656.70
  C 297.56 657.20 296.64 656.84 294.99 656.16
  A 1.19 1.17 45.3 0 0 294.07 656.15
  Q 287.09 659.01 279.73 656.95
  Q 285.18 654.82 290.83 653.61
  C 292.08 653.34 293.74 653.99 294.50 653.76
  C 304.54 650.65 315.09 649.87 325.49 648.80
  Q 328.96 648.44 330.56 649.83
  Z"
/>
<path d="
  M 225.00 665.71
  C 216.46 667.94 208.95 672.45 201.39 675.02
  Q 189.46 679.07 177.17 681.80
  C 173.82 682.55 170.23 682.27 167.06 683.57
  C 161.26 685.95 155.93 683.33 149.98 683.09
  C 156.67 682.15 162.82 680.48 170.00 678.73
  Q 182.31 675.73 198.53 667.50
  Q 200.05 666.72 203.22 666.72
  A 1.56 1.44 24.8 0 0 204.12 666.43
  Q 209.38 662.61 218.32 658.55
  A 0.45 0.44 -32.1 0 1 218.83 658.66
  L 225.00 665.71
  Z"
/>
</g>
<g fill="#0f144d" fill-opacity="0.690">
<path d="
  M 754.00 557.71
  Q 757.57 559.41 752.50 558.21
  L 754.00 557.71
  Z"
/>
<path d="
  M 429.25 608.29
  Q 431.39 607.81 432.75 609.46
  Q 430.58 610.09 429.25 608.29
  Z"
/>
<path d="
  M 1017.25 632.44
  L 1017.90 632.49
  A 0.56 0.51 4.9 0 1 1018.41 633.04
  Q 1018.30 634.51 1016.54 635.10
  L 1017.25 632.44
  Z"
/>
</g>
<g fill="#070833" fill-opacity="0.333">
<path d="
  M 433.41 609.36
  L 432.75 609.46
  Q 431.39 607.81 429.25 608.29
  L 428.75 607.96
  Q 431.85 605.73 433.41 609.36
  Z"
/>
<path d="
  M 814.03 609.19
  C 814.19 607.81 816.91 610.29 814.55 609.81
  A 0.64 0.54 10.0 0 1 814.03 609.19
  Z"
/>
</g>
</svg>
