<?xml version="1.0" encoding="UTF-8" standalone="no"?>
<!DOCTYPE svg PUBLIC "-//W3C//DTD SVG 1.1//EN" "http://www.w3.org/Graphics/SVG/1.1/DTD/svg11.dtd">
<svg xmlns="http://www.w3.org/2000/svg" version="1.1" viewBox="0 0 500 500">
<g fill="#6070ff">
<path d="
  M 252.29 43.25
  L 252.29 44.75
  L 251.29 47.50
  Q 246.02 70.64 240.63 93.75
  C 238.73 101.90 236.16 106.64 227.32 106.56
  Q 222.37 104.82 220.31 101.44
  Q 207.49 80.46 194.66 59.49
  Q 191.42 54.20 190.90 51.47
  C 189.17 42.33 199.82 35.92 207.29 41.27
  Q 209.06 42.55 211.00 45.85
  Q 218.13 58.02 224.78 70.37
  Q 225.28 71.29 225.48 70.26
  Q 228.51 55.22 231.36 40.16
  C 232.29 35.26 237.46 32.64 242.23 32.96
  Q 250.81 33.53 252.29 43.25
  Z"
/>
<path d="
  M 291.71 44.00
  Q 289.17 69.09 286.66 94.19
  Q 285.64 104.35 275.19 105.28
  C 267.64 103.64 265.10 98.38 265.83 91.03
  Q 268.03 68.72 270.26 46.46
  C 270.54 43.74 270.14 40.66 270.30 37.60
  Q 270.45 34.73 273.28 34.21
  C 280.53 32.85 290.04 35.91 291.71 44.00
  Z"
/>
<path d="
  M 335.29 50.00
  L 335.75 51.46
  Q 329.07 71.79 321.43 91.78
  A 0.78 0.69 -59.9 0 0 321.60 92.60
  Q 322.79 93.65 324.50 93.46
  L 326.25 94.21
  C 335.69 98.32 350.79 100.59 343.21 115.25
  C 337.28 122.77 329.74 118.54 322.75 116.04
  Q 308.30 110.94 304.33 109.18
  C 295.56 105.28 296.51 98.84 299.48 90.76
  Q 306.89 70.60 314.06 50.38
  C 315.46 46.42 314.93 38.37 321.49 40.23
  C 327.16 41.83 332.85 44.38 335.29 50.00
  Z"
/>
<path d="
  M 175.54 115.00
  L 175.75 115.54
  C 176.81 133.96 158.99 127.02 149.25 125.04
  L 145.25 124.29
  L 131.38 121.07
  Q 128.39 120.37 130.45 122.69
  Q 138.17 131.38 143.93 141.18
  Q 143.73 150.02 135.75 153.46
  L 132.00 153.54
  Q 127.43 152.71 124.31 148.69
  Q 110.72 131.14 97.13 113.57
  C 95.25 111.14 88.14 105.13 89.07 102.30
  C 90.04 99.36 95.73 95.57 98.19 94.42
  C 101.12 93.06 104.32 93.33 107.80 94.10
  Q 122.78 97.41 137.76 100.76
  Q 138.84 101.00 138.17 100.06
  Q 130.61 89.48 121.68 80.07
  A 2.40 2.38 30.1 0 1 121.08 77.85
  Q 121.55 75.96 123.29 74.54
  C 129.88 69.18 136.37 63.47 143.63 72.65
  Q 159.31 92.49 174.61 112.65
  Q 175.14 113.35 175.54 115.00
  Z"
/>
<path d="
  M 399.63 83.41
  Q 397.22 88.82 396.17 90.17
  Q 385.48 103.89 374.96 117.75
  L 374.25 119.21
  Q 373.52 119.57 373.32 120.26
  A 0.88 0.70 30.4 0 0 373.64 121.08
  Q 378.72 125.25 383.92 129.30
  C 390.17 134.18 393.63 138.49 389.28 146.04
  Q 389.04 146.46 389.50 146.30
  Q 392.63 145.17 395.81 144.56
  Q 417.71 140.40 439.55 135.95
  C 443.68 135.11 448.62 131.97 452.41 135.33
  Q 456.14 138.63 457.96 143.25
  Q 456.77 144.17 457.29 145.75
  Q 456.72 149.37 455.17 151.68
  Q 441.28 172.24 427.33 192.79
  C 423.78 198.03 420.77 200.46 414.50 199.96
  Q 401.23 193.56 409.71 181.00
  A 0.88 0.50 -50.7 0 0 409.85 180.19
  L 400.46 166.05
  A 0.89 0.83 -21.0 0 0 399.59 165.70
  C 395.75 166.37 392.12 166.80 388.80 164.43
  Q 381.56 159.26 385.47 150.01
  Q 385.66 149.57 385.22 149.75
  C 378.36 152.62 375.42 149.51 369.42 144.94
  Q 360.96 138.49 352.68 131.83
  Q 347.52 127.68 347.21 122.25
  L 348.71 117.25
  Q 363.01 98.55 377.47 79.97
  C 379.55 77.30 381.10 74.46 382.83 71.57
  Q 384.58 68.65 387.65 70.10
  Q 396.18 74.12 399.63 83.41
  Z
  M 416.19 159.79
  A 0.33 0.33 67.0 0 0 415.98 160.30
  L 421.08 167.96
  A 0.33 0.33 46.4 0 0 421.62 167.97
  L 428.85 157.64
  A 0.33 0.33 12.7 0 0 428.51 157.13
  L 416.19 159.79
  Z"
/>
<path d="
  M 126.21 164.00
  Q 125.00 164.84 125.29 166.25
  Q 122.52 171.39 117.22 173.85
  Q 114.92 172.65 112.00 172.96
  Q 110.92 171.32 110.07 172.83
  Q 107.34 177.73 104.34 182.49
  A 0.75 0.60 61.5 0 0 104.25 182.99
  L 104.29 183.25
  L 101.55 187.50
  A 0.82 0.71 45.8 0 0 101.60 188.35
  Q 103.98 191.80 105.25 195.79
  L 105.29 198.25
  Q 104.17 201.89 102.03 204.90
  Q 101.61 205.90 100.54 206.00
  L 96.50 207.54
  L 92.25 207.54
  Q 88.29 206.32 86.53 203.96
  Q 72.29 184.86 58.11 165.72
  C 56.23 163.18 53.49 160.54 51.43 157.69
  A 1.41 1.37 -61.7 0 1 51.17 156.79
  C 51.85 143.10 61.05 143.48 72.09 145.17
  Q 93.64 148.46 115.14 151.86
  C 122.14 152.97 126.25 156.64 126.21 164.00
  Z
  M 89.09 175.89
  A 0.31 0.31 36.8 0 0 89.60 175.86
  L 94.33 168.02
  A 0.31 0.31 -69.2 0 0 94.12 167.55
  L 81.59 165.34
  A 0.31 0.31 -14.1 0 0 81.29 165.83
  L 89.09 175.89
  Z"
/>
<path d="
  M 97.29 219.00
  L 97.29 220.75
  C 97.14 231.43 89.81 233.62 81.12 231.15
  Q 63.69 226.19 46.25 221.29
  L 39.50 219.29
  L 32.50 218.04
  Q 26.05 217.75 27.44 211.36
  C 29.99 199.68 34.52 196.09 46.36 199.41
  Q 67.58 205.36 88.73 211.59
  C 93.06 212.87 95.53 215.11 97.29 219.00
  Z"
/>
<path d="
  M 40.79 244.50
  L 41.07 256.69
  A 0.47 0.46 -1.8 0 0 41.56 257.14
  L 45.75 256.96
  Q 61.94 257.61 78.14 258.13
  C 84.61 258.34 88.71 260.22 90.51 266.46
  Q 89.96 280.00 75.98 278.65
  Q 62.15 277.81 48.25 278.29
  L 41.57 278.29
  A 0.68 0.66 6.1 0 0 40.93 278.79
  Q 40.61 280.16 40.95 281.42
  C 40.02 288.87 40.96 297.37 31.00 298.54
  L 27.50 298.79
  Q 18.95 295.75 19.17 287.00
  Q 19.62 269.19 19.93 251.40
  Q 20.04 245.18 21.04 242.75
  C 24.91 233.28 37.85 234.98 40.79 244.50
  Z"
/>
<path d="
  M 483.29 268.25
  L 483.29 269.25
  Q 482.40 278.79 473.31 280.60
  A 0.42 0.34 76.4 0 0 473.07 281.11
  L 473.25 281.71
  L 472.00 281.29
  L 470.00 280.79
  Q 464.89 278.33 461.50 273.71
  L 457.58 269.03
  A 0.44 0.39 -47.0 0 0 456.94 269.09
  L 448.64 280.29
  C 440.25 285.10 429.35 278.01 432.05 269.06
  C 433.73 263.49 442.60 255.41 447.14 250.54
  C 453.21 244.05 458.60 243.11 465.26 249.15
  C 471.53 254.83 481.57 262.55 483.29 268.25
  Z"
/>
<path d="
  M 494.46 308.00
  L 492.71 315.25
  L 491.75 318.79
  L 489.75 325.96
  C 486.05 344.09 471.33 357.07 452.50 356.29
  L 448.22 356.38
  C 427.73 351.43 414.82 332.23 420.32 311.42
  Q 421.64 306.44 422.95 301.48
  C 425.41 292.20 428.34 286.34 439.19 289.34
  Q 447.76 291.71 482.48 300.78
  C 486.84 301.93 495.84 300.57 494.46 308.00
  Z
  M 441.54 327.25
  C 449.96 341.66 469.09 336.28 470.51 320.08
  A 0.60 0.59 10.3 0 0 470.07 319.45
  L 451.25 314.46
  L 442.32 312.00
  A 0.42 0.42 18.7 0 0 441.83 312.24
  Q 438.44 319.75 441.54 327.25
  Z"
/>
<path d="
  M 98.04 321.00
  L 98.54 322.75
  Q 101.59 333.43 98.29 344.00
  L 96.75 346.46
  C 90.48 355.21 76.00 353.89 77.52 341.27
  C 77.88 338.28 82.05 328.22 77.42 325.05
  C 75.83 323.96 74.96 325.82 74.83 327.15
  Q 73.86 336.96 71.46 346.50
  L 70.73 347.85
  Q 64.16 361.70 48.50 360.75
  L 46.50 360.29
  C 32.36 356.07 27.14 338.31 30.06 325.42
  Q 32.14 316.24 40.43 314.21
  C 46.69 312.68 50.81 321.00 50.70 326.24
  C 50.62 330.70 44.95 337.75 49.85 340.83
  A 0.71 0.68 -48.0 0 0 50.67 340.77
  Q 52.69 339.10 53.00 336.70
  Q 54.60 324.33 57.75 315.03
  C 61.95 302.66 76.29 298.30 86.77 305.97
  Q 94.45 311.58 98.04 321.00
  Z"
/>
<path d="
  M 115.54 360.25
  L 115.54 361.25
  L 115.29 364.75
  L 114.54 367.50
  Q 111.26 371.90 106.25 374.29
  Q 103.60 375.13 101.50 376.96
  L 101.00 377.21
  Q 80.71 388.88 61.23 402.02
  Q 57.51 400.59 55.44 397.14
  C 51.65 390.82 50.09 383.18 57.82 378.57
  Q 75.65 367.95 93.39 357.18
  Q 100.91 352.60 104.27 352.20
  Q 111.81 351.29 115.54 360.25
  Z"
/>
<path d="
  M 465.46 389.75
  Q 450.10 412.53 440.69 424.94
  Q 438.76 427.48 434.75 428.29
  Q 433.28 428.04 431.71 428.50
  Q 417.68 422.43 426.68 409.94
  Q 432.08 402.44 437.49 394.88
  A 0.69 0.52 -54.5 0 0 437.47 394.02
  L 433.82 391.43
  A 0.66 0.52 -54.9 0 0 433.01 391.67
  Q 429.17 397.17 425.37 402.60
  C 417.38 414.02 401.54 403.15 408.60 392.58
  Q 412.57 386.66 416.80 380.90
  A 1.06 0.42 -51.7 0 0 417.09 379.92
  Q 415.86 378.42 414.00 377.73
  A 0.89 0.38 -57.3 0 0 413.28 378.22
  Q 408.53 384.94 403.82 391.69
  Q 400.34 396.68 398.08 398.19
  C 388.48 404.64 377.54 392.46 384.07 382.83
  Q 386.69 378.97 401.99 357.51
  C 407.15 350.28 412.85 350.90 419.52 355.58
  Q 437.77 368.39 455.95 381.29
  C 458.13 382.84 465.64 384.78 465.46 389.75
  Z"
/>
<path d="
  M 119.50 374.71
  Q 128.30 375.53 129.71 384.25
  Q 128.83 385.76 129.54 387.50
  L 129.29 390.00
  Q 127.84 392.43 128.29 395.25
  L 127.79 399.50
  L 127.01 404.52
  A 1.22 0.90 -68.8 0 0 127.27 405.48
  L 130.82 408.93
  A 0.69 0.45 -45.7 0 0 131.62 408.75
  C 134.90 405.36 139.03 399.70 144.09 399.42
  C 149.57 399.11 153.95 402.51 155.54 407.75
  C 156.56 413.37 153.82 416.12 150.00 420.29
  Q 147.33 422.07 145.50 424.71
  Q 132.35 438.33 119.25 452.00
  Q 118.42 452.87 119.21 453.50
  L 118.00 454.46
  C 115.83 456.72 112.17 462.56 108.41 459.10
  Q 95.07 446.86 89.55 440.94
  C 73.73 424.00 82.07 394.56 107.76 396.28
  A 0.83 0.82 -88.4 0 0 108.64 395.44
  Q 108.53 387.78 109.91 380.04
  Q 113.29 374.66 119.50 374.71
  Z
  M 108.80 432.73
  L 118.45 422.89
  A 0.56 0.54 46.2 0 0 118.45 422.14
  Q 114.40 417.60 112.68 416.58
  C 104.42 411.68 97.61 422.00 103.75 428.71
  Q 105.18 430.28 108.06 432.74
  A 0.56 0.52 42.1 0 0 108.80 432.73
  Z"
/>
<path d="
  M 417.54 443.50
  L 417.29 444.00
  Q 416.42 455.60 404.75 455.29
  L 404.00 455.29
  C 403.36 455.02 402.70 455.05 402.14 454.67
  Q 389.05 445.92 376.47 436.97
  Q 375.49 436.27 375.81 437.42
  L 377.79 444.50
  L 381.00 455.04
  L 381.29 457.25
  C 382.37 461.51 384.56 466.85 383.57 470.97
  Q 381.79 478.41 373.00 479.29
  L 370.25 479.04
  C 365.77 477.00 363.91 474.17 362.70 469.17
  Q 356.71 444.23 350.90 419.27
  C 349.09 411.50 355.21 404.14 363.33 405.95
  Q 365.61 406.46 370.22 409.36
  Q 405.80 431.76 412.44 436.07
  Q 416.19 438.50 417.54 443.50
  Z"
/>
<path d="
  M 206.54 442.50
  L 206.71 444.25
  C 214.40 468.43 197.57 490.56 172.47 491.20
  Q 169.74 490.49 167.44 491.88
  C 154.64 486.96 144.62 481.95 140.76 467.76
  C 139.11 461.67 142.29 456.02 148.31 454.47
  C 157.99 451.99 158.66 461.28 163.90 466.60
  C 169.49 472.28 179.53 470.92 184.19 464.92
  C 191.29 455.78 186.76 444.64 175.54 441.44
  L 164.25 443.54
  C 157.61 443.47 152.45 438.99 152.98 432.22
  C 153.54 425.00 163.08 421.24 169.28 420.45
  C 185.03 418.45 199.60 428.71 206.54 442.50
  Z"
/>
<path d="
  M 336.79 440.75
  L 337.04 445.50
  C 336.53 446.23 332.46 451.81 333.25 452.29
  L 333.00 452.71
  Q 330.83 454.70 329.68 457.49
  A 0.46 0.45 18.8 0 0 329.99 458.10
  C 334.52 459.37 342.06 461.15 344.96 465.01
  C 351.26 473.42 342.19 485.61 331.68 480.82
  C 321.67 476.26 307.06 471.44 306.71 462.85
  Q 306.58 459.71 309.21 454.08
  Q 315.89 439.75 317.51 437.04
  C 322.51 428.74 334.00 432.29 336.79 440.75
  Z"
/>
</g>
<g fill="#ebebff">
<path d="
  M 291.71 44.00
  L 292.54 46.00
  Q 292.39 46.63 292.52 47.20
  Q 292.64 47.71 292.77 47.19
  Q 293.15 45.64 295.00 46.46
  Q 295.95 48.23 295.78 51.00
  C 295.03 63.24 294.22 71.73 293.23 85.67
  Q 292.62 94.34 290.99 101.24
  C 289.66 106.90 282.05 113.18 276.21 108.50
  L 275.25 106.21
  L 275.19 105.28
  Q 285.64 104.35 286.66 94.19
  Q 289.17 69.09 291.71 44.00
  Z"
/>
<path d="
  M 255.50 44.21
  Q 256.73 46.51 256.50 47.75
  Q 251.45 74.91 244.95 101.73
  Q 242.70 111.04 233.53 111.32
  Q 228.94 111.46 227.32 106.56
  C 236.16 106.64 238.73 101.90 240.63 93.75
  Q 246.02 70.64 251.29 47.50
  L 251.99 47.16
  A 1.01 0.90 83.1 0 0 252.49 46.44
  Q 252.89 44.06 255.50 44.21
  Z"
/>
<path d="
  M 337.50 51.21
  C 341.00 53.11 340.23 58.77 339.10 61.83
  Q 334.45 74.46 329.81 87.10
  C 329.06 89.15 329.14 90.48 327.21 92.00
  L 326.75 92.29
  L 322.79 91.72
  Q 322.18 91.63 322.65 91.93
  L 323.96 92.75
  L 324.50 93.46
  Q 322.79 93.65 321.60 92.60
  A 0.78 0.69 -59.9 0 1 321.43 91.78
  Q 329.07 71.79 335.75 51.46
  L 337.50 51.21
  Z"
/>
<path d="
  M 377.25 120.21
  L 374.96 117.75
  Q 385.48 103.89 396.17 90.17
  Q 397.22 88.82 399.63 83.41
  Q 400.56 83.66 400.56 82.99
  Q 400.56 82.53 400.90 82.74
  C 406.28 86.13 402.92 93.16 399.77 97.01
  Q 391.33 107.36 382.13 119.72
  Q 380.50 121.90 379.12 121.18
  L 377.25 120.21
  Z"
/>
<path d="
  M 175.75 115.54
  Q 176.46 116.75 177.75 116.21
  C 185.05 123.92 177.95 134.20 167.99 132.68
  Q 160.87 131.59 151.00 128.46
  Q 150.58 126.46 149.25 125.04
  C 158.99 127.02 176.81 133.96 175.75 115.54
  Z"
/>
<path d="
  M 143.93 141.18
  C 153.18 145.50 145.79 160.02 137.50 157.71
  Q 136.33 156.61 136.25 155.00
  A 1.45 0.57 -46.3 0 1 136.60 154.14
  Q 137.04 153.54 135.75 153.46
  Q 143.73 150.02 143.93 141.18
  Z"
/>
<path d="
  M 460.25 144.21
  C 465.45 148.89 459.82 156.40 457.07 160.59
  Q 446.23 177.08 435.17 193.42
  C 431.34 199.07 427.43 206.03 419.25 204.21
  L 419.14 200.69
  A 0.60 0.58 89.5 0 0 418.57 200.11
  L 415.00 200.04
  L 414.50 199.96
  C 420.77 200.46 423.78 198.03 427.33 192.79
  Q 441.28 172.24 455.17 151.68
  Q 456.72 149.37 457.29 145.75
  Q 457.39 144.61 458.50 144.46
  L 460.25 144.21
  Z"
/>
<path d="
  M 129.50 163.21
  Q 131.32 164.90 131.19 166.56
  Q 130.35 176.85 120.04 177.75
  Q 115.50 175.78 114.04 180.00
  L 107.96 189.25
  C 103.75 191.56 105.65 184.96 105.46 183.50
  L 105.54 183.25
  Q 109.41 174.99 105.25 182.46
  L 104.29 183.25
  L 104.25 182.99
  A 0.75 0.60 61.5 0 1 104.34 182.49
  Q 107.34 177.73 110.07 172.83
  Q 110.92 171.32 112.00 172.96
  Q 109.75 172.95 109.52 175.01
  A 0.52 0.49 5.0 0 0 110.00 175.55
  Q 113.89 175.90 117.22 173.85
  Q 122.52 171.39 125.29 166.25
  Q 126.60 165.70 127.21 164.50
  L 127.54 163.50
  L 129.50 163.21
  Z"
/>
<path d="
  M 108.46 197.25
  Q 112.74 205.81 104.75 210.54
  Q 103.02 210.61 101.96 209.25
  L 102.03 204.90
  Q 104.17 201.89 105.29 198.25
  L 108.46 197.25
  Z"
/>
<path d="
  M 99.25 220.21
  C 106.64 224.98 100.82 234.94 93.99 236.75
  C 91.21 237.49 86.04 235.64 83.40 234.94
  Q 64.92 230.06 46.71 224.25
  Q 47.06 222.69 46.25 221.29
  Q 63.69 226.19 81.12 231.15
  C 89.81 233.62 97.14 231.43 97.29 220.75
  Q 98.04 219.95 99.25 220.21
  Z"
/>
<path d="
  M 90.51 266.46
  Q 94.59 266.67 95.15 270.09
  C 97.87 286.54 77.92 283.55 68.75 282.96
  L 68.75 282.79
  Q 71.03 282.35 66.97 282.44
  A 0.63 0.61 -6.8 0 1 66.35 281.97
  C 65.41 277.86 72.51 278.68 75.98 278.65
  Q 89.96 280.00 90.51 266.46
  Z"
/>
<path d="
  M 483.29 269.25
  L 484.25 269.54
  Q 484.91 270.73 486.46 270.25
  C 491.24 278.12 483.31 286.11 475.00 284.96
  Q 476.63 284.59 474.99 284.27
  A 1.05 0.76 75.6 0 1 474.40 283.78
  L 473.25 281.71
  L 473.07 281.11
  A 0.42 0.34 76.4 0 1 473.31 280.60
  Q 482.40 278.79 483.29 269.25
  Z"
/>
<path d="
  M 45.75 283.46
  Q 45.38 285.19 45.27 291.50
  Q 45.03 305.30 30.91 302.87
  L 31.00 298.54
  C 40.96 297.37 40.02 288.87 40.95 281.42
  L 45.43 281.54
  A 0.58 0.55 -1.0 0 1 46.00 282.06
  Q 46.04 282.77 45.75 283.46
  Z"
/>
<path d="
  M 496.79 321.50
  L 495.04 331.00
  C 491.11 348.47 477.30 360.74 459.00 360.46
  Q 454.76 359.85 452.50 356.29
  C 471.33 357.07 486.05 344.09 489.75 325.96
  L 490.43 327.45
  Q 490.66 327.95 490.88 327.54
  L 493.25 323.29
  Q 494.34 322.35 494.66 320.99
  A 1.32 0.91 88.5 0 1 495.16 320.22
  Q 496.74 319.27 496.79 321.50
  Z"
/>
<path d="
  M 98.54 322.75
  Q 99.72 324.38 100.96 322.75
  Q 107.07 333.99 103.71 346.50
  Q 100.04 349.91 99.71 345.31
  A 1.06 0.58 -87.5 0 0 99.30 344.48
  L 98.29 344.00
  Q 101.59 333.43 98.54 322.75
  Z"
/>
<path d="
  M 70.73 347.85
  L 71.21 349.53
  C 75.07 350.21 72.69 353.60 73.04 355.75
  Q 70.43 361.09 65.00 363.54
  L 58.25 364.46
  Q 54.46 365.28 51.39 363.05
  A 1.31 0.90 -83.4 0 1 50.97 362.25
  Q 50.73 360.48 48.50 360.75
  Q 64.16 361.70 70.73 347.85
  Z"
/>
<path d="
  M 101.00 377.21
  C 97.38 380.73 103.70 378.73 103.35 380.70
  A 1.33 0.59 -26.3 0 1 102.75 381.42
  L 93.21 388.00
  L 79.79 397.76
  Q 74.58 401.27 69.34 404.67
  C 66.97 406.20 63.61 407.38 63.33 403.09
  Q 63.23 401.63 61.23 402.02
  Q 80.71 388.88 101.00 377.21
  Z"
/>
<path d="
  M 465.46 389.75
  Q 465.21 390.81 465.77 391.28
  A 0.97 0.66 -26.9 0 0 466.56 391.38
  Q 470.23 390.36 470.33 393.98
  Q 470.36 395.39 468.99 397.08
  C 461.06 406.92 453.85 417.95 446.67 427.82
  C 443.84 431.70 441.19 433.33 436.50 432.71
  Q 436.74 430.06 434.75 428.29
  Q 438.76 427.48 440.69 424.94
  Q 450.10 412.53 465.46 389.75
  Z"
/>
<path d="
  M 145.50 424.71
  Q 144.88 426.15 145.36 427.48
  A 0.86 0.69 -5.7 0 0 146.07 427.94
  Q 147.93 428.07 146.79 430.00
  L 145.00 432.29
  L 142.29 437.50
  C 134.66 446.35 125.98 453.60 118.91 462.81
  A 4.74 2.20 -5.3 0 1 116.50 464.21
  Q 115.02 464.65 114.71 463.29
  A 1.15 0.45 -41.5 0 1 115.15 462.43
  Q 117.52 459.97 118.79 456.75
  Q 119.62 455.19 119.21 453.50
  Q 118.42 452.87 119.25 452.00
  Q 132.35 438.33 145.50 424.71
  Z"
/>
<path d="
  M 209.00 444.21
  C 217.19 457.92 213.20 479.40 200.07 488.74
  C 192.83 493.89 183.24 496.35 174.18 495.24
  Q 173.66 492.87 172.47 491.20
  C 197.57 490.56 214.40 468.43 206.71 444.25
  Q 206.61 443.82 206.79 443.65
  A 0.58 0.31 51.4 0 1 207.40 443.92
  Q 207.92 444.58 209.00 444.21
  Z"
/>
<path d="
  M 417.29 444.00
  Q 418.33 445.91 420.00 444.46
  Q 422.91 447.09 422.01 451.00
  Q 419.61 461.50 408.75 459.46
  Q 409.78 458.15 409.21 456.70
  A 0.98 0.87 -2.6 0 0 408.52 456.14
  L 404.75 455.29
  Q 416.42 455.60 417.29 444.00
  Z"
/>
<path d="
  M 337.97 453.02
  Q 336.48 452.38 336.07 450.73
  A 1.11 0.98 -34.1 0 1 336.31 449.81
  L 338.55 447.07
  A 1.45 0.80 -60.2 0 1 339.50 446.49
  L 340.01 446.50
  A 0.73 0.71 -4.9 0 1 340.71 447.07
  Q 341.30 450.21 339.18 452.70
  A 1.10 1.02 -57.8 0 1 337.97 453.02
  Z"
/>
<path d="
  M 381.29 457.25
  Q 382.84 458.29 384.46 457.25
  C 386.71 461.40 389.59 469.79 388.53 474.59
  Q 386.11 485.57 373.67 483.27
  Q 375.15 480.73 373.00 479.29
  Q 381.79 478.41 383.57 470.97
  C 384.56 466.85 382.37 461.51 381.29 457.25
  Z"
/>
</g>
<g fill="#888b96" fill-opacity="0.604">
<path d="
  M 335.29 50.00
  L 337.50 51.21
  L 335.75 51.46
  L 335.29 50.00
  Z"
/>
<path d="
  M 129.50 163.21
  L 127.54 163.50
  Q 128.40 161.92 129.50 163.21
  Z"
/>
<path d="
  M 105.46 183.50
  C 105.65 184.96 103.75 191.56 107.96 189.25
  L 106.50 191.79
  C 103.56 191.22 104.67 187.20 104.60 185.04
  A 1.22 0.81 -30.6 0 1 104.98 184.26
  Q 105.30 183.96 105.46 183.50
  Z"
/>
<path d="
  M 415.00 200.04
  L 418.57 200.11
  A 0.60 0.58 89.5 0 1 419.14 200.69
  L 419.25 204.21
  Q 415.77 203.44 415.00 200.04
  Z"
/>
<path d="
  M 483.29 268.25
  L 484.50 268.79
  L 484.25 269.54
  L 483.29 269.25
  L 483.29 268.25
  Z"
/>
<path d="
  M 457.50 278.79
  Q 455.71 283.01 451.47 285.17
  C 449.60 282.67 454.04 279.52 455.75 278.21
  Q 457.00 277.53 457.50 278.79
  Z"
/>
<path d="
  M 498.46 313.00
  L 496.96 321.50
  L 496.79 321.50
  Q 496.74 319.27 495.16 320.22
  A 1.32 0.91 88.5 0 0 494.66 320.99
  Q 494.34 322.35 493.25 323.29
  L 491.77 323.98
  Q 491.22 324.23 491.27 323.70
  L 491.75 318.79
  L 492.71 315.25
  Q 492.74 315.83 492.99 316.33
  A 1.17 0.52 7.5 0 0 493.74 316.79
  L 495.49 317.25
  A 0.80 0.55 -65.1 0 0 496.22 316.82
  L 498.46 313.00
  Z"
/>
<path d="
  M 147.21 423.50
  L 149.75 429.21
  L 145.04 434.00
  L 145.00 432.29
  L 146.79 430.00
  Q 148.75 428.32 146.77 427.17
  A 1.37 0.87 15.9 0 1 146.15 426.47
  Q 145.68 424.74 147.21 423.50
  Z"
/>
<path d="
  M 431.71 428.50
  Q 433.28 428.04 434.75 428.29
  Q 436.74 430.06 436.50 432.71
  Q 433.12 431.47 431.71 428.50
  Z"
/>
<path d="
  M 420.00 444.46
  Q 418.33 445.91 417.29 444.00
  L 417.54 443.50
  Q 419.32 442.14 420.00 444.46
  Z"
/>
<path d="
  M 339.25 453.79
  L 338.18 455.10
  A 0.70 0.48 32.4 0 1 337.41 455.13
  L 333.00 452.71
  L 333.25 452.29
  Q 333.91 451.29 334.96 450.93
  A 0.51 0.45 72.6 0 1 335.55 451.29
  Q 336.30 453.84 339.25 453.79
  Z"
/>
<path d="
  M 381.00 455.04
  L 383.46 455.00
  L 384.46 457.25
  Q 382.84 458.29 381.29 457.25
  L 381.00 455.04
  Z"
/>
</g>
<g fill="#c5c6d6" fill-opacity="0.863">
<path d="
  M 295.00 46.46
  Q 293.15 45.64 292.77 47.19
  Q 292.64 47.71 292.52 47.20
  Q 292.39 46.63 292.54 46.00
  Q 293.47 45.89 293.57 45.06
  A 0.34 0.29 -72.7 0 1 294.02 44.78
  Q 294.87 45.31 295.00 46.46
  Z"
/>
<path d="
  M 120.04 177.75
  Q 116.62 177.85 114.04 180.00
  Q 115.50 175.78 120.04 177.75
  Z"
/>
<path d="
  M 39.50 219.29
  L 46.25 221.29
  Q 47.06 222.69 46.71 224.25
  L 40.10 222.89
  Q 41.19 220.81 39.50 219.29
  Z"
/>
<path d="
  M 484.50 268.79
  Q 485.81 269.08 486.46 270.25
  Q 484.91 270.73 484.25 269.54
  L 484.50 268.79
  Z"
/>
<path d="
  M 491.75 318.79
  L 491.27 323.70
  Q 491.22 324.23 491.77 323.98
  L 493.25 323.29
  L 490.88 327.54
  Q 490.66 327.95 490.43 327.45
  L 489.75 325.96
  L 491.75 318.79
  Z"
/>
<path d="
  M 71.21 349.53
  C 75.10 348.37 73.66 353.33 73.29 355.25
  L 73.04 355.75
  C 72.69 353.60 75.07 350.21 71.21 349.53
  Z"
/>
<path d="
  M 206.54 442.50
  Q 208.31 442.61 209.00 444.21
  Q 207.92 444.58 207.40 443.92
  A 0.58 0.31 51.4 0 0 206.79 443.65
  Q 206.61 443.82 206.71 444.25
  L 206.54 442.50
  Z"
/>
<path d="
  M 176.71 445.88
  Q 171.21 448.59 165.85 447.51
  C 168.18 444.02 173.13 444.76 176.71 445.88
  Z"
/>
</g>
<g fill="#1b1b1d" fill-opacity="0.133">
<path d="
  M 343.21 115.25
  Q 343.28 115.67 343.10 116.05
  Q 342.92 116.45 343.32 116.26
  Q 344.38 115.76 345.41 116.63
  A 0.44 0.24 39.0 0 0 345.93 116.72
  Q 347.05 115.10 347.56 116.96
  A 0.59 0.38 74.2 0 0 348.09 117.43
  L 348.71 117.25
  L 347.21 122.25
  L 346.21 121.70
  A 0.88 0.79 -45.0 0 0 345.34 121.75
  C 338.68 125.94 332.70 122.07 326.66 119.35
  Q 325.55 118.85 323.12 118.29
  C 321.70 117.96 320.48 116.86 319.19 116.47
  Q 315.14 115.28 319.47 115.75
  A 1.76 1.17 56.5 0 1 320.25 116.08
  Q 321.53 117.05 322.75 116.04
  C 329.74 118.54 337.28 122.77 343.21 115.25
  Z"
/>
<path d="
  M 40.79 244.50
  Q 43.32 245.13 44.94 247.10
  A 1.63 1.39 -70.2 0 1 45.28 248.00
  L 45.75 256.96
  L 41.56 257.14
  A 0.47 0.46 -1.8 0 1 41.07 256.69
  L 40.79 244.50
  Z"
/>
<path d="
  M 114.54 367.50
  Q 116.53 368.38 116.38 370.44
  A 0.88 0.69 -76.2 0 0 116.73 371.22
  Q 118.20 372.08 119.46 370.50
  Q 118.79 372.37 117.41 373.83
  Q 117.03 374.24 117.55 374.33
  L 119.50 374.71
  Q 113.29 374.66 109.91 380.04
  Q 107.53 380.31 105.29 381.75
  L 105.53 379.00
  A 1.12 0.66 30.3 0 0 105.09 378.22
  Q 104.06 377.36 104.50 375.79
  L 106.25 374.29
  Q 111.26 371.90 114.54 367.50
  Z"
/>
<path d="
  M 155.54 407.75
  L 157.28 407.97
  A 1.09 0.81 74.6 0 1 158.00 408.53
  Q 162.40 416.90 155.32 423.60
  Q 153.88 424.95 152.72 426.57
  A 2.01 1.35 -3.5 0 1 151.96 427.15
  Q 150.53 427.77 149.75 429.21
  L 147.21 423.50
  L 150.00 420.29
  C 153.82 416.12 156.56 413.37 155.54 407.75
  Z"
/>
</g>
<g fill="#75767e" fill-opacity="0.522">
<path d="
  M 98.29 344.00
  L 99.30 344.48
  A 1.06 0.58 -87.5 0 1 99.71 345.31
  Q 100.04 349.91 103.71 346.50
  C 103.11 349.22 99.13 353.08 97.87 348.42
  Q 97.81 348.17 97.89 347.46
  Q 98.00 346.57 96.75 346.46
  L 98.29 344.00
  Z"
/>
<path d="
  M 71.46 346.50
  L 71.51 347.21
  A 0.56 0.55 -89.4 0 0 72.01 347.73
  Q 72.82 347.78 73.25 348.50
  A 0.90 0.65 -9.1 0 0 73.94 348.85
  Q 76.21 348.95 75.05 351.42
  Q 74.18 353.28 73.29 355.25
  C 73.66 353.33 75.10 348.37 71.21 349.53
  L 70.73 347.85
  L 71.46 346.50
  Z"
/>
<path d="
  M 129.96 392.50
  Q 129.54 395.85 133.00 395.79
  Q 132.85 402.47 129.08 398.37
  A 0.46 0.38 39.5 0 0 128.40 398.37
  L 127.79 399.50
  L 128.29 395.25
  L 129.25 393.21
  Q 129.89 394.19 129.96 392.50
  Z"
/>
<path d="
  M 351.46 475.50
  Q 350.40 475.26 349.75 476.21
  L 349.29 476.75
  Q 349.56 475.64 350.43 474.87
  A 1.81 1.55 -16.7 0 0 350.94 474.08
  Q 351.46 472.25 351.46 475.50
  Z"
/>
</g>
<g fill="#b5b7c7" fill-opacity="0.804">
<path d="
  M 105.54 183.25
  L 105.25 182.46
  Q 109.41 174.99 105.54 183.25
  Z"
/>
<path d="
  M 106.96 194.25
  L 108.46 197.25
  L 105.29 198.25
  L 105.25 195.79
  L 106.96 194.25
  Z"
/>
<path d="
  M 63.56 279.29
  Q 67.35 279.08 64.77 280.35
  A 0.61 0.54 -23.5 0 0 64.45 281.04
  Q 65.31 283.54 68.75 282.79
  L 68.75 282.96
  L 60.25 282.96
  Q 63.41 282.76 62.04 282.49
  Q 61.54 282.39 61.93 282.18
  Q 62.32 281.96 62.20 281.58
  A 0.89 0.63 65.3 0 1 62.36 280.72
  Q 63.11 280.12 63.56 279.29
  Z"
/>
<path d="
  M 448.22 356.38
  L 452.50 356.29
  Q 454.76 359.85 459.00 360.46
  Q 452.02 361.77 448.22 356.38
  Z"
/>
<path d="
  M 48.50 360.75
  Q 50.73 360.48 50.97 362.25
  A 1.31 0.90 -83.4 0 0 51.39 363.05
  Q 54.46 365.28 58.25 364.46
  L 62.00 364.54
  Q 54.80 366.65 48.25 363.21
  L 48.50 360.75
  Z"
/>
<path d="
  M 150.00 420.29
  L 147.21 423.50
  Q 145.68 424.74 146.15 426.47
  A 1.37 0.87 15.9 0 0 146.77 427.17
  Q 148.75 428.32 146.79 430.00
  Q 147.93 428.07 146.07 427.94
  A 0.86 0.69 -5.7 0 1 145.36 427.48
  Q 144.88 426.15 145.50 424.71
  Q 147.33 422.07 150.00 420.29
  Z"
/>
<path d="
  M 172.47 491.20
  Q 173.66 492.87 174.18 495.24
  Q 170.72 494.11 167.44 491.88
  Q 169.74 490.49 172.47 491.20
  Z"
/>
</g>
<g fill="#7f808a" fill-opacity="0.553">
<path d="
  M 32.50 218.04
  L 39.50 219.29
  Q 41.19 220.81 40.10 222.89
  C 37.59 222.58 31.82 221.93 32.50 218.04
  Z"
/>
<path d="
  M 48.25 278.29
  L 63.56 279.29
  Q 63.11 280.12 62.36 280.72
  A 0.89 0.63 65.3 0 0 62.20 281.58
  Q 62.32 281.96 61.93 282.18
  Q 61.54 282.39 62.04 282.49
  Q 63.41 282.76 60.25 282.96
  Q 52.96 282.30 45.75 283.46
  Q 46.04 282.77 46.00 282.06
  A 0.58 0.55 -1.0 0 0 45.43 281.54
  L 40.95 281.42
  Q 40.61 280.16 40.93 278.79
  A 0.68 0.66 6.1 0 1 41.57 278.29
  L 48.25 278.29
  Z"
/>
</g>
<g fill="#3b383f" fill-opacity="0.255">
<path d="
  M 105.25 182.46
  L 105.54 183.25
  L 105.46 183.50
  Q 105.30 183.96 104.98 184.26
  A 1.22 0.81 -30.6 0 0 104.60 185.04
  C 104.67 187.20 103.56 191.22 106.50 191.79
  Q 106.17 193.09 106.96 194.25
  L 105.25 195.79
  Q 103.98 191.80 101.60 188.35
  A 0.82 0.71 45.8 0 1 101.55 187.50
  L 104.29 183.25
  L 105.25 182.46
  Z"
/>
<path d="
  M 115.54 360.25
  Q 117.45 360.58 118.00 362.21
  Q 117.26 363.98 116.04 363.00
  L 115.54 361.25
  L 115.54 360.25
  Z"
/>
<path d="
  M 336.79 440.75
  Q 340.07 442.01 340.96 445.50
  Q 338.99 446.53 337.04 445.50
  L 336.79 440.75
  Z"
/>
</g>
<g fill="#bdc0de" fill-opacity="0.949">
<path d="
  M 255.50 44.21
  Q 252.89 44.06 252.49 46.44
  A 1.01 0.90 83.1 0 1 251.99 47.16
  L 251.29 47.50
  L 252.29 44.75
  Q 253.55 44.79 253.25 43.54
  Q 254.50 41.96 255.50 44.21
  Z"
/>
<path d="
  M 457.96 143.25
  L 458.25 143.54
  L 458.50 144.46
  Q 457.39 144.61 457.29 145.75
  Q 456.77 144.17 457.96 143.25
  Z"
/>
<path d="
  M 126.21 164.00
  L 127.21 164.50
  Q 126.60 165.70 125.29 166.25
  Q 125.00 164.84 126.21 164.00
  Z"
/>
<path d="
  M 97.29 219.00
  L 99.25 220.21
  Q 98.04 219.95 97.29 220.75
  L 97.29 219.00
  Z"
/>
<path d="
  M 75.98 278.65
  C 72.51 278.68 65.41 277.86 66.35 281.97
  A 0.63 0.61 -6.8 0 0 66.97 282.44
  Q 71.03 282.35 68.75 282.79
  Q 65.31 283.54 64.45 281.04
  A 0.61 0.54 -23.5 0 1 64.77 280.35
  Q 67.35 279.08 63.56 279.29
  L 48.25 278.29
  Q 62.15 277.81 75.98 278.65
  Z"
/>
<path d="
  M 115.54 361.25
  L 116.04 363.00
  L 115.29 364.75
  L 115.54 361.25
  Z"
/>
<path d="
  M 65.00 363.54
  L 62.00 364.54
  L 58.25 364.46
  L 65.00 363.54
  Z"
/>
<path d="
  M 106.25 374.29
  L 104.50 375.79
  Q 103.17 376.86 101.50 376.96
  Q 103.60 375.13 106.25 374.29
  Z"
/>
<path d="
  M 133.46 385.75
  L 130.75 385.00
  Q 132.27 382.56 133.46 385.75
  Z"
/>
<path d="
  M 129.71 384.25
  L 130.50 385.04
  Q 130.54 386.56 129.54 387.50
  Q 128.83 385.76 129.71 384.25
  Z"
/>
<path d="
  M 93.21 388.00
  L 93.00 389.21
  Q 86.75 394.01 79.79 397.76
  L 93.21 388.00
  Z"
/>
<path d="
  M 129.29 390.00
  L 129.25 393.21
  L 128.29 395.25
  Q 127.84 392.43 129.29 390.00
  Z"
/>
<path d="
  M 145.00 432.29
  L 145.04 434.00
  L 142.29 437.50
  L 145.00 432.29
  Z"
/>
</g>
<g fill="#8a8f95" fill-opacity="0.859">
<path d="
  M 252.29 43.25
  L 253.25 43.54
  Q 253.55 44.79 252.29 44.75
  L 252.29 43.25
  Z"
/>
<path d="
  M 326.75 92.29
  L 323.96 92.75
  L 322.65 91.93
  Q 322.18 91.63 322.79 91.72
  L 326.75 92.29
  Z"
/>
<path d="
  M 275.25 106.21
  L 276.21 108.50
  L 274.65 107.04
  A 0.62 0.41 46.0 0 1 274.50 106.25
  Q 274.74 106.09 275.25 106.21
  Z"
/>
<path d="
  M 177.75 116.21
  Q 176.46 116.75 175.75 115.54
  L 175.54 115.00
  Q 177.16 114.64 177.75 116.21
  Z"
/>
<path d="
  M 374.96 117.75
  L 377.25 120.21
  Q 375.81 120.23 375.51 119.06
  A 0.38 0.35 69.3 0 0 375.00 118.80
  L 374.25 119.21
  L 374.96 117.75
  Z"
/>
<path d="
  M 460.25 144.21
  L 458.50 144.46
  L 458.25 143.54
  Q 459.50 142.58 460.25 144.21
  Z"
/>
<path d="
  M 132.00 153.54
  L 135.75 153.46
  Q 137.04 153.54 136.60 154.14
  A 1.45 0.57 -46.3 0 0 136.25 155.00
  Q 136.33 156.61 137.50 157.71
  Q 136.10 158.00 134.86 157.26
  A 0.49 0.43 -52.3 0 1 134.82 156.55
  Q 135.63 155.65 135.91 154.44
  A 0.59 0.45 8.5 0 0 135.36 153.88
  L 132.00 153.54
  Z"
/>
<path d="
  M 102.03 204.90
  L 101.96 209.25
  L 101.46 208.75
  Q 102.89 206.22 100.54 206.00
  Q 101.61 205.90 102.03 204.90
  Z"
/>
<path d="
  M 92.25 207.54
  L 96.50 207.54
  Q 94.39 208.51 92.25 207.54
  Z"
/>
<path d="
  M 472.00 281.29
  L 473.25 281.71
  L 474.40 283.78
  A 1.05 0.76 75.6 0 0 474.99 284.27
  Q 476.63 284.59 475.00 284.96
  L 472.96 283.75
  Q 473.44 282.03 472.00 281.29
  Z"
/>
<path d="
  M 496.79 321.50
  L 496.96 321.50
  C 497.68 324.15 495.90 328.73 495.04 331.00
  L 496.79 321.50
  Z"
/>
<path d="
  M 130.50 385.04
  L 130.75 385.00
  L 129.96 392.50
  Q 129.89 394.19 129.25 393.21
  L 129.29 390.00
  L 129.54 387.50
  Q 130.54 386.56 130.50 385.04
  Z"
/>
<path d="
  M 119.21 453.50
  Q 119.62 455.19 118.79 456.75
  Q 119.27 455.10 118.00 454.46
  L 119.21 453.50
  Z"
/>
<path d="
  M 351.46 475.50
  L 351.29 476.75
  Q 350.84 475.92 349.75 476.21
  Q 350.40 475.26 351.46 475.50
  Z"
/>
</g>
<g fill="#52575d" fill-opacity="0.431">
<path d="
  M 327.21 92.00
  Q 326.40 92.98 326.25 94.21
  L 324.50 93.46
  L 323.96 92.75
  L 326.75 92.29
  L 327.21 92.00
  Z"
/>
<path d="
  M 145.25 124.29
  L 149.25 125.04
  Q 150.58 126.46 151.00 128.46
  Q 146.60 128.30 145.25 124.29
  Z"
/>
<path d="
  M 112.00 172.96
  Q 114.92 172.65 117.22 173.85
  Q 113.89 175.90 110.00 175.55
  A 0.52 0.49 5.0 0 1 109.52 175.01
  Q 109.75 172.95 112.00 172.96
  Z"
/>
<path d="
  M 459.50 276.46
  L 457.50 278.79
  Q 457.00 277.53 455.75 278.21
  L 458.71 275.17
  A 0.51 0.43 -41.9 0 1 459.42 275.15
  Q 459.83 275.70 459.50 276.46
  Z"
/>
<path d="
  M 98.04 321.00
  Q 100.36 320.49 100.96 322.75
  Q 99.72 324.38 98.54 322.75
  L 98.04 321.00
  Z"
/>
<path d="
  M 46.50 360.29
  L 48.50 360.75
  L 48.25 363.21
  Q 46.29 362.48 46.50 360.29
  Z"
/>
</g>
<g fill="#9091a0" fill-opacity="0.647">
<path d="
  M 101.46 208.75
  L 101.96 209.25
  Q 103.02 210.61 104.75 210.54
  C 103.66 211.02 102.24 211.71 101.10 211.24
  Q 99.33 210.52 101.46 208.75
  Z"
/>
<path d="
  M 31.00 298.54
  L 30.91 302.87
  L 29.14 301.05
  A 0.44 0.41 47.3 0 1 29.14 300.44
  Q 30.63 299.13 27.50 298.79
  L 31.00 298.54
  Z"
/>
<path d="
  M 118.00 362.21
  Q 120.84 365.89 119.46 370.50
  Q 118.20 372.08 116.73 371.22
  A 0.88 0.69 -76.2 0 1 116.38 370.44
  Q 116.53 368.38 114.54 367.50
  L 115.29 364.75
  L 116.04 363.00
  Q 117.26 363.98 118.00 362.21
  Z"
/>
<path d="
  M 104.50 375.79
  Q 104.06 377.36 105.09 378.22
  A 1.12 0.66 30.3 0 1 105.53 379.00
  L 105.29 381.75
  L 93.00 389.21
  L 93.21 388.00
  L 102.75 381.42
  A 1.33 0.59 -26.3 0 0 103.35 380.70
  C 103.70 378.73 97.38 380.73 101.00 377.21
  L 101.50 376.96
  Q 103.17 376.86 104.50 375.79
  Z"
/>
<path d="
  M 404.00 455.29
  L 404.75 455.29
  L 408.52 456.14
  A 0.98 0.87 -2.6 0 1 409.21 456.70
  Q 409.78 458.15 408.75 459.46
  Q 405.93 458.96 405.28 456.30
  A 0.81 0.61 3.0 0 0 404.69 455.80
  Q 404.26 455.71 404.00 455.29
  Z"
/>
<path d="
  M 370.25 479.04
  L 373.00 479.29
  Q 375.15 480.73 373.67 483.27
  L 371.63 480.82
  A 1.71 1.36 27.6 0 1 371.27 480.01
  Q 371.19 479.22 370.25 479.04
  Z"
/>
</g>
<path fill="#cccfe2" fill-opacity="0.965" d="
  M 337.04 445.50
  Q 338.99 446.53 340.96 445.50
  Q 342.45 450.13 339.25 453.79
  Q 336.30 453.84 335.55 451.29
  A 0.51 0.45 72.6 0 0 334.96 450.93
  Q 333.91 451.29 333.25 452.29
  C 332.46 451.81 336.53 446.23 337.04 445.50
  Z
  M 337.97 453.02
  A 1.10 1.02 -57.8 0 0 339.18 452.70
  Q 341.30 450.21 340.71 447.07
  A 0.73 0.71 -4.9 0 0 340.01 446.50
  L 339.50 446.49
  A 1.45 0.80 -60.2 0 0 338.55 447.07
  L 336.31 449.81
  A 1.11 0.98 -34.1 0 0 336.07 450.73
  Q 336.48 452.38 337.97 453.02
  Z"
/>
<g fill="#686a74" fill-opacity="0.467">
<path d="
  M 470.00 280.79
  L 472.00 281.29
  Q 473.44 282.03 472.96 283.75
  Q 470.95 282.85 470.00 280.79
  Z"
/>
<path d="
  M 175.54 441.44
  Q 173.19 441.82 173.97 443.53
  Q 174.63 444.97 176.71 445.88
  C 173.13 444.76 168.18 444.02 165.85 447.51
  Q 165.61 445.21 164.25 443.54
  L 175.54 441.44
  Z"
/>
</g>
<path fill="#111012" fill-opacity="0.094" d="
  M 451.25 314.46
  Q 449.41 314.73 450.11 315.55
  Q 450.41 315.89 449.99 315.95
  C 443.40 316.91 446.31 322.51 443.37 326.65
  A 0.52 0.46 34.3 0 1 442.69 326.74
  Q 441.88 326.19 441.54 327.25
  Q 438.44 319.75 441.83 312.24
  A 0.42 0.42 18.7 0 1 442.32 312.00
  L 451.25 314.46
  Z"
/>
<path fill="#060606" fill-opacity="0.039" d="
  M 416.19 159.79
  L 428.51 157.13
  A 0.33 0.33 11.5 0 1 428.85 157.64
  L 421.62 167.97
  A 0.33 0.33 49.2 0 1 421.08 167.96
  L 415.98 160.30
  A 0.33 0.33 66.5 0 1 416.19 159.79
  Z"
/>
<g fill="#242226" fill-opacity="0.165">
<path d="
  M 461.50 273.71
  Q 461.18 273.65 460.92 273.73
  A 0.89 0.55 86.0 0 0 460.52 274.49
  Q 460.48 275.71 459.50 276.46
  Q 459.83 275.70 459.42 275.15
  A 0.51 0.43 -41.9 0 0 458.71 275.17
  L 455.75 278.21
  C 454.04 279.52 449.60 282.67 451.47 285.17
  C 448.49 284.35 450.32 281.50 448.64 280.29
  L 456.94 269.09
  A 0.44 0.39 -47.0 0 1 457.58 269.03
  L 461.50 273.71
  Z"
/>
<path d="
  M 494.46 308.00
  L 494.67 309.54
  A 0.58 0.33 2.0 0 0 495.19 309.86
  L 497.75 310.02
  A 1.09 1.04 76.4 0 1 498.62 310.58
  Q 499.24 311.75 498.46 313.00
  L 496.22 316.82
  A 0.80 0.55 -65.1 0 1 495.49 317.25
  L 493.74 316.79
  A 1.17 0.52 7.5 0 1 492.99 316.33
  Q 492.74 315.83 492.71 315.25
  L 494.46 308.00
  Z"
/>
<path d="
  M 377.79 444.50
  Q 378.23 444.82 378.54 445.36
  A 0.59 0.46 62.2 0 0 379.20 445.66
  Q 380.36 445.10 379.97 446.74
  A 0.60 0.53 -84.6 0 0 380.51 447.49
  Q 382.00 447.36 381.74 449.01
  Q 381.71 449.17 381.95 449.94
  L 383.46 455.00
  L 381.00 455.04
  L 377.79 444.50
  Z"
/>
</g>
<g fill="#ededf8">
<path d="
  M 130.75 385.00
  L 133.46 385.75
  C 135.02 387.91 133.78 393.40 133.00 395.79
  Q 129.54 395.85 129.96 392.50
  L 130.75 385.00
  Z"
/>
<path d="
  M 349.75 476.21
  Q 350.84 475.92 351.29 476.75
  Q 349.66 487.74 338.46 486.13
  Q 337.59 486.00 338.42 485.71
  Q 346.01 483.10 349.29 476.75
  L 349.75 476.21
  Z"
/>
</g>
</svg>
