<?xml version="1.0" encoding="UTF-8" standalone="no"?>
<!DOCTYPE svg PUBLIC "-//W3C//DTD SVG 1.1//EN" "http://www.w3.org/Graphics/SVG/1.1/DTD/svg11.dtd">
<svg xmlns="http://www.w3.org/2000/svg" version="1.1" viewBox="0 0 500 500">
<g fill="#6071ff">
<path d="
  M 331.69 62.29
  Q 330.95 64.38 331.21 66.00
  Q 329.99 67.94 330.19 70.25
  A 1.97 1.82 56.8 0 1 330.03 71.19
  Q 329.02 73.34 329.29 75.75
  L 329.00 76.54
  Q 328.59 77.54 327.75 81.25
  Q 324.04 97.54 320.38 113.83
  Q 318.87 120.57 314.00 123.71
  Q 309.88 125.35 305.90 123.88
  Q 302.27 122.39 300.56 119.19
  Q 294.75 108.31 285.87 90.71
  C 285.43 89.82 284.45 86.08 283.96 91.00
  C 281.58 102.96 280.26 119.05 266.00 115.29
  C 258.53 111.43 258.60 105.75 260.40 97.90
  Q 265.10 77.39 269.52 56.81
  C 270.34 52.97 268.89 44.29 275.24 44.89
  C 282.27 45.57 287.67 47.39 291.03 53.74
  Q 298.37 67.61 305.25 81.74
  Q 305.57 82.41 305.75 81.75
  Q 309.04 69.06 310.59 56.07
  Q 310.84 53.93 312.97 53.76
  Q 324.98 52.83 331.69 62.29
  Z"
/>
<path d="
  M 253.96 105.00
  Q 252.43 114.77 242.50 115.04
  C 236.51 114.46 235.24 110.66 231.59 106.93
  C 226.29 108.04 220.37 108.17 215.19 109.81
  A 1.08 0.98 -87.1 0 0 214.56 110.44
  L 212.75 115.21
  Q 211.19 117.95 208.64 119.65
  C 206.71 120.94 204.09 120.94 201.75 121.79
  Q 197.90 120.07 195.04 117.00
  Q 191.55 112.57 193.18 105.93
  Q 198.66 83.56 204.09 61.15
  C 205.90 53.66 204.09 49.02 214.11 47.80
  C 219.97 47.09 223.74 51.30 226.56 55.95
  Q 248.13 91.61 253.03 100.01
  Q 254.15 101.93 253.96 105.00
  Z
  M 216.31 92.47
  A 0.31 0.31 3.6 0 0 216.67 92.84
  L 225.42 91.47
  A 0.31 0.31 -19.1 0 0 225.64 91.01
  L 219.46 80.15
  A 0.31 0.31 32.2 0 0 218.88 80.24
  L 216.31 92.47
  Z"
/>
<path d="
  M 134.29 89.00
  Q 134.16 91.04 134.63 93.02
  Q 134.82 93.82 134.87 93.02
  L 135.04 90.50
  L 135.25 90.54
  C 135.45 94.00 134.88 96.90 132.38 99.58
  Q 128.56 103.68 124.02 107.06
  A 0.85 0.80 -37.7 0 0 123.83 108.24
  L 127.33 112.52
  L 149.02 140.02
  Q 151.78 156.82 134.78 154.63
  Q 126.09 145.69 118.50 135.71
  L 114.25 130.46
  L 110.64 126.11
  Q 109.35 123.53 106.83 121.25
  A 0.62 0.61 -43.4 0 0 106.05 121.23
  C 100.21 125.88 96.73 130.33 88.43 129.33
  Q 85.44 127.78 83.29 125.00
  Q 78.23 116.25 86.02 109.99
  Q 98.91 99.65 111.84 89.29
  C 119.93 82.81 127.32 77.96 134.29 89.00
  Z"
/>
<path d="
  M 394.17 93.30
  C 396.78 99.94 392.08 108.16 389.75 114.46
  Q 387.94 117.89 387.25 121.71
  L 384.46 128.75
  Q 384.02 129.87 385.11 129.28
  L 394.66 124.11
  L 411.77 114.77
  Q 413.95 113.58 416.39 113.92
  Q 421.81 114.68 425.24 120.23
  Q 428.32 130.17 419.67 134.66
  Q 412.24 138.52 376.25 156.55
  L 371.25 158.96
  Q 366.77 160.20 362.59 158.71
  Q 354.39 153.54 357.51 144.26
  Q 365.74 119.81 374.24 95.50
  C 377.55 86.02 389.21 84.27 394.17 93.30
  Z"
/>
<path d="
  M 79.00 143.54
  L 81.04 146.00
  L 81.75 147.46
  C 82.16 152.21 79.29 154.96 77.87 158.06
  Q 73.79 161.12 69.04 162.14
  C 63.59 163.31 62.07 171.01 68.00 168.26
  Q 74.07 165.44 79.46 161.50
  Q 85.11 158.43 91.25 156.54
  L 100.50 155.96
  Q 107.29 158.11 111.53 163.73
  Q 111.81 164.97 112.46 166.02
  Q 113.38 167.50 113.60 168.17
  C 118.67 183.46 108.40 199.49 95.00 206.21
  L 90.75 207.04
  L 83.75 206.79
  L 82.04 206.00
  Q 75.58 202.21 77.00 194.79
  Q 79.21 189.64 84.50 187.71
  Q 90.67 186.41 93.70 181.07
  C 94.92 178.92 93.77 176.22 91.03 178.05
  Q 84.57 182.38 77.75 186.21
  L 77.46 186.50
  Q 68.46 190.49 58.79 188.25
  L 57.25 187.79
  Q 53.20 185.45 50.04 182.00
  L 48.39 180.06
  C 40.61 164.76 50.42 148.14 65.20 141.99
  Q 72.87 138.81 79.00 143.54
  Z"
/>
<path d="
  M 447.03 148.90
  Q 446.76 149.30 447.27 150.03
  C 451.94 156.62 449.69 161.83 443.59 166.01
  Q 428.86 176.13 414.00 186.04
  L 403.31 193.33
  Q 398.72 195.22 394.09 193.95
  C 385.60 189.29 385.56 179.79 393.49 174.43
  C 408.64 164.16 425.04 154.27 438.99 142.47
  Q 440.35 141.32 441.99 142.49
  Q 445.42 144.92 447.03 148.90
  Z"
/>
<path d="
  M 469.39 184.61
  C 471.80 190.07 474.31 201.18 466.69 203.99
  Q 448.05 210.87 429.21 217.64
  A 0.51 0.50 71.4 0 0 428.90 218.28
  C 431.26 225.14 437.17 236.38 434.25 243.21
  L 431.50 246.71
  Q 427.42 249.73 422.25 249.04
  Q 416.85 247.39 414.56 241.18
  Q 410.37 229.83 406.22 218.41
  C 403.24 210.21 403.72 204.07 412.86 200.90
  Q 420.79 198.14 457.69 184.61
  C 460.88 183.44 467.59 177.74 469.39 184.61
  Z"
/>
<path d="
  M 40.00 197.79
  L 47.75 200.54
  L 70.00 208.29
  L 87.46 214.50
  Q 90.26 216.09 92.04 218.75
  Q 96.49 232.84 81.89 234.87
  L 52.75 224.96
  Q 40.34 219.91 27.30 216.80
  L 26.25 216.79
  L 24.04 215.25
  L 23.32 211.97
  C 24.78 203.68 30.28 194.61 40.00 197.79
  Z"
/>
<path d="
  M 38.50 236.71
  Q 51.13 237.14 58.63 247.30
  A 1.01 1.01 53.0 0 0 60.05 247.50
  C 66.13 242.87 72.11 235.86 80.59 240.24
  L 84.04 244.00
  L 84.29 244.75
  C 86.94 252.52 83.43 256.02 76.94 260.09
  Q 71.24 263.66 65.53 267.17
  C 63.84 268.20 63.65 269.46 64.04 271.25
  L 63.87 273.31
  A 0.68 0.54 8.9 0 0 64.42 273.91
  Q 68.91 274.85 73.50 274.71
  Q 78.94 275.32 81.71 280.00
  Q 84.75 290.00 77.19 294.15
  C 73.20 296.35 68.02 295.48 63.50 294.96
  C 46.81 293.69 29.99 291.76 13.25 292.29
  Q 10.55 290.38 10.80 286.49
  Q 11.37 277.51 11.99 268.50
  Q 12.44 261.92 13.37 258.55
  Q 18.66 239.30 38.50 236.71
  Z
  M 35.50 272.21
  L 45.36 273.07
  A 0.56 0.52 -82.7 0 0 45.93 272.59
  Q 46.74 267.53 45.89 262.39
  C 43.34 256.83 36.28 256.60 32.86 261.00
  C 30.74 263.73 30.99 267.77 30.81 271.22
  A 0.66 0.62 -80.5 0 0 31.25 271.88
  Q 33.34 272.49 35.50 272.21
  Z"
/>
<path d="
  M 488.04 253.00
  Q 489.62 257.49 488.72 264.25
  C 487.78 271.29 484.52 273.40 477.52 273.74
  Q 459.15 274.62 441.10 275.12
  A 0.98 0.98 87.7 0 0 440.15 276.15
  Q 440.66 285.35 440.82 294.27
  Q 440.90 298.51 436.50 302.21
  L 432.50 303.96
  Q 431.53 303.71 430.87 304.16
  A 0.38 0.34 42.8 0 0 430.93 304.76
  L 437.75 309.21
  Q 458.35 326.34 479.51 342.62
  C 481.32 355.67 473.76 358.02 462.54 359.11
  Q 440.14 361.29 417.75 363.60
  C 416.05 363.78 413.64 363.30 411.73 364.11
  C 404.49 359.51 401.21 349.34 409.89 343.96
  C 412.03 342.63 414.84 342.57 417.43 341.56
  A 1.01 0.74 -7.6 0 0 418.02 341.00
  L 422.66 325.47
  A 0.74 0.67 28.2 0 0 422.39 324.72
  C 414.13 318.32 413.63 306.93 425.14 303.90
  Q 426.58 303.52 425.22 302.91
  C 421.58 301.27 419.77 298.49 419.54 294.30
  Q 418.86 282.45 418.49 266.49
  Q 418.24 256.06 428.29 254.25
  L 434.00 253.71
  C 447.17 253.84 460.67 252.92 474.06 252.72
  C 477.49 252.67 485.87 250.00 488.04 253.00
  Z
  M 437.64 333.57
  A 0.30 0.30 28.0 0 0 437.16 333.72
  L 434.43 342.65
  A 0.30 0.30 6.1 0 0 434.74 343.04
  L 447.43 342.04
  A 0.30 0.30 -27.6 0 0 447.60 341.50
  L 437.64 333.57
  Z"
/>
</g>
<g fill="#e9e9fd">
<path d="
  M 425.24 120.23
  Q 434.46 128.38 428.82 135.30
  Q 426.49 138.14 418.22 142.36
  Q 400.09 151.60 381.79 160.50
  Q 382.42 159.47 382.35 158.30
  A 0.69 0.68 -16.2 0 1 382.71 157.65
  Q 384.84 156.48 383.56 155.59
  A 1.25 0.36 40.2 0 0 382.82 155.26
  Q 379.45 155.23 376.25 156.55
  Q 412.24 138.52 419.67 134.66
  Q 428.32 130.17 425.24 120.23
  Z"
/>
<path d="
  M 447.03 148.90
  Q 452.76 153.44 454.14 160.25
  C 454.86 163.76 453.22 167.26 450.51 169.27
  Q 438.27 178.35 418.25 190.79
  Q 415.40 190.43 417.96 188.62
  Q 421.02 186.45 419.23 185.26
  L 418.25 184.61
  A 0.80 0.53 -47.6 0 0 417.42 184.82
  Q 415.97 186.20 414.00 186.04
  Q 428.86 176.13 443.59 166.01
  C 449.69 161.83 451.94 156.62 447.27 150.03
  Q 446.76 149.30 447.03 148.90
  Z"
/>
<path d="
  M 469.39 184.61
  Q 475.85 189.22 476.66 197.58
  Q 477.50 206.10 469.85 208.98
  Q 444.93 218.38 438.73 220.45
  Q 435.69 221.47 434.06 222.89
  A 0.73 0.69 59.3 0 0 433.88 223.69
  Q 438.64 235.57 439.70 240.51
  Q 440.76 245.49 437.25 250.29
  Q 435.60 248.52 437.69 247.33
  A 0.58 0.42 66.3 0 0 437.83 246.69
  Q 437.15 244.85 437.76 243.00
  Q 438.14 241.86 437.43 242.04
  L 436.50 242.28
  Q 435.83 242.45 435.64 242.62
  Q 435.07 243.14 434.25 243.21
  C 437.17 236.38 431.26 225.14 428.90 218.28
  A 0.51 0.50 71.4 0 1 429.21 217.64
  Q 448.05 210.87 466.69 203.99
  C 474.31 201.18 471.80 190.07 469.39 184.61
  Z"
/>
<path d="
  M 488.04 253.00
  L 492.88 257.94
  A 1.89 1.12 28.7 0 1 493.36 258.75
  C 494.71 264.81 494.47 274.42 488.05 277.40
  Q 485.89 278.39 479.31 278.62
  Q 463.85 279.14 447.43 279.72
  Q 445.01 279.80 445.16 282.23
  C 445.55 288.25 447.23 300.04 442.64 305.16
  Q 439.75 306.14 440.23 301.97
  A 0.68 0.65 -80.0 0 0 439.75 301.25
  Q 439.47 301.18 439.32 300.92
  A 0.61 0.37 -47.9 0 0 438.53 301.16
  Q 437.77 302.21 436.50 302.21
  Q 440.90 298.51 440.82 294.27
  Q 440.66 285.35 440.15 276.15
  A 0.98 0.98 87.7 0 1 441.10 275.12
  Q 459.15 274.62 477.52 273.74
  C 484.52 273.40 487.78 271.29 488.72 264.25
  Q 489.62 257.49 488.04 253.00
  Z"
/>
<path d="
  M 437.64 333.57
  L 447.60 341.50
  A 0.30 0.30 -28.5 0 1 447.43 342.04
  L 434.74 343.04
  A 0.30 0.30 5.8 0 1 434.43 342.65
  L 437.16 333.72
  A 0.30 0.30 27.4 0 1 437.64 333.57
  Z"
/>
<path d="
  M 479.51 342.62
  L 482.87 346.34
  Q 484.43 348.07 484.49 349.55
  C 485.08 364.41 470.97 363.45 460.61 364.39
  C 455.07 364.90 448.39 365.94 442.21 366.30
  C 435.48 366.70 430.35 367.23 424.43 367.82
  C 419.72 368.29 414.72 368.15 411.73 364.11
  C 413.64 363.30 416.05 363.78 417.75 363.60
  Q 440.14 361.29 462.54 359.11
  C 473.76 358.02 481.32 355.67 479.51 342.62
  Z"
/>
</g>
<g fill="#434443" fill-opacity="0.271">
<path d="
  M 192.79 118.50
  Q 189.69 119.07 189.47 115.97
  L 177.49 89.36
  Q 177.53 87.51 176.29 86.50
  L 171.29 75.00
  Q 173.13 74.54 174.24 76.78
  Q 175.99 80.30 177.46 84.02
  C 178.62 86.97 180.46 89.61 181.45 92.51
  C 184.61 101.74 189.76 110.66 192.79 118.50
  Z"
/>
<path d="
  M 253.96 105.00
  Q 253.88 106.26 254.64 107.15
  A 1.07 0.12 13.7 0 0 255.50 107.46
  L 257.92 108.10
  A 0.85 0.82 4.8 0 1 258.54 108.81
  Q 258.60 109.26 258.38 109.66
  Q 258.05 110.25 258.00 110.56
  C 256.92 117.54 249.57 121.41 243.15 118.04
  Q 242.32 117.61 242.81 117.31
  Q 243.13 117.12 242.76 117.01
  Q 242.00 116.80 242.73 116.57
  Q 244.27 116.07 242.50 115.04
  Q 252.43 114.77 253.96 105.00
  Z"
/>
<path d="
  M 50.04 182.00
  Q 53.20 185.45 57.25 187.79
  C 61.32 195.01 67.81 194.74 75.54 193.76
  A 0.56 0.45 78.7 0 1 76.06 194.19
  Q 76.21 194.75 77.00 194.79
  Q 75.58 202.21 82.04 206.00
  Q 84.85 210.98 80.71 209.54
  C 78.63 208.83 77.55 209.24 75.48 209.27
  Q 75.01 209.28 74.55 209.03
  Q 72.45 207.95 70.00 208.29
  L 47.75 200.54
  Q 50.11 201.20 49.87 200.03
  A 0.49 0.49 83.0 0 1 50.33 199.44
  L 54.98 199.34
  A 0.31 0.28 -81.5 0 1 55.24 199.74
  Q 55.13 200.13 55.50 200.25
  A 0.54 0.08 -72.7 0 0 55.74 199.76
  Q 55.91 199.20 56.49 199.25
  Q 57.30 199.33 56.65 198.86
  Q 55.95 198.36 56.67 198.25
  Q 57.47 198.13 56.82 197.92
  L 55.51 197.50
  Q 55.00 197.33 55.49 197.23
  L 55.74 197.17
  A 0.20 0.19 -16.4 0 0 55.89 196.91
  Q 55.14 194.92 57.47 195.09
  Q 57.58 195.10 57.47 195.08
  Q 56.14 194.86 57.50 194.34
  Q 57.89 194.19 57.57 193.94
  Q 57.09 193.56 56.51 193.50
  Q 56.28 193.48 56.52 193.19
  Q 57.03 192.62 56.07 190.33
  A 0.80 0.45 81.3 0 0 55.79 189.97
  Q 54.16 188.97 54.36 187.20
  A 0.88 0.64 -77.1 0 0 54.01 186.37
  Q 51.11 184.94 50.04 182.00
  Z"
/>
<path d="
  M 99.75 210.79
  Q 99.18 212.53 97.19 212.70
  A 0.77 0.76 75.7 0 0 96.56 213.77
  Q 99.42 220.15 97.86 226.01
  Q 97.09 224.62 96.29 223.35
  C 95.15 221.56 93.17 220.92 92.04 218.75
  Q 90.26 216.09 87.46 214.50
  Q 87.33 213.54 86.55 213.27
  Q 86.13 213.13 86.50 212.92
  C 89.25 211.28 92.90 211.99 96.00 211.54
  L 99.75 210.79
  Z"
/>
</g>
<g fill="#d8d8ea" fill-opacity="0.914">
<path d="
  M 418.25 190.79
  L 407.68 197.83
  Q 408.48 195.96 411.18 193.65
  Q 412.55 192.48 411.37 190.98
  A 0.70 0.37 -24.4 0 0 410.70 190.94
  Q 409.99 191.21 409.49 190.78
  A 0.68 0.61 51.6 0 0 408.78 190.66
  L 403.31 193.33
  L 414.00 186.04
  Q 415.97 186.20 417.42 184.82
  A 0.80 0.53 -47.6 0 1 418.25 184.61
  L 419.23 185.26
  Q 421.02 186.45 417.96 188.62
  Q 415.40 190.43 418.25 190.79
  Z"
/>
<path d="
  M 107.75 205.29
  Q 104.99 208.33 101.25 210.04
  L 95.00 210.01
  A 1.01 0.90 70.3 0 1 94.23 209.59
  Q 92.94 207.75 90.75 207.04
  L 95.00 206.21
  Q 97.74 206.25 100.00 204.78
  Q 100.47 204.47 100.28 204.99
  Q 99.95 205.90 100.64 206.21
  A 0.93 0.41 18.9 0 1 101.21 206.73
  C 101.53 208.92 106.63 205.98 107.75 205.29
  Z"
/>
<path d="
  M 76.50 268.04
  L 69.81 272.08
  A 0.66 0.62 -36.8 0 0 69.64 273.06
  Q 71.10 274.62 73.50 274.71
  Q 68.91 274.85 64.42 273.91
  A 0.68 0.54 8.9 0 1 63.87 273.31
  L 64.04 271.25
  Q 63.92 268.26 66.47 267.63
  Q 67.07 267.48 67.45 267.19
  Q 70.55 264.85 73.35 267.64
  A 1.18 0.46 49.4 0 0 74.23 268.11
  Q 75.34 267.84 76.50 268.04
  Z"
/>
<path d="
  M 89.56 329.22
  Q 92.72 342.71 85.75 354.57
  A 0.64 0.54 -57.1 0 0 85.85 355.35
  C 87.23 356.40 90.27 352.57 88.69 357.45
  C 88.50 358.05 87.21 359.05 88.54 359.20
  A 0.29 0.27 -72.9 0 1 88.74 359.62
  L 87.29 362.50
  Q 79.19 373.11 66.00 375.54
  L 52.25 375.29
  L 47.07 373.77
  Q 44.11 372.62 43.00 369.54
  Q 58.14 374.65 70.94 367.69
  Q 93.00 355.68 89.56 329.22
  Z"
/>
</g>
<g fill="#b8b8c7" fill-opacity="0.780">
<path d="
  M 110.64 126.11
  Q 107.82 128.05 105.16 130.16
  C 99.45 134.69 93.47 135.98 88.43 129.33
  C 96.73 130.33 100.21 125.88 106.05 121.23
  A 0.62 0.61 -43.4 0 1 106.83 121.25
  Q 109.35 123.53 110.64 126.11
  Z"
/>
<path d="
  M 407.68 197.83
  C 402.99 200.08 396.63 199.03 394.09 193.95
  Q 398.72 195.22 403.31 193.33
  L 408.78 190.66
  A 0.68 0.61 51.6 0 1 409.49 190.78
  Q 409.99 191.21 410.70 190.94
  A 0.70 0.37 -24.4 0 1 411.37 190.98
  Q 412.55 192.48 411.18 193.65
  Q 408.48 195.96 407.68 197.83
  Z"
/>
<path d="
  M 43.29 320.00
  L 43.50 320.04
  C 44.49 321.59 46.09 322.48 46.90 323.89
  C 50.24 329.72 46.64 336.72 43.60 342.14
  A 2.61 1.74 45.6 0 0 44.06 344.59
  L 46.06 347.22
  C 33.96 337.66 45.72 330.69 43.29 320.00
  Z"
/>
</g>
<g fill="#7d7d89" fill-opacity="0.529">
<path d="
  M 331.69 62.29
  Q 335.72 64.73 335.50 68.25
  Q 335.09 74.89 331.71 87.50
  Q 330.79 86.45 329.80 86.81
  A 1.06 0.18 -64.1 0 0 329.29 87.52
  Q 328.78 88.47 327.75 88.78
  A 0.60 0.38 -89.8 0 1 327.30 88.07
  L 328.21 81.25
  L 329.00 76.54
  L 329.29 75.75
  Q 331.05 71.02 331.21 66.00
  Q 330.95 64.38 331.69 62.29
  Z"
/>
<path d="
  M 189.47 115.97
  Q 189.69 119.07 192.79 118.50
  L 193.25 119.04
  C 196.67 127.54 191.51 137.15 181.50 134.79
  Q 178.17 133.72 176.25 130.79
  Q 191.90 131.24 189.47 115.97
  Z"
/>
</g>
<g fill="#1d1b1c" fill-opacity="0.125">
<path d="
  M 83.29 125.00
  Q 85.44 127.78 88.43 129.33
  C 93.47 135.98 99.45 134.69 105.16 130.16
  Q 107.82 128.05 110.64 126.11
  L 114.25 130.46
  L 113.27 130.43
  Q 112.57 130.41 113.03 130.98
  L 115.58 134.18
  A 1.00 0.23 50.2 0 1 116.00 135.01
  Q 115.79 135.41 115.24 135.24
  A 0.50 0.26 -86.3 0 0 114.91 135.78
  L 114.93 139.69
  Q 114.93 140.59 114.70 139.72
  Q 114.52 139.02 114.61 138.27
  Q 114.71 137.43 114.22 137.69
  C 113.74 137.96 114.05 143.76 114.60 144.02
  A 0.82 0.44 23.7 0 1 115.13 144.70
  Q 114.89 145.61 115.55 145.81
  A 0.54 0.05 16.9 0 1 116.04 146.01
  L 116.06 155.31
  A 1.07 0.03 54.5 0 0 116.63 156.16
  Q 118.01 158.08 118.34 160.45
  A 0.83 0.54 15.5 0 0 118.80 160.97
  Q 119.37 161.23 119.08 161.90
  A 1.74 1.03 -50.2 0 0 118.93 162.83
  Q 119.98 168.66 119.09 174.51
  Q 118.32 172.74 117.46 171.10
  C 116.07 168.41 113.50 166.12 111.53 163.73
  Q 107.29 158.11 100.50 155.96
  L 95.26 155.41
  Q 94.79 155.36 95.17 155.15
  Q 95.77 154.81 96.54 154.93
  A 0.98 0.96 27.2 0 0 97.35 154.68
  Q 98.90 153.20 96.49 153.28
  A 0.48 0.30 -86.5 0 1 96.20 152.75
  Q 96.29 151.86 95.71 150.56
  A 0.54 0.39 75.2 0 0 95.30 150.23
  L 90.01 150.24
  A 1.07 0.97 70.2 0 1 89.19 149.80
  Q 86.24 145.83 81.04 146.00
  L 79.00 143.54
  C 82.17 142.25 77.75 139.09 76.78 137.02
  A 0.49 0.35 -31.2 0 1 77.00 136.50
  Q 77.83 135.94 77.98 135.00
  A 0.43 0.03 -81.9 0 1 78.07 134.58
  Q 80.90 134.66 81.28 132.05
  A 0.81 0.79 -5.6 0 1 81.82 131.41
  Q 83.70 130.74 82.62 129.18
  Q 81.37 127.38 83.07 126.48
  A 0.55 0.49 66.8 0 0 83.29 125.83
  Q 83.16 125.43 83.29 125.00
  Z"
/>
<path d="
  M 48.39 180.06
  L 50.04 182.00
  Q 51.11 184.94 54.01 186.37
  A 0.88 0.64 -77.1 0 1 54.36 187.20
  Q 54.16 188.97 55.79 189.97
  A 0.80 0.45 81.3 0 1 56.07 190.33
  Q 57.03 192.62 56.52 193.19
  Q 56.28 193.48 56.51 193.50
  Q 57.09 193.56 57.57 193.94
  Q 57.89 194.19 57.50 194.34
  Q 56.14 194.86 57.47 195.08
  Q 57.58 195.10 57.47 195.09
  Q 55.14 194.92 55.89 196.91
  A 0.20 0.19 -16.4 0 1 55.74 197.17
  L 55.49 197.23
  Q 55.00 197.33 55.51 197.50
  L 56.82 197.92
  Q 57.47 198.13 56.67 198.25
  Q 55.95 198.36 56.65 198.86
  Q 57.30 199.33 56.49 199.25
  Q 55.91 199.20 55.74 199.76
  A 0.54 0.08 -72.7 0 1 55.50 200.25
  Q 55.13 200.13 55.24 199.74
  A 0.31 0.28 -81.5 0 0 54.98 199.34
  L 50.33 199.44
  A 0.49 0.49 83.0 0 0 49.87 200.03
  Q 50.11 201.20 47.75 200.54
  L 40.00 197.79
  Q 40.86 196.84 42.00 196.54
  A 1.04 0.53 54.1 0 1 42.81 196.95
  Q 43.72 197.96 45.00 197.20
  A 1.02 0.62 -22.3 0 0 45.52 196.50
  L 45.56 192.50
  A 0.51 0.44 -89.3 0 1 46.00 192.00
  L 46.50 192.00
  A 0.24 0.13 75.6 0 0 46.57 191.70
  Q 46.26 190.82 47.05 190.90
  A 0.49 0.40 3.2 0 0 47.58 190.51
  L 47.47 180.68
  Q 47.46 180.12 47.76 180.58
  Q 48.73 182.07 48.39 180.06
  Z"
/>
<path d="
  M 13.54 292.75
  L 16.70 296.39
  Q 26.73 296.92 36.73 297.43
  C 44.89 297.85 55.34 299.24 64.75 299.46
  L 72.23 299.42
  Q 75.75 300.41 79.25 300.04
  Q 77.71 300.35 78.19 301.26
  A 0.48 0.45 68.3 0 1 77.93 301.93
  L 74.21 303.05
  Q 73.80 303.17 74.23 303.47
  Q 74.81 303.87 73.18 304.07
  A 2.57 2.57 -31.6 0 1 71.59 303.74
  Q 70.11 302.87 70.21 304.50
  Q 59.72 301.58 55.46 311.25
  C 53.35 311.16 57.17 307.32 55.26 308.49
  A 1.14 0.13 -64.3 0 0 54.77 309.27
  Q 53.57 311.64 53.59 314.23
  A 0.39 0.26 9.0 0 1 53.11 314.45
  Q 50.70 313.83 51.37 314.67
  A 0.37 0.32 60.1 0 1 51.26 315.22
  Q 49.79 315.75 49.38 314.76
  A 0.77 0.50 71.9 0 0 48.76 314.26
  Q 48.13 314.35 48.25 313.75
  A 0.46 0.36 -1.1 0 0 47.71 313.34
  Q 46.46 313.55 46.36 312.87
  A 0.71 0.28 82.3 0 0 46.01 312.25
  L 44.00 312.24
  A 0.49 0.24 74.5 0 0 43.89 312.84
  Q 44.04 313.26 43.69 313.30
  A 0.27 0.21 -18.2 0 0 43.47 313.64
  Q 45.66 317.17 41.00 317.04
  Q 37.04 312.93 31.50 314.21
  C 32.33 312.45 34.47 313.77 34.69 312.94
  A 0.65 0.35 3.5 0 0 33.99 312.51
  L 30.99 312.50
  A 0.56 0.08 74.7 0 1 30.77 312.00
  Q 30.64 311.53 31.00 311.50
  A 0.50 0.28 88.1 0 0 31.26 311.00
  Q 31.23 309.72 30.98 310.74
  A 0.18 0.18 29.0 0 1 30.68 310.82
  Q 29.95 310.15 29.01 310.48
  A 0.35 0.22 -17.6 0 1 28.58 310.37
  Q 28.34 308.82 28.67 307.30
  C 28.76 306.92 28.29 304.46 27.95 306.54
  Q 27.84 307.16 27.55 306.69
  Q 27.16 306.07 27.03 306.49
  Q 26.84 307.08 26.67 306.46
  Q 26.37 305.34 25.90 306.08
  Q 25.67 306.43 25.67 306.04
  Q 25.67 304.18 24.95 305.32
  A 0.43 0.36 36.5 0 1 24.35 305.36
  Q 22.63 303.89 21.30 303.61
  A 1.43 0.73 62.7 0 1 20.64 303.14
  L 15.63 297.14
  A 1.92 0.95 3.6 0 0 14.78 296.65
  Q 12.27 295.88 13.21 293.25
  L 13.54 292.75
  Z"
/>
</g>
<g fill="#626363" fill-opacity="0.396">
<path d="
  M 82.04 206.00
  L 83.75 206.79
  C 86.01 212.10 90.44 211.65 96.00 211.54
  C 92.90 211.99 89.25 211.28 86.50 212.92
  Q 86.13 213.13 86.55 213.27
  Q 87.33 213.54 87.46 214.50
  L 70.00 208.29
  Q 72.45 207.95 74.55 209.03
  Q 75.01 209.28 75.48 209.27
  C 77.55 209.24 78.63 208.83 80.71 209.54
  Q 84.85 210.98 82.04 206.00
  Z"
/>
<path d="
  M 24.04 215.25
  L 26.25 216.79
  Q 27.42 218.58 28.93 220.12
  C 31.55 222.76 36.33 223.32 39.83 223.72
  C 43.47 224.14 46.80 225.78 50.57 226.17
  A 0.42 0.13 3.1 0 1 50.94 226.31
  L 50.99 226.51
  A 0.72 0.39 -1.1 0 0 51.61 226.83
  C 56.93 227.11 62.85 229.38 66.53 230.39
  Q 73.42 232.28 79.81 235.53
  Q 80.21 235.73 80.52 236.18
  Q 82.02 238.33 84.75 238.54
  L 84.66 239.03
  Q 80.08 237.56 75.51 236.08
  C 68.66 233.86 61.37 230.68 54.04 228.50
  Q 53.61 228.38 53.08 228.48
  Q 51.51 228.80 48.51 228.25
  Q 42.82 227.21 40.38 226.20
  Q 40.07 226.07 39.57 226.09
  Q 32.83 226.33 27.37 222.33
  A 4.39 3.37 -88.5 0 1 26.04 220.50
  L 24.04 215.25
  Z"
/>
<path d="
  M 87.84 260.04
  Q 86.42 269.05 87.04 278.25
  C 87.19 280.48 88.32 282.78 88.16 285.46
  A 0.34 0.29 14.9 0 1 87.70 285.68
  Q 87.01 285.38 86.71 286.50
  Q 85.91 284.36 84.41 282.68
  C 83.65 281.83 82.34 281.40 81.71 280.00
  Q 78.94 275.32 73.50 274.71
  Q 71.10 274.62 69.64 273.06
  A 0.66 0.62 -36.8 0 1 69.81 272.08
  L 76.50 268.04
  Q 83.06 264.99 87.84 260.04
  Z"
/>
<path d="
  M 43.50 320.04
  C 46.99 319.59 48.18 323.55 49.10 325.91
  C 49.77 327.60 51.16 329.78 51.02 332.26
  Q 51.02 332.43 51.34 333.17
  L 53.38 337.84
  A 1.03 0.08 -59.0 0 1 52.94 338.71
  Q 52.17 340.00 52.32 341.51
  A 0.88 0.77 5.6 0 0 52.98 342.21
  Q 55.09 342.75 56.79 341.58
  Q 57.25 341.27 57.72 341.23
  C 60.10 341.01 65.54 337.38 64.50 342.92
  A 1.79 1.32 -25.0 0 1 64.04 343.76
  Q 62.37 345.51 63.40 347.36
  Q 54.86 352.99 46.06 347.22
  L 44.06 344.59
  A 2.61 1.74 45.6 0 1 43.60 342.14
  C 46.64 336.72 50.24 329.72 46.90 323.89
  C 46.09 322.48 44.49 321.59 43.50 320.04
  Z"
/>
</g>
<g fill="#e4e3f6" fill-opacity="0.965">
<path d="
  M 111.53 163.73
  C 113.50 166.12 116.07 168.41 117.46 171.10
  Q 118.32 172.74 119.09 174.51
  L 119.71 178.25
  Q 119.84 194.59 107.75 205.29
  C 106.63 205.98 101.53 208.92 101.21 206.73
  A 0.93 0.41 18.9 0 0 100.64 206.21
  Q 99.95 205.90 100.28 204.99
  Q 100.47 204.47 100.00 204.78
  Q 97.74 206.25 95.00 206.21
  C 108.40 199.49 118.67 183.46 113.60 168.17
  Q 113.38 167.50 112.46 166.02
  Q 111.81 164.97 111.53 163.73
  Z"
/>
<path d="
  M 84.29 244.75
  L 88.96 249.75
  Q 90.23 252.23 89.96 255.00
  Q 89.53 257.68 87.84 260.04
  Q 83.06 264.99 76.50 268.04
  Q 75.34 267.84 74.23 268.11
  A 1.18 0.46 49.4 0 1 73.35 267.64
  Q 70.55 264.85 67.45 267.19
  Q 67.07 267.48 66.47 267.63
  Q 63.92 268.26 64.04 271.25
  C 63.65 269.46 63.84 268.20 65.53 267.17
  Q 71.24 263.66 76.94 260.09
  C 83.43 256.02 86.94 252.52 84.29 244.75
  Z"
/>
</g>
<g fill="#c9c8d9" fill-opacity="0.847">
<path d="
  M 395.75 115.29
  L 393.96 120.00
  Q 393.79 122.44 391.94 122.37
  A 1.52 0.97 58.9 0 1 391.09 121.95
  Q 389.26 120.15 387.25 121.71
  Q 387.94 117.89 389.75 114.46
  L 393.45 105.81
  A 1.29 0.98 -8.1 0 1 394.00 105.25
  L 394.49 105.00
  Q 394.95 104.76 394.88 105.47
  C 394.58 108.51 393.05 111.84 392.88 115.43
  A 0.76 0.68 -78.8 0 0 393.31 116.16
  Q 394.76 116.71 395.75 115.29
  Z"
/>
<path d="
  M 149.02 140.02
  Q 155.19 144.83 153.93 151.60
  Q 153.29 155.02 150.39 157.29
  Q 142.67 163.34 134.78 154.63
  Q 151.78 156.82 149.02 140.02
  Z
  M 149.44 151.77
  Q 152.17 151.42 153.26 148.98
  Q 153.69 148.02 152.93 147.45
  A 0.92 0.37 33.9 0 1 152.46 146.76
  Q 152.99 144.46 151.01 145.26
  A 1.41 0.90 -80.5 0 0 150.36 145.98
  L 147.91 151.60
  A 0.39 0.31 -72.4 0 0 148.11 152.12
  Q 148.32 152.15 148.52 152.08
  Q 149.37 151.77 149.44 151.77
  Z"
/>
<path d="
  M 27.30 216.80
  Q 40.34 219.91 52.75 224.96
  Q 43.29 224.24 39.42 222.79
  Q 35.52 221.32 32.77 221.48
  A 1.74 1.34 -25.7 0 1 31.83 221.28
  Q 29.10 219.68 27.30 216.80
  Z"
/>
</g>
<g fill="#101010" fill-opacity="0.075">
<path d="
  M 195.04 117.00
  Q 197.90 120.07 201.75 121.79
  Q 202.89 122.66 202.90 123.98
  Q 203.02 126.79 201.14 125.41
  A 0.52 0.26 -23.7 0 0 200.73 125.39
  L 200.62 125.41
  Q 200.43 125.46 200.44 125.45
  Q 200.82 124.42 199.59 123.67
  A 0.93 0.42 36.1 0 0 198.79 123.50
  Q 197.72 124.20 197.13 125.34
  Q 197.04 125.51 197.05 126.26
  Q 197.09 129.08 194.58 130.57
  Q 194.24 130.78 194.64 130.86
  C 196.30 131.18 189.42 136.39 188.19 136.76
  C 187.08 137.09 178.81 137.72 181.50 134.79
  C 191.51 137.15 196.67 127.54 193.25 119.04
  Q 195.74 119.63 195.04 117.00
  Z"
/>
<path d="
  M 114.25 130.46
  L 118.50 135.71
  Q 117.48 135.92 117.05 136.91
  A 0.53 0.39 28.9 0 0 117.30 137.46
  Q 118.03 137.91 117.81 138.95
  A 0.92 0.40 37.1 0 0 118.19 139.63
  C 121.70 142.77 128.72 150.27 122.49 153.57
  A 0.75 0.59 -21.3 0 0 122.08 154.26
  Q 122.60 157.14 120.76 159.46
  A 1.49 0.44 81.1 0 0 120.62 160.53
  Q 121.25 169.48 119.71 178.25
  L 119.09 174.51
  Q 119.98 168.66 118.93 162.83
  A 1.74 1.03 -50.2 0 1 119.08 161.90
  Q 119.37 161.23 118.80 160.97
  A 0.83 0.54 15.5 0 1 118.34 160.45
  Q 118.01 158.08 116.63 156.16
  A 1.07 0.03 54.5 0 1 116.06 155.31
  L 116.04 146.01
  A 0.54 0.05 16.9 0 0 115.55 145.81
  Q 114.89 145.61 115.13 144.70
  A 0.82 0.44 23.7 0 0 114.60 144.02
  C 114.05 143.76 113.74 137.96 114.22 137.69
  Q 114.71 137.43 114.61 138.27
  Q 114.52 139.02 114.70 139.72
  Q 114.93 140.59 114.93 139.69
  L 114.91 135.78
  A 0.50 0.26 -86.3 0 1 115.24 135.24
  Q 115.79 135.41 116.00 135.01
  A 1.00 0.23 50.2 0 0 115.58 134.18
  L 113.03 130.98
  Q 112.57 130.41 113.27 130.43
  L 114.25 130.46
  Z"
/>
<path d="
  M 23.32 211.97
  L 24.04 215.25
  L 26.04 220.50
  A 4.39 3.37 -88.5 0 0 27.37 222.33
  Q 32.83 226.33 39.57 226.09
  Q 40.07 226.07 40.38 226.20
  Q 42.82 227.21 48.51 228.25
  Q 51.51 228.80 53.08 228.48
  Q 53.61 228.38 54.04 228.50
  C 61.37 230.68 68.66 233.86 75.51 236.08
  Q 80.08 237.56 84.66 239.03
  L 89.25 239.04
  C 87.99 239.43 86.80 239.13 85.58 239.43
  Q 83.16 240.04 80.59 240.24
  C 72.11 235.86 66.13 242.87 60.05 247.50
  A 1.01 1.01 53.0 0 1 58.63 247.30
  Q 51.13 237.14 38.50 236.71
  Q 39.70 236.09 41.28 236.09
  Q 41.79 236.09 41.41 235.76
  C 39.03 233.74 36.75 236.17 35.27 235.32
  A 1.19 0.65 38.6 0 0 34.35 235.16
  Q 29.64 237.26 24.50 238.04
  Q 24.12 238.09 23.55 238.51
  L 20.14 241.05
  Q 19.31 241.67 19.74 240.77
  Q 20.68 238.83 22.71 238.39
  A 0.83 0.59 -87.5 0 0 23.20 237.76
  Q 23.42 236.61 22.76 235.78
  Q 22.54 235.50 22.76 235.49
  Q 23.65 235.46 22.67 234.82
  A 0.24 0.16 -39.3 0 1 22.77 234.49
  Q 23.07 234.31 22.68 233.82
  Q 22.40 233.48 22.74 233.49
  L 23.00 233.50
  Q 23.08 233.51 22.91 233.32
  L 20.85 231.16
  Q 20.54 230.83 20.34 230.20
  Q 19.84 228.58 18.28 227.69
  A 0.40 0.12 -82.3 0 1 18.22 227.33
  L 18.47 225.00
  A 0.55 0.54 -86.6 0 1 19.02 224.50
  Q 20.61 224.53 18.97 223.27
  A 1.09 0.25 82.6 0 1 18.68 222.48
  L 18.35 220.68
  A 0.92 0.86 -87.1 0 0 17.77 219.99
  Q 16.19 219.45 18.05 219.51
  A 0.41 0.19 -85.1 0 0 18.27 219.13
  C 18.39 217.91 18.03 213.45 18.75 213.46
  A 0.97 0.36 -62.4 0 0 19.36 212.91
  Q 20.10 211.76 20.78 213.26
  A 1.10 0.59 75.2 0 0 21.34 213.86
  Q 23.08 214.32 23.32 211.97
  Z"
/>
<path d="
  M 89.96 255.00
  Q 89.90 257.57 91.47 259.61
  A 0.96 0.93 36.3 0 1 91.62 260.47
  C 90.41 264.11 91.24 267.23 90.01 270.71
  C 88.07 276.16 90.13 280.46 90.03 285.75
  A 1.69 1.09 38.0 0 0 90.34 286.64
  C 91.21 287.91 90.76 296.72 90.74 301.75
  A 0.75 0.48 89.3 0 0 91.24 302.51
  L 91.50 302.50
  A 0.35 0.22 89.3 0 1 91.73 302.85
  C 91.73 304.28 91.41 309.19 92.07 310.20
  A 0.91 0.32 -64.4 0 1 91.99 310.94
  Q 91.58 312.02 92.46 312.54
  A 0.70 0.66 22.4 0 1 92.79 313.26
  Q 92.40 315.09 93.39 316.57
  A 1.59 0.58 48.0 0 1 93.75 317.47
  C 93.67 320.46 93.72 322.11 94.51 325.46
  Q 95.32 328.91 93.71 332.25
  L 93.46 332.00
  Q 93.25 328.69 91.58 325.86
  Q 91.33 325.45 91.31 324.93
  Q 91.17 321.21 87.29 320.75
  L 86.29 319.00
  Q 80.69 309.06 70.21 304.50
  Q 70.11 302.87 71.59 303.74
  A 2.57 2.57 -31.8 0 0 73.18 304.07
  Q 74.81 303.87 74.23 303.47
  Q 73.80 303.17 74.21 303.05
  L 77.93 301.93
  A 0.48 0.45 68.3 0 0 78.19 301.26
  Q 77.71 300.35 79.25 300.04
  L 82.55 298.85
  Q 88.63 294.31 86.71 286.50
  Q 87.01 285.38 87.70 285.68
  A 0.34 0.29 14.9 0 0 88.16 285.46
  C 88.32 282.78 87.19 280.48 87.04 278.25
  Q 86.42 269.05 87.84 260.04
  Q 89.53 257.68 89.96 255.00
  Z"
/>
<path d="
  M 13.21 293.25
  Q 12.27 295.88 14.78 296.65
  A 1.92 0.95 3.6 0 1 15.63 297.14
  L 20.64 303.14
  A 1.43 0.73 62.7 0 0 21.30 303.61
  Q 22.63 303.89 24.35 305.36
  A 0.43 0.36 36.5 0 0 24.95 305.32
  Q 25.67 304.18 25.67 306.04
  Q 25.67 306.43 25.90 306.08
  Q 26.37 305.34 26.67 306.46
  Q 26.84 307.08 27.03 306.49
  Q 27.16 306.07 27.55 306.69
  Q 27.84 307.16 27.95 306.54
  C 28.29 304.46 28.76 306.92 28.67 307.30
  Q 28.34 308.82 28.58 310.37
  A 0.35 0.22 -17.6 0 0 29.01 310.48
  Q 29.95 310.15 30.68 310.82
  A 0.18 0.18 29.0 0 0 30.98 310.74
  Q 31.23 309.72 31.26 311.00
  A 0.50 0.28 88.1 0 1 31.00 311.50
  Q 30.64 311.53 30.77 312.00
  A 0.56 0.08 74.7 0 0 30.99 312.50
  L 33.99 312.51
  A 0.65 0.35 3.5 0 1 34.69 312.94
  C 34.47 313.77 32.33 312.45 31.50 314.21
  Q 28.19 315.01 25.78 317.50
  Q 26.80 315.84 25.80 315.75
  A 0.95 0.90 -71.6 0 0 24.95 316.20
  Q 24.17 317.46 22.75 318.03
  A 0.98 0.07 -52.5 0 0 22.17 318.69
  L 18.75 322.99
  Q 18.43 323.39 18.38 322.69
  L 18.33 321.82
  A 1.06 0.80 -27.5 0 1 18.70 321.05
  Q 19.40 320.44 19.32 319.28
  A 0.69 0.33 86.4 0 1 19.61 318.56
  Q 20.39 318.54 20.44 318.07
  A 0.59 0.21 -82.7 0 1 20.74 317.48
  Q 21.47 317.72 21.35 317.21
  A 0.73 0.71 67.8 0 1 21.67 316.43
  Q 22.78 315.73 21.80 314.98
  Q 21.42 314.69 21.31 314.47
  Q 21.10 314.09 20.86 314.55
  A 0.65 0.56 -75.7 0 1 20.37 314.89
  Q 17.15 315.07 19.85 314.36
  Q 20.20 314.26 19.83 314.22
  Q 18.31 314.04 18.83 313.58
  A 0.31 0.26 47.0 0 0 18.81 313.17
  L 17.59 311.93
  A 0.23 0.20 56.9 0 1 17.64 311.56
  C 19.85 310.86 14.13 311.37 16.86 310.42
  Q 17.09 310.34 16.85 310.25
  L 15.11 309.61
  A 0.83 0.63 -83.8 0 1 14.68 308.90
  C 14.65 307.87 14.58 307.02 14.68 305.77
  Q 14.87 303.49 12.75 302.17
  A 0.54 0.47 -62.0 0 1 12.60 301.51
  C 13.05 300.58 10.77 299.67 11.61 299.41
  Q 11.91 299.32 11.65 299.17
  Q 10.94 298.73 11.48 298.50
  A 0.35 0.24 -30.6 0 0 11.69 298.06
  L 11.44 297.81
  A 0.82 0.61 -69.8 0 1 11.26 297.20
  Q 11.51 294.86 13.21 293.25
  Z"
/>
</g>
<g fill="#acabb9" fill-opacity="0.718">
<path d="
  M 375.19 163.55
  Q 367.00 165.71 362.59 158.71
  Q 366.77 160.20 371.25 158.96
  Q 372.50 159.05 373.59 158.48
  A 1.49 0.73 -37.9 0 1 374.51 158.29
  C 375.62 158.56 375.63 159.67 375.29 160.64
  Q 374.80 162.05 375.19 163.55
  Z"
/>
<path d="
  M 13.50 292.54
  L 16.50 292.72
  A 1.32 0.54 56.3 0 1 17.28 293.25
  C 20.12 296.45 22.86 291.88 25.16 293.89
  Q 25.58 294.25 25.99 294.35
  Q 29.75 295.21 33.48 294.12
  A 1.52 0.78 -26.0 0 1 34.57 294.14
  Q 36.59 295.35 38.98 294.95
  A 0.97 0.81 7.2 0 0 39.65 294.52
  C 40.67 292.72 57.47 295.26 59.24 295.61
  Q 60.78 295.92 62.84 297.27
  Q 66.92 299.94 72.23 299.42
  L 64.75 299.46
  Q 61.89 298.17 58.87 297.71
  C 54.64 297.06 50.70 295.92 46.68 296.02
  Q 45.88 296.04 41.47 297.03
  C 37.62 297.89 34.17 296.41 30.77 296.47
  Q 23.76 296.59 16.70 296.39
  L 13.54 292.75
  L 13.50 292.54
  Z"
/>
<path d="
  M 68.50 330.81
  C 70.69 334.89 69.58 341.22 66.50 344.46
  Q 70.10 338.35 68.50 330.81
  Z"
/>
</g>
<g fill="#93939e" fill-opacity="0.612">
<path d="
  M 77.46 186.50
  Q 76.16 187.45 74.72 188.13
  C 72.62 189.13 69.32 187.94 69.48 192.04
  A 0.99 0.86 74.6 0 1 69.08 192.87
  Q 68.07 193.50 66.74 193.25
  Q 63.44 192.62 62.87 191.89
  Q 61.16 189.69 58.79 188.25
  Q 68.46 190.49 77.46 186.50
  Z"
/>
<path d="
  M 26.25 216.79
  L 27.30 216.80
  Q 29.10 219.68 31.83 221.28
  A 1.74 1.34 -25.7 0 0 32.77 221.48
  Q 35.52 221.32 39.42 222.79
  Q 43.29 224.24 52.75 224.96
  L 81.89 234.87
  Q 84.25 235.86 84.75 238.54
  Q 82.02 238.33 80.52 236.18
  Q 80.21 235.73 79.81 235.53
  Q 73.42 232.28 66.53 230.39
  C 62.85 229.38 56.93 227.11 51.61 226.83
  A 0.72 0.39 -1.1 0 1 50.99 226.51
  L 50.94 226.31
  A 0.42 0.13 3.1 0 0 50.57 226.17
  C 46.80 225.78 43.47 224.14 39.83 223.72
  C 36.33 223.32 31.55 222.76 28.93 220.12
  Q 27.42 218.58 26.25 216.79
  Z"
/>
<path d="
  M 434.50 252.29
  Q 432.91 252.83 434.00 253.71
  L 428.29 254.25
  Q 429.90 254.12 429.33 253.38
  A 1.33 0.58 44.4 0 1 428.98 252.51
  Q 429.15 251.20 428.82 250.00
  A 0.99 0.72 -2.8 0 0 427.98 249.45
  L 422.25 249.04
  Q 427.42 249.73 431.50 246.71
  L 432.51 246.32
  A 1.09 0.88 86.4 0 1 433.65 247.57
  Q 433.06 252.12 434.50 252.29
  Z"
/>
<path d="
  M 16.70 296.39
  Q 23.76 296.59 30.77 296.47
  C 34.17 296.41 37.62 297.89 41.47 297.03
  Q 45.88 296.04 46.68 296.02
  C 50.70 295.92 54.64 297.06 58.87 297.71
  Q 61.89 298.17 64.75 299.46
  C 55.34 299.24 44.89 297.85 36.73 297.43
  Q 26.73 296.92 16.70 296.39
  Z"
/>
</g>
<g fill="#545555" fill-opacity="0.337">
<path d="
  M 212.75 115.21
  Q 214.05 118.43 216.41 116.11
  A 0.31 0.29 55.6 0 1 216.89 116.22
  Q 217.28 117.02 218.49 116.38
  Q 214.90 128.77 202.90 123.98
  Q 202.89 122.66 201.75 121.79
  C 204.09 120.94 206.71 120.94 208.64 119.65
  Q 211.19 117.95 212.75 115.21
  Z"
/>
<path d="
  M 393.96 120.00
  Q 393.68 122.18 394.66 124.11
  L 385.11 129.28
  Q 384.02 129.87 384.46 128.75
  L 387.25 121.71
  Q 389.26 120.15 391.09 121.95
  A 1.52 0.97 58.9 0 0 391.94 122.37
  Q 393.79 122.44 393.96 120.00
  Z"
/>
<path d="
  M 88.96 249.75
  L 84.29 244.75
  L 84.04 244.00
  Q 90.52 243.40 88.96 249.75
  Z"
/>
<path d="
  M 56.00 317.71
  L 68.50 330.81
  Q 70.10 338.35 66.50 344.46
  L 63.40 347.36
  Q 62.37 345.51 64.04 343.76
  A 1.79 1.32 -25.0 0 0 64.50 342.92
  C 65.54 337.38 60.10 341.01 57.72 341.23
  Q 57.25 341.27 56.79 341.58
  Q 55.09 342.75 52.98 342.21
  A 0.88 0.77 5.6 0 1 52.32 341.51
  Q 52.17 340.00 52.94 338.71
  A 1.03 0.08 -59.0 0 0 53.38 337.84
  L 51.34 333.17
  Q 51.02 332.43 51.02 332.26
  C 51.16 329.78 49.77 327.60 49.10 325.91
  C 48.18 323.55 46.99 319.59 43.50 320.04
  L 43.29 320.00
  L 42.54 318.75
  Q 43.99 319.49 45.53 318.91
  A 0.74 0.42 -24.4 0 1 46.27 318.98
  L 51.41 326.05
  A 1.12 1.05 -37.1 0 0 52.96 326.22
  Q 54.94 324.71 56.14 322.59
  A 1.26 0.78 55.2 0 0 56.09 321.60
  Q 55.22 319.63 56.00 317.71
  Z"
/>
</g>
<g fill="#deddf0" fill-opacity="0.941">
<path d="
  M 394.17 93.30
  C 403.21 99.33 398.99 107.64 395.75 115.29
  Q 394.76 116.71 393.31 116.16
  A 0.76 0.68 -78.8 0 1 392.88 115.43
  C 393.05 111.84 394.58 108.51 394.88 105.47
  Q 394.95 104.76 394.49 105.00
  L 394.00 105.25
  A 1.29 0.98 -8.1 0 0 393.45 105.81
  L 389.75 114.46
  C 392.08 108.16 396.78 99.94 394.17 93.30
  Z"
/>
<path d="
  M 92.04 218.75
  C 93.17 220.92 95.15 221.56 96.29 223.35
  Q 97.09 224.62 97.86 226.01
  Q 99.11 236.40 89.25 239.04
  L 84.66 239.03
  L 84.75 238.54
  Q 84.25 235.86 81.89 234.87
  Q 96.49 232.84 92.04 218.75
  Z"
/>
<path d="
  M 45.89 262.39
  C 39.74 263.49 36.39 265.72 35.50 272.21
  Q 33.34 272.49 31.25 271.88
  A 0.66 0.62 -80.5 0 1 30.81 271.22
  C 30.99 267.77 30.74 263.73 32.86 261.00
  C 36.28 256.60 43.34 256.83 45.89 262.39
  Z"
/>
</g>
<g fill="#74737f" fill-opacity="0.490">
<path d="
  M 135.25 90.54
  Q 136.92 90.54 137.55 91.75
  Q 142.11 100.41 134.54 106.58
  Q 131.03 109.44 127.33 112.52
  L 123.83 108.24
  A 0.85 0.80 -37.7 0 1 124.02 107.06
  Q 128.56 103.68 132.38 99.58
  C 134.88 96.90 135.45 94.00 135.25 90.54
  Z"
/>
<path d="
  M 81.75 147.46
  Q 86.95 148.81 86.72 153.97
  A 0.58 0.51 -87.4 0 0 87.21 154.58
  Q 87.83 154.59 88.41 155.11
  A 0.91 0.55 31.0 0 1 88.74 155.73
  Q 88.70 156.56 89.17 155.93
  Q 89.51 155.48 89.81 156.24
  Q 90.02 156.79 91.25 156.54
  Q 85.11 158.43 79.46 161.50
  Q 74.54 163.00 77.87 158.06
  C 79.29 154.96 82.16 152.21 81.75 147.46
  Z"
/>
<path d="
  M 84.50 187.71
  Q 79.21 189.64 77.00 194.79
  Q 76.21 194.75 76.06 194.19
  A 0.56 0.45 78.7 0 0 75.54 193.76
  C 67.81 194.74 61.32 195.01 57.25 187.79
  L 58.79 188.25
  Q 61.16 189.69 62.87 191.89
  Q 63.44 192.62 66.74 193.25
  Q 68.07 193.50 69.08 192.87
  A 0.99 0.86 74.6 0 0 69.48 192.04
  C 69.32 187.94 72.62 189.13 74.72 188.13
  Q 76.16 187.45 77.46 186.50
  L 77.75 186.21
  Q 80.10 185.84 82.09 184.53
  A 1.48 1.19 -52.9 0 1 83.00 184.30
  Q 86.22 184.71 84.50 187.71
  Z"
/>
<path d="
  M 52.25 375.29
  L 66.00 375.54
  Q 59.09 377.44 52.25 375.29
  Z"
/>
</g>
<g fill="#353438" fill-opacity="0.231">
<path d="
  M 216.31 92.47
  L 218.88 80.24
  A 0.31 0.31 31.6 0 1 219.46 80.15
  L 225.64 91.01
  A 0.31 0.31 -19.5 0 1 225.42 91.47
  L 216.67 92.84
  A 0.31 0.31 2.4 0 1 216.31 92.47
  Z"
/>
<path d="
  M 231.59 106.93
  Q 231.16 108.64 232.39 109.88
  A 0.53 0.41 43.0 0 1 232.49 110.51
  Q 231.20 112.02 229.19 112.38
  A 1.13 0.42 -53.6 0 0 228.60 112.77
  L 228.43 112.94
  A 0.50 0.37 24.1 0 1 228.01 113.03
  Q 221.42 111.66 218.49 116.38
  Q 217.28 117.02 216.89 116.22
  A 0.31 0.29 55.6 0 0 216.41 116.11
  Q 214.05 118.43 212.75 115.21
  L 214.56 110.44
  A 1.08 0.98 -87.1 0 1 215.19 109.81
  C 220.37 108.17 226.29 108.04 231.59 106.93
  Z"
/>
<path d="
  M 81.04 146.00
  Q 86.24 145.83 89.19 149.80
  A 1.07 0.97 70.2 0 0 90.01 150.24
  L 95.30 150.23
  A 0.54 0.39 75.2 0 1 95.71 150.56
  Q 96.29 151.86 96.20 152.75
  A 0.48 0.30 -86.5 0 0 96.49 153.28
  Q 98.90 153.20 97.35 154.68
  A 0.98 0.96 27.2 0 1 96.54 154.93
  Q 95.77 154.81 95.17 155.15
  Q 94.79 155.36 95.26 155.41
  L 100.50 155.96
  L 91.25 156.54
  Q 90.02 156.79 89.81 156.24
  Q 89.51 155.48 89.17 155.93
  Q 88.70 156.56 88.74 155.73
  A 0.91 0.55 31.0 0 0 88.41 155.11
  Q 87.83 154.59 87.21 154.58
  A 0.58 0.51 -87.4 0 1 86.72 153.97
  Q 86.95 148.81 81.75 147.46
  L 81.04 146.00
  Z"
/>
<path d="
  M 55.46 311.25
  Q 54.76 314.57 56.00 317.71
  Q 55.22 319.63 56.09 321.60
  A 1.26 0.78 55.2 0 1 56.14 322.59
  Q 54.94 324.71 52.96 326.22
  A 1.12 1.05 -37.1 0 1 51.41 326.05
  L 46.27 318.98
  A 0.74 0.42 -24.4 0 0 45.53 318.91
  Q 43.99 319.49 42.54 318.75
  L 41.00 317.04
  Q 45.66 317.17 43.47 313.64
  A 0.27 0.21 -18.2 0 1 43.69 313.30
  Q 44.04 313.26 43.89 312.84
  A 0.49 0.24 74.5 0 1 44.00 312.24
  L 46.01 312.25
  A 0.71 0.28 82.3 0 1 46.36 312.87
  Q 46.46 313.55 47.71 313.34
  A 0.46 0.36 -1.1 0 1 48.25 313.75
  Q 48.13 314.35 48.76 314.26
  A 0.77 0.50 71.9 0 1 49.38 314.76
  Q 49.79 315.75 51.26 315.22
  A 0.37 0.32 60.1 0 0 51.37 314.67
  Q 50.70 313.83 53.11 314.45
  A 0.39 0.26 9.0 0 0 53.59 314.23
  Q 53.57 311.64 54.77 309.27
  A 1.14 0.13 -64.3 0 1 55.26 308.49
  C 57.17 307.32 53.35 311.16 55.46 311.25
  Z"
/>
</g>
<g fill="#babacc" fill-opacity="0.796">
<path d="
  M 63.50 294.96
  L 61.05 295.10
  Q 60.20 295.15 61.05 295.24
  Q 64.14 295.56 66.85 296.99
  Q 67.30 297.23 67.78 297.22
  C 73.40 297.13 76.70 300.21 82.55 298.85
  L 79.25 300.04
  Q 75.75 300.41 72.23 299.42
  Q 66.92 299.94 62.84 297.27
  Q 60.78 295.92 59.24 295.61
  C 57.47 295.26 40.67 292.72 39.65 294.52
  A 0.97 0.81 7.2 0 1 38.98 294.95
  Q 36.59 295.35 34.57 294.14
  A 1.52 0.78 -26.0 0 0 33.48 294.12
  Q 29.75 295.21 25.99 294.35
  Q 25.58 294.25 25.16 293.89
  C 22.86 291.88 20.12 296.45 17.28 293.25
  A 1.32 0.54 56.3 0 0 16.50 292.72
  L 13.50 292.54
  L 13.25 292.29
  C 29.99 291.76 46.81 293.69 63.50 294.96
  Z"
/>
<path d="
  M 432.50 303.96
  L 434.46 304.15
  A 1.22 0.63 64.9 0 1 435.20 304.72
  Q 436.67 306.88 439.00 308.04
  Q 437.99 308.29 437.75 309.21
  L 430.93 304.76
  A 0.38 0.34 42.8 0 1 430.87 304.16
  Q 431.53 303.71 432.50 303.96
  Z"
/>
<path d="
  M 86.29 319.00
  L 87.29 320.75
  L 93.46 332.00
  L 93.71 332.25
  Q 97.66 349.04 87.29 362.50
  L 88.74 359.62
  A 0.29 0.27 -72.9 0 0 88.54 359.20
  C 87.21 359.05 88.50 358.05 88.69 357.45
  C 90.27 352.57 87.23 356.40 85.85 355.35
  A 0.64 0.54 -57.1 0 1 85.75 354.57
  Q 92.72 342.71 89.56 329.22
  L 86.29 319.00
  Z"
/>
</g>
<path fill="#f0f0f1" fill-opacity="0.945" d="
  M 45.89 262.39
  Q 46.74 267.53 45.93 272.59
  A 0.56 0.52 -82.7 0 1 45.36 273.07
  L 35.50 272.21
  C 36.39 265.72 39.74 263.49 45.89 262.39
  Z"
/>
<path fill="#d3d1e4" fill-opacity="0.894" d="
  M 381.79 160.50
  L 375.19 163.55
  Q 374.80 162.05 375.29 160.64
  C 375.63 159.67 375.62 158.56 374.51 158.29
  A 1.49 0.73 -37.9 0 0 373.59 158.48
  Q 372.50 159.05 371.25 158.96
  L 376.25 156.55
  Q 379.45 155.23 382.82 155.26
  A 1.25 0.36 40.2 0 1 383.56 155.59
  Q 384.84 156.48 382.71 157.65
  A 0.69 0.68 -16.2 0 0 382.35 158.30
  Q 382.42 159.47 381.79 160.50
  Z"
/>
<path fill="#c3c3d4" fill-opacity="0.831" d="
  M 77.87 158.06
  Q 74.54 163.00 79.46 161.50
  Q 74.07 165.44 68.00 168.26
  C 62.07 171.01 63.59 163.31 69.04 162.14
  Q 73.79 161.12 77.87 158.06
  Z"
/>
<g fill="#a4a4b4" fill-opacity="0.698">
<path d="
  M 328.21 81.25
  L 327.30 88.07
  A 0.60 0.38 -89.8 0 0 327.75 88.78
  Q 328.78 88.47 329.29 87.52
  A 1.06 0.18 -64.1 0 1 329.80 86.81
  Q 330.79 86.45 331.71 87.50
  L 329.71 97.00
  Q 328.92 96.92 328.30 96.31
  A 0.52 0.42 37.8 0 0 327.54 96.32
  Q 326.88 97.58 325.73 98.45
  Q 325.06 98.96 325.01 98.32
  C 324.74 95.10 326.05 91.53 326.44 89.25
  Q 327.14 85.21 328.21 81.25
  Z"
/>
<path d="
  M 38.75 368.29
  L 43.00 369.54
  Q 44.11 372.62 47.07 373.77
  Q 41.92 372.54 38.75 368.29
  Z"
/>
</g>
<g fill="#858590" fill-opacity="0.557">
<path d="
  M 318.50 127.96
  Q 310.44 131.09 305.90 123.88
  Q 309.88 125.35 314.00 123.71
  L 316.53 122.93
  A 0.58 0.42 -12.5 0 1 317.26 123.25
  L 317.40 125.32
  A 0.66 0.52 -0.8 0 0 318.04 125.81
  Q 320.45 125.85 318.50 127.96
  Z"
/>
<path d="
  M 87.29 320.75
  Q 91.17 321.21 91.31 324.93
  Q 91.33 325.45 91.58 325.86
  Q 93.25 328.69 93.46 332.00
  L 87.29 320.75
  Z"
/>
</g>
<g fill="#9ea6d5" fill-opacity="0.925">
<path d="
  M 331.21 66.00
  Q 331.05 71.02 329.29 75.75
  Q 329.02 73.34 330.03 71.19
  A 1.97 1.82 56.8 0 0 330.19 70.25
  Q 329.99 67.94 331.21 66.00
  Z"
/>
<path d="
  M 176.29 86.50
  Q 177.53 87.51 177.49 89.36
  Q 176.00 88.53 176.29 86.50
  Z"
/>
<path d="
  M 134.29 89.00
  L 135.04 90.50
  L 134.87 93.02
  Q 134.82 93.82 134.63 93.02
  Q 134.16 91.04 134.29 89.00
  Z"
/>
<path d="
  M 53.25 350.49
  L 53.06 350.44
  Q 52.63 350.31 53.18 350.31
  Q 61.47 350.41 53.66 350.56
  Q 53.47 350.56 53.25 350.49
  Z"
/>
</g>
<path fill="#65646d" fill-opacity="0.435" d="
  M 283.96 91.00
  Q 283.51 93.48 284.78 95.15
  Q 284.88 95.28 285.13 95.92
  Q 285.26 96.25 285.64 95.90
  A 0.61 0.51 -50.2 0 1 286.30 95.78
  C 288.87 97.25 285.53 108.11 284.95 110.74
  Q 282.54 121.71 271.51 119.77
  Q 267.44 119.05 266.00 115.29
  C 280.26 119.05 281.58 102.96 283.96 91.00
  Z"
/>
<g fill="#b4b4c4" fill-opacity="0.761">
<path d="
  M 148.52 152.08
  Q 148.32 152.15 148.11 152.12
  A 0.39 0.31 -72.4 0 1 147.91 151.60
  L 150.36 145.98
  A 1.41 0.90 -80.5 0 1 151.01 145.26
  Q 152.99 144.46 152.46 146.76
  A 0.92 0.37 33.9 0 0 152.93 147.45
  Q 153.69 148.02 153.26 148.98
  Q 152.17 151.42 149.44 151.77
  Q 149.37 151.77 148.52 152.08
  Z"
/>
<path d="
  M 84.50 187.71
  Q 86.22 184.71 83.00 184.30
  A 1.48 1.19 -52.9 0 0 82.09 184.53
  Q 80.10 185.84 77.75 186.21
  Q 84.57 182.38 91.03 178.05
  C 93.77 176.22 94.92 178.92 93.70 181.07
  Q 90.67 186.41 84.50 187.71
  Z"
/>
<path d="
  M 83.75 206.79
  L 90.75 207.04
  Q 92.94 207.75 94.23 209.59
  A 1.01 0.90 70.3 0 0 95.00 210.01
  L 101.25 210.04
  L 99.75 210.79
  L 96.00 211.54
  C 90.44 211.65 86.01 212.10 83.75 206.79
  Z"
/>
</g>
<path fill="#bdbecf" fill-opacity="0.812" d="
  M 329.00 76.54
  L 328.21 81.25
  Q 327.14 85.21 326.44 89.25
  C 326.05 91.53 324.74 95.10 325.01 98.32
  Q 325.06 98.96 325.73 98.45
  Q 326.88 97.58 327.54 96.32
  A 0.52 0.42 37.8 0 1 328.30 96.31
  Q 328.92 96.92 329.71 97.00
  Q 326.22 115.58 324.50 121.00
  Q 323.13 125.32 318.50 127.96
  Q 320.45 125.85 318.04 125.81
  A 0.66 0.52 -0.8 0 1 317.40 125.32
  L 317.26 123.25
  A 0.58 0.42 -12.5 0 0 316.53 122.93
  L 314.00 123.71
  Q 318.87 120.57 320.38 113.83
  Q 324.04 97.54 327.75 81.25
  Q 328.59 77.54 329.00 76.54
  Z"
/>
<g fill="#dad9ec" fill-opacity="0.922">
<path d="
  M 437.25 250.29
  L 434.50 252.29
  Q 433.06 252.12 433.65 247.57
  A 1.09 0.88 86.4 0 0 432.51 246.32
  L 431.50 246.71
  L 434.25 243.21
  Q 435.07 243.14 435.64 242.62
  Q 435.83 242.45 436.50 242.28
  L 437.43 242.04
  Q 438.14 241.86 437.76 243.00
  Q 437.15 244.85 437.83 246.69
  A 0.58 0.42 66.3 0 1 437.69 247.33
  Q 435.60 248.52 437.25 250.29
  Z"
/>
<path d="
  M 81.71 280.00
  C 82.34 281.40 83.65 281.83 84.41 282.68
  Q 85.91 284.36 86.71 286.50
  Q 88.63 294.31 82.55 298.85
  C 76.70 300.21 73.40 297.13 67.78 297.22
  Q 67.30 297.23 66.85 296.99
  Q 64.14 295.56 61.05 295.24
  Q 60.20 295.15 61.05 295.10
  L 63.50 294.96
  C 68.02 295.48 73.20 296.35 77.19 294.15
  Q 84.75 290.00 81.71 280.00
  Z"
/>
<path d="
  M 442.64 305.16
  Q 441.47 307.09 439.00 308.04
  Q 436.67 306.88 435.20 304.72
  A 1.22 0.63 64.9 0 0 434.46 304.15
  L 432.50 303.96
  L 436.50 302.21
  Q 437.77 302.21 438.53 301.16
  A 0.61 0.37 -47.9 0 1 439.32 300.92
  Q 439.47 301.18 439.75 301.25
  A 0.68 0.65 -80.0 0 1 440.23 301.97
  Q 439.75 306.14 442.64 305.16
  Z"
/>
</g>
<g fill="#5f6ffc" fill-opacity="0.980">
<path d="
  M 171.29 75.00
  L 176.29 86.50
  Q 176.00 88.53 177.49 89.36
  L 189.47 115.97
  Q 191.90 131.24 176.25 130.79
  Q 171.25 128.24 168.80 122.70
  Q 159.89 102.49 150.79 82.38
  Q 148.66 77.66 146.04 73.21
  Q 144.49 70.58 147.27 68.79
  C 157.83 61.98 166.06 62.57 171.29 75.00
  Z"
/>
<path d="
  M 70.21 304.50
  Q 80.69 309.06 86.29 319.00
  L 89.56 329.22
  Q 93.00 355.68 70.94 367.69
  Q 58.14 374.65 43.00 369.54
  L 38.75 368.29
  C 21.25 357.94 11.74 334.65 25.78 317.50
  Q 28.19 315.01 31.50 314.21
  Q 37.04 312.93 41.00 317.04
  L 42.54 318.75
  L 43.29 320.00
  C 45.72 330.69 33.96 337.66 46.06 347.22
  Q 54.86 352.99 63.40 347.36
  L 66.50 344.46
  C 69.58 341.22 70.69 334.89 68.50 330.81
  L 56.00 317.71
  Q 54.76 314.57 55.46 311.25
  Q 59.72 301.58 70.21 304.50
  Z
  M 53.66 350.56
  Q 61.47 350.41 53.18 350.31
  Q 52.63 350.31 53.06 350.44
  L 53.25 350.49
  Q 53.47 350.56 53.66 350.56
  Z"
/>
</g>
</svg>
