<?xml version="1.0" encoding="UTF-8" standalone="no"?>
<!DOCTYPE svg PUBLIC "-//W3C//DTD SVG 1.1//EN" "http://www.w3.org/Graphics/SVG/1.1/DTD/svg11.dtd">
<svg xmlns="http://www.w3.org/2000/svg" version="1.1" viewBox="0 0 500 500">
<g fill="#ffffff">
<path d="
  M 0.00 0.00
  L 500.00 0.00
  L 500.00 313.31
  Q 499.16 309.44 495.21 309.75
  C 495.38 303.35 486.23 304.41 482.27 303.45
  Q 460.29 298.07 438.32 292.65
  C 430.30 290.66 426.30 295.09 424.43 302.37
  Q 421.54 313.64 418.79 324.98
  C 417.03 332.26 417.52 337.43 424.65 340.61
  Q 428.72 347.73 436.87 344.73
  Q 441.87 342.89 443.04 338.52
  Q 445.44 329.57 447.52 320.70
  A 0.59 0.59 -76.0 0 1 448.23 320.27
  Q 467.00 324.87 485.80 329.30
  C 495.57 331.60 498.68 321.89 500.00 314.06
  L 500.00 500.00
  L 0.00 500.00
  L 0.00 0.00
  Z
  M 285.69 105.55
  Q 288.85 111.11 294.54 110.76
  C 299.22 110.46 302.68 107.46 303.96 102.98
  Q 306.17 95.33 308.71 87.63
  Q 314.30 100.26 319.81 112.69
  Q 320.82 114.96 325.15 117.17
  Q 327.73 121.81 332.44 122.12
  C 339.99 122.61 342.74 116.53 344.56 110.42
  Q 350.21 91.46 355.62 72.43
  Q 357.94 64.24 357.94 64.21
  Q 358.47 59.04 353.31 55.97
  Q 351.62 52.66 349.60 51.37
  C 346.84 49.60 334.32 43.79 333.24 50.50
  Q 331.65 60.46 327.71 71.75
  Q 326.02 71.93 326.54 70.52
  A 1.42 1.06 -52.7 0 0 326.55 69.60
  Q 320.65 55.27 316.64 47.17
  Q 315.78 45.44 313.79 45.75
  Q 310.82 38.98 304.10 37.10
  C 300.25 36.02 296.63 34.37 294.55 37.84
  C 293.27 39.98 293.53 43.72 292.94 45.73
  Q 286.54 67.73 280.14 89.73
  C 278.07 96.82 278.71 102.27 285.69 105.55
  Z
  M 197.03 112.72
  Q 200.91 119.07 207.25 117.55
  C 212.58 116.27 215.76 111.79 216.07 106.41
  A 1.17 1.08 -5.6 0 1 216.96 105.41
  L 232.75 101.71
  L 235.97 103.79
  C 242.10 113.28 255.98 108.57 255.04 97.96
  Q 254.75 94.66 251.02 89.24
  Q 245.47 81.16 239.12 73.69
  Q 230.58 61.74 222.09 49.67
  C 216.29 41.42 210.85 35.00 200.97 42.27
  C 197.97 44.49 198.86 49.84 198.40 52.58
  Q 194.70 74.40 190.81 96.19
  C 189.44 103.85 189.65 109.32 197.03 112.72
  Z
  M 153.50 135.79
  C 159.42 147.95 179.06 137.24 169.99 123.76
  Q 162.63 112.83 155.94 105.12
  Q 141.29 84.98 137.84 79.93
  C 134.54 75.08 130.02 73.72 124.63 75.90
  C 121.87 77.01 116.85 79.96 115.52 82.35
  Q 114.20 84.71 115.94 86.79
  C 117.74 88.95 119.82 90.80 121.37 93.01
  Q 135.25 112.80 149.16 132.58
  Q 150.28 134.18 153.50 135.79
  Z
  M 52.50 177.27
  Q 59.91 186.08 67.49 179.44
  C 70.19 177.08 72.25 173.04 74.36 169.74
  A 1.35 1.35 -57.3 0 1 76.22 169.33
  Q 91.77 179.12 107.48 189.01
  C 120.00 196.90 131.06 179.92 119.12 172.63
  Q 117.04 169.00 114.44 167.31
  Q 100.84 158.51 87.25 149.71
  C 89.69 145.80 93.56 140.58 93.39 136.22
  Q 93.19 131.30 88.37 128.62
  C 84.07 119.52 73.82 119.36 68.47 127.70
  Q 58.46 143.34 48.50 158.99
  Q 41.06 170.68 52.50 177.27
  Z
  M 408.55 192.68
  Q 411.48 197.03 416.70 197.28
  Q 417.67 197.32 425.43 196.26
  Q 448.60 193.11 471.73 189.59
  Q 476.63 188.85 478.70 185.69
  Q 484.43 177.00 475.64 171.13
  C 472.08 163.10 466.67 163.66 458.62 165.16
  Q 451.75 166.44 444.48 167.38
  Q 449.10 160.78 456.70 151.96
  Q 464.62 142.76 455.01 135.51
  C 450.80 127.56 441.11 126.33 435.60 133.65
  Q 421.84 151.94 407.87 170.06
  Q 402.43 177.11 401.79 180.49
  Q 400.45 187.56 408.55 192.68
  Z
  M 33.43 268.89
  Q 41.90 278.73 53.92 274.64
  Q 59.12 272.87 64.50 267.52
  Q 65.66 274.04 71.16 276.55
  Q 78.96 285.58 88.49 277.17
  C 99.74 267.24 100.66 246.69 91.56 235.21
  Q 90.94 234.44 89.79 234.75
  C 81.38 218.26 62.90 221.63 54.17 235.40
  C 52.68 232.41 53.52 228.61 48.91 227.59
  C 44.60 219.19 36.71 220.76 31.04 226.52
  C 20.03 237.71 18.41 259.53 33.43 268.89
  Z
  M 431.33 258.36
  Q 434.81 263.67 442.68 262.63
  Q 466.20 259.52 489.68 256.15
  C 500.38 254.62 500.52 242.52 496.96 234.74
  A 1.48 1.30 87.7 0 0 496.30 234.05
  Q 494.84 233.35 493.29 233.50
  C 492.59 225.52 483.71 230.41 479.40 231.00
  Q 458.33 233.87 437.24 236.65
  C 429.74 237.63 422.58 240.98 424.32 249.93
  Q 425.29 254.95 431.33 258.36
  Z
  M 34.45 340.41
  Q 36.27 346.47 41.40 344.66
  C 43.14 344.05 45.27 342.83 47.27 342.31
  Q 69.48 336.54 91.68 330.75
  C 97.51 329.23 101.26 326.98 101.94 320.93
  Q 102.66 314.51 96.89 311.90
  Q 92.75 302.91 83.06 305.34
  Q 75.86 307.15 36.48 317.59
  Q 29.14 319.54 28.58 327.23
  Q 27.88 336.89 34.45 340.41
  Z
  M 85.14 434.37
  C 86.73 440.03 90.85 439.94 94.35 436.25
  Q 96.74 433.73 97.59 433.09
  Q 115.57 419.52 133.56 405.92
  Q 138.87 401.91 140.33 398.98
  Q 143.71 392.26 136.23 386.58
  C 131.12 376.41 121.89 379.09 115.00 385.29
  C 113.03 384.43 114.59 383.32 114.94 382.19
  Q 118.65 370.49 119.23 367.75
  Q 120.64 361.10 114.46 358.07
  C 109.95 348.60 96.71 348.56 94.53 359.51
  Q 93.46 364.88 92.16 370.32
  A 0.52 0.52 -78.5 0 1 91.56 370.72
  C 66.80 366.21 52.32 392.52 66.20 411.81
  C 69.36 416.20 80.61 433.42 85.14 434.37
  Z
  M 382.82 407.22
  Q 387.88 414.68 395.27 411.65
  Q 397.68 410.66 400.20 407.65
  Q 405.83 400.94 411.65 394.33
  L 439.04 416.38
  Q 441.47 420.40 445.63 421.35
  C 451.29 422.63 457.54 416.87 460.20 412.45
  Q 463.65 406.73 456.99 404.56
  Q 455.17 400.84 451.82 398.94
  Q 448.49 397.04 447.67 396.38
  Q 431.19 383.00 414.71 369.60
  C 407.66 363.86 402.09 361.68 395.58 369.59
  Q 386.88 380.15 378.37 390.86
  C 373.47 397.03 376.53 403.91 382.82 407.22
  Z
  M 349.31 487.17
  Q 356.90 496.84 367.07 489.59
  C 368.94 488.25 369.95 486.36 369.69 483.88
  C 367.75 465.82 367.64 447.35 366.85 429.19
  Q 366.58 423.07 361.86 420.70
  Q 357.57 412.31 349.32 413.83
  C 342.17 415.16 341.34 421.46 340.90 427.64
  A 0.91 0.81 81.6 0 1 340.41 428.38
  L 325.16 435.38
  A 0.82 0.71 50.5 0 1 324.35 435.24
  C 322.25 433.49 320.26 431.53 317.63 430.89
  C 307.15 428.33 299.95 440.53 307.20 448.31
  Q 313.85 455.44 349.31 487.17
  Z
  M 156.59 439.73
  Q 159.00 444.13 163.61 444.79
  Q 165.06 445.00 170.32 443.97
  Q 175.45 442.97 180.71 443.75
  C 191.27 457.86 172.57 475.25 160.35 463.98
  C 157.73 461.56 156.71 457.49 154.66 454.84
  C 147.48 445.56 134.56 452.84 136.94 464.32
  Q 139.34 475.95 150.60 483.23
  Q 163.99 496.19 182.01 492.24
  C 193.35 489.75 202.56 481.69 207.03 470.90
  Q 214.78 452.14 200.59 435.05
  Q 189.76 419.53 172.24 417.49
  C 163.80 416.51 146.18 421.34 150.49 433.76
  Q 151.79 437.49 156.59 439.73
  Z"
/>
<path d="
  M 94.71 393.75
  L 97.83 398.07
  A 0.53 0.46 53.9 0 1 97.77 398.76
  L 86.94 406.94
  A 0.95 0.70 -46.7 0 1 86.05 407.10
  Q 85.41 406.77 85.34 406.02
  Q 83.75 394.94 94.71 393.75
  Z"
/>
</g>
<g fill="#6070ff">
<path d="
  M 313.79 45.75
  L 326.30 74.55
  Q 326.51 75.03 326.81 74.60
  Q 327.69 73.35 327.71 71.75
  Q 331.65 60.46 333.24 50.50
  C 334.32 43.79 346.84 49.60 349.60 51.37
  Q 351.62 52.66 353.31 55.97
  Q 352.98 60.42 352.26 62.99
  Q 348.11 77.64 339.89 105.36
  C 337.45 113.61 334.39 118.69 325.15 117.17
  Q 320.82 114.96 319.81 112.69
  Q 314.30 100.26 308.71 87.63
  L 305.60 80.09
  Q 305.04 78.74 304.65 80.16
  Q 302.39 88.22 299.86 96.18
  C 297.50 103.57 293.82 107.50 285.69 105.55
  C 278.71 102.27 278.07 96.82 280.14 89.73
  Q 286.54 67.73 292.94 45.73
  C 293.53 43.72 293.27 39.98 294.55 37.84
  C 296.63 34.37 300.25 36.02 304.10 37.10
  Q 310.82 38.98 313.79 45.75
  Z"
/>
<path d="
  M 239.12 73.69
  Q 243.09 80.09 247.43 86.21
  C 254.33 95.94 247.85 106.42 235.97 103.79
  L 232.75 101.71
  L 229.28 97.44
  A 0.86 0.71 -23.3 0 0 228.49 97.21
  L 212.25 100.75
  A 0.96 0.73 -3.2 0 0 211.53 101.36
  C 209.87 109.11 206.16 114.55 197.03 112.72
  C 189.65 109.32 189.44 103.85 190.81 96.19
  Q 194.70 74.40 198.40 52.58
  C 198.86 49.84 197.97 44.49 200.97 42.27
  C 210.85 35.00 216.29 41.42 222.09 49.67
  Q 230.58 61.74 239.12 73.69
  Z
  M 214.01 71.50
  L 212.06 83.76
  A 0.46 0.39 89.9 0 0 212.51 84.29
  L 221.18 82.40
  A 0.57 0.48 65.7 0 0 221.42 81.57
  L 214.72 71.27
  Q 214.18 70.44 214.01 71.50
  Z"
/>
<path d="
  M 155.94 105.12
  Q 160.26 112.21 165.13 118.85
  C 171.78 127.94 164.23 138.66 153.50 135.79
  Q 150.28 134.18 149.16 132.58
  Q 135.25 112.80 121.37 93.01
  C 119.82 90.80 117.74 88.95 115.94 86.79
  Q 114.20 84.71 115.52 82.35
  C 116.85 79.96 121.87 77.01 124.63 75.90
  C 130.02 73.72 134.54 75.08 137.84 79.93
  Q 141.29 84.98 155.94 105.12
  Z"
/>
<path d="
  M 88.37 128.62
  C 89.38 135.58 86.26 139.10 81.98 145.62
  A 0.51 0.50 -56.0 0 0 82.11 146.32
  L 87.25 149.71
  Q 100.84 158.51 114.44 167.31
  Q 117.04 169.00 119.12 172.63
  C 121.14 182.16 112.44 190.22 103.50 184.74
  Q 98.35 181.58 70.88 164.26
  A 0.52 0.52 -56.9 0 0 70.18 164.41
  C 67.66 168.03 64.88 173.55 61.74 175.65
  Q 57.96 178.18 52.50 177.27
  Q 41.06 170.68 48.50 158.99
  Q 58.46 143.34 68.47 127.70
  C 73.82 119.36 84.07 119.52 88.37 128.62
  Z"
/>
<path d="
  M 455.01 135.51
  Q 456.30 141.98 453.56 145.30
  Q 443.73 157.22 433.81 169.07
  Q 433.33 169.64 434.04 169.49
  L 444.48 167.38
  Q 451.75 166.44 458.62 165.16
  C 466.67 163.66 472.08 163.10 475.64 171.13
  C 477.34 180.47 472.40 184.20 463.95 185.50
  Q 436.35 189.73 408.55 192.68
  Q 400.45 187.56 401.79 180.49
  Q 402.43 177.11 407.87 170.06
  Q 421.84 151.94 435.60 133.65
  C 441.11 126.33 450.80 127.56 455.01 135.51
  Z"
/>
<path d="
  M 48.91 227.59
  Q 49.60 232.89 47.65 237.26
  C 45.96 241.03 38.22 245.17 40.59 249.70
  C 42.83 253.98 53.05 237.04 54.17 235.40
  C 62.90 221.63 81.38 218.26 89.79 234.75
  Q 96.98 251.32 88.35 267.09
  Q 83.07 276.73 71.16 276.55
  Q 65.66 274.04 64.50 267.52
  C 65.39 259.42 72.74 256.94 73.27 249.34
  C 73.59 244.80 70.36 245.99 68.88 248.66
  C 61.26 262.43 51.94 275.94 33.43 268.89
  C 18.41 259.53 20.03 237.71 31.04 226.52
  C 36.71 220.76 44.60 219.19 48.91 227.59
  Z"
/>
<path d="
  M 493.29 233.50
  C 495.52 243.97 493.31 250.15 482.30 251.80
  Q 456.90 255.59 431.33 258.36
  Q 425.29 254.95 424.32 249.93
  C 422.58 240.98 429.74 237.63 437.24 236.65
  Q 458.33 233.87 479.40 231.00
  C 483.71 230.41 492.59 225.52 493.29 233.50
  Z"
/>
<path d="
  M 495.21 309.75
  C 493.63 319.26 490.26 326.96 479.19 324.29
  Q 461.34 319.99 443.47 315.58
  A 0.51 0.50 -75.5 0 0 442.86 315.95
  Q 441.36 321.72 439.95 327.46
  C 437.70 336.64 435.19 342.56 424.65 340.61
  C 417.52 337.43 417.03 332.26 418.79 324.98
  Q 421.54 313.64 424.43 302.37
  C 426.30 295.09 430.30 290.66 438.32 292.65
  Q 460.29 298.07 482.27 303.45
  C 486.23 304.41 495.38 303.35 495.21 309.75
  Z"
/>
<path d="
  M 96.89 311.90
  C 98.58 320.53 94.22 324.13 86.42 326.06
  Q 60.29 332.50 34.45 340.41
  Q 27.88 336.89 28.58 327.23
  Q 29.14 319.54 36.48 317.59
  Q 75.86 307.15 83.06 305.34
  Q 92.75 302.91 96.89 311.90
  Z"
/>
<path d="
  M 114.46 358.07
  C 115.37 363.89 111.91 372.23 108.83 382.26
  A 0.87 0.81 -56.6 0 0 108.96 383.04
  L 111.80 386.70
  A 0.67 0.59 53.4 0 0 112.65 386.88
  L 115.00 385.29
  C 121.89 379.09 131.12 376.41 136.23 386.58
  C 137.77 395.15 133.63 397.56 126.74 402.76
  Q 111.24 414.44 95.74 426.12
  C 92.77 428.36 89.44 432.39 85.14 434.37
  C 80.61 433.42 69.36 416.20 66.20 411.81
  C 52.32 392.52 66.80 366.21 91.56 370.72
  A 0.52 0.52 -78.5 0 0 92.16 370.32
  Q 93.46 364.88 94.53 359.51
  C 96.71 348.56 109.95 348.60 114.46 358.07
  Z
  M 85.34 406.02
  Q 85.41 406.77 86.05 407.10
  A 0.95 0.70 -46.7 0 0 86.94 406.94
  L 97.77 398.76
  A 0.53 0.46 53.9 0 0 97.83 398.07
  L 94.71 393.75
  C 91.23 388.37 84.80 387.94 81.60 393.53
  C 78.83 398.37 81.55 401.85 85.34 406.02
  Z"
/>
<path d="
  M 456.99 404.56
  C 454.23 411.16 447.32 418.61 439.04 416.38
  L 411.65 394.33
  L 406.63 390.22
  A 0.54 0.49 -50.5 0 0 405.91 390.32
  Q 400.67 396.84 395.42 403.14
  Q 390.38 409.19 382.82 407.22
  C 376.53 403.91 373.47 397.03 378.37 390.86
  Q 386.88 380.15 395.58 369.59
  C 402.09 361.68 407.66 363.86 414.71 369.60
  Q 431.19 383.00 447.67 396.38
  Q 448.49 397.04 451.82 398.94
  Q 455.17 400.84 456.99 404.56
  Z"
/>
<path d="
  M 361.86 420.70
  Q 363.12 445.97 364.17 471.18
  Q 364.32 474.87 365.02 478.55
  Q 365.54 481.35 363.68 483.49
  Q 361.89 485.56 358.75 486.98
  Q 354.56 488.88 349.31 487.17
  Q 313.85 455.44 307.20 448.31
  C 299.95 440.53 307.15 428.33 317.63 430.89
  C 320.26 431.53 322.25 433.49 324.35 435.24
  A 0.82 0.71 50.5 0 0 325.16 435.38
  L 340.41 428.38
  A 0.91 0.81 81.6 0 0 340.90 427.64
  C 341.34 421.46 342.17 415.16 349.32 413.83
  Q 357.57 412.31 361.86 420.70
  Z
  M 344.20 444.78
  A 0.32 0.32 75.9 0 0 343.75 444.51
  L 335.47 448.25
  A 0.32 0.32 55.5 0 0 335.38 448.77
  L 344.44 457.79
  A 0.32 0.32 -69.1 0 0 344.98 457.54
  L 344.20 444.78
  Z"
/>
<path d="
  M 200.59 435.05
  Q 206.94 448.43 203.97 461.23
  C 201.13 473.48 191.63 483.16 179.61 486.74
  Q 165.22 491.04 150.60 483.23
  Q 139.34 475.95 136.94 464.32
  C 134.56 452.84 147.48 445.56 154.66 454.84
  C 156.71 457.49 157.73 461.56 160.35 463.98
  C 172.57 475.25 191.27 457.86 180.71 443.75
  C 173.68 434.68 165.54 441.02 156.59 439.73
  Q 151.79 437.49 150.49 433.76
  C 146.18 421.34 163.80 416.51 172.24 417.49
  Q 189.76 419.53 200.59 435.05
  Z"
/>
</g>
<g fill="#ebebff">
<path d="
  M 327.71 71.75
  Q 327.69 73.35 326.81 74.60
  Q 326.51 75.03 326.30 74.55
  L 313.79 45.75
  Q 315.78 45.44 316.64 47.17
  Q 320.65 55.27 326.55 69.60
  A 1.42 1.06 -52.7 0 1 326.54 70.52
  Q 326.02 71.93 327.71 71.75
  Z"
/>
<path d="
  M 353.31 55.97
  Q 358.47 59.04 357.94 64.21
  Q 357.94 64.24 355.62 72.43
  Q 350.21 91.46 344.56 110.42
  C 342.74 116.53 339.99 122.61 332.44 122.12
  Q 327.73 121.81 325.15 117.17
  C 334.39 118.69 337.45 113.61 339.89 105.36
  Q 348.11 77.64 352.26 62.99
  Q 352.98 60.42 353.31 55.97
  Z"
/>
<path d="
  M 214.01 71.50
  Q 214.18 70.44 214.72 71.27
  L 221.42 81.57
  A 0.57 0.48 65.7 0 1 221.18 82.40
  L 212.51 84.29
  A 0.46 0.39 89.9 0 1 212.06 83.76
  L 214.01 71.50
  Z"
/>
<path d="
  M 239.12 73.69
  Q 245.47 81.16 251.02 89.24
  Q 254.75 94.66 255.04 97.96
  C 255.98 108.57 242.10 113.28 235.97 103.79
  C 247.85 106.42 254.33 95.94 247.43 86.21
  Q 243.09 80.09 239.12 73.69
  Z"
/>
<path d="
  M 308.71 87.63
  Q 306.17 95.33 303.96 102.98
  C 302.68 107.46 299.22 110.46 294.54 110.76
  Q 288.85 111.11 285.69 105.55
  C 293.82 107.50 297.50 103.57 299.86 96.18
  Q 302.39 88.22 304.65 80.16
  Q 305.04 78.74 305.60 80.09
  L 308.71 87.63
  Z"
/>
<path d="
  M 232.75 101.71
  L 216.96 105.41
  A 1.17 1.08 -5.6 0 0 216.07 106.41
  C 215.76 111.79 212.58 116.27 207.25 117.55
  Q 200.91 119.07 197.03 112.72
  C 206.16 114.55 209.87 109.11 211.53 101.36
  A 0.96 0.73 -3.2 0 1 212.25 100.75
  L 228.49 97.21
  A 0.86 0.71 -23.3 0 1 229.28 97.44
  L 232.75 101.71
  Z"
/>
<path d="
  M 155.94 105.12
  Q 162.63 112.83 169.99 123.76
  C 179.06 137.24 159.42 147.95 153.50 135.79
  C 164.23 138.66 171.78 127.94 165.13 118.85
  Q 160.26 112.21 155.94 105.12
  Z"
/>
<path d="
  M 88.37 128.62
  Q 93.19 131.30 93.39 136.22
  C 93.56 140.58 89.69 145.80 87.25 149.71
  L 82.11 146.32
  A 0.51 0.50 -56.0 0 1 81.98 145.62
  C 86.26 139.10 89.38 135.58 88.37 128.62
  Z"
/>
<path d="
  M 455.01 135.51
  Q 464.62 142.76 456.70 151.96
  Q 449.10 160.78 444.48 167.38
  L 434.04 169.49
  Q 433.33 169.64 433.81 169.07
  Q 443.73 157.22 453.56 145.30
  Q 456.30 141.98 455.01 135.51
  Z"
/>
<path d="
  M 119.12 172.63
  C 131.06 179.92 120.00 196.90 107.48 189.01
  Q 91.77 179.12 76.22 169.33
  A 1.35 1.35 -57.3 0 0 74.36 169.74
  C 72.25 173.04 70.19 177.08 67.49 179.44
  Q 59.91 186.08 52.50 177.27
  Q 57.96 178.18 61.74 175.65
  C 64.88 173.55 67.66 168.03 70.18 164.41
  A 0.52 0.52 -56.9 0 1 70.88 164.26
  Q 98.35 181.58 103.50 184.74
  C 112.44 190.22 121.14 182.16 119.12 172.63
  Z"
/>
<path d="
  M 475.64 171.13
  Q 484.43 177.00 478.70 185.69
  Q 476.63 188.85 471.73 189.59
  Q 448.60 193.11 425.43 196.26
  Q 417.67 197.32 416.70 197.28
  Q 411.48 197.03 408.55 192.68
  Q 436.35 189.73 463.95 185.50
  C 472.40 184.20 477.34 180.47 475.64 171.13
  Z"
/>
<path d="
  M 48.91 227.59
  C 53.52 228.61 52.68 232.41 54.17 235.40
  C 53.05 237.04 42.83 253.98 40.59 249.70
  C 38.22 245.17 45.96 241.03 47.65 237.26
  Q 49.60 232.89 48.91 227.59
  Z"
/>
<path d="
  M 493.29 233.50
  Q 494.84 233.35 496.30 234.05
  A 1.48 1.30 87.7 0 1 496.96 234.74
  C 500.52 242.52 500.38 254.62 489.68 256.15
  Q 466.20 259.52 442.68 262.63
  Q 434.81 263.67 431.33 258.36
  Q 456.90 255.59 482.30 251.80
  C 493.31 250.15 495.52 243.97 493.29 233.50
  Z"
/>
<path d="
  M 89.79 234.75
  Q 90.94 234.44 91.56 235.21
  C 100.66 246.69 99.74 267.24 88.49 277.17
  Q 78.96 285.58 71.16 276.55
  Q 83.07 276.73 88.35 267.09
  Q 96.98 251.32 89.79 234.75
  Z"
/>
<path d="
  M 64.50 267.52
  Q 59.12 272.87 53.92 274.64
  Q 41.90 278.73 33.43 268.89
  C 51.94 275.94 61.26 262.43 68.88 248.66
  C 70.36 245.99 73.59 244.80 73.27 249.34
  C 72.74 256.94 65.39 259.42 64.50 267.52
  Z"
/>
<path d="
  M 495.21 309.75
  Q 499.16 309.44 500.00 313.31
  L 500.00 314.06
  C 498.68 321.89 495.57 331.60 485.80 329.30
  Q 467.00 324.87 448.23 320.27
  A 0.59 0.59 -76.5 0 0 447.52 320.70
  Q 445.44 329.57 443.04 338.52
  Q 441.87 342.89 436.87 344.73
  Q 428.72 347.73 424.65 340.61
  C 435.19 342.56 437.70 336.64 439.95 327.46
  Q 441.36 321.72 442.86 315.95
  A 0.51 0.50 -75.5 0 1 443.47 315.58
  Q 461.34 319.99 479.19 324.29
  C 490.26 326.96 493.63 319.26 495.21 309.75
  Z"
/>
<path d="
  M 96.89 311.90
  Q 102.66 314.51 101.94 320.93
  C 101.26 326.98 97.51 329.23 91.68 330.75
  Q 69.48 336.54 47.27 342.31
  C 45.27 342.83 43.14 344.05 41.40 344.66
  Q 36.27 346.47 34.45 340.41
  Q 60.29 332.50 86.42 326.06
  C 94.22 324.13 98.58 320.53 96.89 311.90
  Z"
/>
<path d="
  M 114.46 358.07
  Q 120.64 361.10 119.23 367.75
  Q 118.65 370.49 114.94 382.19
  C 114.59 383.32 113.03 384.43 115.00 385.29
  L 112.65 386.88
  A 0.67 0.59 53.4 0 1 111.80 386.70
  L 108.96 383.04
  A 0.87 0.81 -56.6 0 1 108.83 382.26
  C 111.91 372.23 115.37 363.89 114.46 358.07
  Z"
/>
<path d="
  M 136.23 386.58
  Q 143.71 392.26 140.33 398.98
  Q 138.87 401.91 133.56 405.92
  Q 115.57 419.52 97.59 433.09
  Q 96.74 433.73 94.35 436.25
  C 90.85 439.94 86.73 440.03 85.14 434.37
  C 89.44 432.39 92.77 428.36 95.74 426.12
  Q 111.24 414.44 126.74 402.76
  C 133.63 397.56 137.77 395.15 136.23 386.58
  Z"
/>
<path d="
  M 94.71 393.75
  Q 83.75 394.94 85.34 406.02
  C 81.55 401.85 78.83 398.37 81.60 393.53
  C 84.80 387.94 91.23 388.37 94.71 393.75
  Z"
/>
<path d="
  M 411.65 394.33
  Q 405.83 400.94 400.20 407.65
  Q 397.68 410.66 395.27 411.65
  Q 387.88 414.68 382.82 407.22
  Q 390.38 409.19 395.42 403.14
  Q 400.67 396.84 405.91 390.32
  A 0.54 0.49 -50.5 0 1 406.63 390.22
  L 411.65 394.33
  Z"
/>
<path d="
  M 456.99 404.56
  Q 463.65 406.73 460.20 412.45
  C 457.54 416.87 451.29 422.63 445.63 421.35
  Q 441.47 420.40 439.04 416.38
  C 447.32 418.61 454.23 411.16 456.99 404.56
  Z"
/>
<path d="
  M 361.86 420.70
  Q 366.58 423.07 366.85 429.19
  C 367.64 447.35 367.75 465.82 369.69 483.88
  C 369.95 486.36 368.94 488.25 367.07 489.59
  Q 356.90 496.84 349.31 487.17
  Q 354.56 488.88 358.75 486.98
  Q 361.89 485.56 363.68 483.49
  Q 365.54 481.35 365.02 478.55
  Q 364.32 474.87 364.17 471.18
  Q 363.12 445.97 361.86 420.70
  Z"
/>
<path d="
  M 150.60 483.23
  Q 165.22 491.04 179.61 486.74
  C 191.63 483.16 201.13 473.48 203.97 461.23
  Q 206.94 448.43 200.59 435.05
  Q 214.78 452.14 207.03 470.90
  C 202.56 481.69 193.35 489.75 182.01 492.24
  Q 163.99 496.19 150.60 483.23
  Z"
/>
<path d="
  M 180.71 443.75
  Q 175.45 442.97 170.32 443.97
  Q 165.06 445.00 163.61 444.79
  Q 159.00 444.13 156.59 439.73
  C 165.54 441.02 173.68 434.68 180.71 443.75
  Z"
/>
<path d="
  M 344.20 444.78
  L 344.98 457.54
  A 0.32 0.32 -69.7 0 1 344.44 457.79
  L 335.38 448.77
  A 0.32 0.32 55.1 0 1 335.47 448.25
  L 343.75 444.51
  A 0.32 0.32 82.2 0 1 344.20 444.78
  Z"
/>
</g>
</svg>
