<?xml version="1.0" encoding="UTF-8" standalone="no"?>
<!DOCTYPE svg PUBLIC "-//W3C//DTD SVG 1.1//EN" "http://www.w3.org/Graphics/SVG/1.1/DTD/svg11.dtd">
<svg xmlns="http://www.w3.org/2000/svg" version="1.1" viewBox="0 0 500 500">
<g fill="#6070ff">
<path d="
  M 355.50 57.46
  L 353.97 58.23
  A 1.16 1.11 85.6 0 0 353.39 58.94
  Q 341.55 100.91 338.63 109.58
  Q 335.86 117.79 326.75 117.46
  Q 321.19 116.06 318.69 110.31
  Q 313.82 99.16 308.96 88.00
  L 305.43 79.80
  Q 305.10 79.03 304.87 79.83
  L 302.21 89.25
  Q 301.18 91.05 301.42 93.02
  A 0.52 0.47 -7.0 0 0 301.99 93.42
  Q 304.04 93.14 305.71 94.25
  L 305.54 95.75
  Q 305.40 94.72 304.64 94.00
  A 1.33 0.97 -18.8 0 0 303.74 93.72
  L 301.19 93.89
  A 0.81 0.68 4.8 0 0 300.50 94.38
  C 298.46 101.20 296.47 105.74 289.00 106.29
  L 288.50 106.29
  C 279.70 104.37 277.71 97.94 280.01 90.05
  Q 286.23 68.75 292.43 47.46
  C 293.57 43.54 292.58 35.04 298.90 36.00
  C 307.11 37.24 311.07 39.49 314.38 46.97
  Q 320.46 60.69 326.29 74.70
  Q 326.62 75.50 326.90 74.68
  Q 330.83 63.07 333.23 50.70
  Q 334.00 46.76 337.73 47.36
  C 343.85 48.34 351.64 50.28 353.49 57.15
  A 0.51 0.49 -14.9 0 0 354.10 57.49
  Q 354.86 57.29 355.50 57.46
  Z"
/>
<path d="
  M 250.50 90.21
  L 250.29 92.00
  Q 250.72 103.70 239.32 104.29
  A 0.66 0.66 -85.3 0 0 238.72 104.80
  L 238.46 106.00
  L 238.19 104.93
  A 0.91 0.87 2.1 0 0 237.58 104.30
  Q 234.57 103.37 232.21 101.25
  L 229.98 97.60
  Q 220.78 98.31 211.91 100.83
  A 0.75 0.73 84.8 0 0 211.39 101.47
  Q 210.58 110.36 202.25 113.29
  L 200.00 113.29
  C 190.21 111.57 189.29 104.85 190.82 96.11
  Q 194.57 74.75 198.26 53.38
  C 198.72 50.66 198.63 47.12 199.36 43.99
  A 1.55 1.46 -15.1 0 1 199.86 43.18
  C 209.94 34.56 216.05 40.95 222.21 49.78
  Q 236.36 70.01 250.50 90.21
  Z
  M 213.94 71.49
  L 212.00 83.75
  A 0.46 0.43 89.0 0 0 212.51 84.28
  L 221.24 82.41
  A 0.46 0.45 -22.3 0 0 221.54 81.72
  L 214.78 71.46
  Q 214.11 70.44 213.94 71.49
  Z"
/>
<path d="
  M 167.54 122.50
  Q 168.86 135.96 155.11 136.75
  Q 150.50 134.52 149.05 132.45
  Q 135.11 112.54 121.12 92.67
  C 118.52 88.97 111.49 84.89 117.23 80.45
  C 123.28 75.76 131.51 71.23 137.46 79.30
  Q 143.99 88.17 166.30 120.20
  Q 167.22 121.52 167.54 122.50
  Z"
/>
<path d="
  M 90.00 130.54
  L 89.15 130.82
  A 0.69 0.65 82.0 0 0 88.69 131.47
  C 88.61 136.94 84.42 141.42 82.54 145.25
  Q 82.70 147.25 84.00 146.04
  L 85.00 146.71
  L 84.50 147.21
  Q 81.35 146.32 84.45 147.77
  Q 84.74 147.91 85.01 148.28
  Q 85.58 149.10 86.75 148.71
  L 87.02 149.12
  Q 87.40 149.72 87.58 149.84
  Q 99.55 157.75 111.61 165.51
  Q 114.55 167.40 116.76 169.73
  Q 119.07 172.16 121.28 174.67
  L 120.05 174.38
  A 0.45 0.40 -82.6 0 0 119.55 174.81
  Q 119.05 187.20 106.25 186.54
  L 71.17 164.77
  A 0.67 0.54 34.7 0 0 70.37 164.83
  L 68.88 166.68
  C 64.29 172.45 62.76 178.14 54.00 177.54
  C 47.09 175.31 42.91 168.42 47.15 161.60
  Q 64.68 133.40 68.92 126.93
  C 74.30 118.71 85.69 120.42 88.61 129.66
  Q 88.93 130.69 90.00 130.54
  Z"
/>
<path d="
  M 455.54 137.25
  L 455.54 138.00
  C 455.58 145.48 447.63 152.44 443.19 157.91
  L 443.04 158.50
  L 434.29 168.93
  Q 433.94 169.35 434.49 169.26
  Q 453.15 166.15 463.73 164.20
  C 470.41 162.97 475.48 168.07 476.39 174.20
  C 475.65 181.74 471.40 184.36 464.12 185.42
  Q 439.26 189.04 414.35 192.44
  C 412.91 192.64 411.48 192.17 409.96 192.50
  L 409.50 192.54
  C 403.94 190.55 400.20 184.72 401.97 179.03
  Q 402.62 176.96 406.16 172.34
  Q 420.82 153.17 435.57 134.08
  C 441.92 125.85 452.34 127.43 455.54 137.25
  Z"
/>
<path d="
  M 91.29 237.00
  L 91.46 239.00
  C 95.37 252.56 91.20 276.35 72.87 276.38
  A 1.03 0.58 6.7 0 0 72.03 276.73
  Q 71.87 277.05 71.96 277.50
  L 71.70 276.86
  A 1.29 0.78 80.8 0 0 71.13 276.19
  C 65.96 274.11 62.90 268.68 65.41 263.39
  C 68.11 257.70 73.34 255.41 73.15 248.58
  C 73.04 244.74 70.43 246.36 69.32 248.16
  Q 65.68 254.05 62.21 260.00
  Q 61.51 260.47 59.44 262.94
  Q 53.83 269.63 44.25 271.29
  L 37.80 270.89
  C 30.51 267.49 25.37 263.50 23.43 255.27
  Q 20.16 241.41 28.06 229.82
  C 31.63 224.58 36.89 220.68 43.50 222.24
  C 50.49 223.89 49.87 233.40 47.26 238.26
  C 45.61 241.34 36.84 246.69 41.55 250.36
  A 0.81 0.75 -39.7 0 0 42.40 250.41
  Q 44.72 249.12 46.05 247.04
  C 50.60 239.96 55.12 232.61 61.94 227.47
  C 73.11 219.05 86.04 225.32 91.29 237.00
  Z"
/>
<path d="
  M 494.29 241.00
  C 493.39 249.42 488.29 251.05 480.36 252.13
  Q 457.80 255.18 435.25 258.29
  L 433.00 258.29
  C 423.72 256.12 420.44 243.87 429.19 238.84
  Q 431.41 237.56 436.93 236.80
  Q 458.33 233.85 479.71 230.72
  Q 484.17 230.07 488.50 228.73
  Q 491.47 227.81 492.47 230.56
  Q 494.31 235.59 494.29 241.00
  Z"
/>
<path d="
  M 495.29 309.50
  L 493.71 317.25
  Q 492.65 317.58 492.54 318.75
  C 489.70 325.31 484.97 325.65 478.34 324.06
  Q 470.93 322.28 463.42 320.50
  L 459.25 319.79
  L 444.48 315.87
  A 0.89 0.83 28.4 0 0 443.64 316.09
  Q 442.40 317.37 442.21 319.25
  L 441.80 320.18
  C 439.74 328.41 439.54 338.77 429.50 341.21
  L 426.50 341.04
  C 418.13 338.85 416.80 332.97 418.71 325.23
  Q 421.27 314.87 423.84 304.56
  C 426.31 294.64 429.51 290.46 440.08 293.07
  Q 461.78 298.42 483.49 303.75
  C 487.54 304.74 495.29 303.36 495.29 309.50
  Z"
/>
<path d="
  M 99.25 314.21
  L 97.83 314.27
  A 0.53 0.53 -0.6 0 0 97.32 314.79
  Q 97.10 323.45 89.43 325.44
  Q 66.22 331.46 42.99 337.45
  Q 39.97 338.23 36.50 340.29
  Q 35.70 340.25 34.62 340.74
  Q 30.32 339.29 29.48 333.99
  C 28.21 326.00 27.76 319.69 37.24 317.20
  Q 59.45 311.36 81.71 305.70
  C 88.93 303.87 94.55 305.27 97.20 312.68
  A 1.49 1.09 11.9 0 0 97.81 313.36
  L 99.25 314.21
  Z"
/>
<path d="
  M 114.79 359.50
  L 115.04 363.00
  Q 114.26 364.74 114.71 366.50
  Q 114.30 368.81 114.11 366.25
  Q 114.08 365.76 113.90 366.23
  L 112.31 370.49
  A 1.55 1.49 -43.8 0 0 112.27 371.45
  L 112.71 373.00
  L 112.29 373.25
  C 112.10 371.19 110.49 373.54 111.50 374.29
  L 110.79 376.25
  L 108.90 382.05
  A 1.20 0.75 -62.0 0 0 108.97 383.02
  L 111.95 386.80
  A 0.79 0.53 -34.7 0 0 112.87 386.78
  C 116.16 384.58 119.59 381.10 123.17 380.22
  Q 132.00 378.06 136.19 386.84
  C 136.72 387.96 137.43 388.30 138.50 388.71
  Q 137.50 388.98 136.86 388.43
  Q 136.54 388.16 136.56 388.56
  Q 136.87 395.14 131.32 399.32
  Q 112.84 413.22 94.40 427.17
  C 91.70 429.21 89.31 432.04 86.50 434.29
  L 85.00 434.54
  Q 82.86 433.78 82.13 432.86
  Q 73.09 421.60 66.29 411.95
  C 52.66 392.60 67.14 365.02 91.52 370.85
  A 0.49 0.49 13.2 0 0 92.12 370.48
  C 93.97 362.51 94.34 349.02 106.48 351.28
  Q 112.85 352.47 114.79 359.50
  Z
  M 97.82 398.06
  C 95.44 393.89 90.35 387.03 84.71 390.42
  C 77.32 394.85 81.13 401.36 85.97 406.96
  A 0.63 0.59 50.8 0 0 86.81 407.07
  L 97.64 398.87
  A 0.64 0.61 -33.6 0 0 97.82 398.06
  Z"
/>
<path d="
  M 456.98 405.53
  Q 452.32 414.10 443.21 417.25
  L 440.25 416.79
  C 439.23 416.19 437.94 415.63 437.04 414.91
  Q 421.96 402.75 406.89 390.53
  A 0.56 0.56 42.6 0 0 406.14 390.56
  Q 405.17 391.49 404.71 392.75
  L 404.46 393.75
  Q 404.00 392.74 403.44 393.44
  Q 398.34 399.80 393.00 405.96
  L 389.25 407.71
  L 384.79 408.00
  C 376.12 405.10 373.32 397.06 379.18 389.77
  Q 387.44 379.50 395.79 369.32
  C 402.21 361.49 407.96 364.12 414.86 369.72
  Q 431.19 383.00 447.50 396.28
  C 450.42 398.65 457.66 401.38 456.98 405.53
  Z"
/>
<path d="
  M 362.04 421.75
  L 362.54 430.25
  L 364.04 460.00
  L 364.63 473.80
  L 365.04 480.78
  A 1.97 1.58 62.5 0 1 364.85 481.73
  Q 363.14 485.00 361.49 485.53
  Q 358.52 486.49 356.46 488.75
  Q 356.33 488.70 356.25 488.57
  A 0.45 0.30 70.5 0 0 355.93 488.33
  Q 350.40 488.38 346.41 484.83
  Q 340.49 479.58 310.79 451.68
  Q 305.79 446.99 304.80 444.00
  C 301.03 432.72 315.65 425.93 323.57 434.77
  A 1.63 1.59 56.7 0 0 325.44 435.18
  L 340.74 428.22
  A 0.73 0.69 74.8 0 0 341.14 427.47
  C 339.36 412.32 357.59 408.43 362.04 421.75
  Z
  M 344.11 444.85
  A 0.31 0.31 -14.3 0 0 343.68 444.59
  L 335.51 448.34
  A 0.31 0.31 54.9 0 0 335.42 448.84
  L 344.54 457.92
  A 0.31 0.31 -69.5 0 0 345.07 457.68
  L 344.11 444.85
  Z"
/>
<path d="
  M 202.29 439.00
  L 203.00 440.54
  C 211.47 467.48 191.29 491.06 163.29 488.00
  Q 160.58 486.85 157.78 486.75
  Q 152.04 484.31 147.73 481.03
  C 141.50 476.28 134.40 465.49 137.15 457.33
  C 139.09 451.55 147.36 448.71 152.41 452.55
  C 156.41 455.60 157.07 461.56 161.15 464.63
  C 175.81 475.66 193.44 452.73 177.87 441.16
  C 169.49 434.93 162.32 443.90 154.09 438.16
  C 149.72 435.12 148.76 429.41 151.48 424.90
  C 155.30 418.56 167.45 416.71 174.02 417.82
  Q 193.21 421.07 202.29 439.00
  Z"
/>
</g>
<g fill="#ebebff">
<path d="
  M 355.50 57.46
  Q 359.10 60.66 357.70 65.75
  Q 350.82 90.70 345.88 107.52
  C 344.06 113.71 342.95 117.87 338.24 120.93
  Q 333.98 123.69 329.46 121.00
  L 329.04 119.00
  Q 328.93 118.07 328.04 118.25
  L 326.75 117.46
  Q 335.86 117.79 338.63 109.58
  Q 341.55 100.91 353.39 58.94
  A 1.16 1.11 85.6 0 1 353.97 58.23
  L 355.50 57.46
  Z"
/>
<path d="
  M 252.00 91.46
  Q 254.50 92.82 255.02 95.98
  C 256.60 105.72 245.65 114.28 238.46 106.00
  L 238.72 104.80
  A 0.66 0.66 -85.3 0 1 239.32 104.29
  Q 250.72 103.70 250.29 92.00
  Q 250.85 91.23 252.00 91.46
  Z"
/>
<path d="
  M 305.54 95.75
  C 304.73 104.20 300.20 115.60 289.21 108.75
  L 289.00 106.29
  C 296.47 105.74 298.46 101.20 300.50 94.38
  A 0.81 0.68 4.8 0 1 301.19 93.89
  L 303.74 93.72
  A 1.33 0.97 -18.8 0 1 304.64 94.00
  Q 305.40 94.72 305.54 95.75
  Z"
/>
<path d="
  M 229.98 97.60
  Q 227.05 96.81 227.63 98.67
  C 228.05 99.99 229.50 100.30 229.25 102.46
  L 219.73 105.25
  Q 217.06 106.03 216.17 108.48
  C 213.78 115.11 208.70 120.26 201.25 116.46
  L 201.21 114.50
  L 202.25 113.29
  Q 210.58 110.36 211.39 101.47
  A 0.75 0.73 84.8 0 1 211.91 100.83
  Q 220.78 98.31 229.98 97.60
  Z"
/>
<path d="
  M 167.54 122.50
  L 167.79 122.75
  Q 168.17 124.57 170.00 124.21
  C 175.50 128.49 172.06 136.84 167.42 139.68
  Q 160.00 144.22 155.11 136.75
  Q 168.86 135.96 167.54 122.50
  Z"
/>
<path d="
  M 86.75 147.54
  L 85.00 146.71
  L 84.00 146.04
  L 82.54 145.25
  C 84.42 141.42 88.61 136.94 88.69 131.47
  A 0.69 0.65 82.0 0 1 89.15 130.82
  L 90.00 130.54
  L 90.47 130.38
  A 0.89 0.72 56.9 0 1 91.31 130.65
  C 95.64 135.29 92.99 141.30 89.86 145.89
  Q 88.67 147.64 86.75 147.54
  Z"
/>
<path d="
  M 455.54 138.00
  Q 456.90 138.70 458.50 138.21
  C 462.93 140.13 460.53 146.66 459.00 149.79
  Q 456.49 154.89 449.00 160.79
  L 446.95 160.23
  A 0.82 0.60 -85.8 0 1 446.49 159.50
  Q 446.29 154.85 443.19 157.91
  C 447.63 152.44 455.58 145.48 455.54 138.00
  Z"
/>
<path d="
  M 68.88 166.68
  L 68.85 168.00
  A 0.62 0.29 -5.6 0 0 69.52 168.24
  Q 71.61 168.00 72.70 169.78
  A 1.27 0.77 -60.5 0 1 72.73 170.74
  C 70.23 178.31 64.56 185.48 55.71 180.00
  Q 56.81 178.10 54.50 177.79
  L 54.00 177.54
  C 62.76 178.14 64.29 172.45 68.88 166.68
  Z"
/>
<path d="
  M 121.28 174.67
  C 131.00 177.56 118.00 200.74 106.25 186.54
  Q 119.05 187.20 119.55 174.81
  A 0.45 0.40 -82.6 0 1 120.05 174.38
  L 121.28 174.67
  Z"
/>
<path d="
  M 476.39 174.20
  L 477.50 174.46
  L 479.00 174.21
  Q 481.27 174.84 481.47 176.77
  C 482.33 185.23 476.62 189.26 468.99 190.45
  Q 441.52 194.76 413.79 197.18
  Q 412.45 193.29 409.96 192.50
  C 411.48 192.17 412.91 192.64 414.35 192.44
  Q 439.26 189.04 464.12 185.42
  C 471.40 184.36 475.65 181.74 476.39 174.20
  Z"
/>
<path d="
  M 93.50 238.21
  Q 95.09 239.83 95.65 241.33
  C 100.31 253.87 98.13 271.24 86.22 279.24
  C 81.92 282.13 74.64 283.07 71.96 277.50
  Q 71.87 277.05 72.03 276.73
  A 1.03 0.58 6.7 0 1 72.87 276.38
  C 91.20 276.35 95.37 252.56 91.46 239.00
  Q 91.53 237.84 92.16 238.39
  A 0.80 0.62 -33.3 0 0 92.91 238.45
  L 93.50 238.21
  Z"
/>
<path d="
  M 494.29 241.00
  L 495.79 243.25
  L 497.54 249.75
  Q 497.04 254.11 492.74 255.23
  C 481.96 258.03 468.70 259.19 460.29 260.29
  Q 448.31 261.86 436.21 262.35
  Q 437.38 259.05 435.25 258.29
  Q 457.80 255.18 480.36 252.13
  C 488.29 251.05 493.39 249.42 494.29 241.00
  Z"
/>
<path d="
  M 62.21 260.00
  L 62.21 260.75
  Q 60.95 261.31 61.75 262.46
  L 61.40 269.90
  Q 55.59 276.29 46.75 275.46
  Q 45.46 275.16 45.41 274.05
  Q 45.38 273.60 45.16 273.14
  L 44.25 271.29
  Q 53.83 269.63 59.44 262.94
  Q 61.51 260.47 62.21 260.00
  Z"
/>
<path d="
  M 99.25 314.21
  Q 101.27 315.30 101.57 317.01
  C 103.66 328.60 95.21 329.74 86.92 332.25
  Q 83.78 333.21 80.03 334.07
  Q 59.83 338.70 39.97 344.63
  Q 38.62 345.03 37.50 344.21
  L 36.50 340.29
  Q 39.97 338.23 42.99 337.45
  Q 66.22 331.46 89.43 325.44
  Q 97.10 323.45 97.32 314.79
  A 0.53 0.53 -0.6 0 1 97.83 314.27
  L 99.25 314.21
  Z"
/>
<path d="
  M 492.54 318.75
  Q 494.02 319.77 495.78 319.38
  A 1.07 0.61 -20.6 0 1 496.67 319.52
  L 498.04 321.00
  C 496.89 329.17 490.58 330.73 483.10 328.79
  Q 475.12 326.72 466.94 324.62
  Q 467.99 323.52 467.62 322.21
  A 0.81 0.67 -3.6 0 0 466.94 321.72
  Q 465.06 321.54 463.42 320.50
  Q 470.93 322.28 478.34 324.06
  C 484.97 325.65 489.70 325.31 492.54 318.75
  Z"
/>
<path d="
  M 441.80 320.18
  Q 441.29 322.25 442.34 323.20
  A 0.58 0.51 40.6 0 0 443.14 323.19
  L 445.25 320.54
  Q 446.89 320.01 447.05 321.16
  Q 445.28 333.61 442.75 339.49
  C 440.71 344.23 433.92 348.58 429.21 344.50
  Q 431.52 342.77 429.50 341.21
  C 439.54 338.77 439.74 328.41 441.80 320.18
  Z"
/>
<path d="
  M 117.79 362.00
  C 121.01 365.11 118.29 372.02 116.71 375.25
  L 114.25 375.79
  L 112.71 373.00
  L 112.27 371.45
  A 1.55 1.49 -43.8 0 1 112.31 370.49
  L 113.90 366.23
  Q 114.08 365.76 114.11 366.25
  Q 114.30 368.81 114.71 366.50
  L 115.71 363.25
  Q 116.20 361.99 117.79 362.00
  Z"
/>
<path d="
  M 138.50 388.71
  C 143.94 393.45 140.71 400.92 135.81 404.52
  C 121.07 415.38 106.01 426.18 92.03 438.01
  Q 89.69 439.99 87.46 437.50
  Q 87.79 436.11 86.71 435.25
  L 86.50 434.29
  C 89.31 432.04 91.70 429.21 94.40 427.17
  Q 112.84 413.22 131.32 399.32
  Q 136.87 395.14 136.56 388.56
  Q 136.54 388.16 136.86 388.43
  Q 137.50 388.98 138.50 388.71
  Z"
/>
<path d="
  M 404.46 393.75
  Q 403.02 396.32 406.75 394.96
  L 408.21 395.90
  A 0.58 0.50 -57.0 0 1 408.31 396.66
  Q 405.65 400.79 402.67 404.62
  C 398.63 409.83 396.45 413.25 389.97 412.13
  Q 390.34 410.94 391.04 410.25
  Q 394.35 409.21 395.31 406.05
  A 0.34 0.33 -86.0 0 0 394.94 405.61
  L 393.00 405.96
  Q 398.34 399.80 403.44 393.44
  Q 404.00 392.74 404.46 393.75
  Z"
/>
<path d="
  M 456.98 405.53
  L 457.54 406.25
  L 457.55 406.72
  A 0.48 0.48 89.4 0 0 458.03 407.19
  L 460.50 407.21
  Q 462.87 409.47 461.16 411.70
  C 457.49 416.48 450.68 424.26 443.96 420.25
  Q 444.77 418.52 443.21 417.25
  Q 452.32 414.10 456.98 405.53
  Z"
/>
<path d="
  M 367.39 438.10
  Q 369.73 462.00 369.70 466.81
  Q 369.67 473.71 369.91 480.60
  Q 370.08 485.41 368.88 487.71
  C 366.71 491.90 360.16 495.24 355.75 491.96
  L 356.46 489.50
  L 356.46 488.75
  Q 358.52 486.49 361.49 485.53
  Q 363.14 485.00 364.85 481.73
  A 1.97 1.58 62.5 0 0 365.04 480.78
  L 364.63 473.80
  Q 365.96 468.12 365.46 462.25
  C 365.24 459.27 366.22 456.44 366.29 453.91
  Q 366.45 447.84 366.08 445.95
  Q 365.10 440.98 367.39 438.10
  Z"
/>
<path d="
  M 203.00 440.54
  Q 203.99 441.72 205.96 441.64
  C 217.57 465.36 201.79 491.71 175.48 493.00
  Q 169.71 493.28 163.96 490.75
  Q 164.78 489.13 163.29 488.00
  C 191.29 491.06 211.47 467.48 203.00 440.54
  Z"
/>
</g>
<g fill="#72737f" fill-opacity="0.525">
<path d="
  M 200.25 113.54
  L 200.96 114.25
  L 200.25 115.54
  Q 198.68 114.77 199.93 114.40
  A 0.70 0.32 -13.5 0 0 200.48 113.97
  Q 200.48 113.77 200.25 113.54
  Z"
/>
<path d="
  M 328.04 118.25
  Q 328.93 118.07 329.04 119.00
  L 327.79 119.50
  L 328.04 118.25
  Z"
/>
<path d="
  M 54.50 177.79
  Q 56.81 178.10 55.71 180.00
  Q 54.75 179.17 54.50 177.79
  Z"
/>
<path d="
  M 112.71 373.00
  L 114.25 375.79
  Q 115.19 376.57 116.46 376.25
  C 114.68 381.71 113.10 374.92 110.79 376.25
  L 111.50 374.29
  L 112.29 373.25
  L 112.71 373.00
  Z"
/>
<path d="
  M 365.96 425.00
  L 367.39 438.10
  Q 365.10 440.98 366.08 445.95
  Q 366.45 447.84 366.29 453.91
  C 366.22 456.44 365.24 459.27 365.46 462.25
  Q 365.39 463.25 364.94 463.21
  A 0.83 0.48 84.8 0 1 364.44 462.51
  L 364.04 460.00
  L 362.54 430.25
  C 363.90 433.54 363.60 430.47 363.69 430.23
  Q 364.74 427.59 365.96 425.00
  Z
  M 364.2696 439.6231
  A 0.52 0.52 0.0 0 0 363.7326 439.1206
  L 363.6527 439.1233
  A 0.52 0.52 0.0 0 0 363.1502 439.6602
  L 363.3504 445.6969
  A 0.52 0.52 0.0 0 0 363.8874 446.1994
  L 363.9673 446.1967
  A 0.52 0.52 0.0 0 0 364.4698 445.6598
  L 364.2696 439.6231
  Z"
/>
</g>
<g fill="#a2a6b2" fill-opacity="0.761">
<path d="
  M 229.98 97.60
  L 232.21 101.25
  L 229.25 102.46
  C 229.50 100.30 228.05 99.99 227.63 98.67
  Q 227.05 96.81 229.98 97.60
  Z"
/>
<path d="
  M 200.96 114.25
  L 201.21 114.50
  L 201.25 116.46
  L 200.25 115.54
  L 200.96 114.25
  Z"
/>
<path d="
  M 85.00 146.71
  L 86.75 147.54
  L 86.00 148.21
  L 84.50 147.21
  L 85.00 146.71
  Z"
/>
<path d="
  M 479.00 174.21
  L 477.50 174.46
  Q 477.42 171.79 479.00 174.21
  Z"
/>
<path d="
  M 62.21 260.75
  L 62.71 262.50
  L 61.75 262.46
  Q 60.95 261.31 62.21 260.75
  Z"
/>
<path d="
  M 498.46 316.50
  L 499.21 318.25
  L 498.04 321.00
  L 496.67 319.52
  A 1.07 0.61 -20.6 0 0 495.78 319.38
  Q 494.02 319.77 492.54 318.75
  Q 492.65 317.58 493.71 317.25
  Q 496.52 319.02 498.46 316.50
  Z"
/>
<path d="
  M 442.21 319.25
  Q 442.12 319.93 442.31 320.54
  A 0.46 0.40 -22.2 0 0 442.93 320.75
  Q 443.98 320.23 445.25 320.54
  L 443.14 323.19
  A 0.58 0.51 40.6 0 1 442.34 323.20
  Q 441.29 322.25 441.80 320.18
  L 442.21 319.25
  Z"
/>
<path d="
  M 459.25 319.79
  L 463.42 320.50
  Q 465.06 321.54 466.94 321.72
  A 0.81 0.67 -3.6 0 1 467.62 322.21
  Q 467.99 323.52 466.94 324.62
  L 459.50 322.71
  Q 460.09 321.25 459.25 319.79
  Z"
/>
<path d="
  M 426.50 341.04
  L 429.50 341.21
  Q 431.52 342.77 429.21 344.50
  L 427.78 343.18
  A 0.81 0.52 -57.5 0 1 427.78 342.34
  Q 428.39 341.20 426.50 341.04
  Z"
/>
<path d="
  M 115.04 363.00
  L 115.71 363.25
  L 114.71 366.50
  Q 114.26 364.74 115.04 363.00
  Z"
/>
</g>
<g fill="#2f2c2e" fill-opacity="0.204">
<path d="
  M 495.29 309.50
  Q 497.95 310.41 499.24 312.65
  L 498.46 316.50
  Q 496.52 319.02 493.71 317.25
  L 495.29 309.50
  Z"
/>
<path d="
  M 459.25 319.79
  Q 460.09 321.25 459.50 322.71
  Q 453.39 319.55 447.05 321.16
  Q 446.89 320.01 445.25 320.54
  Q 443.98 320.23 442.93 320.75
  A 0.46 0.40 -22.2 0 1 442.31 320.54
  Q 442.12 319.93 442.21 319.25
  Q 442.40 317.37 443.64 316.09
  A 0.89 0.83 28.4 0 1 444.48 315.87
  L 459.25 319.79
  Z"
/>
<path d="
  M 389.25 407.71
  Q 391.91 407.75 391.04 410.25
  Q 390.34 410.94 389.97 412.13
  Q 386.00 411.49 384.79 408.00
  L 389.25 407.71
  Z"
/>
<path d="
  M 362.04 421.75
  Q 364.92 422.22 365.96 425.00
  Q 364.74 427.59 363.69 430.23
  C 363.60 430.47 363.90 433.54 362.54 430.25
  L 362.04 421.75
  Z"
/>
<rect x="-0.56" y="-3.54" transform="translate(363.81,442.66) rotate(-1.9)" width="1.12" height="7.08" rx="0.52"/>
</g>
<g fill="#c0c5c3" fill-opacity="0.953">
<path d="
  M 84.50 147.21
  L 86.00 148.21
  L 86.75 148.71
  Q 85.58 149.10 85.01 148.28
  Q 84.74 147.91 84.45 147.77
  Q 81.35 146.32 84.50 147.21
  Z"
/>
<path d="
  M 499.24 312.65
  Q 499.96 315.53 499.21 318.25
  L 498.46 316.50
  L 499.24 312.65
  Z"
/>
<path d="
  M 112.29 373.25
  L 111.50 374.29
  C 110.49 373.54 112.10 371.19 112.29 373.25
  Z"
/>
<path d="
  M 86.71 435.25
  Q 87.79 436.11 87.46 437.50
  L 86.46 436.25
  L 86.71 435.25
  Z"
/>
<path d="
  M 364.04 460.00
  L 364.44 462.51
  A 0.83 0.48 84.8 0 0 364.94 463.21
  Q 365.39 463.25 365.46 462.25
  Q 365.96 468.12 364.63 473.80
  L 364.04 460.00
  Z"
/>
<path d="
  M 163.29 488.00
  Q 164.78 489.13 163.96 490.75
  L 157.78 486.75
  Q 160.58 486.85 163.29 488.00
  Z"
/>
</g>
<g fill="#7f8691" fill-opacity="0.612">
<path d="
  M 302.21 89.25
  Q 302.80 90.56 304.05 91.27
  A 1.66 0.89 -20.2 0 0 304.99 91.40
  Q 306.39 91.23 306.54 92.75
  L 305.71 94.25
  Q 304.04 93.14 301.99 93.42
  A 0.52 0.47 -7.0 0 1 301.42 93.02
  Q 301.18 91.05 302.21 89.25
  Z"
/>
<path d="
  M 82.54 145.25
  L 84.00 146.04
  Q 82.70 147.25 82.54 145.25
  Z"
/>
<path d="
  M 449.00 160.79
  L 447.59 162.31
  A 0.39 0.31 50.4 0 1 447.06 162.20
  L 444.57 158.71
  A 0.91 0.59 60.3 0 0 443.77 158.30
  L 443.04 158.50
  L 443.19 157.91
  Q 446.29 154.85 446.49 159.50
  A 0.82 0.60 -85.8 0 0 446.95 160.23
  L 449.00 160.79
  Z"
/>
<path d="
  M 497.54 249.75
  L 495.79 243.25
  Q 496.42 243.77 496.77 243.27
  Q 496.98 242.97 497.08 243.31
  Q 497.37 244.26 498.16 244.90
  A 0.84 0.71 27.9 0 1 498.47 245.67
  L 497.54 249.75
  Z"
/>
<path d="
  M 433.00 258.29
  L 435.25 258.29
  Q 437.38 259.05 436.21 262.35
  Q 433.53 260.56 433.00 258.29
  Z"
/>
<path d="
  M 391.04 410.25
  Q 391.91 407.75 389.25 407.71
  L 393.00 405.96
  L 394.94 405.61
  A 0.34 0.33 -86.0 0 1 395.31 406.05
  Q 394.35 409.21 391.04 410.25
  Z"
/>
<path d="
  M 440.25 416.79
  L 443.21 417.25
  Q 444.77 418.52 443.96 420.25
  L 440.25 416.79
  Z"
/>
</g>
<path fill="#171419" fill-opacity="0.122" d="
  M 308.96 88.00
  Q 307.36 88.13 307.63 89.76
  A 0.84 0.76 -25.6 0 1 307.32 90.52
  Q 306.40 91.24 306.54 92.75
  Q 306.39 91.23 304.99 91.40
  A 1.66 0.89 -20.2 0 1 304.05 91.27
  Q 302.80 90.56 302.21 89.25
  L 304.87 79.83
  Q 305.10 79.03 305.43 79.80
  L 308.96 88.00
  Z"
/>
<g fill="#90949e" fill-opacity="0.918">
<path d="
  M 200.00 113.29
  L 202.25 113.29
  L 201.21 114.50
  L 200.96 114.25
  L 200.25 113.54
  L 200.00 113.29
  Z"
/>
<path d="
  M 455.54 137.25
  L 455.96 137.58
  A 0.62 0.61 46.3 0 0 456.69 137.60
  Q 457.63 136.92 458.50 138.21
  Q 456.90 138.70 455.54 138.00
  L 455.54 137.25
  Z"
/>
<path d="
  M 409.50 192.54
  L 409.96 192.50
  Q 412.45 193.29 413.79 197.18
  Q 410.85 194.83 409.50 192.54
  Z"
/>
<path d="
  M 62.71 262.50
  Q 63.01 266.28 61.40 269.90
  L 61.75 262.46
  L 62.71 262.50
  Z"
/>
<path d="
  M 36.50 340.29
  L 37.50 344.21
  L 36.08 342.61
  A 1.35 0.41 -86.6 0 1 35.86 341.68
  Q 35.83 340.71 34.62 340.74
  Q 35.70 340.25 36.50 340.29
  Z"
/>
<path d="
  M 404.71 392.75
  L 406.75 394.96
  Q 403.02 396.32 404.46 393.75
  L 404.71 392.75
  Z"
/>
<path d="
  M 356.46 489.50
  L 355.75 491.96
  Q 353.57 490.22 356.46 489.50
  Z"
/>
</g>
<path fill="#4b4b53" fill-opacity="0.392" d="
  M 114.79 359.50
  Q 117.44 359.45 117.79 362.00
  Q 116.20 361.99 115.71 363.25
  L 115.04 363.00
  L 114.79 359.50
  Z"
/>
<g fill="#9da3af" fill-opacity="0.976">
<path d="
  M 250.50 90.21
  L 252.00 91.46
  Q 250.85 91.23 250.29 92.00
  L 250.50 90.21
  Z"
/>
<path d="
  M 288.50 106.29
  L 289.00 106.29
  L 289.21 108.75
  Q 287.97 107.94 288.50 106.29
  Z"
/>
<path d="
  M 329.04 119.00
  L 329.46 121.00
  L 327.79 119.50
  L 329.04 119.00
  Z"
/>
<path d="
  M 167.79 122.75
  L 170.00 124.21
  Q 168.17 124.57 167.79 122.75
  Z"
/>
<path d="
  M 91.29 237.00
  Q 92.79 237.02 93.50 238.21
  L 92.91 238.45
  A 0.80 0.62 -33.3 0 1 92.16 238.39
  Q 91.53 237.84 91.46 239.00
  L 91.29 237.00
  Z"
/>
<path d="
  M 457.54 406.25
  Q 459.24 406.16 460.50 407.21
  L 458.03 407.19
  A 0.48 0.48 89.4 0 1 457.55 406.72
  L 457.54 406.25
  Z"
/>
<path d="
  M 86.50 434.29
  L 86.71 435.25
  L 86.46 436.25
  L 85.00 434.54
  L 86.50 434.29
  Z"
/>
<path d="
  M 202.29 439.00
  L 205.96 441.64
  Q 203.99 441.72 203.00 440.54
  L 202.29 439.00
  Z"
/>
</g>
<g fill="#b2b3c0" fill-opacity="0.780">
<path d="
  M 44.25 271.29
  L 45.16 273.14
  Q 45.38 273.60 45.41 274.05
  Q 45.46 275.16 46.75 275.46
  Q 41.56 274.77 37.80 270.89
  L 44.25 271.29
  Z"
/>
<path d="
  M 116.71 375.25
  L 116.46 376.25
  Q 115.19 376.57 114.25 375.79
  L 116.71 375.25
  Z"
/>
</g>
</svg>
