<?xml version="1.0" encoding="UTF-8" standalone="no"?>
<!DOCTYPE svg PUBLIC "-//W3C//DTD SVG 1.1//EN" "http://www.w3.org/Graphics/SVG/1.1/DTD/svg11.dtd">
<svg xmlns="http://www.w3.org/2000/svg" version="1.1" viewBox="0 0 500 500">
<path fill="#f9dd57" d="
  M 346.31 268.17
  A 96.14 96.14 0.0 0 1 250.17 364.31
  A 96.14 96.14 0.0 0 1 154.03 268.17
  A 96.14 96.14 0.0 0 1 250.17 172.03
  A 96.14 96.14 0.0 0 1 346.31 268.17
  Z
  M 205.91 215.61
  Q 199.68 210.09 191.98 210.00
  C 165.63 209.69 162.52 241.52 167.40 260.24
  A 0.69 0.60 81.2 0 0 168.00 260.75
  L 217.00 260.75
  A 0.73 0.50 -77.4 0 0 217.54 260.24
  Q 226.24 233.65 205.91 215.61
  Z
  M 260.19 221.44
  Q 246.19 238.52 254.13 260.27
  A 0.72 0.63 79.0 0 0 254.75 260.75
  L 311.50 260.75
  A 0.70 0.56 -79.8 0 0 312.07 260.25
  C 316.69 244.60 314.28 225.20 299.96 215.83
  C 286.97 207.31 270.33 209.06 260.19 221.44
  Z
  M 178.44 283.78
  A 0.48 0.35 87.5 0 1 178.80 284.23
  C 179.67 299.39 184.36 314.75 193.53 326.80
  C 216.42 356.85 262.99 360.26 292.62 338.56
  C 312.34 324.11 318.16 301.76 309.12 278.48
  A 0.76 0.62 77.2 0 0 308.50 278.00
  L 171.75 278.00
  A 0.50 0.50 0.0 0 0 171.25 278.50
  L 171.25 283.25
  A 0.50 0.50 0.0 0 0 171.75 283.75
  L 178.44 283.78
  Z"
/>
<path fill="#000000" d="
  M 267.23 163.88
  Q 283.78 167.59 299.24 174.59
  C 369.28 211.58 375.75 307.36 311.98 353.95
  Q 292.09 368.48 267.75 372.29
  Q 265.40 372.03 263.25 372.96
  L 260.25 373.46
  Q 256.03 372.64 252.00 373.96
  L 248.75 373.96
  Q 244.70 372.67 240.50 373.46
  C 178.08 366.88 136.04 311.86 145.84 249.75
  Q 149.04 236.58 154.10 223.99
  C 166.08 195.83 192.43 174.94 221.25 166.54
  Q 227.15 165.84 232.83 164.02
  L 235.00 163.54
  Q 237.15 164.23 239.00 163.04
  Q 253.19 161.38 267.23 163.88
  Z
  M 346.31 268.17
  A 96.14 96.14 0.0 0 0 250.17 172.03
  A 96.14 96.14 0.0 0 0 154.03 268.17
  A 96.14 96.14 0.0 0 0 250.17 364.31
  A 96.14 96.14 0.0 0 0 346.31 268.17
  Z"
/>
<path fill="#891947" d="
  M 290.22 331.88
  C 278.62 314.20 257.07 309.35 240.33 322.16
  Q 230.50 329.69 228.00 343.21
  C 201.94 334.12 188.10 311.08 185.22 284.54
  A 0.53 0.49 -2.5 0 1 185.75 284.00
  L 304.00 284.00
  A 1.37 1.29 -6.1 0 1 305.32 285.00
  Q 311.98 313.28 290.22 331.88
  Z"
/>
<g fill="#fcfbfc">
<path d="
  M 198.41 218.65
  C 184.68 225.67 198.60 247.88 212.12 235.37
  A 0.36 0.35 -34.0 0 1 212.69 235.47
  C 215.13 241.01 214.23 248.44 213.27 254.24
  A 0.60 0.51 -84.8 0 1 212.75 254.75
  L 172.75 254.75
  A 0.64 0.64 83.1 0 1 172.13 254.26
  C 168.20 238.63 174.96 207.52 198.44 217.77
  Q 199.36 218.17 198.41 218.65
  Z"
/>
<path d="
  M 264.31 225.83
  C 270.49 218.57 282.54 213.76 291.74 218.13
  A 0.70 0.70 -49.5 0 1 291.83 219.34
  C 279.37 227.94 293.17 247.27 306.54 234.72
  A 0.49 0.42 62.1 0 1 307.26 235.00
  Q 310.15 244.59 307.39 254.23
  A 0.72 0.65 -81.1 0 1 306.75 254.75
  L 259.00 254.75
  A 0.76 0.66 77.7 0 1 258.36 254.27
  C 254.58 244.84 258.00 233.24 264.31 225.83
  Z"
/>
</g>
<path fill="#f6bcd6" d="
  M 290.22 331.88
  C 274.47 345.75 247.69 350.50 228.00 343.21
  Q 230.50 329.69 240.33 322.16
  C 257.07 309.35 278.62 314.20 290.22 331.88
  Z"
/>
<g fill="#566056" fill-opacity="0.992">
<path d="
  M 239.00 163.04
  Q 237.15 164.23 235.00 163.54
  L 239.00 163.04
  Z"
/>
<path d="
  M 232.83 164.02
  Q 227.15 165.84 221.25 166.54
  Q 226.79 164.45 232.83 164.02
  Z"
/>
<path d="
  M 267.23 163.88
  Q 284.20 166.32 299.24 174.59
  Q 283.78 167.59 267.23 163.88
  Z"
/>
<path d="
  M 154.10 223.99
  Q 149.04 236.58 145.84 249.75
  Q 147.97 236.25 154.10 223.99
  Z"
/>
<path d="
  M 267.75 372.29
  Q 265.58 373.16 263.25 372.96
  Q 265.40 372.03 267.75 372.29
  Z"
/>
<path d="
  M 248.75 373.96
  L 240.50 373.46
  Q 244.70 372.67 248.75 373.96
  Z"
/>
<path d="
  M 260.25 373.46
  L 252.00 373.96
  Q 256.03 372.64 260.25 373.46
  Z"
/>
</g>
<g fill="#050707">
<path d="
  M 205.91 215.61
  Q 226.24 233.65 217.54 260.24
  A 0.73 0.50 -77.4 0 1 217.00 260.75
  L 168.00 260.75
  A 0.69 0.60 81.2 0 1 167.40 260.24
  C 162.52 241.52 165.63 209.69 191.98 210.00
  Q 199.68 210.09 205.91 215.61
  Z
  M 212.12 235.37
  C 198.60 247.88 184.68 225.67 198.41 218.65
  Q 199.36 218.17 198.44 217.77
  C 174.96 207.52 168.20 238.63 172.13 254.26
  A 0.64 0.64 83.1 0 0 172.75 254.75
  L 212.75 254.75
  A 0.60 0.51 -84.8 0 0 213.27 254.24
  C 214.23 248.44 215.13 241.01 212.69 235.47
  A 0.36 0.35 -34.0 0 0 212.12 235.37
  Z"
/>
<path d="
  M 260.19 221.44
  C 270.33 209.06 286.97 207.31 299.96 215.83
  C 314.28 225.20 316.69 244.60 312.07 260.25
  A 0.70 0.56 -79.8 0 1 311.50 260.75
  L 254.75 260.75
  A 0.72 0.63 79.0 0 1 254.13 260.27
  Q 246.19 238.52 260.19 221.44
  Z
  M 264.31 225.83
  C 258.00 233.24 254.58 244.84 258.36 254.27
  A 0.76 0.66 77.7 0 0 259.00 254.75
  L 306.75 254.75
  A 0.72 0.65 -81.1 0 0 307.39 254.23
  Q 310.15 244.59 307.26 235.00
  A 0.49 0.42 62.1 0 0 306.54 234.72
  C 293.17 247.27 279.37 227.94 291.83 219.34
  A 0.70 0.70 -49.5 0 0 291.74 218.13
  C 282.54 213.76 270.49 218.57 264.31 225.83
  Z"
/>
<path d="
  M 178.44 283.78
  L 171.75 283.75
  A 0.50 0.50 0.0 0 1 171.25 283.25
  L 171.25 278.50
  A 0.50 0.50 0.0 0 1 171.75 278.00
  L 308.50 278.00
  A 0.76 0.62 77.2 0 1 309.12 278.48
  C 318.16 301.76 312.34 324.11 292.62 338.56
  C 262.99 360.26 216.42 356.85 193.53 326.80
  C 184.36 314.75 179.67 299.39 178.80 284.23
  A 0.48 0.35 87.5 0 0 178.44 283.78
  Z
  M 228.00 343.21
  C 247.69 350.50 274.47 345.75 290.22 331.88
  Q 311.98 313.28 305.32 285.00
  A 1.37 1.29 -6.1 0 0 304.00 284.00
  L 185.75 284.00
  A 0.53 0.49 -2.5 0 0 185.22 284.54
  C 188.10 311.08 201.94 334.12 228.00 343.21
  Z"
/>
</g>
</svg>
