<?xml version="1.0" encoding="UTF-8" standalone="no"?>
<!DOCTYPE svg PUBLIC "-//W3C//DTD SVG 1.1//EN" "http://www.w3.org/Graphics/SVG/1.1/DTD/svg11.dtd">
<svg xmlns="http://www.w3.org/2000/svg" version="1.1" viewBox="0 0 500 500">
<g fill="#ffffff">
<path d="
  M 0.00 0.00
  L 500.00 0.00
  L 500.00 500.00
  L 0.00 500.00
  L 0.00 0.00
  Z
  M 266.18 113.33
  Q 269.12 118.45 274.36 118.46
  C 279.30 118.47 283.46 115.11 284.52 110.25
  Q 286.70 100.24 288.62 94.13
  Q 294.83 105.72 300.56 117.19
  Q 302.11 120.29 306.59 122.43
  Q 309.21 127.25 314.02 127.31
  C 320.26 127.40 323.65 122.71 324.99 116.99
  Q 329.22 99.00 335.42 69.94
  Q 336.96 62.72 330.98 60.30
  C 328.81 53.96 319.66 51.96 313.95 51.96
  Q 310.97 51.96 310.69 54.93
  Q 309.61 66.27 306.22 77.63
  Q 299.98 64.90 292.80 52.69
  A 1.51 0.88 6.4 0 0 292.06 52.14
  L 290.81 51.68
  Q 285.04 42.56 273.92 43.02
  Q 271.50 43.12 270.98 45.48
  C 270.30 48.60 270.38 51.94 269.75 54.80
  Q 265.21 75.63 260.53 96.45
  C 258.79 104.18 258.64 109.68 266.18 113.33
  Z
  M 199.55 118.72
  Q 206.43 127.47 214.46 121.30
  C 217.04 119.32 218.17 116.12 218.99 113.06
  A 1.17 1.16 -85.5 0 1 219.98 112.21
  Q 227.62 111.38 235.07 109.37
  L 239.76 112.73
  Q 244.41 119.66 251.43 116.97
  C 255.77 115.32 258.42 111.43 258.24 106.83
  Q 258.13 103.95 255.31 99.29
  Q 242.07 77.47 228.95 55.55
  Q 228.27 54.41 226.54 54.25
  C 223.06 47.29 217.94 44.52 210.26 46.98
  C 204.06 48.96 205.46 54.26 204.29 59.13
  Q 199.10 80.88 193.74 102.61
  C 191.95 109.91 192.69 115.18 199.55 118.72
  Z
  M 175.77 128.49
  Q 180.95 135.91 188.43 132.45
  C 195.00 129.41 195.48 123.39 192.76 117.11
  Q 183.47 95.73 174.00 74.44
  C 173.37 73.03 172.15 71.52 171.27 70.19
  A 0.99 0.79 68.7 0 0 170.50 69.74
  L 169.50 69.79
  C 165.28 59.54 153.92 62.15 147.13 67.34
  Q 144.92 69.03 146.24 71.49
  C 154.87 87.51 161.74 104.31 168.97 121.01
  Q 171.13 126.00 175.77 128.49
  Z
  M 88.37 126.88
  C 95.26 137.74 104.30 129.09 110.75 123.71
  Q 122.34 138.92 135.47 152.76
  Q 139.83 158.49 145.65 157.39
  C 155.51 155.52 157.32 144.94 149.25 138.48
  L 127.57 110.99
  Q 130.52 107.72 133.81 104.98
  Q 137.16 102.18 138.21 100.15
  Q 142.00 92.90 134.52 87.52
  Q 129.81 78.88 122.09 80.82
  Q 118.71 81.67 112.73 86.53
  Q 100.53 96.47 88.24 106.28
  Q 83.60 109.99 82.42 112.31
  C 79.60 117.87 82.96 124.05 88.37 126.88
  Z
  M 363.93 157.36
  Q 366.88 162.32 371.87 162.36
  Q 374.60 162.38 379.95 159.74
  Q 402.05 148.85 423.92 137.49
  Q 427.24 135.77 428.77 133.60
  Q 434.17 125.97 425.75 119.55
  C 422.37 112.54 416.35 110.71 409.65 114.25
  Q 400.81 118.92 391.91 123.78
  Q 395.46 114.26 398.95 104.77
  Q 401.93 96.69 394.84 92.65
  Q 391.74 86.31 385.20 85.76
  C 377.10 85.09 374.67 91.97 372.42 98.73
  Q 365.92 118.28 359.26 137.81
  C 356.34 146.38 354.86 152.89 363.93 157.36
  Z
  M 56.64 185.45
  Q 65.29 195.32 78.23 190.72
  Q 74.52 200.46 83.57 204.80
  Q 90.21 213.30 100.67 208.35
  C 112.28 202.85 120.21 189.63 119.46 176.76
  Q 118.96 168.27 112.86 163.94
  Q 102.44 148.54 84.86 157.15
  Q 88.74 148.81 81.29 145.75
  C 78.27 137.71 69.52 137.84 62.96 141.23
  C 46.42 149.78 37.28 173.47 56.64 185.45
  Z
  M 394.91 192.35
  Q 400.60 200.86 409.50 195.00
  Q 417.49 189.74 446.19 170.24
  C 452.86 165.71 456.37 162.60 453.06 154.44
  Q 451.11 149.63 447.45 147.49
  C 440.53 136.04 439.04 141.82 431.56 146.88
  Q 413.41 159.15 395.28 171.40
  C 389.96 174.99 386.21 178.83 388.28 185.23
  Q 389.78 189.88 394.91 192.35
  Z
  M 253.31 168.91
  C 184.00 165.30 134.66 234.27 156.23 298.86
  C 178.15 364.48 258.37 386.98 312.19 344.20
  C 356.26 309.17 360.36 244.13 324.30 202.33
  C 308.41 183.91 286.40 172.51 262.23 169.23
  C 259.45 168.85 256.28 169.07 253.31 168.91
  Z
  M 421.25 246.29
  C 424.30 256.48 444.16 250.79 439.12 236.49
  Q 436.36 228.65 433.60 221.04
  A 0.77 0.76 -19.8 0 1 434.06 220.07
  Q 450.46 214.20 466.62 208.22
  C 469.89 207.01 472.78 206.48 474.90 203.48
  C 478.48 198.41 475.58 189.76 472.52 184.94
  A 0.92 0.62 -12.5 0 0 471.76 184.64
  L 470.29 184.75
  L 467.97 180.44
  Q 466.56 177.81 463.60 179.52
  Q 458.66 182.38 453.69 184.17
  Q 432.93 191.66 412.21 199.23
  C 404.40 202.08 403.56 207.99 406.11 215.25
  Q 413.61 236.66 415.71 241.76
  Q 416.96 244.80 421.25 246.29
  Z
  M 28.25 215.04
  C 28.14 220.29 36.25 220.11 39.78 221.34
  Q 60.66 228.63 81.55 235.86
  C 87.84 238.04 93.98 237.93 96.99 231.50
  Q 100.85 223.23 92.89 218.62
  Q 90.60 213.87 86.71 212.50
  Q 47.36 198.64 39.27 195.96
  C 30.43 193.02 26.50 201.00 24.25 207.74
  Q 22.12 214.10 28.25 215.04
  Z
  M 16.03 290.13
  Q 15.70 295.07 19.23 295.03
  C 37.50 294.81 56.01 296.90 74.24 298.23
  C 81.84 298.79 88.11 294.61 87.31 286.73
  Q 86.84 282.09 82.19 279.58
  Q 79.64 273.76 74.50 273.00
  Q 69.54 272.27 68.20 271.86
  Q 74.33 267.22 80.83 263.20
  C 87.96 258.79 92.45 255.29 88.33 246.71
  Q 87.15 244.27 84.79 244.50
  C 81.66 236.66 74.60 234.90 68.07 239.79
  Q 63.98 242.85 59.89 245.98
  A 0.69 0.65 -44.8 0 1 59.09 246.00
  C 58.01 245.20 57.18 243.64 56.45 242.95
  Q 43.25 230.57 28.35 237.88
  C 20.51 241.73 14.37 249.73 13.04 258.26
  Q 12.08 264.34 10.99 285.25
  Q 10.70 290.83 16.03 290.13
  Z
  M 412.03 361.74
  Q 411.95 363.05 413.92 364.37
  C 416.63 366.18 419.30 366.50 422.80 366.17
  Q 445.55 364.06 468.26 361.70
  C 477.25 360.77 484.58 359.29 484.42 348.38
  Q 484.36 344.21 479.79 342.75
  C 478.15 338.09 474.10 336.96 470.59 334.15
  Q 454.00 320.85 437.38 307.20
  Q 442.59 305.00 444.50 300.48
  C 446.61 295.48 445.23 285.01 444.96 278.85
  A 0.85 0.84 88.0 0 1 445.77 277.97
  C 457.96 277.52 470.14 277.41 482.56 276.52
  C 493.51 275.73 494.57 267.95 493.63 258.81
  Q 493.20 254.67 489.04 254.25
  C 488.49 246.85 480.17 250.71 475.91 250.85
  Q 452.98 251.64 430.05 252.53
  C 420.91 252.89 418.53 258.09 418.80 266.78
  Q 419.17 278.62 419.67 290.46
  C 419.89 295.81 420.96 299.18 425.79 301.35
  Q 426.24 301.55 425.79 301.78
  Q 424.76 302.31 423.65 302.65
  C 417.45 304.59 415.26 310.86 417.42 316.57
  C 418.36 319.05 420.82 320.87 422.64 322.86
  A 1.04 0.72 -63.1 0 1 422.76 323.75
  L 418.11 339.34
  A 1.68 1.65 7.4 0 1 416.55 340.52
  C 408.98 340.69 403.29 346.48 405.32 353.99
  Q 406.62 358.82 412.03 361.74
  Z
  M 45.75 345.21
  Q 44.17 338.74 46.71 332.96
  Q 48.43 329.05 48.54 327.74
  Q 49.01 322.13 43.68 319.08
  C 39.50 310.56 29.75 309.75 24.46 317.68
  C 13.59 333.97 21.17 354.20 36.28 364.85
  Q 52.92 379.18 71.32 372.26
  C 85.74 366.83 94.77 354.11 94.87 338.57
  Q 94.97 325.33 85.41 315.66
  Q 79.75 306.91 70.36 303.05
  C 58.47 298.16 50.09 312.45 59.77 320.27
  C 63.42 323.22 67.14 325.30 68.62 329.50
  C 70.66 335.25 68.70 341.00 64.11 344.96
  Q 56.05 351.92 45.75 345.21
  Z"
/>
<path d="
  M 45.75 260.46
  Q 46.72 265.37 45.90 270.33
  A 0.61 0.61 3.4 0 1 45.32 270.84
  Q 40.50 271.06 35.75 270.21
  Q 36.13 260.59 45.75 260.46
  Z"
/>
</g>
<g fill="#6070ff">
<path d="
  M 290.81 51.68
  L 305.27 80.05
  A 0.31 0.29 49.0 0 0 305.79 80.10
  Q 306.58 78.89 306.22 77.63
  Q 309.61 66.27 310.69 54.93
  Q 310.97 51.96 313.95 51.96
  C 319.66 51.96 328.81 53.96 330.98 60.30
  Q 331.05 63.58 330.75 64.99
  Q 325.96 87.42 320.85 109.71
  C 318.89 118.27 316.08 123.49 306.59 122.43
  Q 302.11 120.29 300.56 117.19
  Q 294.83 105.72 288.62 94.13
  L 284.81 86.42
  Q 284.38 85.57 284.17 86.51
  Q 282.58 93.59 280.94 100.71
  C 278.90 109.55 276.30 115.27 266.18 113.33
  C 258.64 109.68 258.79 104.18 260.53 96.45
  Q 265.21 75.63 269.75 54.80
  C 270.38 51.94 270.30 48.60 270.98 45.48
  Q 271.50 43.12 273.92 43.02
  Q 285.04 42.56 290.81 51.68
  Z"
/>
<path d="
  M 226.54 54.25
  Q 239.17 75.24 251.84 96.20
  C 257.37 105.35 249.98 114.32 239.76 112.73
  L 235.07 109.37
  L 232.54 105.35
  A 0.83 0.78 68.8 0 0 231.74 104.97
  L 215.01 107.53
  A 0.90 0.80 1.4 0 0 214.29 108.14
  C 212.32 115.71 208.27 120.38 199.55 118.72
  C 192.69 115.18 191.95 109.91 193.74 102.61
  Q 199.10 80.88 204.29 59.13
  C 205.46 54.26 204.06 48.96 210.26 46.98
  C 217.94 44.52 223.06 47.29 226.54 54.25
  Z
  M 218.75 78.25
  L 216.01 90.50
  A 0.43 0.42 1.7 0 0 216.50 91.00
  L 225.24 89.72
  A 0.53 0.48 69.8 0 0 225.56 88.94
  L 219.37 78.16
  Q 218.94 77.40 218.75 78.25
  Z"
/>
<path d="
  M 169.50 69.79
  Q 178.50 90.47 187.62 111.10
  C 190.22 116.98 191.07 122.17 185.93 126.40
  Q 181.93 129.69 175.77 128.49
  Q 171.13 126.00 168.97 121.01
  C 161.74 104.31 154.87 87.51 146.24 71.49
  Q 144.92 69.03 147.13 67.34
  C 153.92 62.15 165.28 59.54 169.50 69.79
  Z"
/>
<path d="
  M 134.52 87.52
  C 135.90 96.92 129.45 100.14 123.56 104.94
  A 0.53 0.50 -38.7 0 0 123.46 105.66
  L 127.57 110.99
  L 149.25 138.48
  Q 150.99 145.58 146.81 149.81
  Q 142.92 153.75 135.47 152.76
  Q 122.34 138.92 110.75 123.71
  L 106.83 119.02
  A 0.55 0.53 -39.4 0 0 106.09 118.96
  C 100.63 123.28 96.23 128.70 88.37 126.88
  C 82.96 124.05 79.60 117.87 82.42 112.31
  Q 83.60 109.99 88.24 106.28
  Q 100.53 96.47 112.73 86.53
  Q 118.71 81.67 122.09 80.82
  Q 129.81 78.88 134.52 87.52
  Z"
/>
<path d="
  M 394.84 92.65
  Q 395.60 96.72 394.25 100.29
  Q 389.03 114.14 383.73 127.97
  Q 383.54 128.47 383.99 128.21
  L 391.91 123.78
  Q 400.81 118.92 409.65 114.25
  C 416.35 110.71 422.37 112.54 425.75 119.55
  Q 427.34 128.72 419.48 132.71
  Q 395.14 145.05 370.72 157.26
  Q 369.42 157.91 363.93 157.36
  C 354.86 152.89 356.34 146.38 359.26 137.81
  Q 365.92 118.28 372.42 98.73
  C 374.67 91.97 377.10 85.09 385.20 85.76
  Q 391.74 86.31 394.84 92.65
  Z"
/>
<path d="
  M 81.29 145.75
  C 81.29 154.15 75.86 158.55 68.21 160.43
  C 63.26 161.64 62.18 169.56 69.35 165.57
  Q 77.26 161.16 84.86 157.15
  Q 102.44 148.54 112.86 163.94
  C 118.25 177.92 111.67 192.68 100.07 201.34
  Q 92.87 206.71 83.57 204.80
  Q 74.52 200.46 78.23 190.72
  C 82.04 186.61 87.11 185.69 90.18 183.20
  C 91.91 181.81 96.65 176.68 92.95 175.47
  A 1.16 0.98 -49.6 0 0 92.03 175.62
  C 80.95 182.75 70.23 190.68 56.64 185.45
  C 37.28 173.47 46.42 149.78 62.96 141.23
  C 69.52 137.84 78.27 137.71 81.29 145.75
  Z"
/>
<path d="
  M 447.45 147.49
  C 452.80 156.68 448.28 160.90 440.56 166.12
  Q 421.69 178.91 402.79 191.55
  Q 400.54 193.05 394.91 192.35
  Q 389.78 189.88 388.28 185.23
  C 386.21 178.83 389.96 174.99 395.28 171.40
  Q 413.41 159.15 431.56 146.88
  C 439.04 141.82 440.53 136.04 447.45 147.49
  Z"
/>
<path d="
  M 470.29 184.75
  C 472.47 191.18 473.48 199.31 465.44 202.26
  Q 447.41 208.85 429.22 215.37
  A 0.50 0.50 -18.9 0 0 428.91 216.00
  C 430.80 221.40 436.11 232.83 435.16 238.18
  C 434.04 244.49 427.41 248.03 421.25 246.29
  Q 416.96 244.80 415.71 241.76
  Q 413.61 236.66 406.11 215.25
  C 403.56 207.99 404.40 202.08 412.21 199.23
  Q 432.93 191.66 453.69 184.17
  Q 458.66 182.38 463.60 179.52
  Q 466.56 177.81 467.97 180.44
  L 470.29 184.75
  Z"
/>
<path d="
  M 92.89 218.62
  C 95.13 228.67 87.24 234.80 77.89 231.59
  Q 51.67 222.56 38.43 217.85
  Q 32.96 215.90 28.25 215.04
  Q 22.12 214.10 24.25 207.74
  C 26.50 201.00 30.43 193.02 39.27 195.96
  Q 47.36 198.64 86.71 212.50
  Q 90.60 213.87 92.89 218.62
  Z"
/>
<path d="
  M 84.79 244.50
  C 86.13 250.77 83.58 253.83 78.30 257.19
  Q 71.45 261.54 64.53 265.84
  A 1.07 0.53 -24.2 0 0 63.99 266.50
  L 63.70 271.49
  A 0.69 0.48 9.5 0 0 64.25 272.03
  Q 66.56 272.57 68.20 271.86
  Q 69.54 272.27 74.50 273.00
  Q 79.64 273.76 82.19 279.58
  Q 83.54 285.46 80.52 289.49
  C 77.23 293.89 72.37 293.88 67.18 293.34
  Q 48.49 291.39 16.03 290.13
  Q 10.70 290.83 10.99 285.25
  Q 12.08 264.34 13.04 258.26
  C 14.37 249.73 20.51 241.73 28.35 237.88
  Q 43.25 230.57 56.45 242.95
  C 57.18 243.64 58.01 245.20 59.09 246.00
  A 0.69 0.65 -44.8 0 0 59.89 245.98
  Q 63.98 242.85 68.07 239.79
  C 74.60 234.90 81.66 236.66 84.79 244.50
  Z
  M 35.75 270.21
  Q 40.50 271.06 45.32 270.84
  A 0.61 0.61 3.4 0 0 45.90 270.33
  Q 46.72 265.37 45.75 260.46
  C 43.32 254.74 36.09 254.63 32.71 259.22
  C 30.86 261.73 31.08 265.98 30.82 269.23
  A 0.62 0.60 -79.2 0 0 31.25 269.88
  Q 33.47 270.51 35.75 270.21
  Z"
/>
<path d="
  M 489.04 254.25
  C 489.24 262.28 489.07 271.35 479.00 271.75
  Q 459.85 272.51 441.04 273.15
  A 0.90 0.89 -2.8 0 0 440.17 274.10
  C 440.55 281.21 443.93 301.10 432.40 301.88
  C 427.46 302.21 432.24 303.28 432.64 303.57
  Q 435.15 305.41 437.38 307.20
  Q 454.00 320.85 470.59 334.15
  C 474.10 336.96 478.15 338.09 479.79 342.75
  Q 480.03 355.13 468.27 356.51
  Q 445.64 359.16 412.03 361.74
  Q 406.62 358.82 405.32 353.99
  C 403.29 346.48 408.98 340.69 416.55 340.52
  A 1.68 1.65 7.4 0 0 418.11 339.34
  L 422.76 323.75
  A 1.04 0.72 -63.1 0 0 422.64 322.86
  C 420.82 320.87 418.36 319.05 417.42 316.57
  C 415.26 310.86 417.45 304.59 423.65 302.65
  Q 424.76 302.31 425.79 301.78
  Q 426.24 301.55 425.79 301.35
  C 420.96 299.18 419.89 295.81 419.67 290.46
  Q 419.17 278.62 418.80 266.78
  C 418.53 258.09 420.91 252.89 430.05 252.53
  Q 452.98 251.64 475.91 250.85
  C 480.17 250.71 488.49 246.85 489.04 254.25
  Z
  M 437.64 331.63
  A 0.30 0.30 -61.9 0 0 437.17 331.77
  L 434.45 340.66
  A 0.30 0.30 6.3 0 0 434.76 341.04
  L 447.46 340.07
  A 0.30 0.30 -27.8 0 0 447.63 339.53
  L 437.64 331.63
  Z"
/>
<path d="
  M 85.41 315.66
  C 94.91 335.89 89.12 357.82 68.56 366.71
  Q 53.23 373.34 36.28 364.85
  C 21.17 354.20 13.59 333.97 24.46 317.68
  C 29.75 309.75 39.50 310.56 43.68 319.08
  C 44.52 328.84 34.95 336.63 45.75 345.21
  Q 56.05 351.92 64.11 344.96
  C 68.70 341.00 70.66 335.25 68.62 329.50
  C 67.14 325.30 63.42 323.22 59.77 320.27
  C 50.09 312.45 58.47 298.16 70.36 303.05
  Q 79.75 306.91 85.41 315.66
  Z"
/>
</g>
<path fill="#ffe43d" d="
  M 253.31 168.91
  C 256.28 169.07 259.45 168.85 262.23 169.23
  C 286.40 172.51 308.41 183.91 324.30 202.33
  C 360.36 244.13 356.26 309.17 312.19 344.20
  C 258.37 386.98 178.15 364.48 156.23 298.86
  C 134.66 234.27 184.00 165.30 253.31 168.91
  Z
  M 225.0300 264.8100
  A 27.67 7.43 90.0 0 0 232.4600 237.1400
  A 27.67 7.43 90.0 0 0 225.0300 209.4700
  A 27.67 7.43 90.0 0 0 217.6000 237.1400
  A 27.67 7.43 90.0 0 0 225.0300 264.8100
  Z
  M 274.8000 264.7900
  A 27.64 7.44 90.0 0 0 282.2400 237.1500
  A 27.64 7.44 90.0 0 0 274.8000 209.5100
  A 27.64 7.44 90.0 0 0 267.3600 237.1500
  A 27.64 7.44 90.0 0 0 274.8000 264.7900
  Z
  M 304.38 268.88
  Q 302.19 269.85 304.14 271.51
  Q 304.45 279.09 310.21 284.05
  C 302.80 321.26 264.41 343.51 228.44 329.90
  C 209.54 322.75 194.30 305.90 190.38 285.41
  Q 196.83 279.86 195.75 271.29
  Q 197.17 269.84 195.39 268.68
  C 192.34 256.01 179.81 250.37 169.21 258.03
  C 157.07 266.80 161.79 289.92 178.39 290.63
  Q 183.26 290.83 188.01 288.66
  C 206.14 353.81 297.47 351.82 312.79 286.25
  C 326.33 292.17 338.96 281.69 337.27 267.53
  C 335.65 253.96 320.40 246.98 309.69 256.68
  Q 304.00 261.83 304.38 268.88
  Z"
/>
<g fill="#000000">
<ellipse cx="0.00" cy="0.00" transform="translate(225.03,237.14) rotate(90.0)" rx="27.67" ry="7.43"/>
<ellipse cx="0.00" cy="0.00" transform="translate(274.80,237.15) rotate(90.0)" rx="27.64" ry="7.44"/>
<path d="
  M 195.39 268.68
  Q 197.17 269.84 195.75 271.29
  L 189.28 272.88
  A 0.72 0.62 83.9 0 0 188.81 273.56
  Q 188.83 279.40 190.38 285.41
  C 194.30 305.90 209.54 322.75 228.44 329.90
  C 264.41 343.51 302.80 321.26 310.21 284.05
  Q 311.31 278.93 311.20 273.81
  A 0.86 0.84 -77.2 0 0 310.75 273.07
  Q 307.80 271.53 304.14 271.51
  Q 302.19 269.85 304.38 268.88
  Q 316.95 269.66 321.75 280.67
  C 322.28 281.89 321.89 283.52 320.21 282.93
  A 1.24 1.15 -0.3 0 1 319.49 282.27
  Q 318.09 279.02 315.84 276.46
  Q 314.32 274.73 314.01 277.03
  L 312.79 286.25
  C 297.47 351.82 206.14 353.81 188.01 288.66
  L 186.05 275.33
  Q 185.93 274.50 185.32 275.07
  Q 182.10 278.06 180.34 282.08
  A 1.65 1.09 -83.2 0 1 179.68 282.86
  C 177.76 283.82 177.53 281.71 178.08 280.50
  Q 182.96 269.77 195.39 268.68
  Z"
/>
</g>
<g fill="#ff914d">
<path d="
  M 312.79 286.25
  L 314.01 277.03
  Q 314.32 274.73 315.84 276.46
  Q 318.09 279.02 319.49 282.27
  A 1.24 1.15 -0.3 0 0 320.21 282.93
  C 321.89 283.52 322.28 281.89 321.75 280.67
  Q 316.95 269.66 304.38 268.88
  Q 304.00 261.83 309.69 256.68
  C 320.40 246.98 335.65 253.96 337.27 267.53
  C 338.96 281.69 326.33 292.17 312.79 286.25
  Z"
/>
<path d="
  M 195.39 268.68
  Q 182.96 269.77 178.08 280.50
  C 177.53 281.71 177.76 283.82 179.68 282.86
  A 1.65 1.09 -83.2 0 0 180.34 282.08
  Q 182.10 278.06 185.32 275.07
  Q 185.93 274.50 186.05 275.33
  L 188.01 288.66
  Q 183.26 290.83 178.39 290.63
  C 161.79 289.92 157.07 266.80 169.21 258.03
  C 179.81 250.37 192.34 256.01 195.39 268.68
  Z"
/>
<path d="
  M 195.75 271.29
  Q 196.83 279.86 190.38 285.41
  Q 188.83 279.40 188.81 273.56
  A 0.72 0.62 83.9 0 1 189.28 272.88
  L 195.75 271.29
  Z"
/>
<path d="
  M 304.14 271.51
  Q 307.80 271.53 310.75 273.07
  A 0.86 0.84 -77.2 0 1 311.20 273.81
  Q 311.31 278.93 310.21 284.05
  Q 304.45 279.09 304.14 271.51
  Z"
/>
</g>
<g fill="#ebebff">
<path d="
  M 290.81 51.68
  L 292.06 52.14
  A 1.51 0.88 6.4 0 1 292.80 52.69
  Q 299.98 64.90 306.22 77.63
  Q 306.58 78.89 305.79 80.10
  A 0.31 0.29 49.0 0 1 305.27 80.05
  L 290.81 51.68
  Z"
/>
<path d="
  M 226.54 54.25
  Q 228.27 54.41 228.95 55.55
  Q 242.07 77.47 255.31 99.29
  Q 258.13 103.95 258.24 106.83
  C 258.42 111.43 255.77 115.32 251.43 116.97
  Q 244.41 119.66 239.76 112.73
  C 249.98 114.32 257.37 105.35 251.84 96.20
  Q 239.17 75.24 226.54 54.25
  Z"
/>
<path d="
  M 330.98 60.30
  Q 336.96 62.72 335.42 69.94
  Q 329.22 99.00 324.99 116.99
  C 323.65 122.71 320.26 127.40 314.02 127.31
  Q 309.21 127.25 306.59 122.43
  C 316.08 123.49 318.89 118.27 320.85 109.71
  Q 325.96 87.42 330.75 64.99
  Q 331.05 63.58 330.98 60.30
  Z"
/>
<path d="
  M 169.50 69.79
  L 170.50 69.74
  A 0.99 0.79 68.7 0 1 171.27 70.19
  C 172.15 71.52 173.37 73.03 174.00 74.44
  Q 183.47 95.73 192.76 117.11
  C 195.48 123.39 195.00 129.41 188.43 132.45
  Q 180.95 135.91 175.77 128.49
  Q 181.93 129.69 185.93 126.40
  C 191.07 122.17 190.22 116.98 187.62 111.10
  Q 178.50 90.47 169.50 69.79
  Z"
/>
<path d="
  M 218.75 78.25
  Q 218.94 77.40 219.37 78.16
  L 225.56 88.94
  A 0.53 0.48 69.8 0 1 225.24 89.72
  L 216.50 91.00
  A 0.43 0.42 1.7 0 1 216.01 90.50
  L 218.75 78.25
  Z"
/>
<path d="
  M 288.62 94.13
  Q 286.70 100.24 284.52 110.25
  C 283.46 115.11 279.30 118.47 274.36 118.46
  Q 269.12 118.45 266.18 113.33
  C 276.30 115.27 278.90 109.55 280.94 100.71
  Q 282.58 93.59 284.17 86.51
  Q 284.38 85.57 284.81 86.42
  L 288.62 94.13
  Z"
/>
<path d="
  M 134.52 87.52
  Q 142.00 92.90 138.21 100.15
  Q 137.16 102.18 133.81 104.98
  Q 130.52 107.72 127.57 110.99
  L 123.46 105.66
  A 0.53 0.50 -38.7 0 1 123.56 104.94
  C 129.45 100.14 135.90 96.92 134.52 87.52
  Z"
/>
<path d="
  M 394.84 92.65
  Q 401.93 96.69 398.95 104.77
  Q 395.46 114.26 391.91 123.78
  L 383.99 128.21
  Q 383.54 128.47 383.73 127.97
  Q 389.03 114.14 394.25 100.29
  Q 395.60 96.72 394.84 92.65
  Z"
/>
<path d="
  M 235.07 109.37
  Q 227.62 111.38 219.98 112.21
  A 1.17 1.16 -85.5 0 0 218.99 113.06
  C 218.17 116.12 217.04 119.32 214.46 121.30
  Q 206.43 127.47 199.55 118.72
  C 208.27 120.38 212.32 115.71 214.29 108.14
  A 0.90 0.80 1.4 0 1 215.01 107.53
  L 231.74 104.97
  A 0.83 0.78 68.8 0 1 232.54 105.35
  L 235.07 109.37
  Z"
/>
<path d="
  M 110.75 123.71
  C 104.30 129.09 95.26 137.74 88.37 126.88
  C 96.23 128.70 100.63 123.28 106.09 118.96
  A 0.55 0.53 -39.4 0 1 106.83 119.02
  L 110.75 123.71
  Z"
/>
<path d="
  M 425.75 119.55
  Q 434.17 125.97 428.77 133.60
  Q 427.24 135.77 423.92 137.49
  Q 402.05 148.85 379.95 159.74
  Q 374.60 162.38 371.87 162.36
  Q 366.88 162.32 363.93 157.36
  Q 369.42 157.91 370.72 157.26
  Q 395.14 145.05 419.48 132.71
  Q 427.34 128.72 425.75 119.55
  Z"
/>
<path d="
  M 149.25 138.48
  C 157.32 144.94 155.51 155.52 145.65 157.39
  Q 139.83 158.49 135.47 152.76
  Q 142.92 153.75 146.81 149.81
  Q 150.99 145.58 149.25 138.48
  Z"
/>
<path d="
  M 81.29 145.75
  Q 88.74 148.81 84.86 157.15
  Q 77.26 161.16 69.35 165.57
  C 62.18 169.56 63.26 161.64 68.21 160.43
  C 75.86 158.55 81.29 154.15 81.29 145.75
  Z"
/>
<path d="
  M 447.45 147.49
  Q 451.11 149.63 453.06 154.44
  C 456.37 162.60 452.86 165.71 446.19 170.24
  Q 417.49 189.74 409.50 195.00
  Q 400.60 200.86 394.91 192.35
  Q 400.54 193.05 402.79 191.55
  Q 421.69 178.91 440.56 166.12
  C 448.28 160.90 452.80 156.68 447.45 147.49
  Z"
/>
<path d="
  M 112.86 163.94
  Q 118.96 168.27 119.46 176.76
  C 120.21 189.63 112.28 202.85 100.67 208.35
  Q 90.21 213.30 83.57 204.80
  Q 92.87 206.71 100.07 201.34
  C 111.67 192.68 118.25 177.92 112.86 163.94
  Z"
/>
<path d="
  M 78.23 190.72
  Q 65.29 195.32 56.64 185.45
  C 70.23 190.68 80.95 182.75 92.03 175.62
  A 1.16 0.98 -49.6 0 1 92.95 175.47
  C 96.65 176.68 91.91 181.81 90.18 183.20
  C 87.11 185.69 82.04 186.61 78.23 190.72
  Z"
/>
<path d="
  M 421.25 246.29
  C 427.41 248.03 434.04 244.49 435.16 238.18
  C 436.11 232.83 430.80 221.40 428.91 216.00
  A 0.50 0.50 -19.1 0 1 429.22 215.37
  Q 447.41 208.85 465.44 202.26
  C 473.48 199.31 472.47 191.18 470.29 184.75
  L 471.76 184.64
  A 0.92 0.62 -12.5 0 1 472.52 184.94
  C 475.58 189.76 478.48 198.41 474.90 203.48
  C 472.78 206.48 469.89 207.01 466.62 208.22
  Q 450.46 214.20 434.06 220.07
  A 0.77 0.76 -19.8 0 0 433.60 221.04
  Q 436.36 228.65 439.12 236.49
  C 444.16 250.79 424.30 256.48 421.25 246.29
  Z"
/>
<path d="
  M 28.25 215.04
  Q 32.96 215.90 38.43 217.85
  Q 51.67 222.56 77.89 231.59
  C 87.24 234.80 95.13 228.67 92.89 218.62
  Q 100.85 223.23 96.99 231.50
  C 93.98 237.93 87.84 238.04 81.55 235.86
  Q 60.66 228.63 39.78 221.34
  C 36.25 220.11 28.14 220.29 28.25 215.04
  Z"
/>
<path d="
  M 68.20 271.86
  Q 66.56 272.57 64.25 272.03
  A 0.69 0.48 9.5 0 1 63.70 271.49
  L 63.99 266.50
  A 1.07 0.53 -24.2 0 1 64.53 265.84
  Q 71.45 261.54 78.30 257.19
  C 83.58 253.83 86.13 250.77 84.79 244.50
  Q 87.15 244.27 88.33 246.71
  C 92.45 255.29 87.96 258.79 80.83 263.20
  Q 74.33 267.22 68.20 271.86
  Z"
/>
<path d="
  M 489.04 254.25
  Q 493.20 254.67 493.63 258.81
  C 494.57 267.95 493.51 275.73 482.56 276.52
  C 470.14 277.41 457.96 277.52 445.77 277.97
  A 0.85 0.84 88.0 0 0 444.96 278.85
  C 445.23 285.01 446.61 295.48 444.50 300.48
  Q 442.59 305.00 437.38 307.20
  Q 435.15 305.41 432.64 303.57
  C 432.24 303.28 427.46 302.21 432.40 301.88
  C 443.93 301.10 440.55 281.21 440.17 274.10
  A 0.90 0.89 -2.8 0 1 441.04 273.15
  Q 459.85 272.51 479.00 271.75
  C 489.07 271.35 489.24 262.28 489.04 254.25
  Z"
/>
<path d="
  M 45.75 260.46
  Q 36.13 260.59 35.75 270.21
  Q 33.47 270.51 31.25 269.88
  A 0.62 0.60 -79.2 0 1 30.82 269.23
  C 31.08 265.98 30.86 261.73 32.71 259.22
  C 36.09 254.63 43.32 254.74 45.75 260.46
  Z"
/>
<path d="
  M 82.19 279.58
  Q 86.84 282.09 87.31 286.73
  C 88.11 294.61 81.84 298.79 74.24 298.23
  C 56.01 296.90 37.50 294.81 19.23 295.03
  Q 15.70 295.07 16.03 290.13
  Q 48.49 291.39 67.18 293.34
  C 72.37 293.88 77.23 293.89 80.52 289.49
  Q 83.54 285.46 82.19 279.58
  Z"
/>
<path d="
  M 85.41 315.66
  Q 94.97 325.33 94.87 338.57
  C 94.77 354.11 85.74 366.83 71.32 372.26
  Q 52.92 379.18 36.28 364.85
  Q 53.23 373.34 68.56 366.71
  C 89.12 357.82 94.91 335.89 85.41 315.66
  Z"
/>
<path d="
  M 43.68 319.08
  Q 49.01 322.13 48.54 327.74
  Q 48.43 329.05 46.71 332.96
  Q 44.17 338.74 45.75 345.21
  C 34.95 336.63 44.52 328.84 43.68 319.08
  Z"
/>
<path d="
  M 437.64 331.63
  L 447.63 339.53
  A 0.30 0.30 -28.4 0 1 447.46 340.07
  L 434.76 341.04
  A 0.30 0.30 5.9 0 1 434.45 340.66
  L 437.17 331.77
  A 0.30 0.30 -62.3 0 1 437.64 331.63
  Z"
/>
<path d="
  M 479.79 342.75
  Q 484.36 344.21 484.42 348.38
  C 484.58 359.29 477.25 360.77 468.26 361.70
  Q 445.55 364.06 422.80 366.17
  C 419.30 366.50 416.63 366.18 413.92 364.37
  Q 411.95 363.05 412.03 361.74
  Q 445.64 359.16 468.27 356.51
  Q 480.03 355.13 479.79 342.75
  Z"
/>
</g>
</svg>
